<svg xmlns="http://www.w3.org/2000/svg" xmlns:xlink="http://www.w3.org/1999/xlink" width="2000" zoomAndPan="magnify" viewBox="0 0 1500 374.999991" height="500" preserveAspectRatio="xMidYMid meet" version="1.0"><defs><g/><clipPath id="id1"><path d="M 0 0 L 1499.773438 0 L 1499.773438 375 L 0 375 Z M 0 0 " clip-rule="nonzero"/></clipPath><linearGradient x1="1" gradientTransform="matrix(1550.999963, 0, 0, 1550.999963, -51.227661, -438.113819)" y1="0.5" x2="0.0330288" gradientUnits="userSpaceOnUse" y2="0.5" id="id2"><stop stop-opacity="1" stop-color="rgb(23.098755%, 47.099304%, 68.199158%)" offset="0"/><stop stop-opacity="1" stop-color="rgb(23.13385%, 47.238159%, 68.264771%)" offset="0.015625"/><stop stop-opacity="1" stop-color="rgb(23.205566%, 47.515869%, 68.395996%)" offset="0.03125"/><stop stop-opacity="1" stop-color="rgb(23.275757%, 47.793579%, 68.527222%)" offset="0.046875"/><stop stop-opacity="1" stop-color="rgb(23.347473%, 48.072815%, 68.658447%)" offset="0.0625"/><stop stop-opacity="1" stop-color="rgb(23.417664%, 48.350525%, 68.791199%)" offset="0.078125"/><stop stop-opacity="1" stop-color="rgb(23.48938%, 48.628235%, 68.922424%)" offset="0.09375"/><stop stop-opacity="1" stop-color="rgb(23.561096%, 48.905945%, 69.05365%)" offset="0.109375"/><stop stop-opacity="1" stop-color="rgb(23.631287%, 49.183655%, 69.184875%)" offset="0.125"/><stop stop-opacity="1" stop-color="rgb(23.703003%, 49.461365%, 69.316101%)" offset="0.140625"/><stop stop-opacity="1" stop-color="rgb(23.773193%, 49.740601%, 69.447327%)" offset="0.15625"/><stop stop-opacity="1" stop-color="rgb(23.84491%, 50.018311%, 69.580078%)" offset="0.171875"/><stop stop-opacity="1" stop-color="rgb(23.9151%, 50.296021%, 69.711304%)" offset="0.1875"/><stop stop-opacity="1" stop-color="rgb(23.986816%, 50.57373%, 69.842529%)" offset="0.203125"/><stop stop-opacity="1" stop-color="rgb(24.057007%, 50.85144%, 69.973755%)" offset="0.21875"/><stop stop-opacity="1" stop-color="rgb(24.128723%, 51.130676%, 70.10498%)" offset="0.234375"/><stop stop-opacity="1" stop-color="rgb(24.198914%, 51.408386%, 70.236206%)" offset="0.25"/><stop stop-opacity="1" stop-color="rgb(24.27063%, 51.686096%, 70.367432%)" offset="0.265625"/><stop stop-opacity="1" stop-color="rgb(24.34082%, 51.963806%, 70.500183%)" offset="0.28125"/><stop stop-opacity="1" stop-color="rgb(24.412537%, 52.241516%, 70.631409%)" offset="0.296875"/><stop stop-opacity="1" stop-color="rgb(24.484253%, 52.520752%, 70.762634%)" offset="0.3125"/><stop stop-opacity="1" stop-color="rgb(24.554443%, 52.798462%, 70.89386%)" offset="0.328125"/><stop stop-opacity="1" stop-color="rgb(24.62616%, 53.076172%, 71.025085%)" offset="0.34375"/><stop stop-opacity="1" stop-color="rgb(24.69635%, 53.353882%, 71.156311%)" offset="0.359375"/><stop stop-opacity="1" stop-color="rgb(24.768066%, 53.631592%, 71.287537%)" offset="0.375"/><stop stop-opacity="1" stop-color="rgb(24.838257%, 53.910828%, 71.420288%)" offset="0.390625"/><stop stop-opacity="1" stop-color="rgb(24.909973%, 54.188538%, 71.551514%)" offset="0.40625"/><stop stop-opacity="1" stop-color="rgb(24.980164%, 54.466248%, 71.682739%)" offset="0.421875"/><stop stop-opacity="1" stop-color="rgb(25.05188%, 54.743958%, 71.813965%)" offset="0.4375"/><stop stop-opacity="1" stop-color="rgb(25.12207%, 55.021667%, 71.94519%)" offset="0.453125"/><stop stop-opacity="1" stop-color="rgb(25.193787%, 55.300903%, 72.076416%)" offset="0.46875"/><stop stop-opacity="1" stop-color="rgb(25.263977%, 55.578613%, 72.207642%)" offset="0.484375"/><stop stop-opacity="1" stop-color="rgb(25.335693%, 55.856323%, 72.340393%)" offset="0.5"/><stop stop-opacity="1" stop-color="rgb(25.40741%, 56.134033%, 72.471619%)" offset="0.515625"/><stop stop-opacity="1" stop-color="rgb(25.4776%, 56.411743%, 72.602844%)" offset="0.53125"/><stop stop-opacity="1" stop-color="rgb(25.549316%, 56.690979%, 72.73407%)" offset="0.546875"/><stop stop-opacity="1" stop-color="rgb(25.619507%, 56.968689%, 72.865295%)" offset="0.5625"/><stop stop-opacity="1" stop-color="rgb(25.691223%, 57.246399%, 72.996521%)" offset="0.578125"/><stop stop-opacity="1" stop-color="rgb(25.761414%, 57.524109%, 73.127747%)" offset="0.59375"/><stop stop-opacity="1" stop-color="rgb(25.83313%, 57.801819%, 73.260498%)" offset="0.609375"/><stop stop-opacity="1" stop-color="rgb(25.90332%, 58.079529%, 73.391724%)" offset="0.625"/><stop stop-opacity="1" stop-color="rgb(25.975037%, 58.358765%, 73.522949%)" offset="0.640625"/><stop stop-opacity="1" stop-color="rgb(26.045227%, 58.636475%, 73.654175%)" offset="0.65625"/><stop stop-opacity="1" stop-color="rgb(26.116943%, 58.914185%, 73.7854%)" offset="0.671875"/><stop stop-opacity="1" stop-color="rgb(26.187134%, 59.191895%, 73.916626%)" offset="0.6875"/><stop stop-opacity="1" stop-color="rgb(26.25885%, 59.469604%, 74.047852%)" offset="0.703125"/><stop stop-opacity="1" stop-color="rgb(26.330566%, 59.74884%, 74.180603%)" offset="0.71875"/><stop stop-opacity="1" stop-color="rgb(26.400757%, 60.02655%, 74.311829%)" offset="0.734375"/><stop stop-opacity="1" stop-color="rgb(26.472473%, 60.30426%, 74.443054%)" offset="0.75"/><stop stop-opacity="1" stop-color="rgb(26.542664%, 60.58197%, 74.57428%)" offset="0.765625"/><stop stop-opacity="1" stop-color="rgb(26.61438%, 60.85968%, 74.705505%)" offset="0.78125"/><stop stop-opacity="1" stop-color="rgb(26.68457%, 61.138916%, 74.836731%)" offset="0.796875"/><stop stop-opacity="1" stop-color="rgb(26.756287%, 61.416626%, 74.967957%)" offset="0.8125"/><stop stop-opacity="1" stop-color="rgb(26.826477%, 61.694336%, 75.100708%)" offset="0.828125"/><stop stop-opacity="1" stop-color="rgb(26.898193%, 61.972046%, 75.231934%)" offset="0.84375"/><stop stop-opacity="1" stop-color="rgb(26.968384%, 62.249756%, 75.363159%)" offset="0.859375"/><stop stop-opacity="1" stop-color="rgb(27.0401%, 62.528992%, 75.494385%)" offset="0.875"/><stop stop-opacity="1" stop-color="rgb(27.110291%, 62.806702%, 75.62561%)" offset="0.890625"/><stop stop-opacity="1" stop-color="rgb(27.182007%, 63.084412%, 75.756836%)" offset="0.90625"/><stop stop-opacity="1" stop-color="rgb(27.253723%, 63.362122%, 75.888062%)" offset="0.921875"/><stop stop-opacity="1" stop-color="rgb(27.323914%, 63.639832%, 76.020813%)" offset="0.9375"/><stop stop-opacity="1" stop-color="rgb(27.39563%, 63.919067%, 76.152039%)" offset="0.953125"/><stop stop-opacity="1" stop-color="rgb(27.46582%, 64.196777%, 76.283264%)" offset="0.96875"/><stop stop-opacity="1" stop-color="rgb(27.537537%, 64.474487%, 76.41449%)" offset="0.984375"/><stop stop-opacity="1" stop-color="rgb(27.607727%, 64.752197%, 76.545715%)" offset="1"/></linearGradient><clipPath id="id3"><path d="M 1035.363281 130.582031 L 1115 130.582031 L 1115 244.582031 L 1035.363281 244.582031 Z M 1035.363281 130.582031 " clip-rule="nonzero"/></clipPath><clipPath id="id4"><path d="M 1060 130.582031 L 1141 130.582031 L 1141 244.582031 L 1060 244.582031 Z M 1060 130.582031 " clip-rule="nonzero"/></clipPath><clipPath id="id5"><path d="M 1085 130.582031 L 1165.863281 130.582031 L 1165.863281 244.582031 L 1085 244.582031 Z M 1085 130.582031 " clip-rule="nonzero"/></clipPath><clipPath id="id6"><path d="M 400.667969 114.5625 L 530.417969 114.5625 L 530.417969 244.3125 L 400.667969 244.3125 Z M 400.667969 114.5625 " clip-rule="nonzero"/></clipPath></defs><rect x="-150" width="1800" fill="#ffffff" y="-37.499999" height="449.999989" fill-opacity="1"/><rect x="-150" width="1800" fill="#ffffff" y="-37.499999" height="449.999989" fill-opacity="1"/><rect x="-150" width="1800" fill="#ffffff" y="-37.499999" height="449.999989" fill-opacity="1"/><g clip-path="url(#id1)"><path fill="url(#id2)" d="M 0 0 L 0 375 L 1499.773438 375 L 1499.773438 0 Z M 0 0 " fill-rule="nonzero"/></g><g clip-path="url(#id3)"><path fill="#ffffff" d="M 1035.453125 130.71875 L 1035.363281 244.398438 L 1114.394531 187.671875 Z M 1035.453125 130.71875 " fill-opacity="1" fill-rule="nonzero"/></g><g clip-path="url(#id4)"><path fill="#ffffff" d="M 1062.023438 132.386719 L 1138.664062 187.671875 L 1061.980469 242.683594 L 1062.023438 132.386719 M 1062.023438 130.585938 C 1061.753906 130.585938 1061.484375 130.628906 1061.210938 130.765625 C 1060.625 131.082031 1060.21875 131.710938 1060.21875 132.386719 L 1060.175781 242.683594 C 1060.175781 243.359375 1060.535156 243.992188 1061.167969 244.308594 C 1061.4375 244.441406 1061.707031 244.488281 1061.980469 244.488281 C 1062.339844 244.488281 1062.699219 244.351562 1063.015625 244.125 L 1139.703125 189.113281 C 1140.152344 188.753906 1140.46875 188.210938 1140.46875 187.671875 C 1140.46875 187.085938 1140.199219 186.542969 1139.703125 186.230469 L 1063.105469 130.945312 C 1062.789062 130.71875 1062.429688 130.585938 1062.023438 130.585938 Z M 1062.023438 130.585938 " fill-opacity="1" fill-rule="nonzero"/></g><g clip-path="url(#id5)"><path fill="#ffffff" d="M 1087.464844 132.476562 L 1164.058594 187.761719 L 1087.375 242.773438 L 1087.464844 132.476562 M 1087.464844 130.675781 C 1087.195312 130.675781 1086.925781 130.71875 1086.652344 130.855469 C 1086.066406 131.171875 1085.660156 131.800781 1085.660156 132.476562 L 1085.570312 242.773438 C 1085.570312 243.449219 1085.933594 244.082031 1086.5625 244.398438 C 1086.832031 244.53125 1087.105469 244.578125 1087.375 244.578125 C 1087.734375 244.578125 1088.097656 244.441406 1088.414062 244.214844 L 1165.097656 189.203125 C 1165.550781 188.84375 1165.863281 188.300781 1165.863281 187.761719 C 1165.863281 187.175781 1165.59375 186.632812 1165.097656 186.320312 L 1088.546875 131.035156 C 1088.230469 130.808594 1087.828125 130.675781 1087.464844 130.675781 Z M 1087.464844 130.675781 " fill-opacity="1" fill-rule="nonzero"/></g><path fill="#ffffff" d="M 471.824219 148.046875 L 476.007812 148.046875 L 476.007812 152.234375 L 471.824219 152.234375 Z M 471.824219 148.046875 " fill-opacity="1" fill-rule="nonzero"/><path fill="#ffffff" d="M 446.710938 122.933594 L 459.265625 122.933594 L 459.265625 127.121094 L 446.710938 127.121094 Z M 446.710938 122.933594 " fill-opacity="1" fill-rule="nonzero"/><path fill="#ffffff" d="M 446.710938 131.304688 L 459.265625 131.304688 L 459.265625 135.492188 L 446.710938 135.492188 Z M 446.710938 131.304688 " fill-opacity="1" fill-rule="nonzero"/><path fill="#ffffff" d="M 446.710938 139.675781 L 459.265625 139.675781 L 459.265625 143.863281 L 446.710938 143.863281 Z M 446.710938 139.675781 " fill-opacity="1" fill-rule="nonzero"/><path fill="#ffffff" d="M 446.710938 148.046875 L 459.265625 148.046875 L 459.265625 152.234375 L 446.710938 152.234375 Z M 446.710938 148.046875 " fill-opacity="1" fill-rule="nonzero"/><g clip-path="url(#id6)"><path fill="#ffffff" d="M 524.140625 152.234375 C 527.601562 152.234375 530.417969 149.417969 530.417969 145.953125 L 530.417969 137.582031 C 530.417969 134.121094 527.601562 131.304688 524.140625 131.304688 L 501.121094 131.304688 L 501.121094 122.933594 C 501.121094 120.625 499.242188 118.75 496.9375 118.75 L 492.75 118.75 C 492.75 116.441406 490.875 114.5625 488.566406 114.5625 L 470.597656 114.5625 C 468.777344 114.5625 467.035156 115.085938 465.542969 116.0625 C 464.058594 115.085938 462.320312 114.5625 460.503906 114.5625 L 442.523438 114.5625 C 440.214844 114.5625 438.339844 116.441406 438.339844 118.75 L 434.152344 118.75 C 431.84375 118.75 429.96875 120.625 429.96875 122.933594 L 429.96875 139.742188 C 419.476562 148.253906 412.445312 160.074219 410 173.277344 C 404.769531 173.847656 400.667969 178.242188 400.667969 183.625 C 400.667969 189.011719 404.777344 193.410156 410.015625 193.976562 C 410.695312 197.640625 411.738281 201.226562 413.128906 204.6875 C 410.660156 206.601562 409.039062 209.5625 409.039062 212.921875 C 409.039062 218.691406 413.734375 223.386719 419.503906 223.386719 C 421.238281 223.386719 422.847656 222.925781 424.285156 222.175781 C 427.382812 225.488281 430.847656 228.40625 434.632812 230.882812 C 434.351562 231.832031 434.152344 232.8125 434.152344 233.851562 C 434.152344 239.621094 438.847656 244.3125 444.617188 244.3125 C 448.566406 244.3125 451.972656 242.089844 453.753906 238.851562 C 455.574219 239.238281 457.414062 239.53125 459.265625 239.734375 L 459.265625 240.125 C 459.265625 242.433594 461.144531 244.3125 463.453125 244.3125 L 467.636719 244.3125 C 469.945312 244.3125 471.824219 242.433594 471.824219 240.125 L 471.824219 239.734375 C 473.675781 239.53125 475.515625 239.238281 477.335938 238.851562 C 479.117188 242.085938 482.523438 244.3125 486.472656 244.3125 C 492.242188 244.3125 496.9375 239.621094 496.9375 233.851562 C 496.9375 232.8125 496.738281 231.832031 496.457031 230.882812 C 500.242188 228.40625 503.707031 225.488281 506.804688 222.175781 C 508.242188 222.925781 509.855469 223.386719 511.585938 223.386719 C 517.355469 223.386719 522.046875 218.691406 522.046875 212.921875 C 522.046875 209.5625 520.429688 206.601562 517.960938 204.6875 C 519.351562 201.226562 520.394531 197.640625 521.074219 193.976562 C 526.3125 193.410156 530.417969 189.011719 530.417969 183.625 C 530.417969 178.238281 526.3125 173.839844 521.074219 173.273438 C 519.679688 165.765625 516.765625 158.589844 512.515625 152.234375 Z M 492.75 148.046875 L 492.75 143.863281 L 513.675781 143.863281 L 513.675781 148.046875 Z M 480.195312 131.304688 L 476.007812 131.304688 L 476.007812 127.121094 L 480.195312 127.121094 Z M 476.609375 142.640625 C 476.25 142.503906 476.007812 142.15625 476.007812 141.769531 C 476.007812 141.382812 476.25 141.035156 476.609375 140.902344 L 480.195312 139.558594 L 480.195312 143.984375 Z M 484.378906 137.988281 L 488.566406 136.417969 L 488.566406 147.121094 L 484.378906 145.550781 Z M 513.675781 139.675781 L 492.75 139.675781 L 492.75 135.492188 L 513.675781 135.492188 Z M 526.234375 137.582031 L 526.234375 145.953125 C 526.234375 147.109375 525.296875 148.046875 524.140625 148.046875 L 517.863281 148.046875 L 517.863281 135.492188 L 524.140625 135.492188 C 525.296875 135.492188 526.234375 136.429688 526.234375 137.582031 Z M 496.9375 122.933594 L 496.9375 131.304688 L 492.75 131.304688 L 492.75 122.933594 Z M 488.566406 118.75 L 488.566406 131.949219 L 484.378906 133.519531 L 484.378906 122.933594 L 471.824219 122.933594 L 471.824219 135.492188 L 479.117188 135.492188 L 475.140625 136.984375 C 473.15625 137.726562 471.824219 139.652344 471.824219 141.769531 C 471.824219 143.886719 473.15625 145.808594 475.140625 146.554688 L 488.566406 151.589844 L 488.566406 156.417969 L 467.636719 156.421875 L 467.636719 119.722656 C 468.496094 119.097656 469.515625 118.75 470.597656 118.75 Z M 442.523438 118.75 L 460.503906 118.746094 C 461.578125 118.746094 462.597656 119.097656 463.453125 119.722656 L 463.453125 156.421875 L 442.523438 156.421875 Z M 434.152344 122.933594 L 438.339844 122.933594 L 438.339844 156.417969 C 438.339844 158.726562 440.214844 160.605469 442.523438 160.605469 L 488.566406 160.605469 C 490.875 160.605469 492.75 158.726562 492.75 156.417969 L 492.75 152.234375 L 496.9375 152.234375 L 496.9375 164.789062 L 473.050781 164.789062 L 471.210938 166.628906 C 469.71875 168.121094 467.652344 168.976562 465.542969 168.976562 C 463.433594 168.976562 461.371094 168.121094 459.878906 166.628906 L 458.039062 164.789062 L 434.152344 164.789062 Z M 492.75 175.253906 C 492.75 190.253906 480.546875 202.457031 465.542969 202.457031 C 450.542969 202.457031 438.339844 190.253906 438.339844 175.253906 C 438.339844 173.121094 438.59375 171.023438 439.078125 168.976562 L 443.414062 168.976562 C 442.839844 171.007812 442.523438 173.105469 442.523438 175.253906 C 442.523438 187.945312 452.851562 198.273438 465.542969 198.273438 C 478.234375 198.273438 488.5625 187.945312 488.5625 175.253906 C 488.5625 173.105469 488.246094 171.007812 487.667969 168.976562 L 492.007812 168.976562 C 492.496094 171.023438 492.75 173.121094 492.75 175.253906 Z M 467.636719 210.828125 L 463.453125 210.828125 L 463.453125 206.539062 C 464.148438 206.582031 464.835938 206.644531 465.542969 206.644531 C 466.253906 206.644531 466.941406 206.582031 467.636719 206.539062 Z M 483.285156 168.976562 C 484 170.984375 484.378906 173.085938 484.378906 175.253906 C 484.378906 185.640625 475.929688 194.089844 465.542969 194.089844 C 455.160156 194.089844 446.710938 185.640625 446.710938 175.253906 C 446.710938 173.085938 447.089844 170.984375 447.800781 168.976562 L 456.308594 168.976562 L 456.921875 169.589844 C 459.191406 171.859375 462.335938 173.160156 465.542969 173.160156 C 468.753906 173.160156 471.898438 171.859375 474.167969 169.589844 L 474.78125 168.976562 Z M 404.855469 183.625 C 404.855469 180.164062 407.671875 177.347656 411.132812 177.347656 C 414.59375 177.347656 417.410156 180.164062 417.410156 183.625 C 417.410156 187.085938 414.59375 189.902344 411.132812 189.902344 C 407.671875 189.902344 404.855469 187.085938 404.855469 183.625 Z M 413.226562 212.921875 C 413.226562 209.460938 416.042969 206.644531 419.503906 206.644531 C 422.964844 206.644531 425.78125 209.460938 425.78125 212.921875 C 425.78125 216.382812 422.964844 219.199219 419.503906 219.199219 C 416.042969 219.199219 413.226562 216.382812 413.226562 212.921875 Z M 444.617188 240.128906 C 441.15625 240.128906 438.339844 237.3125 438.339844 233.851562 C 438.339844 230.390625 441.15625 227.570312 444.617188 227.570312 C 448.078125 227.570312 450.894531 230.390625 450.894531 233.851562 C 450.894531 237.3125 448.078125 240.128906 444.617188 240.128906 Z M 454.984375 234.832031 C 455.011719 234.503906 455.082031 234.183594 455.082031 233.851562 C 455.082031 228.082031 450.386719 223.386719 444.617188 223.386719 C 441.394531 223.386719 438.542969 224.882812 436.621094 227.183594 C 433.316406 224.984375 430.277344 222.421875 427.546875 219.535156 C 429.035156 217.726562 429.96875 215.441406 429.96875 212.921875 C 429.96875 207.152344 425.273438 202.457031 419.503906 202.457031 C 418.597656 202.457031 417.730469 202.613281 416.894531 202.828125 C 415.710938 199.835938 414.808594 196.738281 414.199219 193.578125 C 418.464844 192.257812 421.597656 188.320312 421.597656 183.625 C 421.597656 178.9375 418.480469 175.007812 414.226562 173.679688 C 416.328125 162.746094 421.804688 152.855469 429.96875 145.292969 L 429.96875 164.789062 C 429.96875 167.097656 431.84375 168.976562 434.152344 168.976562 L 434.796875 168.976562 C 434.378906 171.03125 434.152344 173.132812 434.152344 175.253906 C 434.152344 190.414062 444.953125 203.09375 459.265625 206.011719 L 459.265625 235.527344 C 457.828125 235.351562 456.402344 235.121094 454.984375 234.832031 Z M 463.453125 240.128906 L 463.453125 215.015625 L 467.636719 215.015625 L 467.636719 240.128906 Z M 486.472656 240.128906 C 483.011719 240.128906 480.195312 237.3125 480.195312 233.851562 C 480.195312 230.390625 483.011719 227.570312 486.472656 227.570312 C 489.933594 227.570312 492.75 230.390625 492.75 233.851562 C 492.75 237.3125 489.933594 240.128906 486.472656 240.128906 Z M 511.585938 219.199219 C 508.125 219.199219 505.308594 216.382812 505.308594 212.921875 C 505.308594 209.460938 508.125 206.644531 511.585938 206.644531 C 515.046875 206.644531 517.863281 209.460938 517.863281 212.921875 C 517.863281 216.382812 515.046875 219.199219 511.585938 219.199219 Z M 526.234375 183.625 C 526.234375 187.085938 523.417969 189.902344 519.957031 189.902344 C 516.496094 189.902344 513.675781 187.085938 513.675781 183.625 C 513.675781 180.164062 516.496094 177.347656 519.957031 177.347656 C 523.417969 177.347656 526.234375 180.164062 526.234375 183.625 Z M 516.890625 173.671875 C 512.621094 174.992188 509.492188 178.929688 509.492188 183.625 C 509.492188 188.320312 512.621094 192.257812 516.890625 193.578125 C 516.28125 196.738281 515.382812 199.835938 514.199219 202.828125 C 513.359375 202.613281 512.492188 202.457031 511.585938 202.457031 C 505.816406 202.457031 501.125 207.152344 501.125 212.921875 C 501.125 215.441406 502.054688 217.726562 503.542969 219.535156 C 500.8125 222.421875 497.773438 224.984375 494.46875 227.183594 C 492.550781 224.882812 489.695312 223.386719 486.472656 223.386719 C 480.703125 223.386719 476.011719 228.082031 476.011719 233.851562 C 476.011719 234.1875 476.078125 234.503906 476.109375 234.832031 C 474.691406 235.121094 473.261719 235.355469 471.824219 235.527344 L 471.824219 206.011719 C 486.136719 203.09375 496.9375 190.414062 496.9375 175.253906 C 496.9375 173.132812 496.714844 171.03125 496.296875 168.976562 L 496.9375 168.976562 C 499.242188 168.976562 501.121094 167.097656 501.121094 164.789062 L 501.121094 152.234375 L 507.375 152.234375 C 512.136719 158.566406 515.394531 165.921875 516.890625 173.671875 Z M 516.890625 173.671875 " fill-opacity="1" fill-rule="nonzero"/></g><g fill="#ffffff" fill-opacity="1"><g transform="translate(694.77026, 178.319493)"><g><path d="M 38.8125 -29.140625 L 35.578125 -25.90625 L 32.296875 -29.140625 L 35.484375 -32.34375 Z M 43.921875 -21.875 C 46.722656 -21.875 49.035156 -20.984375 50.859375 -19.203125 C 52.679688 -17.429688 53.59375 -15.171875 53.59375 -12.421875 C 53.59375 -11.054688 53.476562 -9.816406 53.25 -8.703125 C 53.03125 -7.597656 52.609375 -5.835938 51.984375 -3.421875 L 49.015625 0 L 26.3125 0 C 25.71875 3.019531 24.40625 5.363281 22.375 7.03125 C 20.351562 8.695312 17.566406 9.53125 14.015625 9.53125 C 10.285156 9.53125 7.332031 8.5625 5.15625 6.625 C 2.988281 4.6875 1.90625 1.828125 1.90625 -1.953125 C 1.90625 -5.117188 2.554688 -8.679688 3.859375 -12.640625 L 6.921875 -11.796875 C 5.890625 -8.753906 5.375 -5.796875 5.375 -2.921875 C 5.394531 -0.148438 6.175781 1.953125 7.71875 3.390625 C 9.257812 4.828125 11.429688 5.546875 14.234375 5.546875 C 17.191406 5.546875 19.390625 4.707031 20.828125 3.03125 C 22.265625 1.363281 22.984375 -1.210938 22.984375 -4.703125 L 22.984375 -21.421875 L 26.703125 -22.046875 L 26.703125 -16.765625 C 31.253906 -18.722656 34.707031 -20.0625 37.0625 -20.78125 C 39.414062 -21.507812 41.703125 -21.875 43.921875 -21.875 Z M 48.359375 -4 C 49.328125 -7.332031 49.8125 -9.960938 49.8125 -11.890625 C 49.78125 -13.660156 49.132812 -15.113281 47.875 -16.25 C 46.625 -17.394531 45.039062 -17.96875 43.125 -17.96875 C 41.34375 -17.96875 39.625 -17.738281 37.96875 -17.28125 C 36.3125 -16.820312 33.34375 -15.820312 29.0625 -14.28125 C 28.726562 -14.164062 28.460938 -14.070312 28.265625 -14 C 28.078125 -13.925781 27.835938 -13.835938 27.546875 -13.734375 C 27.253906 -13.628906 26.972656 -13.53125 26.703125 -13.4375 L 26.703125 -4 Z M 48.359375 -4 "/></g></g></g><g fill="#ffffff" fill-opacity="1"><g transform="translate(750.296332, 178.319493)"><g><path d="M 15.390625 -4 C 15.691406 -4 15.84375 -3.863281 15.84375 -3.59375 L 15.84375 -0.4375 C 15.84375 -0.144531 15.691406 0 15.390625 0 C 13.117188 0 11.445312 -0.78125 10.375 -2.34375 L 10.375 -1.203125 C 10.375 2.492188 9.425781 5.207031 7.53125 6.9375 C 5.644531 8.664062 2.8125 9.53125 -0.96875 9.53125 L -1.328125 6.296875 C 3.992188 6.296875 6.65625 3.753906 6.65625 -1.328125 L 6.609375 -21.421875 L 10.375 -22.046875 L 10.375 -8.203125 C 10.582031 -5.398438 12.253906 -4 15.390625 -4 Z M 15.390625 -4 "/></g></g></g><g fill="#ffffff" fill-opacity="1"><g transform="translate(765.730102, 178.319493)"><g><path d="M 15.65625 -28.484375 L 12.421875 -25.234375 L 9.140625 -28.484375 L 12.328125 -31.671875 Z M 24.96875 -4 C 25.269531 -4 25.421875 -3.863281 25.421875 -3.59375 L 25.421875 -0.4375 C 25.421875 -0.144531 25.269531 0 24.96875 0 C 20.59375 0 16.53125 -0.546875 12.78125 -1.640625 C 9.40625 -0.546875 5.144531 0 0 0 C -0.289062 -0.03125 -0.4375 -0.175781 -0.4375 -0.4375 L -0.4375 -3.59375 C -0.4375 -3.863281 -0.289062 -4 0 -4 C 2.570312 -4 4.878906 -4.085938 6.921875 -4.265625 C 4.203125 -6.296875 2.84375 -8.910156 2.84375 -12.109375 C 2.84375 -14.796875 3.769531 -17.035156 5.625 -18.828125 C 7.488281 -20.617188 9.8125 -21.515625 12.59375 -21.515625 C 15.4375 -21.515625 17.773438 -20.601562 19.609375 -18.78125 C 21.441406 -16.96875 22.359375 -14.742188 22.359375 -12.109375 C 22.359375 -8.941406 21 -6.351562 18.28125 -4.34375 C 20.019531 -4.113281 22.25 -4 24.96875 -4 Z M 12.46875 -17.78125 C 10.71875 -17.78125 9.285156 -17.210938 8.171875 -16.078125 C 7.066406 -14.941406 6.515625 -13.484375 6.515625 -11.703125 C 6.515625 -10.140625 7.0625 -8.722656 8.15625 -7.453125 C 9.25 -6.179688 10.710938 -5.28125 12.546875 -4.75 C 14.441406 -5.363281 15.941406 -6.289062 17.046875 -7.53125 C 18.160156 -8.78125 18.71875 -10.171875 18.71875 -11.703125 C 18.71875 -13.484375 18.117188 -14.941406 16.921875 -16.078125 C 15.722656 -17.210938 14.238281 -17.78125 12.46875 -17.78125 Z M 12.46875 -17.78125 "/></g></g></g><g fill="#ffffff" fill-opacity="1"><g transform="translate(790.699093, 178.319493)"><g><path d="M 0 0 C -0.289062 0 -0.4375 -0.144531 -0.4375 -0.4375 L -0.4375 -3.59375 C -0.4375 -3.863281 -0.273438 -4 0.046875 -4 C 3.742188 -4 5.59375 -5.921875 5.59375 -9.765625 L 5.640625 -31.8125 L 9.359375 -32.375 L 9.359375 -8.875 C 9.359375 -2.957031 6.238281 0 0 0 Z M 0 0 "/></g></g></g><g fill="#ffffff" fill-opacity="1"><g transform="translate(803.871017, 178.319493)"><g><path d="M 3.859375 0 L 3.859375 -31.8125 L 7.625 -32.375 L 7.625 0 Z M 3.859375 0 "/></g></g></g><g fill="#ffffff" fill-opacity="1"><g transform="translate(815.135893, 178.319493)"><g/></g></g><g fill="#ffffff" fill-opacity="1"><g transform="translate(825.779867, 178.319493)"><g><path d="M 11.484375 -28.75 L 8.25 -25.546875 L 5.015625 -28.75 L 8.25 -31.9375 Z M 18.546875 -28.75 L 15.296875 -25.546875 L 12.015625 -28.75 L 15.296875 -31.9375 Z M 25.859375 -4 C 26.160156 -4 26.3125 -3.863281 26.3125 -3.59375 L 26.3125 -0.4375 C 26.3125 -0.144531 26.160156 0 25.859375 0 C 23.140625 0 21.128906 -0.632812 19.828125 -1.90625 C 16.835938 -0.363281 14.160156 0.40625 11.796875 0.40625 C 8.804688 0.40625 6.359375 -0.613281 4.453125 -2.65625 C 2.546875 -4.695312 1.59375 -7.226562 1.59375 -10.25 C 1.59375 -13.320312 2.550781 -15.9375 4.46875 -18.09375 C 6.394531 -20.257812 8.835938 -21.34375 11.796875 -21.34375 C 13.597656 -21.34375 15.582031 -20.925781 17.75 -20.09375 L 17.75 -22.84375 L 21.46875 -23.46875 L 21.515625 -8.953125 C 21.515625 -7.179688 21.851562 -5.910156 22.53125 -5.140625 C 23.21875 -4.378906 24.328125 -4 25.859375 -4 Z M 11.796875 -3.421875 C 13.773438 -3.390625 15.90625 -3.890625 18.1875 -4.921875 C 17.894531 -5.929688 17.75 -7.160156 17.75 -8.609375 L 17.75 -16.328125 C 15.351562 -17.117188 13.414062 -17.515625 11.9375 -17.515625 C 9.945312 -17.515625 8.320312 -16.820312 7.0625 -15.4375 C 5.8125 -14.050781 5.1875 -12.335938 5.1875 -10.296875 C 5.1875 -8.335938 5.800781 -6.707031 7.03125 -5.40625 C 8.257812 -4.101562 9.847656 -3.441406 11.796875 -3.421875 Z M 11.796875 -3.421875 "/></g></g></g><g fill="#ffffff" fill-opacity="1"><g transform="translate(851.635848, 178.319493)"><g><path d="M 32.875 -21.46875 L 36.59375 -22.09375 L 36.59375 -8.5625 C 36.59375 -5.84375 35.851562 -3.742188 34.375 -2.265625 C 32.894531 -0.785156 30.707031 -0.046875 27.8125 -0.046875 C 25.445312 -0.046875 22.976562 -0.828125 20.40625 -2.390625 C 18.832031 -0.828125 16.582031 -0.046875 13.65625 -0.046875 C 11.53125 -0.046875 9.328125 -0.8125 7.046875 -2.34375 C 5.421875 -0.78125 3.070312 0 0 0 C -0.289062 0 -0.4375 -0.144531 -0.4375 -0.4375 L -0.4375 -3.59375 C -0.4375 -3.863281 -0.289062 -4 0 -4 C 3.726562 -4 5.59375 -5.84375 5.59375 -9.53125 L 5.546875 -16.71875 L 9.3125 -17.296875 L 9.3125 -8.515625 C 9.3125 -7.273438 9.132812 -6.132812 8.78125 -5.09375 C 10.5 -4.382812 12.035156 -4.03125 13.390625 -4.03125 C 17.117188 -4.03125 18.984375 -5.878906 18.984375 -9.578125 L 18.9375 -16.765625 L 22.71875 -17.34375 L 22.71875 -8.5625 C 22.71875 -7.257812 22.523438 -6.117188 22.140625 -5.140625 C 23.972656 -4.398438 25.6875 -4.03125 27.28125 -4.03125 C 29.082031 -4.03125 30.460938 -4.492188 31.421875 -5.421875 C 32.390625 -6.359375 32.875 -7.742188 32.875 -9.578125 Z M 32.875 -21.46875 "/></g></g></g><g fill="#ffffff" fill-opacity="1"><g transform="translate(890.841161, 178.319493)"><g><path d="M 3.859375 0 L 3.859375 -31.8125 L 7.625 -32.375 L 7.625 0 Z M 3.859375 0 "/></g></g></g><g fill="#ffffff" fill-opacity="1"><g transform="translate(902.106037, 178.319493)"><g><path d="M -0.96875 9.53125 L -1.328125 6.296875 C 3.992188 6.296875 6.65625 3.753906 6.65625 -1.328125 L 6.609375 -21.421875 L 10.375 -22.046875 L 10.375 -1.203125 C 10.375 2.492188 9.425781 5.207031 7.53125 6.9375 C 5.644531 8.664062 2.8125 9.53125 -0.96875 9.53125 Z M -0.96875 9.53125 "/></g></g></g><g fill="#ffffff" fill-opacity="1"><g transform="translate(915.366656, 178.319493)"><g><path d="M 1.203125 0 L 0.4375 -4 L 11.625 -4 C 13.425781 -4 14.804688 -4.441406 15.765625 -5.328125 C 16.734375 -6.210938 17.21875 -7.46875 17.21875 -9.09375 L 17.171875 -11.671875 C 17.140625 -13.472656 16.492188 -14.9375 15.234375 -16.0625 C 13.984375 -17.1875 12.378906 -17.75 10.421875 -17.75 L 7.8125 -17.75 L 7.8125 -21.640625 L 11.21875 -21.640625 C 14.0625 -21.640625 16.382812 -20.765625 18.1875 -19.015625 C 19.988281 -17.273438 20.90625 -14.988281 20.9375 -12.15625 L 20.984375 -8.515625 C 20.953125 -5.796875 20.144531 -3.695312 18.5625 -2.21875 C 16.976562 -0.738281 14.648438 0 11.578125 0 Z M 1.203125 0 "/></g></g></g><g fill="#ffffff" fill-opacity="1"><g transform="translate(582.432306, 220.039599)"><g><path d="M 1.125 -3.296875 C 2.78125 -2.203125 4.644531 -1.65625 6.71875 -1.65625 C 7.84375 -1.65625 8.789062 -1.863281 9.5625 -2.28125 C 10.332031 -2.695312 10.71875 -3.378906 10.71875 -4.328125 C 10.71875 -4.878906 10.539062 -5.351562 10.1875 -5.75 C 9.84375 -6.15625 9.398438 -6.476562 8.859375 -6.71875 C 8.316406 -6.957031 7.710938 -7.179688 7.046875 -7.390625 C 6.378906 -7.597656 5.710938 -7.828125 5.046875 -8.078125 C 4.378906 -8.335938 3.769531 -8.632812 3.21875 -8.96875 C 2.675781 -9.300781 2.234375 -9.75 1.890625 -10.3125 C 1.546875 -10.882812 1.375 -11.554688 1.375 -12.328125 C 1.375 -13.773438 1.898438 -14.847656 2.953125 -15.546875 C 4.015625 -16.253906 5.34375 -16.609375 6.9375 -16.609375 C 8.925781 -16.609375 10.816406 -16.117188 12.609375 -15.140625 L 12.28125 -13.140625 C 10.625 -14.191406 8.921875 -14.71875 7.171875 -14.71875 C 4.828125 -14.71875 3.65625 -13.953125 3.65625 -12.421875 C 3.65625 -11.921875 3.828125 -11.484375 4.171875 -11.109375 C 4.515625 -10.742188 4.957031 -10.453125 5.5 -10.234375 C 6.050781 -10.023438 6.660156 -9.816406 7.328125 -9.609375 C 7.992188 -9.410156 8.660156 -9.179688 9.328125 -8.921875 C 9.992188 -8.671875 10.597656 -8.375 11.140625 -8.03125 C 11.691406 -7.6875 12.140625 -7.210938 12.484375 -6.609375 C 12.828125 -6.003906 13 -5.300781 13 -4.5 C 13 -2.894531 12.414062 -1.703125 11.25 -0.921875 C 10.09375 -0.148438 8.660156 0.234375 6.953125 0.234375 C 4.742188 0.234375 2.800781 -0.253906 1.125 -1.234375 Z M 1.125 -3.296875 "/></g></g></g><g fill="#ffffff" fill-opacity="1"><g transform="translate(596.567066, 220.039599)"><g><path d="M 6.09375 0 L 6.09375 -14.46875 L 0.40625 -14.46875 L 0.40625 -16.375 L 14.03125 -16.375 L 13.71875 -14.46875 L 8.359375 -14.46875 L 8.359375 0 Z M 6.09375 0 "/></g></g></g><g fill="#ffffff" fill-opacity="1"><g transform="translate(611.01486, 220.039599)"><g><path d="M 1.921875 -16.234375 L 4.171875 -16.546875 L 4.171875 -6.359375 C 4.171875 -4.910156 4.570312 -3.765625 5.375 -2.921875 C 6.175781 -2.078125 7.367188 -1.65625 8.953125 -1.65625 C 10.546875 -1.65625 11.738281 -2.078125 12.53125 -2.921875 C 13.320312 -3.765625 13.71875 -4.910156 13.71875 -6.359375 L 13.71875 -16.234375 L 15.96875 -16.546875 L 15.96875 -6 C 15.96875 -4.21875 15.375 -2.734375 14.1875 -1.546875 C 13 -0.359375 11.253906 0.234375 8.953125 0.234375 C 6.628906 0.234375 4.875 -0.367188 3.6875 -1.578125 C 2.507812 -2.785156 1.921875 -4.257812 1.921875 -6 Z M 1.921875 -16.234375 "/></g></g></g><g fill="#ffffff" fill-opacity="1"><g transform="translate(628.906045, 220.039599)"><g><path d="M 2.125 0 L 2.125 -16.375 L 8.015625 -16.375 C 10.660156 -16.375 12.753906 -15.609375 14.296875 -14.078125 C 15.835938 -12.554688 16.609375 -10.59375 16.609375 -8.1875 C 16.609375 -5.757812 15.835938 -3.785156 14.296875 -2.265625 C 12.753906 -0.753906 10.660156 0 8.015625 0 Z M 8 -1.90625 C 9.957031 -1.90625 11.5 -2.460938 12.625 -3.578125 C 13.757812 -4.703125 14.328125 -6.238281 14.328125 -8.1875 C 14.328125 -10.113281 13.753906 -11.640625 12.609375 -12.765625 C 11.472656 -13.898438 9.9375 -14.46875 8 -14.46875 L 4.359375 -14.46875 L 4.359375 -1.90625 Z M 8 -1.90625 "/></g></g></g><g fill="#ffffff" fill-opacity="1"><g transform="translate(646.893547, 220.039599)"><g><path d="M 8.984375 -5.59375 L 8.984375 0 L 6.734375 0 L 6.734375 -5.640625 L 0.546875 -16.234375 L 2.796875 -16.546875 L 7.921875 -7.75 L 12.859375 -16.375 L 15.234375 -16.375 Z M 8.984375 -5.59375 "/></g></g></g><g fill="#ffffff" fill-opacity="1"><g transform="translate(662.713888, 220.039599)"><g><path d="M 4.359375 0 L 2.125 0 L 2.125 -16.234375 L 4.359375 -16.546875 Z M 4.359375 0 "/></g></g></g><g fill="#ffffff" fill-opacity="1"><g transform="translate(669.215391, 220.039599)"><g><path d="M 4.171875 -13 L 4.171875 0 L 2.125 0 L 2.125 -16.375 L 4.328125 -16.375 L 14.1875 -3.4375 L 14.1875 -16.234375 L 16.25 -16.546875 L 16.25 0 L 14.03125 0 Z M 4.171875 -13 "/></g></g></g><g fill="#ffffff" fill-opacity="1"><g transform="translate(687.588173, 220.039599)"><g><path d="M 13 -7.96875 L 15.171875 -8.28125 L 15.171875 -0.9375 C 13.597656 -0.15625 11.703125 0.234375 9.484375 0.234375 C 7.015625 0.234375 5.015625 -0.519531 3.484375 -2.03125 C 1.960938 -3.550781 1.203125 -5.601562 1.203125 -8.1875 C 1.203125 -10.769531 1.960938 -12.816406 3.484375 -14.328125 C 5.015625 -15.847656 7.015625 -16.609375 9.484375 -16.609375 C 11.554688 -16.609375 13.394531 -16.117188 15 -15.140625 L 14.6875 -13.171875 C 13.175781 -14.203125 11.472656 -14.71875 9.578125 -14.71875 C 7.753906 -14.71875 6.28125 -14.128906 5.15625 -12.953125 C 4.039062 -11.785156 3.484375 -10.195312 3.484375 -8.1875 C 3.484375 -6.175781 4.039062 -4.582031 5.15625 -3.40625 C 6.28125 -2.238281 7.753906 -1.65625 9.578125 -1.65625 C 10.929688 -1.65625 12.070312 -1.859375 13 -2.265625 Z M 13 -7.96875 "/></g></g></g><g fill="#ffffff" fill-opacity="1"><g transform="translate(704.275371, 220.039599)"><g/></g></g><g fill="#ffffff" fill-opacity="1"><g transform="translate(710.054491, 220.039599)"><g><path d="M 6.09375 0 L 6.09375 -14.46875 L 0.40625 -14.46875 L 0.40625 -16.375 L 14.03125 -16.375 L 13.71875 -14.46875 L 8.359375 -14.46875 L 8.359375 0 Z M 6.09375 0 "/></g></g></g><g fill="#ffffff" fill-opacity="1"><g transform="translate(724.502277, 220.039599)"><g><path d="M 13.921875 -16.234375 L 16.15625 -16.546875 L 16.15625 0 L 13.921875 0 L 13.921875 -7.4375 L 4.359375 -7.4375 L 4.359375 0 L 2.125 0 L 2.125 -16.234375 L 4.359375 -16.546875 L 4.359375 -9.3125 L 13.921875 -9.3125 Z M 13.921875 -16.234375 "/></g></g></g><g fill="#ffffff" fill-opacity="1"><g transform="translate(742.802826, 220.039599)"><g><path d="M 2.125 0 L 2.125 -16.375 L 13.484375 -16.375 L 13.484375 -14.46875 L 4.359375 -14.46875 L 4.359375 -9.3125 L 12.6875 -9.3125 L 13 -7.4375 L 4.359375 -7.4375 L 4.359375 -1.90625 L 13.71875 -1.90625 L 13.71875 0 Z M 2.125 0 "/></g></g></g><g fill="#ffffff" fill-opacity="1"><g transform="translate(757.804454, 220.039599)"><g/></g></g><g fill="#ffffff" fill-opacity="1"><g transform="translate(763.583575, 220.039599)"><g><path d="M 16.1875 -2.140625 C 14.625 -0.554688 12.519531 0.234375 9.875 0.234375 C 7.226562 0.234375 5.117188 -0.554688 3.546875 -2.140625 C 1.984375 -3.734375 1.203125 -5.75 1.203125 -8.1875 C 1.203125 -10.613281 1.984375 -12.625 3.546875 -14.21875 C 5.117188 -15.8125 7.226562 -16.609375 9.875 -16.609375 C 12.519531 -16.609375 14.625 -15.8125 16.1875 -14.21875 C 17.757812 -12.625 18.546875 -10.613281 18.546875 -8.1875 C 18.546875 -5.75 17.757812 -3.734375 16.1875 -2.140625 Z M 9.875 -14.71875 C 7.925781 -14.71875 6.375 -14.113281 5.21875 -12.90625 C 4.0625 -11.695312 3.484375 -10.125 3.484375 -8.1875 C 3.484375 -6.226562 4.0625 -4.648438 5.21875 -3.453125 C 6.375 -2.253906 7.925781 -1.65625 9.875 -1.65625 C 11.832031 -1.65625 13.382812 -2.253906 14.53125 -3.453125 C 15.675781 -4.648438 16.25 -6.226562 16.25 -8.1875 C 16.25 -10.125 15.675781 -11.695312 14.53125 -12.90625 C 13.382812 -14.113281 11.832031 -14.71875 9.875 -14.71875 Z M 9.875 -14.71875 "/></g></g></g><g fill="#ffffff" fill-opacity="1"><g transform="translate(783.328888, 220.039599)"><g><path d="M 8.953125 -16.375 C 10.878906 -16.375 12.382812 -15.882812 13.46875 -14.90625 C 14.550781 -13.925781 15.09375 -12.632812 15.09375 -11.03125 C 15.09375 -9.40625 14.550781 -8.101562 13.46875 -7.125 C 12.382812 -6.144531 10.878906 -5.65625 8.953125 -5.65625 L 4.359375 -5.65625 L 4.359375 0 L 2.125 0 L 2.125 -16.375 Z M 8.890625 -7.5625 C 10.046875 -7.5625 10.984375 -7.859375 11.703125 -8.453125 C 12.421875 -9.046875 12.78125 -9.90625 12.78125 -11.03125 C 12.78125 -12.15625 12.421875 -13.007812 11.703125 -13.59375 C 10.984375 -14.175781 10.046875 -14.46875 8.890625 -14.46875 L 4.359375 -14.46875 L 4.359375 -7.5625 Z M 8.890625 -7.5625 "/></g></g></g><g fill="#ffffff" fill-opacity="1"><g transform="translate(799.052899, 220.039599)"><g><path d="M 8.953125 -16.375 C 10.878906 -16.375 12.382812 -15.882812 13.46875 -14.90625 C 14.550781 -13.925781 15.09375 -12.632812 15.09375 -11.03125 C 15.09375 -9.40625 14.550781 -8.101562 13.46875 -7.125 C 12.382812 -6.144531 10.878906 -5.65625 8.953125 -5.65625 L 4.359375 -5.65625 L 4.359375 0 L 2.125 0 L 2.125 -16.375 Z M 8.890625 -7.5625 C 10.046875 -7.5625 10.984375 -7.859375 11.703125 -8.453125 C 12.421875 -9.046875 12.78125 -9.90625 12.78125 -11.03125 C 12.78125 -12.15625 12.421875 -13.007812 11.703125 -13.59375 C 10.984375 -14.175781 10.046875 -14.46875 8.890625 -14.46875 L 4.359375 -14.46875 L 4.359375 -7.5625 Z M 8.890625 -7.5625 "/></g></g></g><g fill="#ffffff" fill-opacity="1"><g transform="translate(814.77691, 220.039599)"><g><path d="M 16.1875 -2.140625 C 14.625 -0.554688 12.519531 0.234375 9.875 0.234375 C 7.226562 0.234375 5.117188 -0.554688 3.546875 -2.140625 C 1.984375 -3.734375 1.203125 -5.75 1.203125 -8.1875 C 1.203125 -10.613281 1.984375 -12.625 3.546875 -14.21875 C 5.117188 -15.8125 7.226562 -16.609375 9.875 -16.609375 C 12.519531 -16.609375 14.625 -15.8125 16.1875 -14.21875 C 17.757812 -12.625 18.546875 -10.613281 18.546875 -8.1875 C 18.546875 -5.75 17.757812 -3.734375 16.1875 -2.140625 Z M 9.875 -14.71875 C 7.925781 -14.71875 6.375 -14.113281 5.21875 -12.90625 C 4.0625 -11.695312 3.484375 -10.125 3.484375 -8.1875 C 3.484375 -6.226562 4.0625 -4.648438 5.21875 -3.453125 C 6.375 -2.253906 7.925781 -1.65625 9.875 -1.65625 C 11.832031 -1.65625 13.382812 -2.253906 14.53125 -3.453125 C 15.675781 -4.648438 16.25 -6.226562 16.25 -8.1875 C 16.25 -10.125 15.675781 -11.695312 14.53125 -12.90625 C 13.382812 -14.113281 11.832031 -14.71875 9.875 -14.71875 Z M 9.875 -14.71875 "/></g></g></g><g fill="#ffffff" fill-opacity="1"><g transform="translate(834.522223, 220.039599)"><g><path d="M 13.40625 0.234375 L 8.375 -6.3125 L 4.359375 -6.3125 L 4.359375 0 L 2.125 0 L 2.125 -16.375 L 9.125 -16.375 C 11 -16.375 12.425781 -15.945312 13.40625 -15.09375 C 14.382812 -14.25 14.875 -13.003906 14.875 -11.359375 C 14.875 -10.046875 14.515625 -8.972656 13.796875 -8.140625 C 13.078125 -7.316406 12.054688 -6.800781 10.734375 -6.59375 L 15.765625 -0.078125 Z M 4.359375 -8.203125 L 8.84375 -8.203125 C 11.34375 -8.203125 12.59375 -9.253906 12.59375 -11.359375 C 12.59375 -13.429688 11.34375 -14.46875 8.84375 -14.46875 L 4.359375 -14.46875 Z M 4.359375 -8.203125 "/></g></g></g><g fill="#ffffff" fill-opacity="1"><g transform="translate(850.776004, 220.039599)"><g><path d="M 6.09375 0 L 6.09375 -14.46875 L 0.40625 -14.46875 L 0.40625 -16.375 L 14.03125 -16.375 L 13.71875 -14.46875 L 8.359375 -14.46875 L 8.359375 0 Z M 6.09375 0 "/></g></g></g><g fill="#ffffff" fill-opacity="1"><g transform="translate(865.223805, 220.039599)"><g><path d="M 1.921875 -16.234375 L 4.171875 -16.546875 L 4.171875 -6.359375 C 4.171875 -4.910156 4.570312 -3.765625 5.375 -2.921875 C 6.175781 -2.078125 7.367188 -1.65625 8.953125 -1.65625 C 10.546875 -1.65625 11.738281 -2.078125 12.53125 -2.921875 C 13.320312 -3.765625 13.71875 -4.910156 13.71875 -6.359375 L 13.71875 -16.234375 L 15.96875 -16.546875 L 15.96875 -6 C 15.96875 -4.21875 15.375 -2.734375 14.1875 -1.546875 C 13 -0.359375 11.253906 0.234375 8.953125 0.234375 C 6.628906 0.234375 4.875 -0.367188 3.6875 -1.578125 C 2.507812 -2.785156 1.921875 -4.257812 1.921875 -6 Z M 1.921875 -16.234375 "/></g></g></g><g fill="#ffffff" fill-opacity="1"><g transform="translate(883.114994, 220.039599)"><g><path d="M 4.171875 -13 L 4.171875 0 L 2.125 0 L 2.125 -16.375 L 4.328125 -16.375 L 14.1875 -3.4375 L 14.1875 -16.234375 L 16.25 -16.546875 L 16.25 0 L 14.03125 0 Z M 4.171875 -13 "/></g></g></g><g fill="#ffffff" fill-opacity="1"><g transform="translate(901.487761, 220.039599)"><g><path d="M 4.359375 0 L 2.125 0 L 2.125 -16.234375 L 4.359375 -16.546875 Z M 4.359375 0 "/></g></g></g><g fill="#ffffff" fill-opacity="1"><g transform="translate(907.989279, 220.039599)"><g><path d="M 6.09375 0 L 6.09375 -14.46875 L 0.40625 -14.46875 L 0.40625 -16.375 L 14.03125 -16.375 L 13.71875 -14.46875 L 8.359375 -14.46875 L 8.359375 0 Z M 6.09375 0 "/></g></g></g><g fill="#ffffff" fill-opacity="1"><g transform="translate(922.437081, 220.039599)"><g><path d="M 8.984375 -5.59375 L 8.984375 0 L 6.734375 0 L 6.734375 -5.640625 L 0.546875 -16.234375 L 2.796875 -16.546875 L 7.921875 -7.75 L 12.859375 -16.375 L 15.234375 -16.375 Z M 8.984375 -5.59375 "/></g></g></g></svg>