<svg xmlns="http://www.w3.org/2000/svg" xmlns:xlink="http://www.w3.org/1999/xlink" width="500" zoomAndPan="magnify" viewBox="0 0 375 374.999991" height="500" preserveAspectRatio="xMidYMid meet" version="1.0"><defs><clipPath id="id1"><path d="M 5 27.234375 L 370 27.234375 L 370 347.484375 L 5 347.484375 Z M 5 27.234375 " clip-rule="nonzero"/></clipPath><clipPath id="id2"><path d="M 98.0625 203 L 167 203 L 167 277.3125 L 98.0625 277.3125 Z M 98.0625 203 " clip-rule="nonzero"/></clipPath><clipPath id="id3"><path d="M 194 187 L 277.3125 187 L 277.3125 277.3125 L 194 277.3125 Z M 194 187 " clip-rule="nonzero"/></clipPath><clipPath id="id4"><path d="M 121 98.0625 L 250 98.0625 L 250 200 L 121 200 Z M 121 98.0625 " clip-rule="nonzero"/></clipPath></defs><g clip-path="url(#id1)"><path fill="#3b78ae" d="M 369.957031 187.359375 C 368.457031 188.78125 346.152344 210.769531 346.152344 233.878906 L 346.078125 233.878906 L 346.078125 299.992188 C 346.078125 325.125 326.542969 345.617188 301.84375 347.335938 C 301.320312 347.410156 300.796875 347.410156 300.273438 347.410156 C 299.675781 347.484375 299.152344 347.484375 298.550781 347.484375 L 76.335938 347.484375 C 75.738281 347.484375 75.214844 347.410156 74.613281 347.410156 C 74.089844 347.410156 73.566406 347.335938 73.042969 347.335938 C 48.34375 345.691406 28.808594 325.125 28.808594 299.992188 L 28.808594 233.878906 C 28.808594 210.769531 6.429688 188.78125 5.007812 187.359375 C 6.429688 185.9375 28.808594 163.949219 28.808594 140.839844 L 28.882812 140.839844 L 28.882812 74.726562 C 28.882812 49.597656 48.417969 29.105469 73.117188 27.386719 C 73.640625 27.308594 74.164062 27.308594 74.6875 27.308594 C 75.289062 27.234375 75.8125 27.234375 76.410156 27.234375 L 298.628906 27.234375 C 299.226562 27.234375 299.75 27.308594 300.347656 27.308594 C 300.871094 27.308594 301.398438 27.386719 301.921875 27.386719 C 326.621094 29.03125 346.152344 49.597656 346.152344 74.726562 L 346.152344 140.839844 C 346.152344 163.949219 368.457031 185.9375 369.957031 187.359375 " fill-opacity="1" fill-rule="nonzero"/></g><g clip-path="url(#id2)"><path fill="#ffffff" d="M 161.078125 271.886719 L 103.488281 271.886719 L 103.488281 266.714844 C 103.488281 255.859375 112.191406 247.171875 123.046875 247.171875 L 141.523438 247.171875 C 152.375 247.171875 161.078125 255.859375 161.078125 266.714844 Z M 118.160156 223.808594 C 118.160156 215.933594 124.667969 209.425781 132.5625 209.425781 C 140.421875 209.425781 146.949219 215.933594 146.949219 223.808594 C 146.949219 231.6875 140.421875 238.195312 132.5625 238.195312 C 124.667969 238.195312 118.160156 231.6875 118.160156 223.808594 Z M 141.523438 241.730469 L 140.964844 241.730469 C 147.757812 238.484375 152.375 231.6875 152.375 223.808594 C 152.375 212.941406 143.414062 203.980469 132.5625 203.980469 C 121.691406 203.980469 112.734375 212.941406 112.734375 223.808594 C 112.734375 231.6875 117.347656 238.484375 124.128906 241.730469 L 123.316406 241.730469 C 109.203125 241.730469 98.0625 252.867188 98.0625 266.714844 L 98.0625 274.589844 C 98.0625 276.230469 99.144531 277.3125 100.78125 277.3125 L 163.785156 277.3125 C 165.40625 277.3125 166.503906 276.230469 166.503906 274.589844 L 166.503906 266.714844 C 166.503906 252.867188 155.367188 241.730469 141.523438 241.730469 " fill-opacity="1" fill-rule="nonzero"/></g><g clip-path="url(#id3)"><path fill="#ffffff" d="M 271.871094 271.886719 L 199.367188 271.886719 L 199.367188 268.082031 C 199.367188 252.597656 211.859375 240.105469 227.34375 240.105469 L 243.910156 240.105469 C 259.378906 240.105469 271.871094 252.597656 271.871094 268.082031 Z M 217.285156 211.859375 C 217.285156 201.816406 225.71875 193.398438 235.761719 193.398438 C 246.089844 193.398438 254.238281 201.546875 254.238281 211.859375 C 254.238281 222.1875 245.804688 230.335938 235.761719 230.335938 C 225.71875 230.335938 217.285156 221.917969 217.285156 211.859375 Z M 243.910156 234.664062 L 243.351562 234.664062 C 252.867188 231.6875 259.933594 222.441406 259.933594 211.859375 C 259.933594 198.824219 249.066406 187.957031 236.03125 187.957031 C 222.984375 187.957031 212.128906 198.539062 212.128906 211.859375 C 212.128906 222.441406 219.195312 231.417969 228.695312 234.664062 L 227.613281 234.664062 C 209.136719 234.664062 194.195312 249.605469 194.195312 268.082031 L 194.195312 274.589844 C 194.195312 276.230469 195.292969 277.3125 196.917969 277.3125 L 274.605469 277.3125 C 276.230469 277.3125 277.3125 276.230469 277.3125 274.589844 L 277.3125 268.082031 C 277.3125 249.605469 262.386719 234.664062 243.910156 234.664062 " fill-opacity="1" fill-rule="nonzero"/></g><g clip-path="url(#id4)"><path fill="#ffffff" d="M 162.972656 121.152344 C 183.070312 121.152344 199.097656 134.996094 199.097656 151.832031 C 199.097656 168.671875 182.800781 182.53125 162.972656 182.53125 C 159.980469 182.53125 156.71875 182.261719 153.472656 181.449219 C 152.929688 181.164062 152.105469 181.449219 151.5625 181.703125 L 133.914062 191.488281 L 139.070312 177.375 C 139.613281 176.277344 139.070312 174.925781 138.257812 174.382812 C 130.921875 168.398438 126.578125 160.523438 126.578125 152.105469 C 126.847656 134.996094 143.144531 121.152344 162.972656 121.152344 Z M 208.054688 103.488281 C 228.15625 103.488281 244.179688 117.347656 244.179688 134.183594 C 244.179688 142.875 240.105469 150.75 232.5 156.449219 C 231.6875 157.261719 231.128906 158.359375 231.6875 159.441406 L 236.84375 173.554688 L 219.195312 163.785156 C 218.636719 163.515625 217.84375 163.242188 217.285156 163.515625 C 211.859375 164.597656 206.6875 164.867188 201.816406 164.054688 C 203.441406 160.25 204.523438 155.90625 204.523438 151.5625 C 204.523438 136.078125 193.128906 122.777344 177.089844 117.621094 C 183.882812 109.199219 195.5625 103.488281 208.054688 103.488281 Z M 133.375 177.089844 L 126.308594 196.105469 C 126.039062 197.203125 126.308594 198.269531 127.121094 199.097656 C 127.929688 199.910156 129.300781 199.910156 130.113281 199.367188 L 153.1875 186.605469 C 156.449219 187.144531 159.710938 187.6875 162.972656 187.6875 C 178.726562 187.6875 192.300781 180.078125 199.367188 169.226562 C 205.351562 170.308594 211.316406 170.308594 217.574219 168.941406 L 240.648438 181.703125 C 241.730469 182.261719 242.8125 181.988281 243.636719 181.449219 C 244.449219 180.621094 244.722656 179.539062 244.449219 178.457031 L 237.382812 159.441406 C 244.992188 152.644531 249.605469 143.6875 249.605469 134.183594 C 249.605469 114.355469 231.128906 98.0625 208.054688 98.0625 C 192.84375 98.0625 178.996094 105.128906 171.660156 116.519531 C 168.941406 115.980469 165.964844 115.710938 162.972656 115.710938 C 139.882812 115.710938 121.421875 132.003906 121.421875 151.832031 C 121.421875 161.332031 125.765625 170.578125 133.375 177.089844 " fill-opacity="1" fill-rule="nonzero"/></g><path fill="#ffffff" d="M 137.988281 152.375 C 137.988281 150.210938 139.882812 148.300781 142.0625 148.300781 C 144.226562 148.300781 146.136719 150.210938 146.136719 152.375 C 146.136719 154.554688 144.226562 156.449219 142.0625 156.449219 C 139.882812 156.449219 137.988281 154.554688 137.988281 152.375 Z M 151.5625 152.375 C 151.5625 147.21875 147.21875 142.875 142.0625 142.875 C 136.890625 142.875 132.5625 146.949219 132.5625 152.375 C 132.5625 157.546875 136.890625 161.890625 142.0625 161.890625 C 147.21875 161.890625 151.5625 157.546875 151.5625 152.375 " fill-opacity="1" fill-rule="nonzero"/><path fill="#ffffff" d="M 162.972656 148.300781 C 165.152344 148.300781 167.046875 150.210938 167.046875 152.375 C 167.046875 154.554688 165.152344 156.449219 162.972656 156.449219 C 160.792969 156.449219 158.898438 154.554688 158.898438 152.375 C 158.898438 149.941406 160.792969 148.300781 162.972656 148.300781 Z M 162.972656 161.890625 C 168.128906 161.890625 172.472656 157.546875 172.472656 152.375 C 172.472656 147.21875 168.128906 142.875 162.972656 142.875 C 157.816406 142.875 153.472656 147.21875 153.472656 152.375 C 153.472656 157.546875 157.816406 161.890625 162.972656 161.890625 " fill-opacity="1" fill-rule="nonzero"/><path fill="#ffffff" d="M 183.882812 148.300781 C 186.0625 148.300781 187.957031 150.210938 187.957031 152.375 C 187.957031 154.554688 186.0625 156.449219 183.882812 156.449219 C 181.703125 156.449219 179.808594 154.554688 179.808594 152.375 C 179.808594 149.941406 181.703125 148.300781 183.882812 148.300781 Z M 183.882812 161.890625 C 189.039062 161.890625 193.398438 157.546875 193.398438 152.375 C 193.398438 147.21875 189.039062 142.875 183.882812 142.875 C 178.726562 142.875 174.382812 147.21875 174.382812 152.375 C 174.382812 157.546875 178.726562 161.890625 183.882812 161.890625 " fill-opacity="1" fill-rule="nonzero"/><path fill="#ffffff" d="M 198.824219 122.503906 L 232.230469 122.503906 C 233.867188 122.503906 234.933594 121.421875 234.933594 119.785156 C 234.933594 118.160156 233.867188 117.078125 232.230469 117.078125 L 198.824219 117.078125 C 197.203125 117.078125 196.105469 118.160156 196.105469 119.785156 C 196.105469 121.152344 197.472656 122.503906 198.824219 122.503906 " fill-opacity="1" fill-rule="nonzero"/><path fill="#ffffff" d="M 232.230469 129.300781 L 206.972656 129.300781 C 205.351562 129.300781 204.253906 130.382812 204.253906 132.003906 C 204.253906 133.644531 205.351562 134.726562 206.972656 134.726562 L 232.230469 134.726562 C 233.867188 134.726562 234.933594 133.644531 234.933594 132.003906 C 234.933594 130.382812 233.867188 129.300781 232.230469 129.300781 " fill-opacity="1" fill-rule="nonzero"/><path fill="#ffffff" d="M 232.230469 141.523438 L 212.402344 141.523438 C 210.761719 141.523438 209.695312 142.605469 209.695312 144.226562 C 209.695312 145.867188 210.761719 146.949219 212.402344 146.949219 L 232.230469 146.949219 C 233.867188 146.949219 234.933594 145.867188 234.933594 144.226562 C 234.933594 142.605469 233.867188 141.523438 232.230469 141.523438 " fill-opacity="1" fill-rule="nonzero"/></svg>