<svg xmlns="http://www.w3.org/2000/svg" xmlns:xlink="http://www.w3.org/1999/xlink" width="2000" zoomAndPan="magnify" viewBox="0 0 1500 374.999991" height="500" preserveAspectRatio="xMidYMid meet" version="1.0"><defs><g/><linearGradient x1="1" gradientTransform="matrix(1499.999964, 0, 0, 1499.999964, 0.000018, -549.107167)" y1="0.5" x2="0" gradientUnits="userSpaceOnUse" y2="0.5" id="id1"><stop stop-opacity="1" stop-color="rgb(23.098755%, 47.099304%, 68.199158%)" offset="0"/><stop stop-opacity="1" stop-color="rgb(23.135376%, 47.242737%, 68.266296%)" offset="0.015625"/><stop stop-opacity="1" stop-color="rgb(23.208618%, 47.529602%, 68.4021%)" offset="0.03125"/><stop stop-opacity="1" stop-color="rgb(23.283386%, 47.817993%, 68.537903%)" offset="0.046875"/><stop stop-opacity="1" stop-color="rgb(23.356628%, 48.104858%, 68.673706%)" offset="0.0625"/><stop stop-opacity="1" stop-color="rgb(23.429871%, 48.39325%, 68.809509%)" offset="0.078125"/><stop stop-opacity="1" stop-color="rgb(23.503113%, 48.680115%, 68.946838%)" offset="0.09375"/><stop stop-opacity="1" stop-color="rgb(23.576355%, 48.96698%, 69.082642%)" offset="0.109375"/><stop stop-opacity="1" stop-color="rgb(23.649597%, 49.255371%, 69.218445%)" offset="0.125"/><stop stop-opacity="1" stop-color="rgb(23.722839%, 49.542236%, 69.354248%)" offset="0.140625"/><stop stop-opacity="1" stop-color="rgb(23.796082%, 49.830627%, 69.490051%)" offset="0.15625"/><stop stop-opacity="1" stop-color="rgb(23.87085%, 50.117493%, 69.625854%)" offset="0.171875"/><stop stop-opacity="1" stop-color="rgb(23.944092%, 50.405884%, 69.761658%)" offset="0.1875"/><stop stop-opacity="1" stop-color="rgb(24.017334%, 50.692749%, 69.897461%)" offset="0.203125"/><stop stop-opacity="1" stop-color="rgb(24.090576%, 50.979614%, 70.033264%)" offset="0.21875"/><stop stop-opacity="1" stop-color="rgb(24.163818%, 51.268005%, 70.169067%)" offset="0.234375"/><stop stop-opacity="1" stop-color="rgb(24.237061%, 51.554871%, 70.304871%)" offset="0.25"/><stop stop-opacity="1" stop-color="rgb(24.310303%, 51.843262%, 70.4422%)" offset="0.265625"/><stop stop-opacity="1" stop-color="rgb(24.383545%, 52.130127%, 70.578003%)" offset="0.28125"/><stop stop-opacity="1" stop-color="rgb(24.458313%, 52.416992%, 70.713806%)" offset="0.296875"/><stop stop-opacity="1" stop-color="rgb(24.531555%, 52.705383%, 70.849609%)" offset="0.3125"/><stop stop-opacity="1" stop-color="rgb(24.604797%, 52.992249%, 70.985413%)" offset="0.328125"/><stop stop-opacity="1" stop-color="rgb(24.67804%, 53.28064%, 71.121216%)" offset="0.34375"/><stop stop-opacity="1" stop-color="rgb(24.751282%, 53.567505%, 71.257019%)" offset="0.359375"/><stop stop-opacity="1" stop-color="rgb(24.824524%, 53.855896%, 71.392822%)" offset="0.375"/><stop stop-opacity="1" stop-color="rgb(24.897766%, 54.142761%, 71.528625%)" offset="0.390625"/><stop stop-opacity="1" stop-color="rgb(24.972534%, 54.429626%, 71.664429%)" offset="0.40625"/><stop stop-opacity="1" stop-color="rgb(25.045776%, 54.718018%, 71.800232%)" offset="0.421875"/><stop stop-opacity="1" stop-color="rgb(25.119019%, 55.004883%, 71.937561%)" offset="0.4375"/><stop stop-opacity="1" stop-color="rgb(25.192261%, 55.293274%, 72.073364%)" offset="0.453125"/><stop stop-opacity="1" stop-color="rgb(25.265503%, 55.580139%, 72.209167%)" offset="0.46875"/><stop stop-opacity="1" stop-color="rgb(25.338745%, 55.867004%, 72.344971%)" offset="0.484375"/><stop stop-opacity="1" stop-color="rgb(25.411987%, 56.155396%, 72.480774%)" offset="0.5"/><stop stop-opacity="1" stop-color="rgb(25.485229%, 56.442261%, 72.616577%)" offset="0.515625"/><stop stop-opacity="1" stop-color="rgb(25.559998%, 56.730652%, 72.75238%)" offset="0.53125"/><stop stop-opacity="1" stop-color="rgb(25.63324%, 57.017517%, 72.888184%)" offset="0.546875"/><stop stop-opacity="1" stop-color="rgb(25.706482%, 57.305908%, 73.023987%)" offset="0.5625"/><stop stop-opacity="1" stop-color="rgb(25.779724%, 57.592773%, 73.15979%)" offset="0.578125"/><stop stop-opacity="1" stop-color="rgb(25.852966%, 57.879639%, 73.295593%)" offset="0.59375"/><stop stop-opacity="1" stop-color="rgb(25.926208%, 58.16803%, 73.431396%)" offset="0.609375"/><stop stop-opacity="1" stop-color="rgb(25.999451%, 58.454895%, 73.568726%)" offset="0.625"/><stop stop-opacity="1" stop-color="rgb(26.072693%, 58.743286%, 73.704529%)" offset="0.640625"/><stop stop-opacity="1" stop-color="rgb(26.147461%, 59.030151%, 73.840332%)" offset="0.65625"/><stop stop-opacity="1" stop-color="rgb(26.220703%, 59.317017%, 73.976135%)" offset="0.671875"/><stop stop-opacity="1" stop-color="rgb(26.293945%, 59.605408%, 74.111938%)" offset="0.6875"/><stop stop-opacity="1" stop-color="rgb(26.367188%, 59.892273%, 74.247742%)" offset="0.703125"/><stop stop-opacity="1" stop-color="rgb(26.44043%, 60.180664%, 74.383545%)" offset="0.71875"/><stop stop-opacity="1" stop-color="rgb(26.513672%, 60.467529%, 74.519348%)" offset="0.734375"/><stop stop-opacity="1" stop-color="rgb(26.586914%, 60.75592%, 74.655151%)" offset="0.75"/><stop stop-opacity="1" stop-color="rgb(26.660156%, 61.042786%, 74.790955%)" offset="0.765625"/><stop stop-opacity="1" stop-color="rgb(26.734924%, 61.329651%, 74.926758%)" offset="0.78125"/><stop stop-opacity="1" stop-color="rgb(26.808167%, 61.618042%, 75.064087%)" offset="0.796875"/><stop stop-opacity="1" stop-color="rgb(26.881409%, 61.904907%, 75.19989%)" offset="0.8125"/><stop stop-opacity="1" stop-color="rgb(26.954651%, 62.193298%, 75.335693%)" offset="0.828125"/><stop stop-opacity="1" stop-color="rgb(27.027893%, 62.480164%, 75.471497%)" offset="0.84375"/><stop stop-opacity="1" stop-color="rgb(27.101135%, 62.767029%, 75.6073%)" offset="0.859375"/><stop stop-opacity="1" stop-color="rgb(27.174377%, 63.05542%, 75.743103%)" offset="0.875"/><stop stop-opacity="1" stop-color="rgb(27.24762%, 63.342285%, 75.878906%)" offset="0.890625"/><stop stop-opacity="1" stop-color="rgb(27.322388%, 63.630676%, 76.014709%)" offset="0.90625"/><stop stop-opacity="1" stop-color="rgb(27.39563%, 63.917542%, 76.150513%)" offset="0.921875"/><stop stop-opacity="1" stop-color="rgb(27.468872%, 64.205933%, 76.286316%)" offset="0.9375"/><stop stop-opacity="1" stop-color="rgb(27.542114%, 64.492798%, 76.422119%)" offset="0.953125"/><stop stop-opacity="1" stop-color="rgb(27.615356%, 64.779663%, 76.559448%)" offset="0.96875"/><stop stop-opacity="1" stop-color="rgb(27.688599%, 65.068054%, 76.695251%)" offset="0.984375"/><stop stop-opacity="1" stop-color="rgb(27.761841%, 65.354919%, 76.831055%)" offset="1"/></linearGradient><clipPath id="id2"><path d="M 160 112.5 L 264.886719 112.5 L 264.886719 262.5 L 160 262.5 Z M 160 112.5 " clip-rule="nonzero"/></clipPath><clipPath id="id3"><path d="M 126 112.5 L 233 112.5 L 233 262.5 L 126 262.5 Z M 126 112.5 " clip-rule="nonzero"/></clipPath><clipPath id="id4"><path d="M 93.136719 112.5 L 199 112.5 L 199 262.5 L 93.136719 262.5 Z M 93.136719 112.5 " clip-rule="nonzero"/></clipPath><clipPath id="id5"><path d="M 1229.90625 88.089844 L 1435.40625 88.089844 L 1435.40625 260 L 1229.90625 260 Z M 1229.90625 88.089844 " clip-rule="nonzero"/></clipPath><clipPath id="id6"><path d="M 1229.90625 265 L 1435.40625 265 L 1435.40625 270 L 1229.90625 270 Z M 1229.90625 265 " clip-rule="nonzero"/></clipPath><clipPath id="id7"><path d="M 1229.90625 274 L 1435.40625 274 L 1435.40625 278.589844 L 1229.90625 278.589844 Z M 1229.90625 274 " clip-rule="nonzero"/></clipPath></defs><rect x="-150" width="1800" fill="#ffffff" y="-37.499999" height="449.999989" fill-opacity="1"/><rect x="-150" width="1800" fill="#ffffff" y="-37.499999" height="449.999989" fill-opacity="1"/><rect x="-150" fill="url(#id1)" width="1800" y="-37.499999" height="449.999989"/><g clip-path="url(#id2)"><path fill="#ffffff" d="M 264.765625 262.320312 L 264.886719 112.738281 L 160.875 187.382812 Z M 264.765625 262.320312 " fill-opacity="1" fill-rule="nonzero"/></g><g clip-path="url(#id3)"><path fill="#ffffff" d="M 229.800781 260.125 L 128.933594 187.382812 L 229.859375 114.992188 L 229.800781 260.125 M 229.800781 262.496094 C 230.15625 262.496094 230.511719 262.4375 230.867188 262.261719 C 231.640625 261.84375 232.175781 261.015625 232.175781 260.125 L 232.234375 114.992188 C 232.234375 114.101562 231.757812 113.273438 230.929688 112.859375 C 230.570312 112.679688 230.214844 112.621094 229.859375 112.621094 C 229.382812 112.621094 228.910156 112.800781 228.492188 113.09375 L 127.570312 185.484375 C 126.976562 185.957031 126.558594 186.671875 126.558594 187.382812 C 126.558594 188.152344 126.917969 188.863281 127.570312 189.277344 L 228.375 262.023438 C 228.789062 262.320312 229.265625 262.496094 229.800781 262.496094 Z M 229.800781 262.496094 " fill-opacity="1" fill-rule="nonzero"/></g><g clip-path="url(#id4)"><path fill="#ffffff" d="M 196.316406 260.007812 L 95.511719 187.261719 L 196.4375 114.875 L 196.316406 260.007812 M 196.316406 262.378906 C 196.671875 262.378906 197.027344 262.320312 197.386719 262.140625 C 198.15625 261.726562 198.691406 260.898438 198.691406 260.007812 L 198.808594 114.875 C 198.808594 113.984375 198.335938 113.15625 197.503906 112.738281 C 197.148438 112.5625 196.792969 112.503906 196.4375 112.503906 C 195.960938 112.503906 195.484375 112.679688 195.070312 112.976562 L 94.144531 185.367188 C 93.550781 185.839844 93.136719 186.550781 93.136719 187.261719 C 93.136719 188.035156 93.492188 188.746094 94.144531 189.160156 L 194.890625 261.90625 C 195.308594 262.199219 195.84375 262.378906 196.316406 262.378906 Z M 196.316406 262.378906 " fill-opacity="1" fill-rule="nonzero"/></g><g clip-path="url(#id5)"><path fill="#ffffff" d="M 1435.34375 120.574219 C 1435.34375 113.214844 1429.355469 107.230469 1421.992188 107.230469 L 1412.351562 107.230469 L 1412.351562 96.136719 C 1412.351562 91.6875 1408.730469 88.070312 1404.28125 88.070312 L 1398.957031 88.070312 C 1394.511719 88.070312 1390.890625 91.6875 1390.890625 96.136719 L 1390.890625 107.226562 L 1377.859375 107.226562 L 1377.859375 96.136719 C 1377.859375 91.6875 1374.238281 88.070312 1369.789062 88.070312 L 1364.464844 88.070312 C 1360.015625 88.070312 1356.398438 91.6875 1356.398438 96.136719 L 1356.398438 107.226562 L 1343.363281 107.226562 L 1343.363281 96.136719 C 1343.363281 91.6875 1339.746094 88.070312 1335.296875 88.070312 L 1329.972656 88.070312 C 1325.523438 88.070312 1321.90625 91.6875 1321.90625 96.136719 L 1321.90625 107.226562 L 1308.871094 107.226562 L 1308.871094 96.136719 C 1308.871094 91.6875 1305.253906 88.070312 1300.800781 88.070312 L 1295.480469 88.070312 C 1291.03125 88.070312 1287.410156 91.6875 1287.410156 96.136719 L 1287.410156 107.226562 L 1274.378906 107.226562 L 1274.378906 96.136719 C 1274.378906 91.6875 1270.761719 88.070312 1266.308594 88.070312 L 1260.988281 88.070312 C 1256.539062 88.070312 1252.917969 91.6875 1252.917969 96.136719 L 1252.917969 107.230469 L 1243.28125 107.230469 C 1243.28125 107.230469 1243.277344 107.226562 1243.277344 107.226562 C 1235.914062 107.226562 1229.925781 113.214844 1229.925781 120.574219 L 1229.925781 256.847656 C 1229.925781 258.058594 1230.90625 259.039062 1232.117188 259.039062 L 1433.152344 259.039062 C 1434.363281 259.039062 1435.34375 258.058594 1435.34375 256.847656 Z M 1395.273438 96.136719 C 1395.273438 94.105469 1396.925781 92.453125 1398.957031 92.453125 L 1404.28125 92.453125 C 1406.3125 92.453125 1407.964844 94.105469 1407.964844 96.136719 L 1407.964844 109.40625 C 1407.964844 109.410156 1407.964844 109.414062 1407.964844 109.417969 C 1407.964844 109.425781 1407.964844 109.429688 1407.964844 109.433594 L 1407.964844 122.695312 C 1407.964844 124.722656 1406.3125 126.375 1404.28125 126.375 L 1398.957031 126.375 C 1396.925781 126.375 1395.273438 124.722656 1395.273438 122.695312 Z M 1360.78125 109.421875 C 1360.78125 109.421875 1360.78125 109.417969 1360.78125 109.417969 C 1360.78125 109.417969 1360.78125 109.414062 1360.78125 109.414062 L 1360.78125 96.136719 C 1360.78125 94.105469 1362.433594 92.453125 1364.464844 92.453125 L 1369.789062 92.453125 C 1371.820312 92.453125 1373.472656 94.105469 1373.472656 96.136719 L 1373.472656 122.695312 C 1373.472656 124.726562 1371.820312 126.378906 1369.789062 126.378906 L 1364.464844 126.378906 C 1362.433594 126.378906 1360.78125 124.726562 1360.78125 122.695312 Z M 1326.289062 109.4375 C 1326.289062 109.429688 1326.289062 109.425781 1326.289062 109.417969 C 1326.289062 109.410156 1326.289062 109.40625 1326.289062 109.398438 L 1326.289062 96.136719 C 1326.289062 94.105469 1327.941406 92.453125 1329.972656 92.453125 L 1335.296875 92.453125 C 1337.328125 92.453125 1338.980469 94.105469 1338.980469 96.136719 L 1338.980469 109.398438 C 1338.980469 109.402344 1338.976562 109.410156 1338.976562 109.417969 C 1338.976562 109.425781 1338.980469 109.429688 1338.980469 109.4375 L 1338.980469 122.695312 C 1338.980469 124.722656 1337.328125 126.375 1335.296875 126.375 L 1329.972656 126.375 C 1327.941406 126.375 1326.289062 124.722656 1326.289062 122.695312 Z M 1291.796875 96.136719 C 1291.796875 94.105469 1293.449219 92.453125 1295.480469 92.453125 L 1300.800781 92.453125 C 1302.835938 92.453125 1304.488281 94.105469 1304.488281 96.136719 L 1304.488281 122.695312 C 1304.488281 124.726562 1302.835938 126.378906 1300.800781 126.378906 L 1295.480469 126.378906 C 1293.449219 126.378906 1291.796875 124.726562 1291.796875 122.695312 Z M 1257.304688 109.425781 C 1257.304688 109.421875 1257.304688 109.421875 1257.304688 109.417969 C 1257.304688 109.417969 1257.304688 109.417969 1257.304688 109.414062 L 1257.304688 96.136719 C 1257.304688 94.105469 1258.957031 92.453125 1260.988281 92.453125 L 1266.308594 92.453125 C 1268.339844 92.453125 1269.996094 94.105469 1269.996094 96.136719 L 1269.996094 122.695312 C 1269.996094 124.726562 1268.339844 126.378906 1266.308594 126.378906 L 1260.988281 126.378906 C 1258.957031 126.378906 1257.304688 124.726562 1257.304688 122.695312 Z M 1430.960938 254.65625 L 1234.308594 254.65625 L 1234.308594 120.574219 C 1234.308594 115.632812 1238.332031 111.613281 1243.273438 111.609375 C 1243.273438 111.609375 1243.277344 111.613281 1243.277344 111.613281 L 1252.917969 111.613281 L 1252.917969 122.695312 C 1252.917969 127.140625 1256.539062 130.761719 1260.988281 130.761719 L 1266.308594 130.761719 C 1270.757812 130.761719 1274.378906 127.140625 1274.378906 122.695312 L 1274.378906 111.609375 L 1287.410156 111.609375 L 1287.410156 122.695312 C 1287.410156 127.140625 1291.03125 130.757812 1295.480469 130.757812 L 1300.800781 130.757812 C 1305.25 130.757812 1308.871094 127.140625 1308.871094 122.695312 L 1308.871094 111.609375 L 1321.90625 111.609375 L 1321.90625 122.695312 C 1321.90625 127.140625 1325.523438 130.757812 1329.972656 130.757812 L 1335.296875 130.757812 C 1339.746094 130.757812 1343.363281 127.140625 1343.363281 122.695312 L 1343.363281 111.609375 L 1356.398438 111.609375 L 1356.398438 122.695312 C 1356.398438 127.140625 1360.015625 130.757812 1364.464844 130.757812 L 1369.789062 130.757812 C 1374.238281 130.757812 1377.859375 127.140625 1377.859375 122.695312 L 1377.859375 111.609375 L 1390.890625 111.609375 L 1390.890625 122.695312 C 1390.890625 127.140625 1394.511719 130.757812 1398.957031 130.757812 L 1404.28125 130.757812 C 1408.730469 130.757812 1412.351562 127.140625 1412.351562 122.695312 L 1412.351562 111.609375 L 1421.992188 111.609375 C 1426.9375 111.609375 1430.960938 115.632812 1430.960938 120.574219 Z M 1430.960938 254.65625 " fill-opacity="1" fill-rule="nonzero"/></g><path fill="#ffffff" d="M 1416.023438 140.613281 L 1249.246094 140.613281 C 1248.035156 140.613281 1247.054688 141.59375 1247.054688 142.800781 L 1247.054688 241.488281 C 1247.054688 242.699219 1248.035156 243.679688 1249.246094 243.679688 L 1416.023438 243.679688 C 1417.234375 243.679688 1418.214844 242.699219 1418.214844 241.488281 L 1418.214844 142.800781 C 1418.214844 141.59375 1417.234375 140.613281 1416.023438 140.613281 Z M 1288.746094 239.296875 L 1251.4375 239.296875 L 1251.4375 210.78125 L 1288.746094 210.78125 Z M 1288.746094 206.398438 L 1251.4375 206.398438 L 1251.4375 177.886719 L 1288.746094 177.886719 Z M 1288.746094 173.507812 L 1251.4375 173.507812 L 1251.4375 144.992188 L 1288.746094 144.992188 Z M 1330.441406 239.296875 L 1293.132812 239.296875 L 1293.132812 210.78125 L 1330.441406 210.78125 Z M 1330.441406 206.398438 L 1293.132812 206.398438 L 1293.132812 177.886719 L 1330.441406 177.886719 Z M 1330.441406 173.507812 L 1293.132812 173.507812 L 1293.132812 144.992188 L 1330.441406 144.992188 Z M 1372.136719 239.296875 L 1334.828125 239.296875 L 1334.828125 210.78125 L 1372.136719 210.78125 Z M 1372.136719 206.398438 L 1334.828125 206.398438 L 1334.828125 177.886719 L 1372.136719 177.886719 Z M 1372.136719 173.507812 L 1334.828125 173.507812 L 1334.828125 144.992188 L 1372.136719 144.992188 Z M 1413.832031 239.296875 L 1376.519531 239.296875 L 1376.519531 210.78125 L 1413.832031 210.78125 Z M 1413.832031 206.398438 L 1376.519531 206.398438 L 1376.519531 177.886719 L 1413.832031 177.886719 Z M 1413.832031 173.507812 L 1376.519531 173.507812 L 1376.519531 144.992188 L 1413.832031 144.992188 Z M 1413.832031 173.507812 " fill-opacity="1" fill-rule="nonzero"/><path fill="#ffffff" d="M 1306.640625 200.730469 C 1306.640625 200.730469 1306.640625 200.734375 1306.640625 200.734375 C 1306.960938 201.054688 1307.355469 201.253906 1307.769531 201.335938 C 1307.910156 201.359375 1308.050781 201.375 1308.191406 201.375 C 1308.75 201.375 1309.3125 201.160156 1309.738281 200.734375 L 1323.824219 186.65625 C 1324.679688 185.800781 1324.679688 184.414062 1323.824219 183.558594 C 1322.96875 182.703125 1321.578125 182.703125 1320.722656 183.558594 L 1308.191406 196.085938 L 1302.851562 190.75 C 1301.996094 189.894531 1300.605469 189.894531 1299.75 190.75 C 1298.894531 191.605469 1298.894531 192.992188 1299.75 193.847656 Z M 1306.640625 200.730469 " fill-opacity="1" fill-rule="nonzero"/><path fill="#ffffff" d="M 1390.027344 233.625 C 1390.457031 234.054688 1391.015625 234.269531 1391.578125 234.269531 C 1391.71875 234.269531 1391.859375 234.253906 1391.996094 234.230469 C 1392.410156 234.148438 1392.808594 233.949219 1393.128906 233.628906 C 1393.128906 233.625 1393.128906 233.625 1393.128906 233.625 L 1407.210938 219.550781 C 1408.066406 218.695312 1408.066406 217.308594 1407.210938 216.453125 C 1406.355469 215.597656 1404.964844 215.597656 1404.109375 216.453125 L 1391.578125 228.980469 L 1386.242188 223.644531 C 1385.382812 222.789062 1383.996094 222.789062 1383.140625 223.644531 C 1382.285156 224.5 1382.285156 225.886719 1383.140625 226.742188 Z M 1390.027344 233.625 " fill-opacity="1" fill-rule="nonzero"/><path fill="#ffffff" d="M 1346.507812 167.835938 C 1346.9375 168.265625 1347.496094 168.480469 1348.058594 168.480469 C 1348.621094 168.480469 1349.179688 168.265625 1349.609375 167.835938 L 1363.691406 153.761719 C 1364.546875 152.90625 1364.546875 151.519531 1363.691406 150.664062 C 1362.835938 149.808594 1361.449219 149.808594 1360.59375 150.664062 L 1348.058594 163.1875 L 1342.722656 157.855469 C 1341.863281 157 1340.476562 157 1339.621094 157.855469 C 1338.765625 158.710938 1338.765625 160.097656 1339.621094 160.953125 Z M 1346.507812 167.835938 " fill-opacity="1" fill-rule="nonzero"/><g clip-path="url(#id6)"><path fill="#ffffff" d="M 1433.152344 265 L 1232.117188 265 C 1230.90625 265 1229.925781 265.980469 1229.925781 267.191406 C 1229.925781 268.402344 1230.90625 269.382812 1232.117188 269.382812 L 1433.152344 269.382812 C 1434.363281 269.382812 1435.34375 268.402344 1435.34375 267.191406 C 1435.34375 265.980469 1434.363281 265 1433.152344 265 Z M 1433.152344 265 " fill-opacity="1" fill-rule="nonzero"/></g><g clip-path="url(#id7)"><path fill="#ffffff" d="M 1433.152344 274.179688 L 1232.117188 274.179688 C 1230.90625 274.179688 1229.925781 275.160156 1229.925781 276.371094 C 1229.925781 277.582031 1230.90625 278.5625 1232.117188 278.5625 L 1433.152344 278.5625 C 1434.363281 278.5625 1435.34375 277.582031 1435.34375 276.371094 C 1435.34375 275.160156 1434.363281 274.179688 1433.152344 274.179688 Z M 1433.152344 274.179688 " fill-opacity="1" fill-rule="nonzero"/></g><g fill="#ffffff" fill-opacity="1"><g transform="translate(426.760718, 158.342867)"><g><path d="M 97.59375 -8.984375 C 98.257812 -8.984375 98.59375 -8.679688 98.59375 -8.078125 L 98.59375 -1 C 98.59375 -0.332031 98.257812 0 97.59375 0 C 91.738281 0 86.351562 -2.257812 81.4375 -6.78125 C 77.84375 -2.257812 72.019531 0 63.96875 0 L 3.296875 0 L 1.703125 -8.984375 L 16.171875 -8.984375 L 16.171875 -71.546875 L 24.65625 -72.859375 L 24.65625 -37.53125 C 34.894531 -41.976562 42.691406 -45.035156 48.046875 -46.703125 C 53.398438 -48.367188 58.578125 -49.203125 63.578125 -49.203125 C 69.890625 -49.203125 75.09375 -47.1875 79.1875 -43.15625 C 83.28125 -39.132812 85.289062 -33.960938 85.21875 -27.640625 L 85.21875 -19.15625 C 85.21875 -16.96875 84.988281 -15.070312 84.53125 -13.46875 C 88.789062 -10.476562 93.144531 -8.984375 97.59375 -8.984375 Z M 76.75 -20.65625 L 76.75 -26.453125 C 76.75 -30.640625 75.347656 -34.015625 72.546875 -36.578125 C 69.753906 -39.140625 66.164062 -40.421875 61.78125 -40.421875 C 57.25 -40.421875 52.820312 -39.800781 48.5 -38.5625 C 44.175781 -37.332031 36.226562 -34.523438 24.65625 -30.140625 L 24.65625 -8.984375 L 64.0625 -8.984375 C 68.125 -8.984375 71.253906 -9.976562 73.453125 -11.96875 C 75.648438 -13.96875 76.75 -16.863281 76.75 -20.65625 Z M 76.75 -20.65625 "/></g></g></g><g fill="#ffffff" fill-opacity="1"><g transform="translate(524.352635, 158.342867)"><g><path d="M 37.53125 -8.984375 C 38.1875 -8.984375 38.515625 -8.679688 38.515625 -8.078125 L 38.515625 -1 C 38.515625 -0.332031 38.1875 0 37.53125 0 C 31.34375 0 25.617188 -2.425781 20.359375 -7.28125 C 16.765625 -2.425781 9.976562 0 0 0 C -0.664062 0 -1 -0.332031 -1 -1 L -0.890625 -8.078125 C -0.890625 -8.679688 -0.5625 -8.984375 0.09375 -8.984375 C 5.414062 -8.984375 9.289062 -9.960938 11.71875 -11.921875 C 14.15625 -13.890625 15.375 -17.066406 15.375 -21.453125 L 15.375 -37.625 L 23.75 -38.921875 L 23.75 -19.15625 C 23.75 -17.5 23.582031 -15.769531 23.25 -13.96875 C 27.707031 -10.644531 32.46875 -8.984375 37.53125 -8.984375 Z M 3.296875 15.0625 L 10.578125 7.890625 L 17.859375 15.0625 L 10.578125 22.25 Z M 19.0625 15.0625 L 26.453125 7.890625 L 33.734375 15.0625 L 26.453125 22.25 Z M 19.0625 15.0625 "/></g></g></g><g fill="#ffffff" fill-opacity="1"><g transform="translate(561.87264, 158.342867)"><g><path d="M 91.3125 -8.984375 C 91.976562 -8.984375 92.3125 -8.679688 92.3125 -8.078125 L 92.3125 -1 C 92.3125 -0.332031 91.976562 0 91.3125 0 C 85.457031 0 80.066406 -2.257812 75.140625 -6.78125 C 71.554688 -2.257812 65.738281 0 57.6875 0 L 0 0 C -0.664062 0 -1 -0.332031 -1 -1 L -1 -8.078125 C -0.863281 -8.679688 -0.53125 -8.984375 0 -8.984375 L 9.875 -8.984375 L 9.875 -71.546875 L 18.359375 -72.859375 L 18.359375 -37.625 C 28.742188 -42.082031 36.578125 -45.125 41.859375 -46.75 C 47.148438 -48.382812 52.289062 -49.203125 57.28125 -49.203125 C 63.601562 -49.203125 68.804688 -47.1875 72.890625 -43.15625 C 76.984375 -39.132812 79 -33.960938 78.9375 -27.640625 L 78.9375 -19.15625 C 78.9375 -17.425781 78.703125 -15.53125 78.234375 -13.46875 C 82.492188 -10.476562 86.851562 -8.984375 91.3125 -8.984375 Z M 70.453125 -20.65625 L 70.453125 -26.453125 C 70.453125 -30.640625 69.054688 -34.015625 66.265625 -36.578125 C 63.472656 -39.140625 59.878906 -40.421875 55.484375 -40.421875 C 51.023438 -40.421875 46.632812 -39.800781 42.3125 -38.5625 C 37.988281 -37.332031 30.003906 -34.554688 18.359375 -30.234375 L 18.359375 -8.984375 L 57.78125 -8.984375 C 61.84375 -8.984375 64.96875 -9.976562 67.15625 -11.96875 C 69.351562 -13.96875 70.453125 -16.863281 70.453125 -20.65625 Z M 70.453125 -20.65625 "/></g></g></g><g fill="#ffffff" fill-opacity="1"><g transform="translate(653.177973, 158.342867)"><g><path d="M 36.03125 -62.171875 L 28.734375 -54.890625 L 21.359375 -62.171875 L 28.546875 -69.359375 Z M 63.375 -8.984375 C 64.039062 -8.984375 64.375 -8.679688 64.375 -8.078125 L 64.375 -1 C 64.375 -0.332031 64.039062 0 63.375 0 L 58.78125 0 C 54.59375 0 51.195312 -0.929688 48.59375 -2.796875 C 46 -4.660156 44.269531 -7.253906 43.40625 -10.578125 C 28.101562 -3.523438 13.664062 0 0.09375 0 C -0.632812 0 -1 -0.332031 -1 -1 L -1 -8.078125 C -1 -8.679688 -0.632812 -8.984375 0.09375 -8.984375 C 15.46875 -8.984375 31.070312 -12.84375 46.90625 -20.5625 C 38.320312 -27.75 31.984375 -32.503906 27.890625 -34.828125 C 23.796875 -37.160156 19.921875 -38.328125 16.265625 -38.328125 C 14.734375 -38.328125 11.472656 -37.789062 6.484375 -36.71875 L 4.796875 -44.3125 C 9.710938 -46.175781 13.96875 -47.109375 17.5625 -47.109375 C 21.882812 -47.109375 26.457031 -45.675781 31.28125 -42.8125 C 36.101562 -39.945312 44.207031 -33.789062 55.59375 -24.34375 L 54.296875 -16.0625 C 52.429688 -14.9375 50.53125 -13.941406 48.59375 -13.078125 C 50.257812 -10.347656 53.6875 -8.984375 58.875 -8.984375 Z M 63.375 -8.984375 "/></g></g></g><g fill="#ffffff" fill-opacity="1"><g transform="translate(716.542879, 158.342867)"><g><path d="M 18.359375 -53.296875 L 11.078125 -46.109375 L 3.796875 -53.296875 L 11.078125 -60.484375 Z M 34.234375 -53.296875 L 26.9375 -46.109375 L 19.5625 -53.296875 L 26.9375 -60.484375 Z M 37.53125 -8.984375 C 38.1875 -8.984375 38.515625 -8.679688 38.515625 -8.078125 L 38.515625 -1 C 38.515625 -0.332031 38.1875 0 37.53125 0 C 31.34375 0 25.617188 -2.425781 20.359375 -7.28125 C 16.765625 -2.425781 9.976562 0 0 0 C -0.664062 0 -1 -0.332031 -1 -1 L -0.890625 -8.078125 C -0.890625 -8.679688 -0.5625 -8.984375 0.09375 -8.984375 C 5.414062 -8.984375 9.289062 -9.960938 11.71875 -11.921875 C 14.15625 -13.890625 15.375 -17.066406 15.375 -21.453125 L 15.375 -37.625 L 23.75 -38.921875 L 23.75 -19.15625 C 23.75 -17.5 23.582031 -15.769531 23.25 -13.96875 C 27.707031 -10.644531 32.46875 -8.984375 37.53125 -8.984375 Z M 37.53125 -8.984375 "/></g></g></g><g fill="#ffffff" fill-opacity="1"><g transform="translate(754.062883, 158.342867)"><g><path d="M 0 0 C -0.664062 0 -1 -0.332031 -1 -1 L -1 -8.078125 C -1 -8.679688 -0.632812 -8.984375 0.09375 -8.984375 C 8.414062 -8.984375 12.578125 -13.304688 12.578125 -21.953125 L 12.671875 -71.546875 L 21.0625 -72.859375 L 21.0625 -19.953125 C 21.0625 -6.648438 14.039062 0 0 0 Z M 0 0 "/></g></g></g><g fill="#ffffff" fill-opacity="1"><g transform="translate(783.699708, 158.342867)"><g><path d="M 8.6875 0 L 8.6875 -71.546875 L 17.171875 -72.859375 L 17.171875 0 Z M 8.6875 0 "/></g></g></g><g fill="#ffffff" fill-opacity="1"><g transform="translate(809.045677, 158.342867)"><g><path d="M 27.34375 -48 C 33.53125 -48 38.550781 -45.953125 42.40625 -41.859375 C 46.269531 -37.773438 48.203125 -32.367188 48.203125 -25.640625 L 48.203125 -2.296875 C 48.203125 13.535156 35.796875 21.453125 10.984375 21.453125 L 9.984375 14.171875 C 20.023438 14.171875 27.503906 12.820312 32.421875 10.125 C 37.347656 7.4375 39.8125 3.164062 39.8125 -2.6875 L 39.8125 -2.890625 C 35.5625 -0.960938 31.4375 0 27.4375 0 C 20.519531 0 14.929688 -2.144531 10.671875 -6.4375 C 6.421875 -10.726562 4.296875 -16.5 4.296875 -23.75 C 4.296875 -30.875 6.472656 -36.695312 10.828125 -41.21875 C 15.179688 -45.738281 20.6875 -48 27.34375 -48 Z M 28.546875 -8.6875 C 32.472656 -8.6875 36.226562 -9.316406 39.8125 -10.578125 L 39.8125 -24.953125 C 39.8125 -29.210938 38.582031 -32.671875 36.125 -35.328125 C 33.664062 -37.984375 30.472656 -39.3125 26.546875 -39.3125 C 22.421875 -39.3125 18.992188 -37.914062 16.265625 -35.125 C 13.535156 -32.332031 12.171875 -28.675781 12.171875 -24.15625 C 12.171875 -19.03125 13.632812 -15.132812 16.5625 -12.46875 C 19.488281 -9.8125 23.484375 -8.550781 28.546875 -8.6875 Z M 28.546875 -8.6875 "/></g></g></g><g fill="#ffffff" fill-opacity="1"><g transform="translate(863.529505, 158.342867)"><g/></g></g><g fill="#ffffff" fill-opacity="1"><g transform="translate(887.478444, 158.342867)"><g><path d="M 41.421875 -48 C 48.003906 -48 53.457031 -45.550781 57.78125 -40.65625 C 62.101562 -35.769531 64.265625 -29.898438 64.265625 -23.046875 C 64.265625 -16.265625 62.117188 -10.578125 57.828125 -5.984375 C 53.535156 -1.398438 48.066406 0.890625 41.421875 0.890625 C 35.828125 0.890625 31.035156 -0.769531 27.046875 -4.09375 C 23.054688 -7.414062 20.460938 -11.738281 19.265625 -17.0625 C 14.472656 -16.0625 12.078125 -12.503906 12.078125 -6.390625 L 12.078125 25.640625 L 3.6875 26.9375 L 3.59375 -7.484375 C 3.59375 -18.597656 8.648438 -24.785156 18.765625 -26.046875 C 19.359375 -32.296875 21.75 -37.515625 25.9375 -41.703125 C 30.132812 -45.898438 35.296875 -48 41.421875 -48 Z M 31.03125 -12.46875 C 33.757812 -9.613281 37.21875 -8.1875 41.40625 -8.1875 C 45.601562 -8.1875 49.046875 -9.613281 51.734375 -12.46875 C 54.429688 -15.332031 55.78125 -18.894531 55.78125 -23.15625 C 55.78125 -27.539062 54.429688 -31.28125 51.734375 -34.375 C 49.046875 -37.46875 45.601562 -39.015625 41.40625 -39.015625 C 37.21875 -39.015625 33.757812 -37.46875 31.03125 -34.375 C 28.300781 -31.28125 26.9375 -27.539062 26.9375 -23.15625 C 26.9375 -18.894531 28.300781 -15.332031 31.03125 -12.46875 Z M 31.03125 -12.46875 "/></g></g></g><g fill="#ffffff" fill-opacity="1"><g transform="translate(955.034405, 158.342867)"><g><path d="M 8.6875 0 L 8.6875 -71.546875 L 17.171875 -72.859375 L 17.171875 0 Z M 8.6875 0 "/></g></g></g><g fill="#ffffff" fill-opacity="1"><g transform="translate(980.380374, 158.342867)"><g><path d="M 26.640625 -64.46875 L 19.359375 -57.1875 L 11.96875 -64.46875 L 19.15625 -71.65625 Z M 34.625 -8.984375 C 35.289062 -8.984375 35.625 -8.679688 35.625 -8.078125 L 35.625 -1 C 35.625 -0.332031 35.289062 0 34.625 0 C 29.5 0 25.742188 -1.765625 23.359375 -5.296875 L 23.359375 -2.6875 C 23.359375 5.625 21.226562 11.722656 16.96875 15.609375 C 12.707031 19.503906 6.316406 21.453125 -2.203125 21.453125 L -3 14.171875 C 8.976562 14.171875 14.96875 8.445312 14.96875 -3 L 14.875 -48.203125 L 23.359375 -49.59375 L 23.359375 -18.46875 C 23.816406 -12.144531 27.570312 -8.984375 34.625 -8.984375 Z M 34.625 -8.984375 "/></g></g></g><g fill="#ffffff" fill-opacity="1"><g transform="translate(1015.106352, 158.342867)"><g><path d="M 18.359375 -53.296875 L 11.078125 -46.109375 L 3.796875 -53.296875 L 11.078125 -60.484375 Z M 34.234375 -53.296875 L 26.9375 -46.109375 L 19.5625 -53.296875 L 26.9375 -60.484375 Z M 37.53125 -8.984375 C 38.1875 -8.984375 38.515625 -8.679688 38.515625 -8.078125 L 38.515625 -1 C 38.515625 -0.332031 38.1875 0 37.53125 0 C 31.34375 0 25.617188 -2.425781 20.359375 -7.28125 C 16.765625 -2.425781 9.976562 0 0 0 C -0.664062 0 -1 -0.332031 -1 -1 L -0.890625 -8.078125 C -0.890625 -8.679688 -0.5625 -8.984375 0.09375 -8.984375 C 5.414062 -8.984375 9.289062 -9.960938 11.71875 -11.921875 C 14.15625 -13.890625 15.375 -17.066406 15.375 -21.453125 L 15.375 -37.625 L 23.75 -38.921875 L 23.75 -19.15625 C 23.75 -17.5 23.582031 -15.769531 23.25 -13.96875 C 27.707031 -10.644531 32.46875 -8.984375 37.53125 -8.984375 Z M 37.53125 -8.984375 "/></g></g></g><g fill="#ffffff" fill-opacity="1"><g transform="translate(1052.626322, 158.342867)"><g><path d="M 0 0 C -0.664062 0 -1 -0.332031 -1 -1 L -1 -8.078125 C -1 -8.679688 -0.632812 -8.984375 0.09375 -8.984375 C 8.414062 -8.984375 12.578125 -13.304688 12.578125 -21.953125 L 12.671875 -71.546875 L 21.0625 -72.859375 L 21.0625 -19.953125 C 21.0625 -6.648438 14.039062 0 0 0 Z M 0 0 "/></g></g></g><g fill="#ffffff" fill-opacity="1"><g transform="translate(1082.263146, 158.342867)"><g><path d="M 48.90625 -71.546875 L 57.390625 -72.859375 L 57.390625 -19.953125 C 57.390625 -6.648438 50.367188 0 36.328125 0 L 3.296875 0 L 1.703125 -8.984375 L 25.34375 -8.984375 L 15.375 -57.6875 L 23.75 -59.78125 L 33.328125 -8.984375 L 36.328125 -8.984375 C 44.710938 -8.984375 48.90625 -13.304688 48.90625 -21.953125 Z M 27.25 14.96875 C 27.25 16.894531 27.8125 18.457031 28.9375 19.65625 L 41.8125 19.65625 L 40.515625 25.34375 L 17.96875 25.34375 L 17.96875 19.65625 L 23.453125 19.65625 C 22.390625 17.925781 21.859375 16.03125 21.859375 13.96875 C 21.859375 11.4375 22.703125 9.359375 24.390625 7.734375 C 26.085938 6.109375 28.238281 5.296875 30.84375 5.296875 C 32.90625 5.296875 35.5 5.925781 38.625 7.1875 L 38.625 12.078125 C 36.03125 11.078125 33.898438 10.578125 32.234375 10.578125 C 30.765625 10.578125 29.566406 10.972656 28.640625 11.765625 C 27.710938 12.566406 27.25 13.632812 27.25 14.96875 Z M 27.25 14.96875 "/></g></g></g><g fill="#ffffff" fill-opacity="1"><g transform="translate(1148.222545, 158.342867)"><g><path d="M 8.6875 0 L 8.6875 -71.546875 L 17.171875 -72.859375 L 17.171875 0 Z M 8.6875 0 "/></g></g></g><g fill="#ffffff" fill-opacity="1"><g transform="translate(368.882076, 260.714123)"><g><path d="M 34.140625 -2.765625 C 30.492188 -0.554688 26.359375 0.546875 21.734375 0.546875 C 16.128906 0.546875 11.554688 -1.164062 8.015625 -4.59375 C 4.472656 -8.03125 2.703125 -12.640625 2.703125 -18.421875 C 2.703125 -24.203125 4.484375 -28.804688 8.046875 -32.234375 C 11.609375 -35.671875 16.242188 -37.390625 21.953125 -37.390625 C 26.609375 -37.390625 30.742188 -36.285156 34.359375 -34.078125 L 33.4375 -29.640625 C 30.039062 -31.953125 26.210938 -33.109375 21.953125 -33.109375 C 17.722656 -33.109375 14.316406 -31.789062 11.734375 -29.15625 C 9.148438 -26.519531 7.859375 -22.941406 7.859375 -18.421875 C 7.859375 -13.910156 9.140625 -10.332031 11.703125 -7.6875 C 14.265625 -5.050781 17.625 -3.734375 21.78125 -3.734375 C 26.550781 -3.734375 30.671875 -4.945312 34.140625 -7.375 Z M 34.140625 -2.765625 "/></g></g></g><g fill="#ffffff" fill-opacity="1"><g transform="translate(405.615594, 260.714123)"><g><path d="M 36.4375 -4.8125 C 32.914062 -1.238281 28.175781 0.546875 22.21875 0.546875 C 16.257812 0.546875 11.515625 -1.238281 7.984375 -4.8125 C 4.460938 -8.394531 2.703125 -12.929688 2.703125 -18.421875 C 2.703125 -23.878906 4.460938 -28.40625 7.984375 -32 C 11.515625 -35.59375 16.257812 -37.390625 22.21875 -37.390625 C 28.175781 -37.390625 32.914062 -35.59375 36.4375 -32 C 39.957031 -28.40625 41.71875 -23.878906 41.71875 -18.421875 C 41.71875 -12.929688 39.957031 -8.394531 36.4375 -4.8125 Z M 22.21875 -33.109375 C 17.84375 -33.109375 14.351562 -31.753906 11.75 -29.046875 C 9.15625 -26.335938 7.859375 -22.796875 7.859375 -18.421875 C 7.859375 -14.015625 9.15625 -10.460938 11.75 -7.765625 C 14.351562 -5.078125 17.84375 -3.734375 22.21875 -3.734375 C 26.625 -3.734375 30.117188 -5.078125 32.703125 -7.765625 C 35.285156 -10.460938 36.578125 -14.015625 36.578125 -18.421875 C 36.578125 -22.796875 35.285156 -26.335938 32.703125 -29.046875 C 30.117188 -31.753906 26.625 -33.109375 22.21875 -33.109375 Z M 22.21875 -33.109375 "/></g></g></g><g fill="#ffffff" fill-opacity="1"><g transform="translate(450.042561, 260.714123)"><g><path d="M 25.3125 -8.828125 L 22.21875 -8.828125 L 9.375 -28.171875 L 9.375 0 L 4.765625 0 L 4.765625 -36.84375 L 9.75 -36.84375 L 24 -15.171875 L 38.3125 -36.84375 L 43.234375 -36.84375 L 43.234375 -0.375 L 38.203125 0.375 L 38.203125 -28.171875 Z M 25.3125 -8.828125 "/></g></g></g><g fill="#ffffff" fill-opacity="1"><g transform="translate(498.099542, 260.714123)"><g><path d="M 25.3125 -8.828125 L 22.21875 -8.828125 L 9.375 -28.171875 L 9.375 0 L 4.765625 0 L 4.765625 -36.84375 L 9.75 -36.84375 L 24 -15.171875 L 38.3125 -36.84375 L 43.234375 -36.84375 L 43.234375 -0.375 L 38.203125 0.375 L 38.203125 -28.171875 Z M 25.3125 -8.828125 "/></g></g></g><g fill="#ffffff" fill-opacity="1"><g transform="translate(546.156532, 260.714123)"><g><path d="M 9.8125 0 L 4.765625 0 L 4.765625 -36.515625 L 9.8125 -37.234375 Z M 9.8125 0 "/></g></g></g><g fill="#ffffff" fill-opacity="1"><g transform="translate(560.784914, 260.714123)"><g><path d="M 13.703125 0 L 13.703125 -32.5625 L 0.921875 -32.5625 L 0.921875 -36.84375 L 31.59375 -36.84375 L 30.890625 -32.5625 L 18.796875 -32.5625 L 18.796875 0 Z M 13.703125 0 "/></g></g></g><g fill="#ffffff" fill-opacity="1"><g transform="translate(593.292453, 260.714123)"><g><path d="M 25.3125 -8.828125 L 22.21875 -8.828125 L 9.375 -28.171875 L 9.375 0 L 4.765625 0 L 4.765625 -36.84375 L 9.75 -36.84375 L 24 -15.171875 L 38.3125 -36.84375 L 43.234375 -36.84375 L 43.234375 -0.375 L 38.203125 0.375 L 38.203125 -28.171875 Z M 25.3125 -8.828125 "/></g></g></g><g fill="#ffffff" fill-opacity="1"><g transform="translate(641.349434, 260.714123)"><g><path d="M 4.765625 0 L 4.765625 -36.84375 L 30.34375 -36.84375 L 30.34375 -32.5625 L 9.8125 -32.5625 L 9.8125 -20.96875 L 28.5625 -20.96875 L 29.265625 -16.75 L 9.8125 -16.75 L 9.8125 -4.28125 L 30.890625 -4.28125 L 30.890625 0 Z M 4.765625 0 "/></g></g></g><g fill="#ffffff" fill-opacity="1"><g transform="translate(675.103101, 260.714123)"><g><path d="M 9.375 -29.265625 L 9.375 0 L 4.765625 0 L 4.765625 -36.84375 L 9.75 -36.84375 L 31.921875 -7.75 L 31.921875 -36.515625 L 36.578125 -37.234375 L 36.578125 0 L 31.59375 0 Z M 9.375 -29.265625 "/></g></g></g><g fill="#ffffff" fill-opacity="1"><g transform="translate(716.441864, 260.714123)"><g><path d="M 13.703125 0 L 13.703125 -32.5625 L 0.921875 -32.5625 L 0.921875 -36.84375 L 31.59375 -36.84375 L 30.890625 -32.5625 L 18.796875 -32.5625 L 18.796875 0 Z M 13.703125 0 "/></g></g></g><g fill="#ffffff" fill-opacity="1"><g transform="translate(748.94942, 260.714123)"><g/></g></g><g fill="#ffffff" fill-opacity="1"><g transform="translate(761.952442, 260.714123)"><g><path d="M 32.515625 0.375 L 28.828125 -8.609375 L 9.8125 -8.609375 L 6.28125 0 L 1.078125 0 L 16.46875 -36.796875 L 22.21875 -37.5 L 37.546875 -0.375 Z M 11.546875 -12.84375 L 27.09375 -12.84375 L 19.296875 -31.859375 Z M 11.546875 -12.84375 "/></g></g></g><g fill="#ffffff" fill-opacity="1"><g transform="translate(800.582225, 260.714123)"><g><path d="M 9.375 -29.265625 L 9.375 0 L 4.765625 0 L 4.765625 -36.84375 L 9.75 -36.84375 L 31.921875 -7.75 L 31.921875 -36.515625 L 36.578125 -37.234375 L 36.578125 0 L 31.59375 0 Z M 9.375 -29.265625 "/></g></g></g><g fill="#ffffff" fill-opacity="1"><g transform="translate(841.920989, 260.714123)"><g><path d="M 4.765625 0 L 4.765625 -36.84375 L 18.046875 -36.84375 C 24.003906 -36.84375 28.71875 -35.125 32.1875 -31.6875 C 35.65625 -28.257812 37.390625 -23.835938 37.390625 -18.421875 C 37.390625 -12.960938 35.65625 -8.523438 32.1875 -5.109375 C 28.71875 -1.703125 24.003906 0 18.046875 0 Z M 17.984375 -4.28125 C 22.390625 -4.28125 25.863281 -5.539062 28.40625 -8.0625 C 30.957031 -10.59375 32.234375 -14.046875 32.234375 -18.421875 C 32.234375 -22.753906 30.953125 -26.191406 28.390625 -28.734375 C 25.828125 -31.285156 22.359375 -32.5625 17.984375 -32.5625 L 9.8125 -32.5625 L 9.8125 -4.28125 Z M 17.984375 -4.28125 "/></g></g></g><g fill="#ffffff" fill-opacity="1"><g transform="translate(882.392856, 260.714123)"><g/></g></g><g fill="#ffffff" fill-opacity="1"><g transform="translate(895.395878, 260.714123)"><g><path d="M 20.15625 -36.84375 C 24.488281 -36.84375 27.875 -35.738281 30.3125 -33.53125 C 32.75 -31.332031 33.96875 -28.425781 33.96875 -24.8125 C 33.96875 -21.164062 32.75 -18.238281 30.3125 -16.03125 C 27.875 -13.832031 24.488281 -12.734375 20.15625 -12.734375 L 9.8125 -12.734375 L 9.8125 0 L 4.765625 0 L 4.765625 -36.84375 Z M 20 -17.015625 C 22.59375 -17.015625 24.703125 -17.679688 26.328125 -19.015625 C 27.960938 -20.359375 28.78125 -22.289062 28.78125 -24.8125 C 28.78125 -27.34375 27.960938 -29.265625 26.328125 -30.578125 C 24.703125 -31.898438 22.59375 -32.5625 20 -32.5625 L 9.8125 -32.5625 L 9.8125 -17.015625 Z M 20 -17.015625 "/></g></g></g><g fill="#ffffff" fill-opacity="1"><g transform="translate(930.774905, 260.714123)"><g><path d="M 4.765625 0 L 4.765625 -36.515625 L 9.8125 -37.234375 L 9.8125 -4.28125 L 30.078125 -4.28125 L 30.78125 0 Z M 4.765625 0 "/></g></g></g><g fill="#ffffff" fill-opacity="1"><g transform="translate(962.848978, 260.714123)"><g><path d="M 32.515625 0.375 L 28.828125 -8.609375 L 9.8125 -8.609375 L 6.28125 0 L 1.078125 0 L 16.46875 -36.796875 L 22.21875 -37.5 L 37.546875 -0.375 Z M 11.546875 -12.84375 L 27.09375 -12.84375 L 19.296875 -31.859375 Z M 11.546875 -12.84375 "/></g></g></g><g fill="#ffffff" fill-opacity="1"><g transform="translate(1001.478761, 260.714123)"><g><path d="M 9.375 -29.265625 L 9.375 0 L 4.765625 0 L 4.765625 -36.84375 L 9.75 -36.84375 L 31.921875 -7.75 L 31.921875 -36.515625 L 36.578125 -37.234375 L 36.578125 0 L 31.59375 0 Z M 9.375 -29.265625 "/></g></g></g><g fill="#ffffff" fill-opacity="1"><g transform="translate(1042.81749, 260.714123)"><g><path d="M 9.375 -29.265625 L 9.375 0 L 4.765625 0 L 4.765625 -36.84375 L 9.75 -36.84375 L 31.921875 -7.75 L 31.921875 -36.515625 L 36.578125 -37.234375 L 36.578125 0 L 31.59375 0 Z M 9.375 -29.265625 "/></g></g></g><g fill="#ffffff" fill-opacity="1"><g transform="translate(1084.156218, 260.714123)"><g><path d="M 9.8125 0 L 4.765625 0 L 4.765625 -36.515625 L 9.8125 -37.234375 Z M 9.8125 0 "/></g></g></g><g fill="#ffffff" fill-opacity="1"><g transform="translate(1098.784636, 260.714123)"><g><path d="M 9.375 -29.265625 L 9.375 0 L 4.765625 0 L 4.765625 -36.84375 L 9.75 -36.84375 L 31.921875 -7.75 L 31.921875 -36.515625 L 36.578125 -37.234375 L 36.578125 0 L 31.59375 0 Z M 9.375 -29.265625 "/></g></g></g><g fill="#ffffff" fill-opacity="1"><g transform="translate(1140.123364, 260.714123)"><g><path d="M 29.265625 -17.9375 L 34.140625 -18.640625 L 34.140625 -2.109375 C 30.597656 -0.335938 26.332031 0.546875 21.34375 0.546875 C 15.78125 0.546875 11.28125 -1.160156 7.84375 -4.578125 C 4.414062 -7.992188 2.703125 -12.609375 2.703125 -18.421875 C 2.703125 -24.234375 4.414062 -28.847656 7.84375 -32.265625 C 11.28125 -35.679688 15.78125 -37.390625 21.34375 -37.390625 C 26.007812 -37.390625 30.148438 -36.285156 33.765625 -34.078125 L 33.046875 -29.640625 C 29.648438 -31.953125 25.820312 -33.109375 21.5625 -33.109375 C 17.445312 -33.109375 14.132812 -31.789062 11.625 -29.15625 C 9.113281 -26.519531 7.859375 -22.941406 7.859375 -18.421875 C 7.859375 -13.910156 9.113281 -10.332031 11.625 -7.6875 C 14.132812 -5.050781 17.445312 -3.734375 21.5625 -3.734375 C 24.601562 -3.734375 27.171875 -4.1875 29.265625 -5.09375 Z M 29.265625 -17.9375 "/></g></g></g><g fill="#ffffff" fill-opacity="1"><g transform="translate(773.272749, 336.006404)"><g/></g></g></svg>