<svg xmlns="http://www.w3.org/2000/svg" xmlns:xlink="http://www.w3.org/1999/xlink" width="2000" zoomAndPan="magnify" viewBox="0 0 1500 374.999991" height="500" preserveAspectRatio="xMidYMid meet" version="1.0"><defs><g/><clipPath id="id1"><path d="M 0 0 L 1499.773438 0 L 1499.773438 375 L 0 375 Z M 0 0 " clip-rule="nonzero"/></clipPath><linearGradient x1="1" gradientTransform="matrix(1550.999963, 0, 0, 1550.999963, -51.227661, -438.113819)" y1="0.5" x2="0.0330288" gradientUnits="userSpaceOnUse" y2="0.5" id="id2"><stop stop-opacity="1" stop-color="rgb(23.098755%, 47.099304%, 68.199158%)" offset="0"/><stop stop-opacity="1" stop-color="rgb(23.13385%, 47.238159%, 68.264771%)" offset="0.015625"/><stop stop-opacity="1" stop-color="rgb(23.205566%, 47.515869%, 68.395996%)" offset="0.03125"/><stop stop-opacity="1" stop-color="rgb(23.275757%, 47.793579%, 68.527222%)" offset="0.046875"/><stop stop-opacity="1" stop-color="rgb(23.347473%, 48.072815%, 68.658447%)" offset="0.0625"/><stop stop-opacity="1" stop-color="rgb(23.417664%, 48.350525%, 68.791199%)" offset="0.078125"/><stop stop-opacity="1" stop-color="rgb(23.48938%, 48.628235%, 68.922424%)" offset="0.09375"/><stop stop-opacity="1" stop-color="rgb(23.561096%, 48.905945%, 69.05365%)" offset="0.109375"/><stop stop-opacity="1" stop-color="rgb(23.631287%, 49.183655%, 69.184875%)" offset="0.125"/><stop stop-opacity="1" stop-color="rgb(23.703003%, 49.461365%, 69.316101%)" offset="0.140625"/><stop stop-opacity="1" stop-color="rgb(23.773193%, 49.740601%, 69.447327%)" offset="0.15625"/><stop stop-opacity="1" stop-color="rgb(23.84491%, 50.018311%, 69.580078%)" offset="0.171875"/><stop stop-opacity="1" stop-color="rgb(23.9151%, 50.296021%, 69.711304%)" offset="0.1875"/><stop stop-opacity="1" stop-color="rgb(23.986816%, 50.57373%, 69.842529%)" offset="0.203125"/><stop stop-opacity="1" stop-color="rgb(24.057007%, 50.85144%, 69.973755%)" offset="0.21875"/><stop stop-opacity="1" stop-color="rgb(24.128723%, 51.130676%, 70.10498%)" offset="0.234375"/><stop stop-opacity="1" stop-color="rgb(24.198914%, 51.408386%, 70.236206%)" offset="0.25"/><stop stop-opacity="1" stop-color="rgb(24.27063%, 51.686096%, 70.367432%)" offset="0.265625"/><stop stop-opacity="1" stop-color="rgb(24.34082%, 51.963806%, 70.500183%)" offset="0.28125"/><stop stop-opacity="1" stop-color="rgb(24.412537%, 52.241516%, 70.631409%)" offset="0.296875"/><stop stop-opacity="1" stop-color="rgb(24.484253%, 52.520752%, 70.762634%)" offset="0.3125"/><stop stop-opacity="1" stop-color="rgb(24.554443%, 52.798462%, 70.89386%)" offset="0.328125"/><stop stop-opacity="1" stop-color="rgb(24.62616%, 53.076172%, 71.025085%)" offset="0.34375"/><stop stop-opacity="1" stop-color="rgb(24.69635%, 53.353882%, 71.156311%)" offset="0.359375"/><stop stop-opacity="1" stop-color="rgb(24.768066%, 53.631592%, 71.287537%)" offset="0.375"/><stop stop-opacity="1" stop-color="rgb(24.838257%, 53.910828%, 71.420288%)" offset="0.390625"/><stop stop-opacity="1" stop-color="rgb(24.909973%, 54.188538%, 71.551514%)" offset="0.40625"/><stop stop-opacity="1" stop-color="rgb(24.980164%, 54.466248%, 71.682739%)" offset="0.421875"/><stop stop-opacity="1" stop-color="rgb(25.05188%, 54.743958%, 71.813965%)" offset="0.4375"/><stop stop-opacity="1" stop-color="rgb(25.12207%, 55.021667%, 71.94519%)" offset="0.453125"/><stop stop-opacity="1" stop-color="rgb(25.193787%, 55.300903%, 72.076416%)" offset="0.46875"/><stop stop-opacity="1" stop-color="rgb(25.263977%, 55.578613%, 72.207642%)" offset="0.484375"/><stop stop-opacity="1" stop-color="rgb(25.335693%, 55.856323%, 72.340393%)" offset="0.5"/><stop stop-opacity="1" stop-color="rgb(25.40741%, 56.134033%, 72.471619%)" offset="0.515625"/><stop stop-opacity="1" stop-color="rgb(25.4776%, 56.411743%, 72.602844%)" offset="0.53125"/><stop stop-opacity="1" stop-color="rgb(25.549316%, 56.690979%, 72.73407%)" offset="0.546875"/><stop stop-opacity="1" stop-color="rgb(25.619507%, 56.968689%, 72.865295%)" offset="0.5625"/><stop stop-opacity="1" stop-color="rgb(25.691223%, 57.246399%, 72.996521%)" offset="0.578125"/><stop stop-opacity="1" stop-color="rgb(25.761414%, 57.524109%, 73.127747%)" offset="0.59375"/><stop stop-opacity="1" stop-color="rgb(25.83313%, 57.801819%, 73.260498%)" offset="0.609375"/><stop stop-opacity="1" stop-color="rgb(25.90332%, 58.079529%, 73.391724%)" offset="0.625"/><stop stop-opacity="1" stop-color="rgb(25.975037%, 58.358765%, 73.522949%)" offset="0.640625"/><stop stop-opacity="1" stop-color="rgb(26.045227%, 58.636475%, 73.654175%)" offset="0.65625"/><stop stop-opacity="1" stop-color="rgb(26.116943%, 58.914185%, 73.7854%)" offset="0.671875"/><stop stop-opacity="1" stop-color="rgb(26.187134%, 59.191895%, 73.916626%)" offset="0.6875"/><stop stop-opacity="1" stop-color="rgb(26.25885%, 59.469604%, 74.047852%)" offset="0.703125"/><stop stop-opacity="1" stop-color="rgb(26.330566%, 59.74884%, 74.180603%)" offset="0.71875"/><stop stop-opacity="1" stop-color="rgb(26.400757%, 60.02655%, 74.311829%)" offset="0.734375"/><stop stop-opacity="1" stop-color="rgb(26.472473%, 60.30426%, 74.443054%)" offset="0.75"/><stop stop-opacity="1" stop-color="rgb(26.542664%, 60.58197%, 74.57428%)" offset="0.765625"/><stop stop-opacity="1" stop-color="rgb(26.61438%, 60.85968%, 74.705505%)" offset="0.78125"/><stop stop-opacity="1" stop-color="rgb(26.68457%, 61.138916%, 74.836731%)" offset="0.796875"/><stop stop-opacity="1" stop-color="rgb(26.756287%, 61.416626%, 74.967957%)" offset="0.8125"/><stop stop-opacity="1" stop-color="rgb(26.826477%, 61.694336%, 75.100708%)" offset="0.828125"/><stop stop-opacity="1" stop-color="rgb(26.898193%, 61.972046%, 75.231934%)" offset="0.84375"/><stop stop-opacity="1" stop-color="rgb(26.968384%, 62.249756%, 75.363159%)" offset="0.859375"/><stop stop-opacity="1" stop-color="rgb(27.0401%, 62.528992%, 75.494385%)" offset="0.875"/><stop stop-opacity="1" stop-color="rgb(27.110291%, 62.806702%, 75.62561%)" offset="0.890625"/><stop stop-opacity="1" stop-color="rgb(27.182007%, 63.084412%, 75.756836%)" offset="0.90625"/><stop stop-opacity="1" stop-color="rgb(27.253723%, 63.362122%, 75.888062%)" offset="0.921875"/><stop stop-opacity="1" stop-color="rgb(27.323914%, 63.639832%, 76.020813%)" offset="0.9375"/><stop stop-opacity="1" stop-color="rgb(27.39563%, 63.919067%, 76.152039%)" offset="0.953125"/><stop stop-opacity="1" stop-color="rgb(27.46582%, 64.196777%, 76.283264%)" offset="0.96875"/><stop stop-opacity="1" stop-color="rgb(27.537537%, 64.474487%, 76.41449%)" offset="0.984375"/><stop stop-opacity="1" stop-color="rgb(27.607727%, 64.752197%, 76.545715%)" offset="1"/></linearGradient><clipPath id="id3"><path d="M 415.757812 127.292969 L 545.507812 127.292969 L 545.507812 236 L 415.757812 236 Z M 415.757812 127.292969 " clip-rule="nonzero"/></clipPath><clipPath id="id4"><path d="M 415.757812 239 L 545.507812 239 L 545.507812 243 L 415.757812 243 Z M 415.757812 239 " clip-rule="nonzero"/></clipPath><clipPath id="id5"><path d="M 415.757812 245 L 545.507812 245 L 545.507812 248.042969 L 415.757812 248.042969 Z M 415.757812 245 " clip-rule="nonzero"/></clipPath><clipPath id="id6"><path d="M 1035.363281 130.582031 L 1115 130.582031 L 1115 244.582031 L 1035.363281 244.582031 Z M 1035.363281 130.582031 " clip-rule="nonzero"/></clipPath><clipPath id="id7"><path d="M 1060 130.582031 L 1141 130.582031 L 1141 244.582031 L 1060 244.582031 Z M 1060 130.582031 " clip-rule="nonzero"/></clipPath><clipPath id="id8"><path d="M 1085 130.582031 L 1165.863281 130.582031 L 1165.863281 244.582031 L 1085 244.582031 Z M 1085 130.582031 " clip-rule="nonzero"/></clipPath></defs><rect x="-150" width="1800" fill="#ffffff" y="-37.499999" height="449.999989" fill-opacity="1"/><rect x="-150" width="1800" fill="#ffffff" y="-37.499999" height="449.999989" fill-opacity="1"/><g clip-path="url(#id1)"><path fill="url(#id2)" d="M 0 0 L 0 375 L 1499.773438 375 L 1499.773438 0 Z M 0 0 " fill-rule="nonzero"/></g><g clip-path="url(#id3)"><path fill="#ffffff" d="M 545.46875 147.882812 C 545.46875 143.21875 541.6875 139.425781 537.039062 139.425781 L 530.953125 139.425781 L 530.953125 132.394531 C 530.953125 129.574219 528.667969 127.28125 525.859375 127.28125 L 522.496094 127.28125 C 519.6875 127.28125 517.402344 129.574219 517.402344 132.394531 L 517.402344 139.425781 L 509.171875 139.425781 L 509.171875 132.394531 C 509.171875 129.574219 506.886719 127.28125 504.078125 127.28125 L 500.71875 127.28125 C 497.910156 127.28125 495.621094 129.574219 495.621094 132.394531 L 495.621094 139.425781 L 487.394531 139.425781 L 487.394531 132.394531 C 487.394531 129.574219 485.109375 127.28125 482.300781 127.28125 L 478.9375 127.28125 C 476.128906 127.28125 473.84375 129.574219 473.84375 132.394531 L 473.84375 139.425781 L 465.617188 139.425781 L 465.617188 132.394531 C 465.617188 129.574219 463.328125 127.28125 460.519531 127.28125 L 457.160156 127.28125 C 454.351562 127.28125 452.066406 129.574219 452.066406 132.394531 L 452.066406 139.425781 L 443.835938 139.425781 L 443.835938 132.394531 C 443.835938 129.574219 441.550781 127.28125 438.742188 127.28125 L 435.382812 127.28125 C 432.570312 127.28125 430.285156 129.574219 430.285156 132.394531 L 430.285156 139.425781 L 424.203125 139.425781 C 424.199219 139.425781 424.199219 139.425781 424.199219 139.425781 C 419.550781 139.425781 415.769531 143.21875 415.769531 147.882812 L 415.769531 234.261719 C 415.769531 235.03125 416.386719 235.652344 417.152344 235.652344 L 544.085938 235.652344 C 544.851562 235.652344 545.46875 235.03125 545.46875 234.261719 Z M 520.171875 132.394531 C 520.171875 131.105469 521.214844 130.058594 522.496094 130.058594 L 525.859375 130.058594 C 527.140625 130.058594 528.183594 131.105469 528.183594 132.394531 L 528.183594 140.804688 C 528.183594 140.808594 528.183594 140.8125 528.183594 140.8125 C 528.183594 140.816406 528.183594 140.820312 528.183594 140.820312 L 528.183594 149.226562 C 528.183594 150.515625 527.140625 151.5625 525.859375 151.5625 L 522.496094 151.5625 C 521.214844 151.5625 520.171875 150.515625 520.171875 149.226562 Z M 498.390625 140.816406 C 498.390625 140.816406 498.390625 140.8125 498.390625 140.8125 C 498.390625 140.8125 498.390625 140.8125 498.390625 140.808594 L 498.390625 132.394531 C 498.390625 131.105469 499.433594 130.058594 500.71875 130.058594 L 504.078125 130.058594 C 505.363281 130.058594 506.40625 131.105469 506.40625 132.394531 L 506.40625 149.226562 C 506.40625 150.515625 505.359375 151.5625 504.078125 151.5625 L 500.71875 151.5625 C 499.433594 151.5625 498.390625 150.515625 498.390625 149.226562 Z M 476.613281 140.824219 C 476.613281 140.820312 476.613281 140.816406 476.613281 140.8125 C 476.613281 140.808594 476.613281 140.804688 476.613281 140.800781 L 476.613281 132.394531 C 476.613281 131.105469 477.65625 130.058594 478.9375 130.058594 L 482.300781 130.058594 C 483.582031 130.058594 484.625 131.105469 484.625 132.394531 L 484.625 140.800781 C 484.625 140.804688 484.625 140.808594 484.625 140.8125 C 484.625 140.816406 484.625 140.820312 484.625 140.824219 L 484.625 149.226562 C 484.625 150.515625 483.582031 151.5625 482.300781 151.5625 L 478.9375 151.5625 C 477.65625 151.5625 476.613281 150.515625 476.613281 149.226562 Z M 454.832031 132.394531 C 454.832031 131.105469 455.878906 130.058594 457.160156 130.058594 L 460.519531 130.058594 C 461.804688 130.058594 462.847656 131.105469 462.847656 132.394531 L 462.847656 149.226562 C 462.847656 150.515625 461.804688 151.5625 460.519531 151.5625 L 457.160156 151.5625 C 455.878906 151.5625 454.832031 150.515625 454.832031 149.226562 Z M 433.054688 140.816406 C 433.054688 140.816406 433.054688 140.816406 433.054688 140.8125 L 433.054688 132.394531 C 433.054688 131.105469 434.097656 130.058594 435.382812 130.058594 L 438.742188 130.058594 C 440.023438 130.058594 441.066406 131.105469 441.066406 132.394531 L 441.066406 149.226562 C 441.066406 150.515625 440.023438 151.5625 438.742188 151.5625 L 435.382812 151.5625 C 434.097656 151.5625 433.054688 150.515625 433.054688 149.226562 Z M 542.703125 232.875 L 418.535156 232.875 L 418.535156 147.882812 C 418.535156 144.75 421.074219 142.203125 424.195312 142.203125 C 424.199219 142.203125 424.199219 142.203125 424.199219 142.203125 L 430.285156 142.203125 L 430.285156 149.230469 C 430.285156 152.046875 432.570312 154.339844 435.382812 154.339844 L 438.742188 154.339844 C 441.550781 154.339844 443.835938 152.046875 443.835938 149.230469 L 443.835938 142.203125 L 452.066406 142.203125 L 452.066406 149.226562 C 452.066406 152.046875 454.351562 154.339844 457.160156 154.339844 L 460.519531 154.339844 C 463.328125 154.339844 465.617188 152.046875 465.617188 149.226562 L 465.617188 142.203125 L 473.84375 142.203125 L 473.84375 149.226562 C 473.84375 152.046875 476.128906 154.339844 478.9375 154.339844 L 482.300781 154.339844 C 485.109375 154.339844 487.394531 152.046875 487.394531 149.226562 L 487.394531 142.203125 L 495.621094 142.203125 L 495.621094 149.226562 C 495.621094 152.046875 497.910156 154.339844 500.71875 154.339844 L 504.078125 154.339844 C 506.886719 154.339844 509.171875 152.046875 509.171875 149.226562 L 509.171875 142.203125 L 517.402344 142.203125 L 517.402344 149.226562 C 517.402344 152.046875 519.6875 154.339844 522.496094 154.339844 L 525.859375 154.339844 C 528.667969 154.339844 530.953125 152.046875 530.953125 149.226562 L 530.953125 142.203125 L 537.039062 142.203125 C 540.160156 142.203125 542.703125 144.75 542.703125 147.882812 Z M 542.703125 232.875 " fill-opacity="1" fill-rule="nonzero"/></g><path fill="#ffffff" d="M 533.269531 160.585938 L 427.96875 160.585938 C 427.203125 160.585938 426.582031 161.207031 426.582031 161.972656 L 426.582031 224.527344 C 426.582031 225.292969 427.203125 225.914062 427.96875 225.914062 L 533.269531 225.914062 C 534.035156 225.914062 534.65625 225.292969 534.65625 224.527344 L 534.65625 161.972656 C 534.65625 161.207031 534.035156 160.585938 533.269531 160.585938 Z M 452.910156 223.136719 L 429.351562 223.136719 L 429.351562 205.0625 L 452.910156 205.0625 Z M 452.910156 202.285156 L 429.351562 202.285156 L 429.351562 184.214844 L 452.910156 184.214844 Z M 452.910156 181.4375 L 429.351562 181.4375 L 429.351562 163.363281 L 452.910156 163.363281 Z M 479.234375 223.136719 L 455.679688 223.136719 L 455.679688 205.0625 L 479.234375 205.0625 Z M 479.234375 202.285156 L 455.679688 202.285156 L 455.679688 184.214844 L 479.234375 184.214844 Z M 479.234375 181.4375 L 455.679688 181.4375 L 455.679688 163.363281 L 479.234375 163.363281 Z M 505.5625 223.136719 L 482.003906 223.136719 L 482.003906 205.0625 L 505.5625 205.0625 Z M 505.5625 202.285156 L 482.003906 202.285156 L 482.003906 184.214844 L 505.5625 184.214844 Z M 505.5625 181.4375 L 482.003906 181.4375 L 482.003906 163.363281 L 505.5625 163.363281 Z M 531.886719 223.136719 L 508.328125 223.136719 L 508.328125 205.0625 L 531.886719 205.0625 Z M 531.886719 202.285156 L 508.328125 202.285156 L 508.328125 184.214844 L 531.886719 184.214844 Z M 531.886719 181.4375 L 508.328125 181.4375 L 508.328125 163.363281 L 531.886719 163.363281 Z M 531.886719 181.4375 " fill-opacity="1" fill-rule="nonzero"/><path fill="#ffffff" d="M 464.207031 198.691406 C 464.207031 198.691406 464.207031 198.695312 464.207031 198.695312 C 464.410156 198.898438 464.660156 199.023438 464.921875 199.074219 C 465.007812 199.09375 465.097656 199.101562 465.183594 199.101562 C 465.539062 199.101562 465.894531 198.964844 466.164062 198.695312 L 475.054688 189.769531 C 475.597656 189.226562 475.597656 188.347656 475.054688 187.804688 C 474.515625 187.265625 473.640625 187.265625 473.097656 187.808594 L 465.183594 195.746094 L 461.8125 192.367188 C 461.273438 191.824219 460.398438 191.824219 459.855469 192.367188 C 459.316406 192.90625 459.316406 193.785156 459.855469 194.328125 Z M 464.207031 198.691406 " fill-opacity="1" fill-rule="nonzero"/><path fill="#ffffff" d="M 516.859375 219.542969 C 517.128906 219.816406 517.484375 219.949219 517.835938 219.949219 C 517.925781 219.949219 518.015625 219.941406 518.101562 219.925781 C 518.363281 219.875 518.613281 219.746094 518.816406 219.542969 L 527.707031 210.621094 C 528.25 210.078125 528.25 209.199219 527.707031 208.65625 C 527.167969 208.113281 526.289062 208.113281 525.75 208.65625 L 517.835938 216.597656 L 514.464844 213.214844 C 513.925781 212.671875 513.050781 212.671875 512.507812 213.214844 C 511.96875 213.757812 511.96875 214.636719 512.507812 215.179688 Z M 516.859375 219.542969 " fill-opacity="1" fill-rule="nonzero"/><path fill="#ffffff" d="M 489.378906 177.84375 C 489.648438 178.113281 490.003906 178.25 490.359375 178.25 C 490.710938 178.25 491.066406 178.113281 491.335938 177.84375 L 500.230469 168.921875 C 500.769531 168.378906 500.769531 167.5 500.230469 166.957031 C 499.6875 166.414062 498.8125 166.414062 498.273438 166.957031 L 490.359375 174.894531 L 486.988281 171.515625 C 486.449219 170.972656 485.570312 170.972656 485.03125 171.515625 C 484.488281 172.058594 484.488281 172.9375 485.03125 173.476562 Z M 489.378906 177.84375 " fill-opacity="1" fill-rule="nonzero"/><g clip-path="url(#id4)"><path fill="#ffffff" d="M 544.085938 239.429688 L 417.152344 239.429688 C 416.386719 239.429688 415.769531 240.050781 415.769531 240.820312 C 415.769531 241.585938 416.386719 242.207031 417.152344 242.207031 L 544.085938 242.207031 C 544.851562 242.207031 545.46875 241.585938 545.46875 240.820312 C 545.46875 240.050781 544.851562 239.429688 544.085938 239.429688 Z M 544.085938 239.429688 " fill-opacity="1" fill-rule="nonzero"/></g><g clip-path="url(#id5)"><path fill="#ffffff" d="M 544.085938 245.25 L 417.152344 245.25 C 416.386719 245.25 415.769531 245.871094 415.769531 246.636719 C 415.769531 247.40625 416.386719 248.027344 417.152344 248.027344 L 544.085938 248.027344 C 544.851562 248.027344 545.46875 247.40625 545.46875 246.636719 C 545.46875 245.871094 544.851562 245.25 544.085938 245.25 Z M 544.085938 245.25 " fill-opacity="1" fill-rule="nonzero"/></g><g fill="#ffffff" fill-opacity="1"><g transform="translate(606.361912, 173.719265)"><g><path d="M 43.375 -3.984375 C 43.664062 -3.984375 43.8125 -3.851562 43.8125 -3.59375 L 43.8125 -0.4375 C 43.8125 -0.144531 43.664062 0 43.375 0 C 40.769531 0 38.375 -1.003906 36.1875 -3.015625 C 34.59375 -1.003906 32.003906 0 28.421875 0 L 1.46875 0 L 0.75 -3.984375 L 7.1875 -3.984375 L 7.1875 -31.796875 L 10.953125 -32.375 L 10.953125 -16.671875 C 15.503906 -18.648438 18.96875 -20.007812 21.34375 -20.75 C 23.726562 -21.488281 26.03125 -21.859375 28.25 -21.859375 C 31.050781 -21.859375 33.359375 -20.960938 35.171875 -19.171875 C 36.992188 -17.390625 37.894531 -15.09375 37.875 -12.28125 L 37.875 -8.515625 C 37.875 -7.535156 37.769531 -6.691406 37.5625 -5.984375 C 39.445312 -4.648438 41.382812 -3.984375 43.375 -3.984375 Z M 34.09375 -9.171875 L 34.09375 -11.75 C 34.09375 -13.613281 33.472656 -15.113281 32.234375 -16.25 C 30.992188 -17.382812 29.398438 -17.953125 27.453125 -17.953125 C 25.441406 -17.953125 23.472656 -17.675781 21.546875 -17.125 C 19.628906 -16.582031 16.097656 -15.335938 10.953125 -13.390625 L 10.953125 -3.984375 L 28.46875 -3.984375 C 30.269531 -3.984375 31.65625 -4.425781 32.625 -5.3125 C 33.601562 -6.207031 34.09375 -7.492188 34.09375 -9.171875 Z M 34.09375 -9.171875 "/></g></g></g><g fill="#ffffff" fill-opacity="1"><g transform="translate(649.730061, 173.719265)"><g><path d="M 16.671875 -3.984375 C 16.960938 -3.984375 17.109375 -3.851562 17.109375 -3.59375 L 17.109375 -0.4375 C 17.109375 -0.144531 16.960938 0 16.671875 0 C 13.921875 0 11.378906 -1.078125 9.046875 -3.234375 C 7.453125 -1.078125 4.4375 0 0 0 C -0.289062 0 -0.4375 -0.144531 -0.4375 -0.4375 L -0.40625 -3.59375 C -0.40625 -3.851562 -0.253906 -3.984375 0.046875 -3.984375 C 2.410156 -3.984375 4.128906 -4.421875 5.203125 -5.296875 C 6.285156 -6.171875 6.828125 -7.582031 6.828125 -9.53125 L 6.828125 -16.71875 L 10.546875 -17.296875 L 10.546875 -8.515625 C 10.546875 -7.773438 10.472656 -7.003906 10.328125 -6.203125 C 12.304688 -4.722656 14.421875 -3.984375 16.671875 -3.984375 Z M 1.46875 6.703125 L 4.703125 3.5 L 7.9375 6.703125 L 4.703125 9.890625 Z M 8.46875 6.703125 L 11.75 3.5 L 14.984375 6.703125 L 11.75 9.890625 Z M 8.46875 6.703125 "/></g></g></g><g fill="#ffffff" fill-opacity="1"><g transform="translate(666.403301, 173.719265)"><g><path d="M 40.578125 -3.984375 C 40.867188 -3.984375 41.015625 -3.851562 41.015625 -3.59375 L 41.015625 -0.4375 C 41.015625 -0.144531 40.867188 0 40.578125 0 C 37.972656 0 35.578125 -1.003906 33.390625 -3.015625 C 31.796875 -1.003906 29.207031 0 25.625 0 L 0 0 C -0.289062 0 -0.4375 -0.144531 -0.4375 -0.4375 L -0.4375 -3.59375 C -0.382812 -3.851562 -0.238281 -3.984375 0 -3.984375 L 4.390625 -3.984375 L 4.390625 -31.796875 L 8.15625 -32.375 L 8.15625 -16.71875 C 12.769531 -18.695312 16.25 -20.046875 18.59375 -20.765625 C 20.945312 -21.492188 23.234375 -21.859375 25.453125 -21.859375 C 28.265625 -21.859375 30.578125 -20.960938 32.390625 -19.171875 C 34.210938 -17.390625 35.109375 -15.09375 35.078125 -12.28125 L 35.078125 -8.515625 C 35.078125 -7.742188 34.972656 -6.898438 34.765625 -5.984375 C 36.660156 -4.648438 38.597656 -3.984375 40.578125 -3.984375 Z M 31.3125 -9.171875 L 31.3125 -11.75 C 31.3125 -13.613281 30.6875 -15.113281 29.4375 -16.25 C 28.195312 -17.382812 26.601562 -17.953125 24.65625 -17.953125 C 22.675781 -17.953125 20.722656 -17.675781 18.796875 -17.125 C 16.878906 -16.582031 13.332031 -15.351562 8.15625 -13.4375 L 8.15625 -3.984375 L 25.671875 -3.984375 C 27.472656 -3.984375 28.863281 -4.425781 29.84375 -5.3125 C 30.820312 -6.207031 31.3125 -7.492188 31.3125 -9.171875 Z M 31.3125 -9.171875 "/></g></g></g><g fill="#ffffff" fill-opacity="1"><g transform="translate(706.977788, 173.719265)"><g><path d="M 16.015625 -27.625 L 12.765625 -24.390625 L 9.484375 -27.625 L 12.6875 -30.8125 Z M 28.15625 -3.984375 C 28.457031 -3.984375 28.609375 -3.851562 28.609375 -3.59375 L 28.609375 -0.4375 C 28.609375 -0.144531 28.457031 0 28.15625 0 L 26.125 0 C 24.257812 0 22.75 -0.410156 21.59375 -1.234375 C 20.4375 -2.066406 19.671875 -3.222656 19.296875 -4.703125 C 12.492188 -1.566406 6.078125 0 0.046875 0 C -0.273438 0 -0.4375 -0.144531 -0.4375 -0.4375 L -0.4375 -3.59375 C -0.4375 -3.851562 -0.273438 -3.984375 0.046875 -3.984375 C 6.867188 -3.984375 13.800781 -5.703125 20.84375 -9.140625 C 17.03125 -12.328125 14.210938 -14.4375 12.390625 -15.46875 C 10.578125 -16.507812 8.859375 -17.03125 7.234375 -17.03125 C 6.546875 -17.03125 5.09375 -16.789062 2.875 -16.3125 L 2.125 -19.6875 C 4.3125 -20.519531 6.203125 -20.9375 7.796875 -20.9375 C 9.722656 -20.9375 11.753906 -20.296875 13.890625 -19.015625 C 16.035156 -17.742188 19.640625 -15.007812 24.703125 -10.8125 L 24.125 -7.140625 C 23.289062 -6.640625 22.445312 -6.195312 21.59375 -5.8125 C 22.332031 -4.59375 23.851562 -3.984375 26.15625 -3.984375 Z M 28.15625 -3.984375 "/></g></g></g><g fill="#ffffff" fill-opacity="1"><g transform="translate(735.136042, 173.719265)"><g><path d="M 8.15625 -23.671875 L 4.921875 -20.484375 L 1.6875 -23.671875 L 4.921875 -26.875 Z M 15.203125 -23.671875 L 11.96875 -20.484375 L 8.6875 -23.671875 L 11.96875 -26.875 Z M 16.671875 -3.984375 C 16.960938 -3.984375 17.109375 -3.851562 17.109375 -3.59375 L 17.109375 -0.4375 C 17.109375 -0.144531 16.960938 0 16.671875 0 C 13.921875 0 11.378906 -1.078125 9.046875 -3.234375 C 7.453125 -1.078125 4.4375 0 0 0 C -0.289062 0 -0.4375 -0.144531 -0.4375 -0.4375 L -0.40625 -3.59375 C -0.40625 -3.851562 -0.253906 -3.984375 0.046875 -3.984375 C 2.410156 -3.984375 4.128906 -4.421875 5.203125 -5.296875 C 6.285156 -6.171875 6.828125 -7.582031 6.828125 -9.53125 L 6.828125 -16.71875 L 10.546875 -17.296875 L 10.546875 -8.515625 C 10.546875 -7.773438 10.472656 -7.003906 10.328125 -6.203125 C 12.304688 -4.722656 14.421875 -3.984375 16.671875 -3.984375 Z M 16.671875 -3.984375 "/></g></g></g><g fill="#ffffff" fill-opacity="1"><g transform="translate(751.809282, 173.719265)"><g><path d="M 0 0 C -0.289062 0 -0.4375 -0.144531 -0.4375 -0.4375 L -0.4375 -3.59375 C -0.4375 -3.851562 -0.273438 -3.984375 0.046875 -3.984375 C 3.742188 -3.984375 5.59375 -5.90625 5.59375 -9.75 L 5.625 -31.796875 L 9.359375 -32.375 L 9.359375 -8.875 C 9.359375 -2.957031 6.238281 0 0 0 Z M 0 0 "/></g></g></g><g fill="#ffffff" fill-opacity="1"><g transform="translate(764.979359, 173.719265)"><g><path d="M 3.859375 0 L 3.859375 -31.796875 L 7.625 -32.375 L 7.625 0 Z M 3.859375 0 "/></g></g></g><g fill="#ffffff" fill-opacity="1"><g transform="translate(776.242657, 173.719265)"><g><path d="M 12.15625 -21.328125 C 14.90625 -21.328125 17.132812 -20.414062 18.84375 -18.59375 C 20.5625 -16.78125 21.421875 -14.378906 21.421875 -11.390625 L 21.421875 -1.015625 C 21.421875 6.015625 15.90625 9.53125 4.875 9.53125 L 4.4375 6.296875 C 8.894531 6.296875 12.21875 5.695312 14.40625 4.5 C 16.59375 3.300781 17.6875 1.398438 17.6875 -1.203125 L 17.6875 -1.28125 C 15.800781 -0.425781 13.96875 0 12.1875 0 C 9.113281 0 6.628906 -0.953125 4.734375 -2.859375 C 2.847656 -4.765625 1.90625 -7.328125 1.90625 -10.546875 C 1.90625 -13.710938 2.875 -16.300781 4.8125 -18.3125 C 6.75 -20.320312 9.195312 -21.328125 12.15625 -21.328125 Z M 12.6875 -3.859375 C 14.425781 -3.859375 16.09375 -4.140625 17.6875 -4.703125 L 17.6875 -11.078125 C 17.6875 -12.972656 17.140625 -14.507812 16.046875 -15.6875 C 14.953125 -16.875 13.535156 -17.46875 11.796875 -17.46875 C 9.960938 -17.46875 8.4375 -16.847656 7.21875 -15.609375 C 6.007812 -14.367188 5.40625 -12.742188 5.40625 -10.734375 C 5.40625 -8.453125 6.054688 -6.71875 7.359375 -5.53125 C 8.660156 -4.351562 10.4375 -3.796875 12.6875 -3.859375 Z M 12.6875 -3.859375 "/></g></g></g><g fill="#ffffff" fill-opacity="1"><g transform="translate(800.454336, 173.719265)"><g/></g></g><g fill="#ffffff" fill-opacity="1"><g transform="translate(811.096838, 173.719265)"><g><path d="M 18.40625 -21.328125 C 21.332031 -21.328125 23.753906 -20.238281 25.671875 -18.0625 C 27.597656 -15.894531 28.5625 -13.289062 28.5625 -10.25 C 28.5625 -7.226562 27.609375 -4.695312 25.703125 -2.65625 C 23.796875 -0.613281 21.363281 0.40625 18.40625 0.40625 C 15.914062 0.40625 13.785156 -0.332031 12.015625 -1.8125 C 10.242188 -3.289062 9.09375 -5.210938 8.5625 -7.578125 C 6.425781 -7.140625 5.359375 -5.5625 5.359375 -2.84375 L 5.359375 11.390625 L 1.640625 11.96875 L 1.59375 -3.328125 C 1.59375 -8.265625 3.84375 -11.015625 8.34375 -11.578125 C 8.601562 -14.347656 9.664062 -16.664062 11.53125 -18.53125 C 13.394531 -20.394531 15.6875 -21.328125 18.40625 -21.328125 Z M 13.78125 -5.546875 C 15 -4.273438 16.539062 -3.640625 18.40625 -3.640625 C 20.269531 -3.640625 21.796875 -4.273438 22.984375 -5.546875 C 24.179688 -6.816406 24.78125 -8.394531 24.78125 -10.28125 C 24.78125 -12.238281 24.179688 -13.90625 22.984375 -15.28125 C 21.796875 -16.65625 20.269531 -17.34375 18.40625 -17.34375 C 16.539062 -17.34375 15 -16.65625 13.78125 -15.28125 C 12.570312 -13.90625 11.96875 -12.238281 11.96875 -10.28125 C 11.96875 -8.394531 12.570312 -6.816406 13.78125 -5.546875 Z M 13.78125 -5.546875 "/></g></g></g><g fill="#ffffff" fill-opacity="1"><g transform="translate(841.117527, 173.719265)"><g><path d="M 3.859375 0 L 3.859375 -31.796875 L 7.625 -32.375 L 7.625 0 Z M 3.859375 0 "/></g></g></g><g fill="#ffffff" fill-opacity="1"><g transform="translate(852.380824, 173.719265)"><g><path d="M 11.84375 -28.640625 L 8.609375 -25.40625 L 5.328125 -28.640625 L 8.515625 -31.84375 Z M 15.390625 -3.984375 C 15.679688 -3.984375 15.828125 -3.851562 15.828125 -3.59375 L 15.828125 -0.4375 C 15.828125 -0.144531 15.679688 0 15.390625 0 C 13.109375 0 11.4375 -0.78125 10.375 -2.34375 L 10.375 -1.203125 C 10.375 2.492188 9.425781 5.207031 7.53125 6.9375 C 5.644531 8.664062 2.8125 9.53125 -0.96875 9.53125 L -1.328125 6.296875 C 3.992188 6.296875 6.65625 3.753906 6.65625 -1.328125 L 6.609375 -21.421875 L 10.375 -22.03125 L 10.375 -8.203125 C 10.582031 -5.390625 12.253906 -3.984375 15.390625 -3.984375 Z M 15.390625 -3.984375 "/></g></g></g><g fill="#ffffff" fill-opacity="1"><g transform="translate(867.812425, 173.719265)"><g><path d="M 8.15625 -23.671875 L 4.921875 -20.484375 L 1.6875 -23.671875 L 4.921875 -26.875 Z M 15.203125 -23.671875 L 11.96875 -20.484375 L 8.6875 -23.671875 L 11.96875 -26.875 Z M 16.671875 -3.984375 C 16.960938 -3.984375 17.109375 -3.851562 17.109375 -3.59375 L 17.109375 -0.4375 C 17.109375 -0.144531 16.960938 0 16.671875 0 C 13.921875 0 11.378906 -1.078125 9.046875 -3.234375 C 7.453125 -1.078125 4.4375 0 0 0 C -0.289062 0 -0.4375 -0.144531 -0.4375 -0.4375 L -0.40625 -3.59375 C -0.40625 -3.851562 -0.253906 -3.984375 0.046875 -3.984375 C 2.410156 -3.984375 4.128906 -4.421875 5.203125 -5.296875 C 6.285156 -6.171875 6.828125 -7.582031 6.828125 -9.53125 L 6.828125 -16.71875 L 10.546875 -17.296875 L 10.546875 -8.515625 C 10.546875 -7.773438 10.472656 -7.003906 10.328125 -6.203125 C 12.304688 -4.722656 14.421875 -3.984375 16.671875 -3.984375 Z M 16.671875 -3.984375 "/></g></g></g><g fill="#ffffff" fill-opacity="1"><g transform="translate(884.485665, 173.719265)"><g><path d="M 0 0 C -0.289062 0 -0.4375 -0.144531 -0.4375 -0.4375 L -0.4375 -3.59375 C -0.4375 -3.851562 -0.273438 -3.984375 0.046875 -3.984375 C 3.742188 -3.984375 5.59375 -5.90625 5.59375 -9.75 L 5.625 -31.796875 L 9.359375 -32.375 L 9.359375 -8.875 C 9.359375 -2.957031 6.238281 0 0 0 Z M 0 0 "/></g></g></g><g fill="#ffffff" fill-opacity="1"><g transform="translate(897.655731, 173.719265)"><g><path d="M 21.734375 -31.796875 L 25.5 -32.375 L 25.5 -8.875 C 25.5 -2.957031 22.378906 0 16.140625 0 L 1.46875 0 L 0.75 -3.984375 L 11.265625 -3.984375 L 6.828125 -25.625 L 10.546875 -26.5625 L 14.8125 -3.984375 L 16.140625 -3.984375 C 19.867188 -3.984375 21.734375 -5.90625 21.734375 -9.75 Z M 12.109375 6.65625 C 12.109375 7.507812 12.359375 8.203125 12.859375 8.734375 L 18.578125 8.734375 L 18 11.265625 L 7.984375 11.265625 L 7.984375 8.734375 L 10.421875 8.734375 C 9.953125 7.960938 9.71875 7.117188 9.71875 6.203125 C 9.71875 5.078125 10.09375 4.148438 10.84375 3.421875 C 11.59375 2.703125 12.546875 2.34375 13.703125 2.34375 C 14.617188 2.34375 15.769531 2.625 17.15625 3.1875 L 17.15625 5.359375 C 16.007812 4.921875 15.066406 4.703125 14.328125 4.703125 C 13.671875 4.703125 13.132812 4.878906 12.71875 5.234375 C 12.3125 5.585938 12.109375 6.0625 12.109375 6.65625 Z M 12.109375 6.65625 "/></g></g></g><g fill="#ffffff" fill-opacity="1"><g transform="translate(926.966932, 173.719265)"><g><path d="M 3.859375 0 L 3.859375 -31.796875 L 7.625 -32.375 L 7.625 0 Z M 3.859375 0 "/></g></g></g><g fill="#ffffff" fill-opacity="1"><g transform="translate(580.67939, 219.805063)"><g><path d="M 15.171875 -1.234375 C 13.546875 -0.253906 11.707031 0.234375 9.65625 0.234375 C 7.164062 0.234375 5.132812 -0.523438 3.5625 -2.046875 C 1.988281 -3.566406 1.203125 -5.613281 1.203125 -8.1875 C 1.203125 -10.757812 1.992188 -12.804688 3.578125 -14.328125 C 5.160156 -15.847656 7.21875 -16.609375 9.75 -16.609375 C 11.820312 -16.609375 13.660156 -16.117188 15.265625 -15.140625 L 14.859375 -13.171875 C 13.347656 -14.203125 11.644531 -14.71875 9.75 -14.71875 C 7.875 -14.71875 6.359375 -14.128906 5.203125 -12.953125 C 4.054688 -11.785156 3.484375 -10.195312 3.484375 -8.1875 C 3.484375 -6.175781 4.050781 -4.582031 5.1875 -3.40625 C 6.332031 -2.238281 7.828125 -1.65625 9.671875 -1.65625 C 11.796875 -1.65625 13.628906 -2.195312 15.171875 -3.28125 Z M 15.171875 -1.234375 "/></g></g></g><g fill="#ffffff" fill-opacity="1"><g transform="translate(596.999064, 219.805063)"><g><path d="M 16.1875 -2.140625 C 14.625 -0.554688 12.519531 0.234375 9.875 0.234375 C 7.226562 0.234375 5.117188 -0.554688 3.546875 -2.140625 C 1.984375 -3.734375 1.203125 -5.75 1.203125 -8.1875 C 1.203125 -10.613281 1.984375 -12.625 3.546875 -14.21875 C 5.117188 -15.8125 7.226562 -16.609375 9.875 -16.609375 C 12.519531 -16.609375 14.625 -15.8125 16.1875 -14.21875 C 17.757812 -12.625 18.546875 -10.613281 18.546875 -8.1875 C 18.546875 -5.75 17.757812 -3.734375 16.1875 -2.140625 Z M 9.875 -14.71875 C 7.925781 -14.71875 6.375 -14.113281 5.21875 -12.90625 C 4.0625 -11.695312 3.484375 -10.125 3.484375 -8.1875 C 3.484375 -6.226562 4.0625 -4.648438 5.21875 -3.453125 C 6.375 -2.253906 7.925781 -1.65625 9.875 -1.65625 C 11.832031 -1.65625 13.382812 -2.253906 14.53125 -3.453125 C 15.675781 -4.648438 16.25 -6.226562 16.25 -8.1875 C 16.25 -10.125 15.675781 -11.695312 14.53125 -12.90625 C 13.382812 -14.113281 11.832031 -14.71875 9.875 -14.71875 Z M 9.875 -14.71875 "/></g></g></g><g fill="#ffffff" fill-opacity="1"><g transform="translate(616.736722, 219.805063)"><g><path d="M 11.25 -3.921875 L 9.875 -3.921875 L 4.171875 -12.515625 L 4.171875 0 L 2.125 0 L 2.125 -16.375 L 4.328125 -16.375 L 10.671875 -6.734375 L 17.015625 -16.375 L 19.21875 -16.375 L 19.21875 -0.171875 L 16.96875 0.171875 L 16.96875 -12.515625 Z M 11.25 -3.921875 "/></g></g></g><g fill="#ffffff" fill-opacity="1"><g transform="translate(638.087093, 219.805063)"><g><path d="M 11.25 -3.921875 L 9.875 -3.921875 L 4.171875 -12.515625 L 4.171875 0 L 2.125 0 L 2.125 -16.375 L 4.328125 -16.375 L 10.671875 -6.734375 L 17.015625 -16.375 L 19.21875 -16.375 L 19.21875 -0.171875 L 16.96875 0.171875 L 16.96875 -12.515625 Z M 11.25 -3.921875 "/></g></g></g><g fill="#ffffff" fill-opacity="1"><g transform="translate(659.437463, 219.805063)"><g><path d="M 4.359375 0 L 2.125 0 L 2.125 -16.234375 L 4.359375 -16.546875 Z M 4.359375 0 "/></g></g></g><g fill="#ffffff" fill-opacity="1"><g transform="translate(665.936448, 219.805063)"><g><path d="M 6.09375 0 L 6.09375 -14.46875 L 0.40625 -14.46875 L 0.40625 -16.375 L 14.03125 -16.375 L 13.71875 -14.46875 L 8.359375 -14.46875 L 8.359375 0 Z M 6.09375 0 "/></g></g></g><g fill="#ffffff" fill-opacity="1"><g transform="translate(680.378639, 219.805063)"><g><path d="M 11.25 -3.921875 L 9.875 -3.921875 L 4.171875 -12.515625 L 4.171875 0 L 2.125 0 L 2.125 -16.375 L 4.328125 -16.375 L 10.671875 -6.734375 L 17.015625 -16.375 L 19.21875 -16.375 L 19.21875 -0.171875 L 16.96875 0.171875 L 16.96875 -12.515625 Z M 11.25 -3.921875 "/></g></g></g><g fill="#ffffff" fill-opacity="1"><g transform="translate(701.72901, 219.805063)"><g><path d="M 2.125 0 L 2.125 -16.375 L 13.484375 -16.375 L 13.484375 -14.46875 L 4.359375 -14.46875 L 4.359375 -9.3125 L 12.6875 -9.3125 L 13 -7.4375 L 4.359375 -7.4375 L 4.359375 -1.90625 L 13.71875 -1.90625 L 13.71875 0 Z M 2.125 0 "/></g></g></g><g fill="#ffffff" fill-opacity="1"><g transform="translate(716.72482, 219.805063)"><g><path d="M 4.171875 -13 L 4.171875 0 L 2.125 0 L 2.125 -16.375 L 4.328125 -16.375 L 14.1875 -3.4375 L 14.1875 -16.234375 L 16.25 -16.546875 L 16.25 0 L 14.03125 0 Z M 4.171875 -13 "/></g></g></g><g fill="#ffffff" fill-opacity="1"><g transform="translate(735.090481, 219.805063)"><g><path d="M 6.09375 0 L 6.09375 -14.46875 L 0.40625 -14.46875 L 0.40625 -16.375 L 14.03125 -16.375 L 13.71875 -14.46875 L 8.359375 -14.46875 L 8.359375 0 Z M 6.09375 0 "/></g></g></g><g fill="#ffffff" fill-opacity="1"><g transform="translate(749.532672, 219.805063)"><g/></g></g><g fill="#ffffff" fill-opacity="1"><g transform="translate(755.309546, 219.805063)"><g><path d="M 14.453125 0.171875 L 12.8125 -3.828125 L 4.359375 -3.828125 L 2.796875 0 L 0.484375 0 L 7.3125 -16.34375 L 9.875 -16.65625 L 16.6875 -0.171875 Z M 5.125 -5.703125 L 12.046875 -5.703125 L 8.578125 -14.15625 Z M 5.125 -5.703125 "/></g></g></g><g fill="#ffffff" fill-opacity="1"><g transform="translate(772.471689, 219.805063)"><g><path d="M 4.171875 -13 L 4.171875 0 L 2.125 0 L 2.125 -16.375 L 4.328125 -16.375 L 14.1875 -3.4375 L 14.1875 -16.234375 L 16.25 -16.546875 L 16.25 0 L 14.03125 0 Z M 4.171875 -13 "/></g></g></g><g fill="#ffffff" fill-opacity="1"><g transform="translate(790.837349, 219.805063)"><g><path d="M 2.125 0 L 2.125 -16.375 L 8.015625 -16.375 C 10.660156 -16.375 12.753906 -15.609375 14.296875 -14.078125 C 15.835938 -12.554688 16.609375 -10.59375 16.609375 -8.1875 C 16.609375 -5.757812 15.835938 -3.785156 14.296875 -2.265625 C 12.753906 -0.753906 10.660156 0 8.015625 0 Z M 8 -1.90625 C 9.957031 -1.90625 11.5 -2.460938 12.625 -3.578125 C 13.757812 -4.703125 14.328125 -6.238281 14.328125 -8.1875 C 14.328125 -10.113281 13.753906 -11.640625 12.609375 -12.765625 C 11.472656 -13.898438 9.9375 -14.46875 8 -14.46875 L 4.359375 -14.46875 L 4.359375 -1.90625 Z M 8 -1.90625 "/></g></g></g><g fill="#ffffff" fill-opacity="1"><g transform="translate(808.817893, 219.805063)"><g/></g></g><g fill="#ffffff" fill-opacity="1"><g transform="translate(814.594779, 219.805063)"><g><path d="M 8.953125 -16.375 C 10.878906 -16.375 12.382812 -15.882812 13.46875 -14.90625 C 14.550781 -13.925781 15.09375 -12.632812 15.09375 -11.03125 C 15.09375 -9.40625 14.550781 -8.101562 13.46875 -7.125 C 12.382812 -6.144531 10.878906 -5.65625 8.953125 -5.65625 L 4.359375 -5.65625 L 4.359375 0 L 2.125 0 L 2.125 -16.375 Z M 8.890625 -7.5625 C 10.046875 -7.5625 10.984375 -7.859375 11.703125 -8.453125 C 12.421875 -9.046875 12.78125 -9.90625 12.78125 -11.03125 C 12.78125 -12.15625 12.421875 -13.007812 11.703125 -13.59375 C 10.984375 -14.175781 10.046875 -14.46875 8.890625 -14.46875 L 4.359375 -14.46875 L 4.359375 -7.5625 Z M 8.890625 -7.5625 "/></g></g></g><g fill="#ffffff" fill-opacity="1"><g transform="translate(830.312688, 219.805063)"><g><path d="M 2.125 0 L 2.125 -16.234375 L 4.359375 -16.546875 L 4.359375 -1.90625 L 13.359375 -1.90625 L 13.671875 0 Z M 2.125 0 "/></g></g></g><g fill="#ffffff" fill-opacity="1"><g transform="translate(844.562321, 219.805063)"><g><path d="M 14.453125 0.171875 L 12.8125 -3.828125 L 4.359375 -3.828125 L 2.796875 0 L 0.484375 0 L 7.3125 -16.34375 L 9.875 -16.65625 L 16.6875 -0.171875 Z M 5.125 -5.703125 L 12.046875 -5.703125 L 8.578125 -14.15625 Z M 5.125 -5.703125 "/></g></g></g><g fill="#ffffff" fill-opacity="1"><g transform="translate(861.724475, 219.805063)"><g><path d="M 4.171875 -13 L 4.171875 0 L 2.125 0 L 2.125 -16.375 L 4.328125 -16.375 L 14.1875 -3.4375 L 14.1875 -16.234375 L 16.25 -16.546875 L 16.25 0 L 14.03125 0 Z M 4.171875 -13 "/></g></g></g><g fill="#ffffff" fill-opacity="1"><g transform="translate(880.090136, 219.805063)"><g><path d="M 4.171875 -13 L 4.171875 0 L 2.125 0 L 2.125 -16.375 L 4.328125 -16.375 L 14.1875 -3.4375 L 14.1875 -16.234375 L 16.25 -16.546875 L 16.25 0 L 14.03125 0 Z M 4.171875 -13 "/></g></g></g><g fill="#ffffff" fill-opacity="1"><g transform="translate(898.455797, 219.805063)"><g><path d="M 4.359375 0 L 2.125 0 L 2.125 -16.234375 L 4.359375 -16.546875 Z M 4.359375 0 "/></g></g></g><g fill="#ffffff" fill-opacity="1"><g transform="translate(904.954781, 219.805063)"><g><path d="M 4.171875 -13 L 4.171875 0 L 2.125 0 L 2.125 -16.375 L 4.328125 -16.375 L 14.1875 -3.4375 L 14.1875 -16.234375 L 16.25 -16.546875 L 16.25 0 L 14.03125 0 Z M 4.171875 -13 "/></g></g></g><g fill="#ffffff" fill-opacity="1"><g transform="translate(923.320442, 219.805063)"><g><path d="M 13 -7.96875 L 15.171875 -8.28125 L 15.171875 -0.9375 C 13.597656 -0.15625 11.703125 0.234375 9.484375 0.234375 C 7.015625 0.234375 5.015625 -0.519531 3.484375 -2.03125 C 1.960938 -3.550781 1.203125 -5.601562 1.203125 -8.1875 C 1.203125 -10.769531 1.960938 -12.816406 3.484375 -14.328125 C 5.015625 -15.847656 7.015625 -16.609375 9.484375 -16.609375 C 11.554688 -16.609375 13.394531 -16.117188 15 -15.140625 L 14.6875 -13.171875 C 13.175781 -14.203125 11.472656 -14.71875 9.578125 -14.71875 C 7.753906 -14.71875 6.28125 -14.128906 5.15625 -12.953125 C 4.039062 -11.785156 3.484375 -10.195312 3.484375 -8.1875 C 3.484375 -6.175781 4.039062 -4.582031 5.15625 -3.40625 C 6.28125 -2.238281 7.753906 -1.65625 9.578125 -1.65625 C 10.929688 -1.65625 12.070312 -1.859375 13 -2.265625 Z M 13 -7.96875 "/></g></g></g><g fill="#ffffff" fill-opacity="1"><g transform="translate(760.339534, 252.805061)"><g/></g></g><g clip-path="url(#id6)"><path fill="#ffffff" d="M 1035.453125 130.71875 L 1035.363281 244.398438 L 1114.394531 187.671875 Z M 1035.453125 130.71875 " fill-opacity="1" fill-rule="nonzero"/></g><g clip-path="url(#id7)"><path fill="#ffffff" d="M 1062.023438 132.386719 L 1138.664062 187.671875 L 1061.980469 242.683594 L 1062.023438 132.386719 M 1062.023438 130.585938 C 1061.753906 130.585938 1061.484375 130.628906 1061.210938 130.765625 C 1060.625 131.082031 1060.21875 131.710938 1060.21875 132.386719 L 1060.175781 242.683594 C 1060.175781 243.359375 1060.535156 243.992188 1061.167969 244.308594 C 1061.4375 244.441406 1061.707031 244.488281 1061.980469 244.488281 C 1062.339844 244.488281 1062.699219 244.351562 1063.015625 244.125 L 1139.703125 189.113281 C 1140.152344 188.753906 1140.46875 188.210938 1140.46875 187.671875 C 1140.46875 187.085938 1140.199219 186.542969 1139.703125 186.230469 L 1063.105469 130.945312 C 1062.789062 130.71875 1062.429688 130.585938 1062.023438 130.585938 Z M 1062.023438 130.585938 " fill-opacity="1" fill-rule="nonzero"/></g><g clip-path="url(#id8)"><path fill="#ffffff" d="M 1087.464844 132.476562 L 1164.058594 187.761719 L 1087.375 242.773438 L 1087.464844 132.476562 M 1087.464844 130.675781 C 1087.195312 130.675781 1086.925781 130.71875 1086.652344 130.855469 C 1086.066406 131.171875 1085.660156 131.800781 1085.660156 132.476562 L 1085.570312 242.773438 C 1085.570312 243.449219 1085.933594 244.082031 1086.5625 244.398438 C 1086.832031 244.53125 1087.105469 244.578125 1087.375 244.578125 C 1087.734375 244.578125 1088.097656 244.441406 1088.414062 244.214844 L 1165.097656 189.203125 C 1165.550781 188.84375 1165.863281 188.300781 1165.863281 187.761719 C 1165.863281 187.175781 1165.59375 186.632812 1165.097656 186.320312 L 1088.546875 131.035156 C 1088.230469 130.808594 1087.828125 130.675781 1087.464844 130.675781 Z M 1087.464844 130.675781 " fill-opacity="1" fill-rule="nonzero"/></g></svg>