<svg xmlns="http://www.w3.org/2000/svg" xmlns:xlink="http://www.w3.org/1999/xlink" width="500" zoomAndPan="magnify" viewBox="0 0 375 374.999991" height="500" preserveAspectRatio="xMidYMid meet" version="1.0"><defs><clipPath id="id1"><path d="M 5 27.234375 L 370 27.234375 L 370 347.484375 L 5 347.484375 Z M 5 27.234375 " clip-rule="nonzero"/></clipPath><clipPath id="id2"><path d="M 115 194 L 166 194 L 166 244.859375 L 115 244.859375 Z M 115 194 " clip-rule="nonzero"/></clipPath><clipPath id="id3"><path d="M 202 194 L 254 194 L 254 244.859375 L 202 244.859375 Z M 202 194 " clip-rule="nonzero"/></clipPath><clipPath id="id4"><path d="M 153 154 L 273.863281 154 L 273.863281 223 L 153 223 Z M 153 154 " clip-rule="nonzero"/></clipPath><clipPath id="id5"><path d="M 101.363281 139 L 264 139 L 264 198 L 101.363281 198 Z M 101.363281 139 " clip-rule="nonzero"/></clipPath></defs><g clip-path="url(#id1)"><path fill="#3b78ae" d="M 369.957031 187.359375 C 368.457031 188.78125 346.152344 210.769531 346.152344 233.878906 L 346.078125 233.878906 L 346.078125 299.992188 C 346.078125 325.125 326.542969 345.617188 301.84375 347.335938 C 301.320312 347.410156 300.796875 347.410156 300.273438 347.410156 C 299.675781 347.484375 299.152344 347.484375 298.550781 347.484375 L 76.335938 347.484375 C 75.738281 347.484375 75.214844 347.410156 74.613281 347.410156 C 74.089844 347.410156 73.566406 347.335938 73.042969 347.335938 C 48.34375 345.691406 28.808594 325.125 28.808594 299.992188 L 28.808594 233.878906 C 28.808594 210.769531 6.429688 188.78125 5.007812 187.359375 C 6.429688 185.9375 28.808594 163.949219 28.808594 140.839844 L 28.882812 140.839844 L 28.882812 74.726562 C 28.882812 49.597656 48.417969 29.105469 73.117188 27.386719 C 73.640625 27.308594 74.164062 27.308594 74.6875 27.308594 C 75.289062 27.234375 75.8125 27.234375 76.410156 27.234375 L 298.628906 27.234375 C 299.226562 27.234375 299.75 27.308594 300.347656 27.308594 C 300.871094 27.308594 301.398438 27.386719 301.921875 27.386719 C 326.621094 29.03125 346.152344 49.597656 346.152344 74.726562 L 346.152344 140.839844 C 346.152344 163.949219 368.457031 185.9375 369.957031 187.359375 " fill-opacity="1" fill-rule="nonzero"/></g><path fill="#ffffff" d="M 187.980469 137.949219 C 181.453125 137.949219 174.085938 140.558594 168.261719 140.558594 C 162.4375 140.558594 148.402344 130.199219 142.507812 131.066406 C 138.34375 131.683594 127.3125 141.125 121.199219 146.609375 L 200.6875 146.609375 C 196.800781 142.640625 191.949219 137.949219 187.980469 137.949219 Z M 132.402344 141.964844 C 131.9375 141.964844 131.5625 141.589844 131.5625 141.128906 C 131.5625 140.664062 131.9375 140.289062 132.402344 140.289062 C 132.863281 140.289062 133.238281 140.664062 133.238281 141.128906 C 133.238281 141.589844 132.863281 141.964844 132.402344 141.964844 Z M 136.3125 139.175781 C 135.851562 139.175781 135.472656 138.800781 135.472656 138.335938 C 135.472656 137.875 135.851562 137.5 136.3125 137.5 C 136.777344 137.5 137.152344 137.875 137.152344 138.335938 C 137.152344 138.800781 136.777344 139.175781 136.3125 139.175781 Z M 139.945312 137.152344 C 139.480469 137.152344 139.105469 136.777344 139.105469 136.316406 C 139.105469 135.851562 139.480469 135.480469 139.945312 135.480469 C 140.40625 135.480469 140.78125 135.851562 140.78125 136.316406 C 140.78125 136.777344 140.40625 137.152344 139.945312 137.152344 Z M 143.296875 139.453125 C 142.835938 139.453125 142.460938 139.078125 142.460938 138.617188 C 142.460938 138.15625 142.835938 137.78125 143.296875 137.78125 C 143.761719 137.78125 144.136719 138.15625 144.136719 138.617188 C 144.136719 139.078125 143.761719 139.453125 143.296875 139.453125 Z M 143.890625 135.445312 C 143.429688 135.445312 143.050781 135.070312 143.050781 134.605469 C 143.050781 134.144531 143.429688 133.769531 143.890625 133.769531 C 144.355469 133.769531 144.730469 134.144531 144.730469 134.605469 C 144.730469 135.070312 144.355469 135.445312 143.890625 135.445312 Z M 147.382812 136.976562 C 146.921875 136.976562 146.542969 136.601562 146.542969 136.140625 C 146.542969 135.679688 146.921875 135.304688 147.382812 135.304688 C 147.847656 135.304688 148.222656 135.679688 148.222656 136.140625 C 148.222656 136.601562 147.847656 136.976562 147.382812 136.976562 Z M 149.042969 139.714844 C 148.578125 139.714844 148.203125 139.339844 148.203125 138.878906 C 148.203125 138.417969 148.578125 138.042969 149.042969 138.042969 C 149.503906 138.042969 149.878906 138.417969 149.878906 138.878906 C 149.878906 139.339844 149.503906 139.714844 149.042969 139.714844 Z M 151.503906 137.746094 C 151.042969 137.746094 150.664062 137.371094 150.664062 136.90625 C 150.664062 136.445312 151.042969 136.070312 151.503906 136.070312 C 151.96875 136.070312 152.34375 136.445312 152.34375 136.90625 C 152.34375 137.371094 151.96875 137.746094 151.503906 137.746094 Z M 155.730469 139.800781 C 155.265625 139.800781 154.890625 139.425781 154.890625 138.964844 C 154.890625 138.503906 155.265625 138.128906 155.730469 138.128906 C 156.191406 138.128906 156.566406 138.503906 156.566406 138.964844 C 156.566406 139.425781 156.191406 139.800781 155.730469 139.800781 Z M 159.675781 141.617188 C 159.214844 141.617188 158.835938 141.242188 158.835938 140.777344 C 158.835938 140.316406 159.214844 139.941406 159.675781 139.941406 C 160.136719 139.941406 160.515625 140.316406 160.515625 140.777344 C 160.515625 141.242188 160.136719 141.617188 159.675781 141.617188 Z M 177.730469 143.046875 C 177.269531 143.046875 176.890625 142.671875 176.890625 142.207031 C 176.890625 141.746094 177.269531 141.371094 177.730469 141.371094 C 178.195312 141.371094 178.570312 141.746094 178.570312 142.207031 C 178.570312 142.671875 178.195312 143.046875 177.730469 143.046875 Z M 181.1875 143.464844 C 180.726562 143.464844 180.351562 143.089844 180.351562 142.625 C 180.351562 142.164062 180.726562 141.789062 181.1875 141.789062 C 181.652344 141.789062 182.027344 142.164062 182.027344 142.625 C 182.027344 143.089844 181.652344 143.464844 181.1875 143.464844 Z M 185.132812 141.753906 C 184.671875 141.753906 184.296875 141.378906 184.296875 140.917969 C 184.296875 140.457031 184.671875 140.082031 185.132812 140.082031 C 185.597656 140.082031 185.972656 140.457031 185.972656 140.917969 C 185.972656 141.378906 185.597656 141.753906 185.132812 141.753906 Z M 189.359375 141.980469 C 188.898438 141.980469 188.523438 141.605469 188.523438 141.144531 C 188.523438 140.683594 188.898438 140.308594 189.359375 140.308594 C 189.824219 140.308594 190.199219 140.683594 190.199219 141.144531 C 190.199219 141.605469 189.824219 141.980469 189.359375 141.980469 Z M 192.746094 144.054688 C 192.285156 144.054688 191.910156 143.679688 191.910156 143.21875 C 191.910156 142.757812 192.285156 142.382812 192.746094 142.382812 C 193.210938 142.382812 193.585938 142.757812 193.585938 143.21875 C 193.585938 143.679688 193.210938 144.054688 192.746094 144.054688 Z M 192.746094 144.054688 " fill-opacity="1" fill-rule="nonzero"/><g clip-path="url(#id2)"><path fill="#ffffff" d="M 164.695312 221.453125 L 165.871094 221.453125 L 165.871094 217.769531 L 164.695312 217.769531 C 164.628906 216.890625 164.515625 216.027344 164.355469 215.175781 L 165.488281 214.875 L 164.53125 211.316406 L 163.40625 211.617188 C 163.113281 210.789062 162.78125 209.980469 162.40625 209.199219 L 163.414062 208.617188 L 161.570312 205.425781 L 160.554688 206.011719 C 160.0625 205.289062 159.527344 204.601562 158.957031 203.941406 L 159.789062 203.109375 L 157.179688 200.503906 L 156.347656 201.335938 C 155.6875 200.765625 154.996094 200.234375 154.273438 199.738281 L 154.859375 198.726562 L 151.664062 196.882812 L 151.082031 197.890625 C 150.296875 197.515625 149.488281 197.183594 148.660156 196.894531 L 148.960938 195.765625 L 145.394531 194.8125 L 145.09375 195.945312 C 144.242188 195.785156 143.375 195.671875 142.496094 195.605469 L 142.496094 194.433594 L 138.804688 194.433594 L 138.804688 195.605469 C 137.925781 195.671875 137.0625 195.785156 136.210938 195.945312 L 135.90625 194.8125 L 132.34375 195.765625 L 132.644531 196.894531 C 131.816406 197.183594 131.007812 197.515625 130.222656 197.890625 L 129.640625 196.882812 L 126.445312 198.726562 L 127.027344 199.738281 C 126.308594 200.234375 125.617188 200.765625 124.953125 201.335938 L 124.125 200.503906 L 121.515625 203.109375 L 122.34375 203.941406 C 121.777344 204.601562 121.242188 205.289062 120.746094 206.011719 L 119.734375 205.425781 L 117.890625 208.617188 L 118.898438 209.199219 C 118.519531 209.980469 118.1875 210.789062 117.898438 211.617188 L 116.769531 211.316406 L 115.816406 214.875 L 116.945312 215.175781 C 116.789062 216.027344 116.675781 216.890625 116.609375 217.769531 L 115.433594 217.769531 L 115.433594 221.453125 L 116.609375 221.453125 C 116.675781 222.332031 116.789062 223.195312 116.945312 224.046875 L 115.816406 224.347656 L 116.769531 227.90625 L 117.898438 227.605469 C 118.1875 228.433594 118.519531 229.242188 118.898438 230.023438 L 117.890625 230.605469 L 119.734375 233.796875 L 120.746094 233.210938 C 121.242188 233.933594 121.777344 234.621094 122.34375 235.285156 L 121.515625 236.113281 L 124.125 238.71875 L 124.953125 237.890625 C 125.617188 238.457031 126.308594 238.992188 127.027344 239.484375 L 126.445312 240.496094 L 129.640625 242.339844 L 130.222656 241.332031 C 131.007812 241.707031 131.816406 242.039062 132.644531 242.328125 L 132.34375 243.457031 L 135.90625 244.410156 L 136.210938 243.28125 C 137.0625 243.4375 137.925781 243.550781 138.804688 243.617188 L 138.804688 244.789062 L 142.496094 244.789062 L 142.496094 243.617188 C 143.375 243.550781 144.242188 243.4375 145.09375 243.28125 L 145.394531 244.410156 L 148.960938 243.457031 L 148.660156 242.328125 C 149.488281 242.039062 150.296875 241.707031 151.082031 241.332031 L 151.664062 242.339844 L 154.859375 240.496094 L 154.273438 239.484375 C 154.996094 238.992188 155.6875 238.457031 156.347656 237.890625 L 157.179688 238.71875 L 159.789062 236.113281 L 158.957031 235.285156 C 159.527344 234.621094 160.0625 233.933594 160.554688 233.210938 L 161.570312 233.796875 L 163.414062 230.605469 L 162.40625 230.023438 C 162.78125 229.242188 163.113281 228.433594 163.40625 227.605469 L 164.53125 227.90625 L 165.488281 224.347656 L 164.355469 224.046875 C 164.515625 223.195312 164.628906 222.332031 164.695312 221.453125 Z M 140.652344 235.667969 C 131.769531 235.667969 124.570312 228.480469 124.570312 219.613281 C 124.570312 210.746094 131.769531 203.558594 140.652344 203.558594 C 149.53125 203.558594 156.730469 210.746094 156.730469 219.613281 C 156.730469 228.480469 149.53125 235.667969 140.652344 235.667969 Z M 140.652344 235.667969 " fill-opacity="1" fill-rule="nonzero"/></g><path fill="#ffffff" d="M 148.734375 219.613281 C 148.734375 220.140625 148.683594 220.667969 148.578125 221.1875 C 148.476562 221.707031 148.324219 222.210938 148.121094 222.699219 C 147.917969 223.191406 147.667969 223.65625 147.371094 224.097656 C 147.078125 224.535156 146.742188 224.945312 146.367188 225.320312 C 145.992188 225.695312 145.582031 226.027344 145.140625 226.324219 C 144.703125 226.617188 144.234375 226.867188 143.746094 227.070312 C 143.253906 227.269531 142.75 227.425781 142.226562 227.527344 C 141.707031 227.632812 141.183594 227.683594 140.652344 227.683594 C 140.121094 227.683594 139.59375 227.632812 139.074219 227.527344 C 138.554688 227.425781 138.046875 227.269531 137.558594 227.070312 C 137.066406 226.867188 136.601562 226.617188 136.160156 226.324219 C 135.71875 226.027344 135.3125 225.695312 134.933594 225.320312 C 134.558594 224.945312 134.226562 224.535156 133.929688 224.097656 C 133.636719 223.65625 133.386719 223.191406 133.183594 222.699219 C 132.980469 222.210938 132.828125 221.707031 132.722656 221.1875 C 132.621094 220.667969 132.566406 220.140625 132.566406 219.613281 C 132.566406 219.082031 132.621094 218.558594 132.722656 218.039062 C 132.828125 217.515625 132.980469 217.011719 133.183594 216.523438 C 133.386719 216.035156 133.636719 215.570312 133.929688 215.128906 C 134.226562 214.6875 134.558594 214.28125 134.933594 213.90625 C 135.3125 213.53125 135.71875 213.195312 136.160156 212.902344 C 136.601562 212.605469 137.066406 212.359375 137.558594 212.15625 C 138.046875 211.953125 138.554688 211.800781 139.074219 211.695312 C 139.59375 211.59375 140.121094 211.539062 140.652344 211.539062 C 141.183594 211.539062 141.707031 211.59375 142.226562 211.695312 C 142.75 211.800781 143.253906 211.953125 143.746094 212.15625 C 144.234375 212.359375 144.703125 212.605469 145.140625 212.902344 C 145.582031 213.195312 145.992188 213.53125 146.367188 213.90625 C 146.742188 214.28125 147.078125 214.6875 147.371094 215.128906 C 147.667969 215.570312 147.917969 216.035156 148.121094 216.523438 C 148.324219 217.011719 148.476562 217.515625 148.578125 218.039062 C 148.683594 218.558594 148.734375 219.082031 148.734375 219.613281 Z M 148.734375 219.613281 " fill-opacity="1" fill-rule="nonzero"/><g clip-path="url(#id3)"><path fill="#ffffff" d="M 251.992188 221.453125 L 253.167969 221.453125 L 253.167969 217.769531 L 251.992188 217.769531 C 251.925781 216.890625 251.8125 216.027344 251.652344 215.175781 L 252.785156 214.875 L 251.832031 211.316406 L 250.703125 211.617188 C 250.410156 210.789062 250.078125 209.980469 249.703125 209.199219 L 250.710938 208.617188 L 248.867188 205.425781 L 247.851562 206.011719 C 247.359375 205.289062 246.824219 204.601562 246.253906 203.941406 L 247.085938 203.109375 L 244.476562 200.503906 L 243.644531 201.335938 C 242.984375 200.765625 242.292969 200.234375 241.570312 199.738281 L 242.15625 198.726562 L 238.960938 196.882812 L 238.378906 197.890625 C 237.59375 197.515625 236.785156 197.183594 235.957031 196.894531 L 236.257812 195.765625 L 232.695312 194.8125 L 232.390625 195.945312 C 231.539062 195.785156 230.675781 195.671875 229.792969 195.605469 L 229.792969 194.433594 L 226.105469 194.433594 L 226.105469 195.605469 C 225.222656 195.671875 224.359375 195.785156 223.507812 195.945312 L 223.203125 194.8125 L 219.640625 195.765625 L 219.941406 196.894531 C 219.113281 197.183594 218.304688 197.515625 217.519531 197.890625 L 216.9375 196.882812 L 213.742188 198.726562 L 214.328125 199.738281 C 213.605469 200.234375 212.914062 200.765625 212.253906 201.335938 L 211.421875 200.503906 L 208.8125 203.109375 L 209.644531 203.941406 C 209.074219 204.601562 208.539062 205.289062 208.046875 206.011719 L 207.03125 205.425781 L 205.1875 208.617188 L 206.195312 209.199219 C 205.820312 209.980469 205.488281 210.789062 205.195312 211.617188 L 204.066406 211.316406 L 203.113281 214.875 L 204.246094 215.175781 C 204.085938 216.027344 203.972656 216.890625 203.90625 217.769531 L 202.730469 217.769531 L 202.730469 221.453125 L 203.90625 221.453125 C 203.972656 222.332031 204.085938 223.195312 204.246094 224.046875 L 203.113281 224.347656 L 204.066406 227.90625 L 205.195312 227.605469 C 205.488281 228.433594 205.820312 229.242188 206.195312 230.023438 L 205.1875 230.605469 L 207.03125 233.796875 L 208.046875 233.210938 C 208.539062 233.933594 209.074219 234.621094 209.644531 235.285156 L 208.8125 236.113281 L 211.421875 238.71875 L 212.253906 237.890625 C 212.914062 238.457031 213.605469 238.992188 214.328125 239.484375 L 213.742188 240.496094 L 216.9375 242.339844 L 217.519531 241.332031 C 218.304688 241.707031 219.113281 242.039062 219.941406 242.328125 L 219.640625 243.457031 L 223.203125 244.410156 L 223.507812 243.28125 C 224.359375 243.4375 225.222656 243.550781 226.105469 243.617188 L 226.105469 244.789062 L 229.792969 244.789062 L 229.792969 243.617188 C 230.675781 243.550781 231.539062 243.4375 232.390625 243.28125 L 232.695312 244.410156 L 236.257812 243.457031 L 235.957031 242.328125 C 236.785156 242.039062 237.59375 241.707031 238.378906 241.332031 L 238.960938 242.339844 L 242.15625 240.496094 L 241.570312 239.484375 C 242.292969 238.992188 242.984375 238.457031 243.644531 237.890625 L 244.476562 238.71875 L 247.085938 236.113281 L 246.253906 235.285156 C 246.824219 234.621094 247.359375 233.933594 247.851562 233.210938 L 248.867188 233.796875 L 250.710938 230.605469 L 249.703125 230.023438 C 250.078125 229.242188 250.410156 228.433594 250.703125 227.605469 L 251.832031 227.90625 L 252.785156 224.347656 L 251.652344 224.046875 C 251.8125 223.195312 251.925781 222.332031 251.992188 221.453125 Z M 227.949219 235.667969 C 219.070312 235.667969 211.867188 228.480469 211.867188 219.613281 C 211.867188 210.746094 219.070312 203.558594 227.949219 203.558594 C 236.828125 203.558594 244.03125 210.746094 244.03125 219.613281 C 244.03125 228.480469 236.828125 235.667969 227.949219 235.667969 Z M 227.949219 235.667969 " fill-opacity="1" fill-rule="nonzero"/></g><path fill="#ffffff" d="M 236.035156 219.613281 C 236.035156 220.140625 235.980469 220.667969 235.878906 221.1875 C 235.773438 221.707031 235.621094 222.210938 235.417969 222.699219 C 235.214844 223.191406 234.964844 223.65625 234.671875 224.097656 C 234.375 224.535156 234.039062 224.945312 233.664062 225.320312 C 233.289062 225.695312 232.882812 226.027344 232.441406 226.324219 C 232 226.617188 231.535156 226.867188 231.042969 227.070312 C 230.550781 227.269531 230.046875 227.425781 229.527344 227.527344 C 229.007812 227.632812 228.480469 227.683594 227.949219 227.683594 C 227.417969 227.683594 226.894531 227.632812 226.371094 227.527344 C 225.851562 227.425781 225.347656 227.269531 224.855469 227.070312 C 224.367188 226.867188 223.898438 226.617188 223.457031 226.324219 C 223.015625 226.027344 222.609375 225.695312 222.234375 225.320312 C 221.859375 224.945312 221.523438 224.535156 221.226562 224.097656 C 220.933594 223.65625 220.683594 223.191406 220.480469 222.699219 C 220.277344 222.210938 220.125 221.707031 220.019531 221.1875 C 219.917969 220.667969 219.867188 220.140625 219.867188 219.613281 C 219.867188 219.082031 219.917969 218.558594 220.019531 218.039062 C 220.125 217.515625 220.277344 217.011719 220.480469 216.523438 C 220.683594 216.035156 220.933594 215.570312 221.226562 215.128906 C 221.523438 214.6875 221.859375 214.28125 222.234375 213.90625 C 222.609375 213.53125 223.015625 213.195312 223.457031 212.902344 C 223.898438 212.605469 224.367188 212.359375 224.855469 212.15625 C 225.347656 211.953125 225.851562 211.800781 226.371094 211.695312 C 226.894531 211.59375 227.417969 211.539062 227.949219 211.539062 C 228.480469 211.539062 229.007812 211.59375 229.527344 211.695312 C 230.046875 211.800781 230.550781 211.953125 231.042969 212.15625 C 231.535156 212.359375 232 212.605469 232.441406 212.902344 C 232.882812 213.195312 233.289062 213.53125 233.664062 213.90625 C 234.039062 214.28125 234.375 214.6875 234.671875 215.128906 C 234.964844 215.570312 235.214844 216.035156 235.417969 216.523438 C 235.621094 217.011719 235.773438 217.515625 235.878906 218.039062 C 235.980469 218.558594 236.035156 219.082031 236.035156 219.613281 Z M 236.035156 219.613281 " fill-opacity="1" fill-rule="nonzero"/><g clip-path="url(#id4)"><path fill="#ffffff" d="M 200.011719 200.46875 L 157.3125 188.105469 L 153.859375 195.050781 C 162.613281 199.765625 168.578125 209.003906 168.578125 219.613281 C 168.578125 220.585938 168.527344 221.542969 168.429688 222.492188 L 200.171875 222.492188 C 200.074219 221.542969 200.023438 220.585938 200.023438 219.613281 C 200.023438 204.238281 212.550781 191.730469 227.949219 191.730469 C 243.347656 191.730469 255.875 204.238281 255.875 219.613281 C 255.875 220.585938 255.824219 221.542969 255.726562 222.492188 L 262.871094 222.492188 L 262.871094 216.335938 L 268.011719 216.335938 L 268.011719 220.957031 L 268.824219 220.957031 L 268.824219 188.808594 L 273.835938 188.808594 L 273.835938 183.300781 L 269.792969 183.300781 L 269.792969 176.121094 L 272.003906 176.121094 L 272.003906 174.75 L 252.359375 174.75 L 249.792969 159.980469 C 249.746094 159.722656 249.628906 159.484375 249.449219 159.292969 L 248.023438 157.777344 C 247.769531 157.511719 247.417969 157.359375 247.046875 157.359375 L 243.175781 157.359375 L 243.175781 154.148438 L 220.824219 154.148438 L 220.824219 157.359375 L 219.101562 157.359375 L 214.207031 170.058594 L 211.636719 170.058594 Z M 226.226562 172.679688 L 228.421875 159.976562 L 237.539062 159.976562 L 237.539062 174.75 L 234.824219 174.75 Z M 249.921875 178.296875 L 249.546875 178.296875 L 242.625 176.628906 L 242.625 176.121094 L 249.542969 176.121094 Z M 241.25 176.296875 L 240.519531 176.121094 L 241.25 176.121094 Z M 262.871094 204.066406 L 268.011719 204.066406 L 268.011719 209.269531 L 262.871094 209.269531 Z M 262.871094 203.136719 L 262.871094 197.933594 L 268.011719 197.933594 L 268.011719 203.136719 Z M 262.871094 197 L 262.871094 191.796875 L 268.011719 191.796875 L 268.011719 197 Z M 262.871094 215.40625 L 262.871094 210.203125 L 268.011719 210.203125 L 268.011719 215.40625 Z M 268.011719 190.867188 L 262.871094 190.867188 L 262.871094 188.808594 L 268.011719 188.808594 Z M 268.417969 183.300781 L 262.171875 183.300781 L 262.171875 178.296875 L 260.738281 178.296875 L 260.738281 176.121094 L 268.417969 176.121094 Z M 259.363281 176.121094 L 259.363281 178.296875 L 252.976562 178.296875 L 252.597656 176.121094 Z M 246.878906 160.808594 L 249.304688 174.75 L 239.898438 174.75 L 239.898438 159.976562 L 246.097656 159.976562 Z M 246.878906 160.808594 " fill-opacity="1" fill-rule="nonzero"/></g><g clip-path="url(#id5)"><path fill="#ffffff" d="M 198.472656 197.386719 L 216.496094 150.246094 L 263.429688 150.246094 L 260.21875 145.085938 L 210.523438 139.226562 L 205.726562 149.144531 L 113.195312 149.144531 L 101.363281 172.105469 L 105.3125 174.132812 L 106.980469 170.890625 L 117.316406 173.882812 L 117.316406 181.765625 L 119.269531 181.765625 L 119.269531 174.449219 Z M 127.652344 156.382812 L 195.960938 156.382812 L 195.960938 158.472656 L 127.652344 158.472656 Z M 135.472656 163.078125 L 195.960938 163.078125 L 195.960938 165.167969 L 135.472656 165.167969 Z M 197.707031 187.34375 C 197.707031 189.039062 196.332031 190.414062 194.632812 190.414062 C 192.9375 190.414062 191.558594 189.039062 191.558594 187.34375 C 191.558594 185.648438 192.9375 184.277344 194.632812 184.277344 C 196.332031 184.277344 197.707031 185.648438 197.707031 187.34375 Z M 197.707031 187.34375 " fill-opacity="1" fill-rule="nonzero"/></g></svg>