<svg xmlns="http://www.w3.org/2000/svg" xmlns:xlink="http://www.w3.org/1999/xlink" width="2000" zoomAndPan="magnify" viewBox="0 0 1500 374.999991" height="500" preserveAspectRatio="xMidYMid meet" version="1.0"><defs><g/><linearGradient x1="1" gradientTransform="matrix(1499.999964, 0, 0, 1499.999964, 0.000018, -549.107167)" y1="0.5" x2="0" gradientUnits="userSpaceOnUse" y2="0.5" id="id1"><stop stop-opacity="1" stop-color="rgb(23.098755%, 47.099304%, 68.199158%)" offset="0"/><stop stop-opacity="1" stop-color="rgb(23.135376%, 47.242737%, 68.266296%)" offset="0.015625"/><stop stop-opacity="1" stop-color="rgb(23.208618%, 47.529602%, 68.4021%)" offset="0.03125"/><stop stop-opacity="1" stop-color="rgb(23.283386%, 47.817993%, 68.537903%)" offset="0.046875"/><stop stop-opacity="1" stop-color="rgb(23.356628%, 48.104858%, 68.673706%)" offset="0.0625"/><stop stop-opacity="1" stop-color="rgb(23.429871%, 48.39325%, 68.809509%)" offset="0.078125"/><stop stop-opacity="1" stop-color="rgb(23.503113%, 48.680115%, 68.946838%)" offset="0.09375"/><stop stop-opacity="1" stop-color="rgb(23.576355%, 48.96698%, 69.082642%)" offset="0.109375"/><stop stop-opacity="1" stop-color="rgb(23.649597%, 49.255371%, 69.218445%)" offset="0.125"/><stop stop-opacity="1" stop-color="rgb(23.722839%, 49.542236%, 69.354248%)" offset="0.140625"/><stop stop-opacity="1" stop-color="rgb(23.796082%, 49.830627%, 69.490051%)" offset="0.15625"/><stop stop-opacity="1" stop-color="rgb(23.87085%, 50.117493%, 69.625854%)" offset="0.171875"/><stop stop-opacity="1" stop-color="rgb(23.944092%, 50.405884%, 69.761658%)" offset="0.1875"/><stop stop-opacity="1" stop-color="rgb(24.017334%, 50.692749%, 69.897461%)" offset="0.203125"/><stop stop-opacity="1" stop-color="rgb(24.090576%, 50.979614%, 70.033264%)" offset="0.21875"/><stop stop-opacity="1" stop-color="rgb(24.163818%, 51.268005%, 70.169067%)" offset="0.234375"/><stop stop-opacity="1" stop-color="rgb(24.237061%, 51.554871%, 70.304871%)" offset="0.25"/><stop stop-opacity="1" stop-color="rgb(24.310303%, 51.843262%, 70.4422%)" offset="0.265625"/><stop stop-opacity="1" stop-color="rgb(24.383545%, 52.130127%, 70.578003%)" offset="0.28125"/><stop stop-opacity="1" stop-color="rgb(24.458313%, 52.416992%, 70.713806%)" offset="0.296875"/><stop stop-opacity="1" stop-color="rgb(24.531555%, 52.705383%, 70.849609%)" offset="0.3125"/><stop stop-opacity="1" stop-color="rgb(24.604797%, 52.992249%, 70.985413%)" offset="0.328125"/><stop stop-opacity="1" stop-color="rgb(24.67804%, 53.28064%, 71.121216%)" offset="0.34375"/><stop stop-opacity="1" stop-color="rgb(24.751282%, 53.567505%, 71.257019%)" offset="0.359375"/><stop stop-opacity="1" stop-color="rgb(24.824524%, 53.855896%, 71.392822%)" offset="0.375"/><stop stop-opacity="1" stop-color="rgb(24.897766%, 54.142761%, 71.528625%)" offset="0.390625"/><stop stop-opacity="1" stop-color="rgb(24.972534%, 54.429626%, 71.664429%)" offset="0.40625"/><stop stop-opacity="1" stop-color="rgb(25.045776%, 54.718018%, 71.800232%)" offset="0.421875"/><stop stop-opacity="1" stop-color="rgb(25.119019%, 55.004883%, 71.937561%)" offset="0.4375"/><stop stop-opacity="1" stop-color="rgb(25.192261%, 55.293274%, 72.073364%)" offset="0.453125"/><stop stop-opacity="1" stop-color="rgb(25.265503%, 55.580139%, 72.209167%)" offset="0.46875"/><stop stop-opacity="1" stop-color="rgb(25.338745%, 55.867004%, 72.344971%)" offset="0.484375"/><stop stop-opacity="1" stop-color="rgb(25.411987%, 56.155396%, 72.480774%)" offset="0.5"/><stop stop-opacity="1" stop-color="rgb(25.485229%, 56.442261%, 72.616577%)" offset="0.515625"/><stop stop-opacity="1" stop-color="rgb(25.559998%, 56.730652%, 72.75238%)" offset="0.53125"/><stop stop-opacity="1" stop-color="rgb(25.63324%, 57.017517%, 72.888184%)" offset="0.546875"/><stop stop-opacity="1" stop-color="rgb(25.706482%, 57.305908%, 73.023987%)" offset="0.5625"/><stop stop-opacity="1" stop-color="rgb(25.779724%, 57.592773%, 73.15979%)" offset="0.578125"/><stop stop-opacity="1" stop-color="rgb(25.852966%, 57.879639%, 73.295593%)" offset="0.59375"/><stop stop-opacity="1" stop-color="rgb(25.926208%, 58.16803%, 73.431396%)" offset="0.609375"/><stop stop-opacity="1" stop-color="rgb(25.999451%, 58.454895%, 73.568726%)" offset="0.625"/><stop stop-opacity="1" stop-color="rgb(26.072693%, 58.743286%, 73.704529%)" offset="0.640625"/><stop stop-opacity="1" stop-color="rgb(26.147461%, 59.030151%, 73.840332%)" offset="0.65625"/><stop stop-opacity="1" stop-color="rgb(26.220703%, 59.317017%, 73.976135%)" offset="0.671875"/><stop stop-opacity="1" stop-color="rgb(26.293945%, 59.605408%, 74.111938%)" offset="0.6875"/><stop stop-opacity="1" stop-color="rgb(26.367188%, 59.892273%, 74.247742%)" offset="0.703125"/><stop stop-opacity="1" stop-color="rgb(26.44043%, 60.180664%, 74.383545%)" offset="0.71875"/><stop stop-opacity="1" stop-color="rgb(26.513672%, 60.467529%, 74.519348%)" offset="0.734375"/><stop stop-opacity="1" stop-color="rgb(26.586914%, 60.75592%, 74.655151%)" offset="0.75"/><stop stop-opacity="1" stop-color="rgb(26.660156%, 61.042786%, 74.790955%)" offset="0.765625"/><stop stop-opacity="1" stop-color="rgb(26.734924%, 61.329651%, 74.926758%)" offset="0.78125"/><stop stop-opacity="1" stop-color="rgb(26.808167%, 61.618042%, 75.064087%)" offset="0.796875"/><stop stop-opacity="1" stop-color="rgb(26.881409%, 61.904907%, 75.19989%)" offset="0.8125"/><stop stop-opacity="1" stop-color="rgb(26.954651%, 62.193298%, 75.335693%)" offset="0.828125"/><stop stop-opacity="1" stop-color="rgb(27.027893%, 62.480164%, 75.471497%)" offset="0.84375"/><stop stop-opacity="1" stop-color="rgb(27.101135%, 62.767029%, 75.6073%)" offset="0.859375"/><stop stop-opacity="1" stop-color="rgb(27.174377%, 63.05542%, 75.743103%)" offset="0.875"/><stop stop-opacity="1" stop-color="rgb(27.24762%, 63.342285%, 75.878906%)" offset="0.890625"/><stop stop-opacity="1" stop-color="rgb(27.322388%, 63.630676%, 76.014709%)" offset="0.90625"/><stop stop-opacity="1" stop-color="rgb(27.39563%, 63.917542%, 76.150513%)" offset="0.921875"/><stop stop-opacity="1" stop-color="rgb(27.468872%, 64.205933%, 76.286316%)" offset="0.9375"/><stop stop-opacity="1" stop-color="rgb(27.542114%, 64.492798%, 76.422119%)" offset="0.953125"/><stop stop-opacity="1" stop-color="rgb(27.615356%, 64.779663%, 76.559448%)" offset="0.96875"/><stop stop-opacity="1" stop-color="rgb(27.688599%, 65.068054%, 76.695251%)" offset="0.984375"/><stop stop-opacity="1" stop-color="rgb(27.761841%, 65.354919%, 76.831055%)" offset="1"/></linearGradient><clipPath id="id2"><path d="M 160 112.5 L 264.886719 112.5 L 264.886719 262.5 L 160 262.5 Z M 160 112.5 " clip-rule="nonzero"/></clipPath><clipPath id="id3"><path d="M 126 112.5 L 233 112.5 L 233 262.5 L 126 262.5 Z M 126 112.5 " clip-rule="nonzero"/></clipPath><clipPath id="id4"><path d="M 93.136719 112.5 L 199 112.5 L 199 262.5 L 93.136719 262.5 Z M 93.136719 112.5 " clip-rule="nonzero"/></clipPath><clipPath id="id5"><path d="M 1233.007812 212 L 1277 212 L 1277 274 L 1233.007812 274 Z M 1233.007812 212 " clip-rule="nonzero"/></clipPath></defs><rect x="-150" width="1800" fill="#ffffff" y="-37.499999" height="449.999989" fill-opacity="1"/><rect x="-150" width="1800" fill="#ffffff" y="-37.499999" height="449.999989" fill-opacity="1"/><rect x="-150" fill="url(#id1)" width="1800" y="-37.499999" height="449.999989"/><g clip-path="url(#id2)"><path fill="#ffffff" d="M 264.765625 262.320312 L 264.886719 112.738281 L 160.875 187.382812 Z M 264.765625 262.320312 " fill-opacity="1" fill-rule="nonzero"/></g><g clip-path="url(#id3)"><path fill="#ffffff" d="M 229.800781 260.125 L 128.933594 187.382812 L 229.859375 114.992188 L 229.800781 260.125 M 229.800781 262.496094 C 230.15625 262.496094 230.511719 262.4375 230.867188 262.261719 C 231.640625 261.84375 232.175781 261.015625 232.175781 260.125 L 232.234375 114.992188 C 232.234375 114.101562 231.757812 113.273438 230.929688 112.859375 C 230.570312 112.679688 230.214844 112.621094 229.859375 112.621094 C 229.382812 112.621094 228.910156 112.800781 228.492188 113.09375 L 127.570312 185.484375 C 126.976562 185.957031 126.558594 186.671875 126.558594 187.382812 C 126.558594 188.152344 126.917969 188.863281 127.570312 189.277344 L 228.375 262.023438 C 228.789062 262.320312 229.265625 262.496094 229.800781 262.496094 Z M 229.800781 262.496094 " fill-opacity="1" fill-rule="nonzero"/></g><g clip-path="url(#id4)"><path fill="#ffffff" d="M 196.316406 260.007812 L 95.511719 187.261719 L 196.4375 114.875 L 196.316406 260.007812 M 196.316406 262.378906 C 196.671875 262.378906 197.027344 262.320312 197.386719 262.140625 C 198.15625 261.726562 198.691406 260.898438 198.691406 260.007812 L 198.808594 114.875 C 198.808594 113.984375 198.335938 113.15625 197.503906 112.738281 C 197.148438 112.5625 196.792969 112.503906 196.4375 112.503906 C 195.960938 112.503906 195.484375 112.679688 195.070312 112.976562 L 94.144531 185.367188 C 93.550781 185.839844 93.136719 186.550781 93.136719 187.261719 C 93.136719 188.035156 93.492188 188.746094 94.144531 189.160156 L 194.890625 261.90625 C 195.308594 262.199219 195.84375 262.378906 196.316406 262.378906 Z M 196.316406 262.378906 " fill-opacity="1" fill-rule="nonzero"/></g><g fill="#ffffff" fill-opacity="1"><g transform="translate(957.482067, 212.816563)"><g><path d="M 21.65625 -8.984375 L 48.40625 -8.984375 L 46.109375 0 L 2.796875 0 L 2.796875 -8.984375 L 14.46875 -8.984375 C 11.34375 -14.171875 9.78125 -19.125 9.78125 -23.84375 C 9.78125 -28.90625 11.578125 -33.113281 15.171875 -36.46875 C 18.765625 -39.832031 23.1875 -41.515625 28.4375 -41.515625 C 32.832031 -41.515625 38.253906 -40.285156 44.703125 -37.828125 L 42.3125 -30.53125 C 37.320312 -32.332031 33.164062 -33.234375 29.84375 -33.234375 C 26.050781 -33.234375 23.039062 -32.21875 20.8125 -30.1875 C 18.582031 -28.15625 17.398438 -25.378906 17.265625 -21.859375 C 17.066406 -18.128906 18.53125 -13.835938 21.65625 -8.984375 Z M 21.65625 -8.984375 "/></g></g></g><g fill="#ffffff" fill-opacity="1"><g transform="translate(1008.573137, 212.816563)"><g><path d="M 29.640625 0 C 15.671875 0 8.6875 -6.648438 8.6875 -19.953125 L 8.578125 -71.546875 L 17.0625 -72.859375 L 17.0625 -21.953125 C 17.0625 -13.304688 21.222656 -8.984375 29.546875 -8.984375 C 30.203125 -8.984375 30.53125 -8.679688 30.53125 -8.078125 L 30.640625 -1 C 30.640625 -0.332031 30.304688 0 29.640625 0 Z M 29.640625 0 "/></g></g></g><g fill="#ffffff" fill-opacity="1"><g transform="translate(1038.209962, 212.816563)"><g><path d="M 24.046875 -53.59375 L 16.765625 -46.3125 L 9.375 -53.59375 L 16.5625 -60.78125 Z M 33.03125 -8.984375 C 33.695312 -8.984375 34.03125 -8.679688 34.03125 -8.078125 L 34.03125 -1 C 34.03125 -0.332031 33.695312 0 33.03125 0 C 27.375 0 22.085938 -2.160156 17.171875 -6.484375 C 13.640625 -2.160156 7.914062 0 0 0 C -0.664062 0 -1 -0.332031 -1 -1 L -0.890625 -8.078125 C -0.890625 -8.679688 -0.5625 -8.984375 0.09375 -8.984375 C 8.476562 -8.984375 12.671875 -13.140625 12.671875 -21.453125 L 12.578125 -37.625 L 21.0625 -38.921875 L 21.0625 -19.15625 C 21.0625 -16.832031 20.828125 -14.835938 20.359375 -13.171875 C 24.484375 -10.378906 28.707031 -8.984375 33.03125 -8.984375 Z M 33.03125 -8.984375 "/></g></g></g><g fill="#ffffff" fill-opacity="1"><g transform="translate(1071.239544, 212.816563)"><g><path d="M 33.03125 -8.984375 C 33.695312 -8.984375 34.03125 -8.679688 34.03125 -8.078125 L 34.03125 -1 C 34.03125 -0.332031 33.695312 0 33.03125 0 C 27.375 0 22.085938 -2.160156 17.171875 -6.484375 C 13.640625 -2.160156 7.914062 0 0 0 C -0.664062 0 -1 -0.332031 -1 -1 L -0.890625 -8.078125 C -0.890625 -8.679688 -0.5625 -8.984375 0.09375 -8.984375 C 8.476562 -8.984375 12.671875 -13.140625 12.671875 -21.453125 L 12.578125 -37.625 L 21.0625 -38.921875 L 21.0625 -19.15625 C 21.0625 -16.832031 20.828125 -14.835938 20.359375 -13.171875 C 24.484375 -10.378906 28.707031 -8.984375 33.03125 -8.984375 Z M 8.578125 15.265625 L 15.765625 7.984375 L 23.25 15.265625 L 15.96875 22.453125 Z M 8.578125 15.265625 "/></g></g></g><g fill="#ffffff" fill-opacity="1"><g transform="translate(1104.269127, 212.816563)"><g><path d="M 0 0 C -0.664062 0 -1 -0.332031 -1 -1 L -1 -8.078125 C -1 -8.679688 -0.632812 -8.984375 0.09375 -8.984375 C 8.414062 -8.984375 12.578125 -13.304688 12.578125 -21.953125 L 12.671875 -71.546875 L 21.0625 -72.859375 L 21.0625 -19.953125 C 21.0625 -6.648438 14.039062 0 0 0 Z M 0 0 "/></g></g></g><g fill="#ffffff" fill-opacity="1"><g transform="translate(1133.905951, 212.816563)"><g><path d="M 8.6875 0 L 8.6875 -71.546875 L 17.171875 -72.859375 L 17.171875 0 Z M 8.6875 0 "/></g></g></g><g fill="#ffffff" fill-opacity="1"><g transform="translate(309.603983, 211.874986)"><g><path d="M 35.265625 -66.234375 C 51.234375 -66.234375 59.21875 -60.390625 59.21875 -48.703125 C 59.21875 -45.265625 58.359375 -42.242188 56.640625 -39.640625 C 54.921875 -37.046875 52.4375 -35.226562 49.1875 -34.1875 C 53.21875 -33.40625 56.222656 -31.601562 58.203125 -28.78125 C 60.179688 -25.957031 61.171875 -22.5 61.171875 -18.40625 C 61.171875 -12.113281 59.222656 -7.472656 55.328125 -4.484375 C 51.429688 -1.492188 45.585938 0 37.796875 0 L 8.578125 0 L 8.578125 -66.234375 Z M 34.578125 -37.5 C 39.640625 -37.5 43.46875 -38.210938 46.0625 -39.640625 C 48.664062 -41.066406 49.96875 -43.859375 49.96875 -48.015625 C 49.96875 -52.109375 48.648438 -54.882812 46.015625 -56.34375 C 43.390625 -57.8125 39.578125 -58.546875 34.578125 -58.546875 L 17.625 -58.546875 L 17.625 -37.5 Z M 17.625 -30.203125 L 17.625 -7.6875 L 37.203125 -7.6875 C 42.015625 -7.6875 45.671875 -8.5 48.171875 -10.125 C 50.671875 -11.75 51.921875 -14.671875 51.921875 -18.890625 C 51.921875 -23.117188 50.671875 -26.0625 48.171875 -27.71875 C 45.671875 -29.375 42.015625 -30.203125 37.203125 -30.203125 Z M 17.625 -30.203125 "/></g></g></g><g fill="#ffffff" fill-opacity="1"><g transform="translate(375.7349, 211.874986)"><g><path d="M 7.796875 -65.65625 L 16.84375 -66.921875 L 16.84375 -25.71875 C 16.84375 -19.875 18.46875 -15.242188 21.71875 -11.828125 C 24.96875 -8.421875 29.804688 -6.71875 36.234375 -6.71875 C 42.660156 -6.71875 47.476562 -8.421875 50.6875 -11.828125 C 53.90625 -15.242188 55.515625 -19.875 55.515625 -25.71875 L 55.515625 -65.65625 L 64.578125 -66.921875 L 64.578125 -24.25 C 64.578125 -17.039062 62.175781 -11.035156 57.375 -6.234375 C 52.570312 -1.429688 45.523438 0.96875 36.234375 0.96875 C 26.816406 0.96875 19.722656 -1.476562 14.953125 -6.375 C 10.179688 -11.28125 7.796875 -17.238281 7.796875 -24.25 Z M 7.796875 -65.65625 "/></g></g></g><g fill="#ffffff" fill-opacity="1"><g transform="translate(448.099069, 211.874986)"><g><path d="M 17.625 0 L 8.578125 0 L 8.578125 -65.65625 L 17.625 -66.921875 Z M 17.625 0 "/></g></g></g><g fill="#ffffff" fill-opacity="1"><g transform="translate(474.39561, 211.874986)"><g><path d="M 8.578125 0 L 8.578125 -65.65625 L 17.625 -66.921875 L 17.625 -7.6875 L 54.0625 -7.6875 L 55.328125 0 Z M 8.578125 0 "/></g></g></g><g fill="#ffffff" fill-opacity="1"><g transform="translate(532.053218, 211.874986)"><g><path d="M 8.578125 0 L 8.578125 -66.234375 L 32.4375 -66.234375 C 43.15625 -66.234375 51.628906 -63.148438 57.859375 -56.984375 C 64.085938 -50.816406 67.203125 -42.863281 67.203125 -33.125 C 67.203125 -23.3125 64.085938 -15.335938 57.859375 -9.203125 C 51.628906 -3.066406 43.15625 0 32.4375 0 Z M 32.34375 -7.6875 C 40.257812 -7.6875 46.503906 -9.957031 51.078125 -14.5 C 55.660156 -19.050781 57.953125 -25.257812 57.953125 -33.125 C 57.953125 -40.914062 55.644531 -47.097656 51.03125 -51.671875 C 46.425781 -56.253906 40.195312 -58.546875 32.34375 -58.546875 L 17.625 -58.546875 L 17.625 -7.6875 Z M 32.34375 -7.6875 "/></g></g></g><g fill="#ffffff" fill-opacity="1"><g transform="translate(604.806967, 211.874986)"><g><path d="M 17.625 0 L 8.578125 0 L 8.578125 -65.65625 L 17.625 -66.921875 Z M 17.625 0 "/></g></g></g><g fill="#ffffff" fill-opacity="1"><g transform="translate(631.10352, 211.874986)"><g><path d="M 16.84375 -52.59375 L 16.84375 0 L 8.578125 0 L 8.578125 -66.234375 L 17.53125 -66.234375 L 57.375 -13.921875 L 57.375 -65.65625 L 65.75 -66.921875 L 65.75 0 L 56.78125 0 Z M 16.84375 -52.59375 "/></g></g></g><g fill="#ffffff" fill-opacity="1"><g transform="translate(705.415588, 211.874986)"><g><path d="M 52.59375 -32.234375 L 61.359375 -33.5 L 61.359375 -3.796875 C 54.992188 -0.617188 47.332031 0.96875 38.375 0.96875 C 28.375 0.96875 20.289062 -2.097656 14.125 -8.234375 C 7.957031 -14.367188 4.875 -22.660156 4.875 -33.109375 C 4.875 -43.566406 7.957031 -51.863281 14.125 -58 C 20.289062 -64.132812 28.375 -67.203125 38.375 -67.203125 C 46.75 -67.203125 54.1875 -65.222656 60.6875 -61.265625 L 59.421875 -53.28125 C 53.316406 -57.4375 46.429688 -59.515625 38.765625 -59.515625 C 31.359375 -59.515625 25.398438 -57.144531 20.890625 -52.40625 C 16.378906 -47.664062 14.125 -41.234375 14.125 -33.109375 C 14.125 -24.992188 16.378906 -18.566406 20.890625 -13.828125 C 25.398438 -9.085938 31.359375 -6.71875 38.765625 -6.71875 C 44.222656 -6.71875 48.832031 -7.53125 52.59375 -9.15625 Z M 52.59375 -32.234375 "/></g></g></g><path fill="#ffffff" d="M 1286.109375 171.132812 L 1330.214844 196.527344 L 1330.214844 161.28125 L 1286.109375 135.753906 Z M 1286.109375 171.132812 " fill-opacity="1" fill-rule="nonzero"/><path fill="#ffffff" d="M 1286.109375 273.425781 L 1330.214844 247.898438 L 1330.214844 212.757812 L 1286.109375 238.292969 Z M 1286.109375 273.425781 " fill-opacity="1" fill-rule="nonzero"/><g clip-path="url(#id5)"><path fill="#ffffff" d="M 1232.871094 247.898438 L 1276.90625 273.425781 L 1276.90625 238.292969 L 1232.871094 212.757812 Z M 1232.871094 247.898438 " fill-opacity="1" fill-rule="nonzero"/></g><path fill="#ffffff" d="M 1281.59375 179.1875 L 1237.558594 204.734375 L 1281.59375 230.210938 L 1325.628906 204.734375 Z M 1281.59375 179.1875 " fill-opacity="1" fill-rule="nonzero"/><path fill="#ffffff" d="M 1334.78125 102.175781 L 1290.753906 127.730469 L 1334.78125 153.269531 L 1378.824219 127.730469 Z M 1334.78125 133.292969 C 1334.425781 133.28125 1334.074219 133.238281 1333.726562 133.15625 C 1333.378906 133.078125 1333.042969 132.964844 1332.71875 132.820312 C 1332.394531 132.671875 1332.085938 132.5 1331.792969 132.292969 C 1331.503906 132.085938 1331.234375 131.855469 1330.988281 131.597656 C 1330.742188 131.339844 1330.523438 131.058594 1330.332031 130.757812 C 1330.136719 130.457031 1329.976562 130.140625 1329.847656 129.808594 C 1329.714844 129.476562 1329.617188 129.136719 1329.554688 128.785156 C 1329.488281 128.433594 1329.460938 128.078125 1329.464844 127.722656 C 1329.464844 127.363281 1329.5 127.007812 1329.566406 126.65625 C 1329.636719 126.304688 1329.742188 125.964844 1329.878906 125.632812 C 1330.015625 125.300781 1330.183594 124.988281 1330.378906 124.6875 C 1330.578125 124.390625 1330.804688 124.113281 1331.058594 123.863281 C 1331.308594 123.609375 1331.585938 123.382812 1331.882812 123.183594 C 1332.179688 122.984375 1332.492188 122.816406 1332.820312 122.679688 C 1333.152344 122.542969 1333.492188 122.4375 1333.84375 122.367188 C 1334.191406 122.296875 1334.546875 122.261719 1334.902344 122.261719 C 1335.261719 122.261719 1335.613281 122.296875 1335.964844 122.367188 C 1336.316406 122.4375 1336.65625 122.542969 1336.984375 122.679688 C 1337.316406 122.816406 1337.628906 122.984375 1337.925781 123.183594 C 1338.222656 123.382812 1338.496094 123.609375 1338.75 123.863281 C 1339.003906 124.113281 1339.226562 124.390625 1339.425781 124.6875 C 1339.625 124.988281 1339.792969 125.300781 1339.929688 125.632812 C 1340.066406 125.964844 1340.167969 126.304688 1340.238281 126.65625 C 1340.308594 127.007812 1340.34375 127.363281 1340.34375 127.722656 C 1340.34375 128.089844 1340.308594 128.449219 1340.238281 128.8125 C 1340.167969 129.171875 1340.0625 129.519531 1339.921875 129.859375 C 1339.78125 130.195312 1339.613281 130.519531 1339.410156 130.824219 C 1339.207031 131.128906 1338.976562 131.410156 1338.714844 131.667969 C 1338.457031 131.925781 1338.175781 132.160156 1337.871094 132.363281 C 1337.570312 132.566406 1337.246094 132.734375 1336.910156 132.875 C 1336.570312 133.015625 1336.222656 133.121094 1335.867188 133.191406 C 1335.507812 133.261719 1335.144531 133.296875 1334.78125 133.292969 Z M 1334.78125 133.292969 " fill-opacity="1" fill-rule="nonzero"/><path fill="#ffffff" d="M 1339.476562 247.898438 L 1383.511719 273.425781 L 1383.511719 238.292969 L 1339.476562 212.757812 Z M 1339.476562 247.898438 " fill-opacity="1" fill-rule="nonzero"/><path fill="#ffffff" d="M 1388.210938 179.1875 L 1344.164062 204.734375 L 1388.210938 230.210938 L 1432.226562 204.734375 Z M 1388.210938 179.1875 " fill-opacity="1" fill-rule="nonzero"/><path fill="#ffffff" d="M 1392.898438 238.292969 L 1392.898438 273.425781 L 1436.925781 247.898438 L 1436.925781 212.757812 Z M 1392.898438 238.292969 " fill-opacity="1" fill-rule="nonzero"/><path fill="#ffffff" d="M 1339.476562 196.527344 L 1383.511719 171.132812 L 1383.511719 135.746094 L 1339.476562 161.28125 Z M 1339.476562 196.527344 " fill-opacity="1" fill-rule="nonzero"/></svg>