<svg xmlns="http://www.w3.org/2000/svg" xmlns:xlink="http://www.w3.org/1999/xlink" width="2000" zoomAndPan="magnify" viewBox="0 0 1500 374.999991" height="500" preserveAspectRatio="xMidYMid meet" version="1.0"><defs><g/><clipPath id="id1"><path d="M 0 0 L 1499.773438 0 L 1499.773438 375 L 0 375 Z M 0 0 " clip-rule="nonzero"/></clipPath><linearGradient x1="1" gradientTransform="matrix(1550.999963, 0, 0, 1550.999963, -51.227661, -438.113819)" y1="0.5" x2="0.0330288" gradientUnits="userSpaceOnUse" y2="0.5" id="id2"><stop stop-opacity="1" stop-color="rgb(23.098755%, 47.099304%, 68.199158%)" offset="0"/><stop stop-opacity="1" stop-color="rgb(23.13385%, 47.238159%, 68.264771%)" offset="0.015625"/><stop stop-opacity="1" stop-color="rgb(23.205566%, 47.515869%, 68.395996%)" offset="0.03125"/><stop stop-opacity="1" stop-color="rgb(23.275757%, 47.793579%, 68.527222%)" offset="0.046875"/><stop stop-opacity="1" stop-color="rgb(23.347473%, 48.072815%, 68.658447%)" offset="0.0625"/><stop stop-opacity="1" stop-color="rgb(23.417664%, 48.350525%, 68.791199%)" offset="0.078125"/><stop stop-opacity="1" stop-color="rgb(23.48938%, 48.628235%, 68.922424%)" offset="0.09375"/><stop stop-opacity="1" stop-color="rgb(23.561096%, 48.905945%, 69.05365%)" offset="0.109375"/><stop stop-opacity="1" stop-color="rgb(23.631287%, 49.183655%, 69.184875%)" offset="0.125"/><stop stop-opacity="1" stop-color="rgb(23.703003%, 49.461365%, 69.316101%)" offset="0.140625"/><stop stop-opacity="1" stop-color="rgb(23.773193%, 49.740601%, 69.447327%)" offset="0.15625"/><stop stop-opacity="1" stop-color="rgb(23.84491%, 50.018311%, 69.580078%)" offset="0.171875"/><stop stop-opacity="1" stop-color="rgb(23.9151%, 50.296021%, 69.711304%)" offset="0.1875"/><stop stop-opacity="1" stop-color="rgb(23.986816%, 50.57373%, 69.842529%)" offset="0.203125"/><stop stop-opacity="1" stop-color="rgb(24.057007%, 50.85144%, 69.973755%)" offset="0.21875"/><stop stop-opacity="1" stop-color="rgb(24.128723%, 51.130676%, 70.10498%)" offset="0.234375"/><stop stop-opacity="1" stop-color="rgb(24.198914%, 51.408386%, 70.236206%)" offset="0.25"/><stop stop-opacity="1" stop-color="rgb(24.27063%, 51.686096%, 70.367432%)" offset="0.265625"/><stop stop-opacity="1" stop-color="rgb(24.34082%, 51.963806%, 70.500183%)" offset="0.28125"/><stop stop-opacity="1" stop-color="rgb(24.412537%, 52.241516%, 70.631409%)" offset="0.296875"/><stop stop-opacity="1" stop-color="rgb(24.484253%, 52.520752%, 70.762634%)" offset="0.3125"/><stop stop-opacity="1" stop-color="rgb(24.554443%, 52.798462%, 70.89386%)" offset="0.328125"/><stop stop-opacity="1" stop-color="rgb(24.62616%, 53.076172%, 71.025085%)" offset="0.34375"/><stop stop-opacity="1" stop-color="rgb(24.69635%, 53.353882%, 71.156311%)" offset="0.359375"/><stop stop-opacity="1" stop-color="rgb(24.768066%, 53.631592%, 71.287537%)" offset="0.375"/><stop stop-opacity="1" stop-color="rgb(24.838257%, 53.910828%, 71.420288%)" offset="0.390625"/><stop stop-opacity="1" stop-color="rgb(24.909973%, 54.188538%, 71.551514%)" offset="0.40625"/><stop stop-opacity="1" stop-color="rgb(24.980164%, 54.466248%, 71.682739%)" offset="0.421875"/><stop stop-opacity="1" stop-color="rgb(25.05188%, 54.743958%, 71.813965%)" offset="0.4375"/><stop stop-opacity="1" stop-color="rgb(25.12207%, 55.021667%, 71.94519%)" offset="0.453125"/><stop stop-opacity="1" stop-color="rgb(25.193787%, 55.300903%, 72.076416%)" offset="0.46875"/><stop stop-opacity="1" stop-color="rgb(25.263977%, 55.578613%, 72.207642%)" offset="0.484375"/><stop stop-opacity="1" stop-color="rgb(25.335693%, 55.856323%, 72.340393%)" offset="0.5"/><stop stop-opacity="1" stop-color="rgb(25.40741%, 56.134033%, 72.471619%)" offset="0.515625"/><stop stop-opacity="1" stop-color="rgb(25.4776%, 56.411743%, 72.602844%)" offset="0.53125"/><stop stop-opacity="1" stop-color="rgb(25.549316%, 56.690979%, 72.73407%)" offset="0.546875"/><stop stop-opacity="1" stop-color="rgb(25.619507%, 56.968689%, 72.865295%)" offset="0.5625"/><stop stop-opacity="1" stop-color="rgb(25.691223%, 57.246399%, 72.996521%)" offset="0.578125"/><stop stop-opacity="1" stop-color="rgb(25.761414%, 57.524109%, 73.127747%)" offset="0.59375"/><stop stop-opacity="1" stop-color="rgb(25.83313%, 57.801819%, 73.260498%)" offset="0.609375"/><stop stop-opacity="1" stop-color="rgb(25.90332%, 58.079529%, 73.391724%)" offset="0.625"/><stop stop-opacity="1" stop-color="rgb(25.975037%, 58.358765%, 73.522949%)" offset="0.640625"/><stop stop-opacity="1" stop-color="rgb(26.045227%, 58.636475%, 73.654175%)" offset="0.65625"/><stop stop-opacity="1" stop-color="rgb(26.116943%, 58.914185%, 73.7854%)" offset="0.671875"/><stop stop-opacity="1" stop-color="rgb(26.187134%, 59.191895%, 73.916626%)" offset="0.6875"/><stop stop-opacity="1" stop-color="rgb(26.25885%, 59.469604%, 74.047852%)" offset="0.703125"/><stop stop-opacity="1" stop-color="rgb(26.330566%, 59.74884%, 74.180603%)" offset="0.71875"/><stop stop-opacity="1" stop-color="rgb(26.400757%, 60.02655%, 74.311829%)" offset="0.734375"/><stop stop-opacity="1" stop-color="rgb(26.472473%, 60.30426%, 74.443054%)" offset="0.75"/><stop stop-opacity="1" stop-color="rgb(26.542664%, 60.58197%, 74.57428%)" offset="0.765625"/><stop stop-opacity="1" stop-color="rgb(26.61438%, 60.85968%, 74.705505%)" offset="0.78125"/><stop stop-opacity="1" stop-color="rgb(26.68457%, 61.138916%, 74.836731%)" offset="0.796875"/><stop stop-opacity="1" stop-color="rgb(26.756287%, 61.416626%, 74.967957%)" offset="0.8125"/><stop stop-opacity="1" stop-color="rgb(26.826477%, 61.694336%, 75.100708%)" offset="0.828125"/><stop stop-opacity="1" stop-color="rgb(26.898193%, 61.972046%, 75.231934%)" offset="0.84375"/><stop stop-opacity="1" stop-color="rgb(26.968384%, 62.249756%, 75.363159%)" offset="0.859375"/><stop stop-opacity="1" stop-color="rgb(27.0401%, 62.528992%, 75.494385%)" offset="0.875"/><stop stop-opacity="1" stop-color="rgb(27.110291%, 62.806702%, 75.62561%)" offset="0.890625"/><stop stop-opacity="1" stop-color="rgb(27.182007%, 63.084412%, 75.756836%)" offset="0.90625"/><stop stop-opacity="1" stop-color="rgb(27.253723%, 63.362122%, 75.888062%)" offset="0.921875"/><stop stop-opacity="1" stop-color="rgb(27.323914%, 63.639832%, 76.020813%)" offset="0.9375"/><stop stop-opacity="1" stop-color="rgb(27.39563%, 63.919067%, 76.152039%)" offset="0.953125"/><stop stop-opacity="1" stop-color="rgb(27.46582%, 64.196777%, 76.283264%)" offset="0.96875"/><stop stop-opacity="1" stop-color="rgb(27.537537%, 64.474487%, 76.41449%)" offset="0.984375"/><stop stop-opacity="1" stop-color="rgb(27.607727%, 64.752197%, 76.545715%)" offset="1"/></linearGradient><clipPath id="id3"><path d="M 371.925781 201 L 403 201 L 403 244 L 371.925781 244 Z M 371.925781 201 " clip-rule="nonzero"/></clipPath><clipPath id="id4"><path d="M 483 201 L 514.425781 201 L 514.425781 244 L 483 244 Z M 483 201 " clip-rule="nonzero"/></clipPath><clipPath id="id5"><path d="M 1035.363281 130.582031 L 1115 130.582031 L 1115 244.582031 L 1035.363281 244.582031 Z M 1035.363281 130.582031 " clip-rule="nonzero"/></clipPath><clipPath id="id6"><path d="M 1060 130.582031 L 1141 130.582031 L 1141 244.582031 L 1060 244.582031 Z M 1060 130.582031 " clip-rule="nonzero"/></clipPath><clipPath id="id7"><path d="M 1085 130.582031 L 1165.863281 130.582031 L 1165.863281 244.582031 L 1085 244.582031 Z M 1085 130.582031 " clip-rule="nonzero"/></clipPath></defs><rect x="-150" width="1800" fill="#ffffff" y="-37.499999" height="449.999989" fill-opacity="1"/><rect x="-150" width="1800" fill="#ffffff" y="-37.499999" height="449.999989" fill-opacity="1"/><g clip-path="url(#id1)"><path fill="url(#id2)" d="M 0 0 L 0 375 L 1499.773438 375 L 1499.773438 0 Z M 0 0 " fill-rule="nonzero"/></g><g fill="#ffffff" fill-opacity="1"><g transform="translate(842.214275, 198.751848)"><g><path d="M 9.625 -4 L 21.515625 -4 L 20.5 0 L 1.234375 0 L 1.234375 -4 L 6.4375 -4 C 5.039062 -6.300781 4.34375 -8.503906 4.34375 -10.609375 C 4.34375 -12.847656 5.140625 -14.710938 6.734375 -16.203125 C 8.335938 -17.703125 10.304688 -18.453125 12.640625 -18.453125 C 14.585938 -18.453125 17 -17.90625 19.875 -16.8125 L 18.8125 -13.578125 C 16.59375 -14.367188 14.742188 -14.765625 13.265625 -14.765625 C 11.578125 -14.765625 10.238281 -14.3125 9.25 -13.40625 C 8.257812 -12.507812 7.734375 -11.28125 7.671875 -9.71875 C 7.585938 -8.0625 8.238281 -6.15625 9.625 -4 Z M 9.625 -4 "/></g></g></g><g fill="#ffffff" fill-opacity="1"><g transform="translate(864.92142, 198.751848)"><g><path d="M 13.171875 0 C 6.960938 0 3.859375 -2.957031 3.859375 -8.875 L 3.8125 -31.8125 L 7.578125 -32.375 L 7.578125 -9.765625 C 7.578125 -5.921875 9.425781 -4 13.125 -4 C 13.425781 -4 13.578125 -3.863281 13.578125 -3.59375 L 13.625 -0.4375 C 13.625 -0.144531 13.472656 0 13.171875 0 Z M 13.171875 0 "/></g></g></g><g fill="#ffffff" fill-opacity="1"><g transform="translate(878.093343, 198.751848)"><g><path d="M 10.6875 -23.828125 L 7.453125 -20.578125 L 4.171875 -23.828125 L 7.359375 -27.015625 Z M 14.6875 -4 C 14.976562 -4 15.125 -3.863281 15.125 -3.59375 L 15.125 -0.4375 C 15.125 -0.144531 14.976562 0 14.6875 0 C 12.164062 0 9.8125 -0.960938 7.625 -2.890625 C 6.0625 -0.960938 3.519531 0 0 0 C -0.289062 0 -0.4375 -0.144531 -0.4375 -0.4375 L -0.40625 -3.59375 C -0.40625 -3.863281 -0.253906 -4 0.046875 -4 C 3.773438 -4 5.640625 -5.84375 5.640625 -9.53125 L 5.59375 -16.71875 L 9.359375 -17.296875 L 9.359375 -8.515625 C 9.359375 -7.484375 9.253906 -6.597656 9.046875 -5.859375 C 10.878906 -4.617188 12.757812 -4 14.6875 -4 Z M 14.6875 -4 "/></g></g></g><g fill="#ffffff" fill-opacity="1"><g transform="translate(892.773159, 198.751848)"><g><path d="M 14.6875 -4 C 14.976562 -4 15.125 -3.863281 15.125 -3.59375 L 15.125 -0.4375 C 15.125 -0.144531 14.976562 0 14.6875 0 C 12.164062 0 9.8125 -0.960938 7.625 -2.890625 C 6.0625 -0.960938 3.519531 0 0 0 C -0.289062 0 -0.4375 -0.144531 -0.4375 -0.4375 L -0.40625 -3.59375 C -0.40625 -3.863281 -0.253906 -4 0.046875 -4 C 3.773438 -4 5.640625 -5.84375 5.640625 -9.53125 L 5.59375 -16.71875 L 9.359375 -17.296875 L 9.359375 -8.515625 C 9.359375 -7.484375 9.253906 -6.597656 9.046875 -5.859375 C 10.878906 -4.617188 12.757812 -4 14.6875 -4 Z M 3.8125 6.78125 L 7.015625 3.546875 L 10.328125 6.78125 L 7.09375 9.984375 Z M 3.8125 6.78125 "/></g></g></g><g fill="#ffffff" fill-opacity="1"><g transform="translate(907.452975, 198.751848)"><g><path d="M 0 0 C -0.289062 0 -0.4375 -0.144531 -0.4375 -0.4375 L -0.4375 -3.59375 C -0.4375 -3.863281 -0.273438 -4 0.046875 -4 C 3.742188 -4 5.59375 -5.921875 5.59375 -9.765625 L 5.640625 -31.8125 L 9.359375 -32.375 L 9.359375 -8.875 C 9.359375 -2.957031 6.238281 0 0 0 Z M 0 0 "/></g></g></g><g fill="#ffffff" fill-opacity="1"><g transform="translate(920.624899, 198.751848)"><g><path d="M 3.859375 0 L 3.859375 -31.8125 L 7.625 -32.375 L 7.625 0 Z M 3.859375 0 "/></g></g></g><g fill="#ffffff" fill-opacity="1"><g transform="translate(555.084486, 198.250007)"><g><path d="M 15.546875 -29.4375 C 22.472656 -29.4375 25.9375 -26.882812 25.9375 -21.78125 C 25.9375 -20.164062 25.53125 -18.769531 24.71875 -17.59375 C 23.914062 -16.425781 22.789062 -15.613281 21.34375 -15.15625 C 23.132812 -14.8125 24.488281 -14.007812 25.40625 -12.75 C 26.332031 -11.5 26.796875 -9.929688 26.796875 -8.046875 C 26.796875 -2.679688 23.445312 0 16.75 0 L 4.0625 0 L 4.0625 -29.4375 Z M 15.203125 -16.328125 C 16.441406 -16.328125 17.460938 -16.382812 18.265625 -16.5 C 19.078125 -16.613281 19.878906 -16.835938 20.671875 -17.171875 C 21.460938 -17.503906 22.050781 -18.035156 22.4375 -18.765625 C 22.832031 -19.503906 23.03125 -20.4375 23.03125 -21.5625 C 23.03125 -22.6875 22.832031 -23.625 22.4375 -24.375 C 22.050781 -25.125 21.46875 -25.671875 20.6875 -26.015625 C 19.914062 -26.367188 19.109375 -26.609375 18.265625 -26.734375 C 17.429688 -26.867188 16.410156 -26.9375 15.203125 -26.9375 L 6.96875 -26.9375 L 6.96875 -16.328125 Z M 6.96875 -13.859375 L 6.96875 -2.515625 L 16.359375 -2.515625 C 18.816406 -2.515625 20.6875 -2.898438 21.96875 -3.671875 C 23.257812 -4.453125 23.90625 -5.941406 23.90625 -8.140625 C 23.90625 -9.296875 23.722656 -10.257812 23.359375 -11.03125 C 22.992188 -11.8125 22.453125 -12.394531 21.734375 -12.78125 C 21.015625 -13.175781 20.234375 -13.453125 19.390625 -13.609375 C 18.554688 -13.773438 17.546875 -13.859375 16.359375 -13.859375 Z M 6.96875 -13.859375 "/></g></g></g><g fill="#ffffff" fill-opacity="1"><g transform="translate(584.26131, 198.250007)"><g><path d="M 3.6875 -29.1875 L 6.578125 -29.703125 L 6.578125 -11.171875 C 6.578125 -8.453125 7.390625 -6.253906 9.015625 -4.578125 C 10.648438 -2.910156 13 -2.078125 16.0625 -2.078125 C 19.125 -2.078125 21.46875 -2.910156 23.09375 -4.578125 C 24.726562 -6.253906 25.546875 -8.453125 25.546875 -11.171875 L 25.546875 -29.1875 L 28.453125 -29.703125 L 28.453125 -10.78125 C 28.453125 -7.570312 27.394531 -4.898438 25.28125 -2.765625 C 23.175781 -0.628906 20.101562 0.4375 16.0625 0.4375 C 11.96875 0.4375 8.878906 -0.65625 6.796875 -2.84375 C 4.722656 -5.039062 3.6875 -7.6875 3.6875 -10.78125 Z M 3.6875 -29.1875 "/></g></g></g><g fill="#ffffff" fill-opacity="1"><g transform="translate(616.381795, 198.250007)"><g><path d="M 6.96875 0 L 4.0625 0 L 4.0625 -29.1875 L 6.96875 -29.703125 Z M 6.96875 0 "/></g></g></g><g fill="#ffffff" fill-opacity="1"><g transform="translate(627.420502, 198.250007)"><g><path d="M 4.0625 0 L 4.0625 -29.1875 L 6.96875 -29.703125 L 6.96875 -2.515625 L 23.90625 -2.515625 L 24.421875 0 Z M 4.0625 0 "/></g></g></g><g fill="#ffffff" fill-opacity="1"><g transform="translate(653.00434, 198.250007)"><g><path d="M 4.0625 0 L 4.0625 -29.4375 L 14.375 -29.4375 C 19.050781 -29.4375 22.765625 -28.070312 25.515625 -25.34375 C 28.273438 -22.625 29.65625 -19.082031 29.65625 -14.71875 C 29.65625 -10.363281 28.273438 -6.820312 25.515625 -4.09375 C 22.765625 -1.363281 19.050781 0 14.375 0 Z M 14.375 -2.515625 C 18.15625 -2.515625 21.15625 -3.609375 23.375 -5.796875 C 25.601562 -7.992188 26.71875 -10.96875 26.71875 -14.71875 C 26.71875 -18.46875 25.601562 -21.441406 23.375 -23.640625 C 21.15625 -25.835938 18.15625 -26.9375 14.375 -26.9375 L 6.96875 -26.9375 L 6.96875 -2.515625 Z M 14.375 -2.515625 "/></g></g></g><g fill="#ffffff" fill-opacity="1"><g transform="translate(685.168118, 198.250007)"><g><path d="M 6.96875 0 L 4.0625 0 L 4.0625 -29.1875 L 6.96875 -29.703125 Z M 6.96875 0 "/></g></g></g><g fill="#ffffff" fill-opacity="1"><g transform="translate(696.206825, 198.250007)"><g><path d="M 6.75 -25.109375 L 6.75 0 L 4.0625 0 L 4.0625 -29.4375 L 6.921875 -29.4375 L 26.234375 -4.421875 L 26.234375 -29.1875 L 28.875 -29.703125 L 28.875 0 L 26.0625 0 Z M 6.75 -25.109375 "/></g></g></g><g fill="#ffffff" fill-opacity="1"><g transform="translate(729.193089, 198.250007)"><g><path d="M 24.46875 -14.421875 L 27.28125 -14.9375 L 27.28125 -1.6875 C 24.507812 -0.269531 21.128906 0.4375 17.140625 0.4375 C 12.785156 0.4375 9.234375 -0.925781 6.484375 -3.65625 C 3.742188 -6.382812 2.375 -10.070312 2.375 -14.71875 C 2.375 -19.363281 3.742188 -23.050781 6.484375 -25.78125 C 9.234375 -28.507812 12.785156 -29.875 17.140625 -29.875 C 20.867188 -29.875 24.191406 -28.9375 27.109375 -27.0625 L 26.578125 -24.546875 C 23.898438 -26.421875 20.753906 -27.359375 17.140625 -27.359375 C 13.585938 -27.359375 10.726562 -26.210938 8.5625 -23.921875 C 6.40625 -21.628906 5.328125 -18.5625 5.328125 -14.71875 C 5.328125 -10.882812 6.40625 -7.816406 8.5625 -5.515625 C 10.726562 -3.222656 13.585938 -2.078125 17.140625 -2.078125 C 20.085938 -2.078125 22.53125 -2.539062 24.46875 -3.46875 Z M 24.46875 -14.421875 "/></g></g></g><path fill="#ffffff" d="M 409.019531 172.230469 L 439.828125 189.960938 L 439.828125 165.347656 L 409.019531 147.527344 Z M 409.019531 172.230469 " fill-opacity="1" fill-rule="nonzero"/><path fill="#ffffff" d="M 409.019531 243.65625 L 439.828125 225.832031 L 439.828125 201.292969 L 409.019531 219.125 Z M 409.019531 243.65625 " fill-opacity="1" fill-rule="nonzero"/><g clip-path="url(#id3)"><path fill="#ffffff" d="M 371.832031 225.832031 L 402.589844 243.65625 L 402.589844 219.125 L 371.832031 201.292969 Z M 371.832031 225.832031 " fill-opacity="1" fill-rule="nonzero"/></g><path fill="#ffffff" d="M 405.867188 177.851562 L 375.105469 195.691406 L 405.867188 213.480469 L 436.625 195.691406 Z M 405.867188 177.851562 " fill-opacity="1" fill-rule="nonzero"/><path fill="#ffffff" d="M 443.015625 124.078125 L 412.265625 141.921875 L 443.015625 159.753906 L 473.785156 141.921875 Z M 443.015625 145.808594 C 442.515625 145.792969 442.035156 145.679688 441.578125 145.476562 C 441.117188 145.269531 440.714844 144.984375 440.367188 144.621094 C 440.019531 144.257812 439.753906 143.84375 439.570312 143.375 C 439.386719 142.90625 439.296875 142.417969 439.304688 141.917969 C 439.304688 141.410156 439.398438 140.925781 439.59375 140.457031 C 439.785156 139.992188 440.058594 139.578125 440.417969 139.222656 C 440.773438 138.863281 441.183594 138.589844 441.648438 138.394531 C 442.113281 138.203125 442.597656 138.105469 443.101562 138.105469 C 443.605469 138.105469 444.089844 138.203125 444.558594 138.394531 C 445.023438 138.589844 445.433594 138.863281 445.789062 139.222656 C 446.144531 139.578125 446.421875 139.992188 446.613281 140.457031 C 446.808594 140.925781 446.902344 141.410156 446.902344 141.917969 C 446.902344 142.433594 446.804688 142.929688 446.609375 143.40625 C 446.414062 143.886719 446.132812 144.308594 445.765625 144.671875 C 445.402344 145.039062 444.980469 145.320312 444.503906 145.515625 C 444.027344 145.710938 443.53125 145.808594 443.015625 145.808594 Z M 443.015625 145.808594 " fill-opacity="1" fill-rule="nonzero"/><path fill="#ffffff" d="M 446.296875 225.832031 L 477.058594 243.65625 L 477.058594 219.125 L 446.296875 201.292969 Z M 446.296875 225.832031 " fill-opacity="1" fill-rule="nonzero"/><path fill="#ffffff" d="M 480.339844 177.851562 L 449.574219 195.691406 L 480.339844 213.480469 L 511.085938 195.691406 Z M 480.339844 177.851562 " fill-opacity="1" fill-rule="nonzero"/><g clip-path="url(#id4)"><path fill="#ffffff" d="M 483.613281 219.125 L 483.613281 243.65625 L 514.367188 225.832031 L 514.367188 201.292969 Z M 483.613281 219.125 " fill-opacity="1" fill-rule="nonzero"/></g><path fill="#ffffff" d="M 446.296875 189.960938 L 477.058594 172.230469 L 477.058594 147.519531 L 446.296875 165.347656 Z M 446.296875 189.960938 " fill-opacity="1" fill-rule="nonzero"/><g clip-path="url(#id5)"><path fill="#ffffff" d="M 1035.453125 130.71875 L 1035.363281 244.398438 L 1114.394531 187.671875 Z M 1035.453125 130.71875 " fill-opacity="1" fill-rule="nonzero"/></g><g clip-path="url(#id6)"><path fill="#ffffff" d="M 1062.023438 132.386719 L 1138.664062 187.671875 L 1061.980469 242.683594 L 1062.023438 132.386719 M 1062.023438 130.585938 C 1061.753906 130.585938 1061.484375 130.628906 1061.210938 130.765625 C 1060.625 131.082031 1060.21875 131.710938 1060.21875 132.386719 L 1060.175781 242.683594 C 1060.175781 243.359375 1060.535156 243.992188 1061.167969 244.308594 C 1061.4375 244.441406 1061.707031 244.488281 1061.980469 244.488281 C 1062.339844 244.488281 1062.699219 244.351562 1063.015625 244.125 L 1139.703125 189.113281 C 1140.152344 188.753906 1140.46875 188.210938 1140.46875 187.671875 C 1140.46875 187.085938 1140.199219 186.542969 1139.703125 186.230469 L 1063.105469 130.945312 C 1062.789062 130.71875 1062.429688 130.585938 1062.023438 130.585938 Z M 1062.023438 130.585938 " fill-opacity="1" fill-rule="nonzero"/></g><g clip-path="url(#id7)"><path fill="#ffffff" d="M 1087.464844 132.476562 L 1164.058594 187.761719 L 1087.375 242.773438 L 1087.464844 132.476562 M 1087.464844 130.675781 C 1087.195312 130.675781 1086.925781 130.71875 1086.652344 130.855469 C 1086.066406 131.171875 1085.660156 131.800781 1085.660156 132.476562 L 1085.570312 242.773438 C 1085.570312 243.449219 1085.933594 244.082031 1086.5625 244.398438 C 1086.832031 244.53125 1087.105469 244.578125 1087.375 244.578125 C 1087.734375 244.578125 1088.097656 244.441406 1088.414062 244.214844 L 1165.097656 189.203125 C 1165.550781 188.84375 1165.863281 188.300781 1165.863281 187.761719 C 1165.863281 187.175781 1165.59375 186.632812 1165.097656 186.320312 L 1088.546875 131.035156 C 1088.230469 130.808594 1087.828125 130.675781 1087.464844 130.675781 Z M 1087.464844 130.675781 " fill-opacity="1" fill-rule="nonzero"/></g></svg>