<svg xmlns="http://www.w3.org/2000/svg" xmlns:xlink="http://www.w3.org/1999/xlink" width="500" zoomAndPan="magnify" viewBox="0 0 375 374.999991" height="500" preserveAspectRatio="xMidYMid meet" version="1.0"><defs><clipPath id="id1"><path d="M 5 27.234375 L 370 27.234375 L 370 347.484375 L 5 347.484375 Z M 5 27.234375 " clip-rule="nonzero"/></clipPath><clipPath id="id2"><path d="M 103.996094 198 L 155 198 L 155 271.246094 L 103.996094 271.246094 Z M 103.996094 198 " clip-rule="nonzero"/></clipPath><clipPath id="id3"><path d="M 162 198 L 213 198 L 213 271.246094 L 162 271.246094 Z M 162 198 " clip-rule="nonzero"/></clipPath><clipPath id="id4"><path d="M 221 198 L 271.246094 198 L 271.246094 271.246094 L 221 271.246094 Z M 221 198 " clip-rule="nonzero"/></clipPath><clipPath id="id5"><path d="M 184 103.996094 L 191 103.996094 L 191 110 L 184 110 Z M 184 103.996094 " clip-rule="nonzero"/></clipPath></defs><g clip-path="url(#id1)"><path fill="#3b78ae" d="M 369.957031 187.359375 C 368.457031 188.78125 346.152344 210.769531 346.152344 233.878906 L 346.078125 233.878906 L 346.078125 299.992188 C 346.078125 325.125 326.542969 345.617188 301.84375 347.335938 C 301.320312 347.410156 300.796875 347.410156 300.273438 347.410156 C 299.675781 347.484375 299.152344 347.484375 298.550781 347.484375 L 76.335938 347.484375 C 75.738281 347.484375 75.214844 347.410156 74.613281 347.410156 C 74.089844 347.410156 73.566406 347.335938 73.042969 347.335938 C 48.34375 345.691406 28.808594 325.125 28.808594 299.992188 L 28.808594 233.878906 C 28.808594 210.769531 6.429688 188.78125 5.007812 187.359375 C 6.429688 185.9375 28.808594 163.949219 28.808594 140.839844 L 28.882812 140.839844 L 28.882812 74.726562 C 28.882812 49.597656 48.417969 29.105469 73.117188 27.386719 C 73.640625 27.308594 74.164062 27.308594 74.6875 27.308594 C 75.289062 27.234375 75.8125 27.234375 76.410156 27.234375 L 298.628906 27.234375 C 299.226562 27.234375 299.75 27.308594 300.347656 27.308594 C 300.871094 27.308594 301.398438 27.386719 301.921875 27.386719 C 326.621094 29.03125 346.152344 49.597656 346.152344 74.726562 L 346.152344 140.839844 C 346.152344 163.949219 368.457031 185.9375 369.957031 187.359375 " fill-opacity="1" fill-rule="nonzero"/></g><g clip-path="url(#id2)"><path fill="#ffffff" d="M 147.589844 237.492188 C 145.675781 236.210938 143.507812 235.429688 141.246094 235.144531 C 145.382812 231.5625 148.59375 226.546875 148.59375 221.070312 C 148.59375 202.640625 137.984375 198.769531 129.082031 198.769531 C 120.183594 198.769531 109.570312 202.640625 109.570312 221.070312 C 109.570312 226.546875 112.785156 231.5625 116.921875 235.144531 C 114.660156 235.429688 112.492188 236.210938 110.578125 237.492188 C 106.457031 240.238281 103.996094 244.832031 103.996094 249.789062 L 103.996094 268.457031 C 103.996094 270 105.242188 271.246094 106.78125 271.246094 L 151.382812 271.246094 C 152.925781 271.246094 154.171875 270 154.171875 268.457031 L 154.171875 249.789062 C 154.171875 244.832031 151.707031 240.238281 147.589844 237.492188 Z M 129.082031 245.300781 L 131.386719 251.058594 L 129.082031 253.367188 L 126.78125 251.0625 Z M 115.53125 223.710938 C 120.304688 223.320312 128.921875 221.875 132.925781 216.589844 L 142.890625 222.570312 C 141.769531 229.398438 133.363281 235.007812 129.082031 235.007812 C 125.042969 235.007812 117.332031 230.011719 115.53125 223.710938 Z M 129.082031 204.34375 C 136.992188 204.34375 141.339844 208.085938 142.59375 215.890625 L 133.304688 210.320312 C 132.578125 209.882812 131.699219 209.800781 130.90625 210.097656 C 130.113281 210.386719 129.496094 211.027344 129.226562 211.828125 C 127.816406 216.058594 120.203125 217.660156 115.300781 218.125 C 116.046875 208.777344 120.453125 204.34375 129.082031 204.34375 Z M 148.59375 265.671875 L 109.570312 265.671875 L 109.570312 249.789062 C 109.570312 246.703125 111.101562 243.839844 113.671875 242.128906 C 115.1875 241.113281 116.953125 240.582031 118.777344 240.582031 L 124.964844 240.582031 L 120.917969 250.699219 C 120.503906 251.734375 120.75 252.914062 121.535156 253.703125 L 127.113281 259.277344 C 127.65625 259.820312 128.371094 260.09375 129.082031 260.09375 C 129.796875 260.09375 130.511719 259.820312 131.054688 259.277344 L 136.628906 253.703125 C 137.417969 252.914062 137.660156 251.734375 137.246094 250.699219 L 133.199219 240.582031 L 139.386719 240.582031 C 141.210938 240.582031 142.976562 241.113281 144.496094 242.128906 C 147.0625 243.839844 148.59375 246.703125 148.59375 249.789062 Z M 148.59375 265.671875 " fill-opacity="1" fill-rule="nonzero"/></g><g clip-path="url(#id3)"><path fill="#ffffff" d="M 206.125 237.492188 C 204.210938 236.210938 202.046875 235.429688 199.785156 235.144531 C 203.917969 231.5625 207.132812 226.546875 207.132812 221.070312 C 207.132812 202.640625 196.519531 198.769531 187.621094 198.769531 C 178.71875 198.769531 168.109375 202.640625 168.109375 221.070312 C 168.109375 226.546875 171.320312 231.5625 175.457031 235.144531 C 173.199219 235.429688 171.027344 236.210938 169.117188 237.492188 C 164.992188 240.238281 162.53125 244.832031 162.53125 249.789062 L 162.53125 268.457031 C 162.53125 270 163.777344 271.246094 165.320312 271.246094 L 209.921875 271.246094 C 211.460938 271.246094 212.707031 270 212.707031 268.457031 L 212.707031 249.789062 C 212.707031 244.832031 210.246094 240.238281 206.125 237.492188 Z M 187.621094 245.300781 L 189.921875 251.058594 L 187.621094 253.367188 L 185.316406 251.0625 Z M 174.070312 223.710938 C 178.84375 223.320312 187.457031 221.875 191.464844 216.589844 L 201.425781 222.570312 C 200.308594 229.398438 191.898438 235.007812 187.621094 235.007812 C 183.582031 235.007812 175.867188 230.011719 174.070312 223.710938 Z M 187.621094 204.34375 C 195.53125 204.34375 199.875 208.085938 201.132812 215.890625 L 191.84375 210.320312 C 191.117188 209.882812 190.234375 209.800781 189.441406 210.097656 C 188.648438 210.386719 188.03125 211.027344 187.765625 211.828125 C 186.355469 216.058594 178.738281 217.660156 173.839844 218.125 C 174.582031 208.777344 178.988281 204.34375 187.621094 204.34375 Z M 207.132812 265.671875 L 168.109375 265.671875 L 168.109375 249.789062 C 168.109375 246.703125 169.640625 243.839844 172.207031 242.128906 C 173.722656 241.113281 175.488281 240.582031 177.316406 240.582031 L 183.503906 240.582031 L 179.457031 250.699219 C 179.042969 251.734375 179.28125 252.914062 180.074219 253.703125 L 185.648438 259.277344 C 186.191406 259.820312 186.90625 260.09375 187.621094 260.09375 C 188.332031 260.09375 189.046875 259.820312 189.589844 259.277344 L 195.164062 253.703125 C 195.953125 252.914062 196.199219 251.734375 195.785156 250.699219 L 191.738281 240.582031 L 197.925781 240.582031 C 199.75 240.582031 201.515625 241.113281 203.03125 242.128906 C 205.601562 243.839844 207.132812 246.703125 207.132812 249.789062 Z M 207.132812 265.671875 " fill-opacity="1" fill-rule="nonzero"/></g><g clip-path="url(#id4)"><path fill="#ffffff" d="M 264.664062 237.492188 C 262.75 236.210938 260.582031 235.429688 258.324219 235.144531 C 262.457031 231.5625 265.671875 226.546875 265.671875 221.070312 C 265.671875 202.640625 255.058594 198.769531 246.15625 198.769531 C 237.257812 198.769531 226.644531 202.640625 226.644531 221.070312 C 226.644531 226.546875 229.859375 231.5625 233.996094 235.144531 C 231.734375 235.429688 229.566406 236.210938 227.65625 237.492188 C 223.53125 240.238281 221.070312 244.832031 221.070312 249.789062 L 221.070312 268.457031 C 221.070312 270 222.316406 271.246094 223.859375 271.246094 L 268.457031 271.246094 C 270 271.246094 271.246094 270 271.246094 268.457031 L 271.246094 249.789062 C 271.246094 244.832031 268.785156 240.238281 264.664062 237.492188 Z M 246.15625 245.300781 L 248.460938 251.058594 L 246.15625 253.367188 L 243.855469 251.0625 Z M 232.609375 223.710938 C 237.378906 223.320312 245.996094 221.875 250 216.589844 L 259.964844 222.570312 C 258.847656 229.398438 250.4375 235.007812 246.15625 235.007812 C 242.117188 235.007812 234.40625 230.011719 232.609375 223.710938 Z M 246.15625 204.34375 C 254.070312 204.34375 258.414062 208.085938 259.667969 215.890625 L 250.378906 210.320312 C 249.65625 209.882812 248.773438 209.800781 247.980469 210.097656 C 247.1875 210.386719 246.570312 211.027344 246.300781 211.828125 C 244.890625 216.058594 237.277344 217.660156 232.375 218.125 C 233.121094 208.777344 237.527344 204.34375 246.15625 204.34375 Z M 265.671875 265.671875 L 226.644531 265.671875 L 226.644531 249.789062 C 226.644531 246.703125 228.179688 243.839844 230.746094 242.128906 C 232.261719 241.113281 234.027344 240.582031 235.851562 240.582031 L 242.039062 240.582031 L 237.992188 250.699219 C 237.582031 251.734375 237.820312 252.914062 238.613281 253.703125 L 244.1875 259.277344 C 244.730469 259.820312 245.445312 260.09375 246.15625 260.09375 C 246.871094 260.09375 247.585938 259.820312 248.128906 259.277344 L 253.703125 253.703125 C 254.492188 252.914062 254.734375 251.734375 254.324219 250.699219 L 250.273438 240.582031 L 256.464844 240.582031 C 258.285156 240.582031 260.054688 241.113281 261.570312 242.128906 C 264.136719 243.839844 265.671875 246.703125 265.671875 249.789062 Z M 265.671875 265.671875 " fill-opacity="1" fill-rule="nonzero"/></g><path fill="#ffffff" d="M 156.957031 193.195312 L 235.007812 193.195312 L 235.007812 187.621094 L 232.21875 187.621094 L 232.21875 151.382812 C 232.21875 149.839844 230.972656 148.59375 229.433594 148.59375 L 204.34375 148.59375 L 204.34375 140.234375 C 204.34375 138.691406 203.097656 137.445312 201.558594 137.445312 L 184.625 137.445312 C 183.601562 135.6875 182.351562 134.050781 180.851562 132.59375 C 176.488281 128.355469 170.773438 126.167969 164.640625 126.304688 C 152.71875 126.664062 143.019531 137.03125 143.019531 149.414062 C 143.019531 156.703125 145.089844 163.808594 149.003906 169.957031 L 160.242188 187.621094 L 156.957031 187.621094 Z M 212.707031 187.621094 L 212.707031 179.257812 L 218.28125 179.257812 L 218.28125 187.621094 Z M 226.644531 154.171875 L 226.644531 156.957031 L 221.070312 156.957031 L 221.070312 162.53125 L 226.644531 162.53125 L 226.644531 165.320312 L 221.070312 165.320312 L 221.070312 170.894531 L 226.644531 170.894531 L 226.644531 187.621094 L 223.859375 187.621094 L 223.859375 176.46875 C 223.859375 174.929688 222.613281 173.683594 221.070312 173.683594 L 209.921875 173.683594 C 208.378906 173.683594 207.132812 174.929688 207.132812 176.46875 L 207.132812 187.621094 L 204.34375 187.621094 L 204.34375 170.894531 L 209.921875 170.894531 L 209.921875 165.320312 L 204.34375 165.320312 L 204.34375 162.53125 L 209.921875 162.53125 L 209.921875 156.957031 L 204.34375 156.957031 L 204.34375 154.171875 Z M 198.769531 143.019531 L 198.769531 187.621094 L 179.257812 187.621094 L 179.257812 173.695312 L 181.636719 169.957031 C 185.550781 163.808594 187.621094 156.703125 187.621094 149.414062 L 187.621094 148.59375 C 187.621094 146.683594 187.355469 144.820312 186.894531 143.019531 Z M 148.59375 149.414062 C 148.59375 140.011719 155.863281 132.144531 164.804688 131.878906 C 164.976562 131.875 165.148438 131.871094 165.320312 131.871094 C 169.699219 131.871094 173.820312 133.539062 176.96875 136.59375 C 180.246094 139.769531 182.046875 144.03125 182.046875 148.59375 L 182.046875 149.414062 C 182.046875 155.640625 180.277344 161.710938 176.933594 166.964844 L 165.320312 185.21875 L 153.707031 166.964844 C 150.363281 161.710938 148.59375 155.640625 148.59375 149.414062 Z M 173.683594 182.457031 L 173.683594 187.621094 L 170.398438 187.621094 Z M 173.683594 182.457031 " fill-opacity="1" fill-rule="nonzero"/><path fill="#ffffff" d="M 190.40625 145.808594 L 195.984375 145.808594 L 195.984375 151.382812 L 190.40625 151.382812 Z M 190.40625 145.808594 " fill-opacity="1" fill-rule="nonzero"/><path fill="#ffffff" d="M 212.707031 156.957031 L 218.28125 156.957031 L 218.28125 162.53125 L 212.707031 162.53125 Z M 212.707031 156.957031 " fill-opacity="1" fill-rule="nonzero"/><path fill="#ffffff" d="M 212.707031 165.320312 L 218.28125 165.320312 L 218.28125 170.894531 L 212.707031 170.894531 Z M 212.707031 165.320312 " fill-opacity="1" fill-rule="nonzero"/><path fill="#ffffff" d="M 190.40625 154.171875 L 195.984375 154.171875 L 195.984375 159.746094 L 190.40625 159.746094 Z M 190.40625 154.171875 " fill-opacity="1" fill-rule="nonzero"/><path fill="#ffffff" d="M 190.40625 162.53125 L 195.984375 162.53125 L 195.984375 168.109375 L 190.40625 168.109375 Z M 190.40625 162.53125 " fill-opacity="1" fill-rule="nonzero"/><path fill="#ffffff" d="M 182.046875 170.894531 L 187.621094 170.894531 L 187.621094 176.46875 L 182.046875 176.46875 Z M 182.046875 170.894531 " fill-opacity="1" fill-rule="nonzero"/><path fill="#ffffff" d="M 190.40625 170.894531 L 195.984375 170.894531 L 195.984375 176.46875 L 190.40625 176.46875 Z M 190.40625 170.894531 " fill-opacity="1" fill-rule="nonzero"/><path fill="#ffffff" d="M 182.046875 179.257812 L 187.621094 179.257812 L 187.621094 184.832031 L 182.046875 184.832031 Z M 182.046875 179.257812 " fill-opacity="1" fill-rule="nonzero"/><path fill="#ffffff" d="M 190.40625 179.257812 L 195.984375 179.257812 L 195.984375 184.832031 L 190.40625 184.832031 Z M 190.40625 179.257812 " fill-opacity="1" fill-rule="nonzero"/><path fill="#ffffff" d="M 250.355469 153.167969 C 250.964844 154.8125 251.515625 156.488281 251.988281 158.160156 L 257.351562 156.632812 C 256.835938 154.824219 256.242188 153.003906 255.582031 151.230469 Z M 250.355469 153.167969 " fill-opacity="1" fill-rule="nonzero"/><path fill="#ffffff" d="M 196.0625 104.484375 L 195.421875 110.019531 C 197.136719 110.21875 198.882812 110.488281 200.609375 110.828125 L 201.675781 105.355469 C 199.808594 104.992188 197.921875 104.699219 196.0625 104.484375 Z M 196.0625 104.484375 " fill-opacity="1" fill-rule="nonzero"/><path fill="#ffffff" d="M 207.210938 106.675781 L 205.714844 112.046875 C 207.390625 112.515625 209.066406 113.054688 210.703125 113.65625 L 212.625 108.425781 C 210.851562 107.769531 209.03125 107.183594 207.210938 106.675781 Z M 207.210938 106.675781 " fill-opacity="1" fill-rule="nonzero"/><path fill="#ffffff" d="M 179.054688 104.5 C 177.191406 104.71875 175.300781 105.019531 173.441406 105.382812 L 174.519531 110.855469 C 176.242188 110.515625 177.988281 110.238281 179.707031 110.035156 Z M 179.054688 104.5 " fill-opacity="1" fill-rule="nonzero"/><g clip-path="url(#id5)"><path fill="#ffffff" d="M 190.40625 104.050781 C 188.519531 103.976562 186.609375 103.980469 184.722656 104.054688 L 184.933594 109.625 C 186.671875 109.5625 188.445312 109.554688 190.183594 109.621094 Z M 190.40625 104.050781 " fill-opacity="1" fill-rule="nonzero"/></g><path fill="#ffffff" d="M 217.882812 110.597656 L 215.550781 115.65625 C 217.125 116.386719 218.703125 117.1875 220.234375 118.039062 L 222.953125 113.171875 C 221.296875 112.25 219.59375 111.382812 217.882812 110.597656 Z M 217.882812 110.597656 " fill-opacity="1" fill-rule="nonzero"/><path fill="#ffffff" d="M 142.210938 127.335938 L 138.429688 123.242188 C 137.042969 124.523438 135.691406 125.875 134.410156 127.261719 L 138.503906 131.046875 C 139.6875 129.769531 140.933594 128.519531 142.210938 127.335938 Z M 142.210938 127.335938 " fill-opacity="1" fill-rule="nonzero"/><path fill="#ffffff" d="M 227.800781 116.144531 L 224.710938 120.78125 C 226.148438 121.742188 227.578125 122.777344 228.957031 123.863281 L 232.402344 119.484375 C 230.90625 118.304688 229.359375 117.179688 227.800781 116.144531 Z M 227.800781 116.144531 " fill-opacity="1" fill-rule="nonzero"/><path fill="#ffffff" d="M 259.578125 167.777344 C 259.355469 165.898438 259.050781 164.007812 258.683594 162.15625 L 253.214844 163.257812 C 253.558594 164.960938 253.835938 166.703125 254.042969 168.433594 Z M 259.578125 167.777344 " fill-opacity="1" fill-rule="nonzero"/><path fill="#ffffff" d="M 127.367188 136.183594 L 132 139.285156 C 132.96875 137.839844 134.007812 136.410156 135.089844 135.042969 L 130.71875 131.585938 C 129.546875 133.070312 128.417969 134.617188 127.367188 136.183594 Z M 127.367188 136.183594 " fill-opacity="1" fill-rule="nonzero"/><path fill="#ffffff" d="M 117.863281 156.757812 L 123.226562 158.269531 C 123.699219 156.605469 124.242188 154.925781 124.855469 153.277344 L 119.621094 151.347656 C 118.960938 153.128906 118.371094 154.949219 117.863281 156.757812 Z M 117.863281 156.757812 " fill-opacity="1" fill-rule="nonzero"/><path fill="#ffffff" d="M 121.800781 146.09375 L 126.859375 148.433594 C 127.597656 146.839844 128.402344 145.265625 129.246094 143.761719 L 124.390625 141.023438 C 123.472656 142.65625 122.597656 144.359375 121.800781 146.09375 Z M 121.800781 146.09375 " fill-opacity="1" fill-rule="nonzero"/><path fill="#ffffff" d="M 167.902344 106.714844 C 166.074219 107.230469 164.253906 107.820312 162.503906 108.472656 L 164.433594 113.699219 C 166.054688 113.101562 167.734375 112.554688 169.421875 112.078125 Z M 167.902344 106.714844 " fill-opacity="1" fill-rule="nonzero"/><path fill="#ffffff" d="M 245.941406 143.664062 C 246.796875 145.179688 247.601562 146.746094 248.335938 148.332031 L 253.390625 145.980469 C 252.59375 144.265625 251.722656 142.566406 250.796875 140.925781 Z M 245.941406 143.664062 " fill-opacity="1" fill-rule="nonzero"/><path fill="#ffffff" d="M 232.957031 127.273438 C 234.246094 128.464844 235.5 129.710938 236.671875 130.976562 L 240.761719 127.191406 C 239.488281 125.820312 238.136719 124.464844 236.734375 123.175781 Z M 232.957031 127.273438 " fill-opacity="1" fill-rule="nonzero"/><path fill="#ffffff" d="M 115.648438 167.902344 L 121.183594 168.554688 C 121.382812 166.835938 121.664062 165.089844 122.003906 163.367188 L 116.53125 162.289062 C 116.164062 164.152344 115.867188 166.039062 115.648438 167.902344 Z M 115.648438 167.902344 " fill-opacity="1" fill-rule="nonzero"/><path fill="#ffffff" d="M 150.453125 120.835938 L 147.34375 116.210938 C 145.765625 117.273438 144.21875 118.394531 142.753906 119.550781 L 146.203125 123.929688 C 147.558594 122.859375 148.992188 121.820312 150.453125 120.835938 Z M 150.453125 120.835938 " fill-opacity="1" fill-rule="nonzero"/><path fill="#ffffff" d="M 240.085938 134.960938 C 241.164062 136.320312 242.207031 137.746094 243.1875 139.203125 L 247.808594 136.085938 C 246.75 134.515625 245.621094 132.972656 244.457031 131.5 Z M 240.085938 134.960938 " fill-opacity="1" fill-rule="nonzero"/><path fill="#ffffff" d="M 157.25 110.644531 C 155.542969 111.433594 153.835938 112.308594 152.1875 113.234375 L 154.921875 118.09375 C 156.441406 117.238281 158.011719 116.433594 159.59375 115.707031 Z M 157.25 110.644531 " fill-opacity="1" fill-rule="nonzero"/><path fill="#ffffff" d="M 176.46875 148.59375 C 176.46875 142.445312 171.46875 137.445312 165.320312 137.445312 C 159.171875 137.445312 154.171875 142.445312 154.171875 148.59375 C 154.171875 154.746094 159.171875 159.746094 165.320312 159.746094 C 171.46875 159.746094 176.46875 154.746094 176.46875 148.59375 Z M 159.746094 148.59375 C 159.746094 145.519531 162.246094 143.019531 165.320312 143.019531 C 168.394531 143.019531 170.894531 145.519531 170.894531 148.59375 C 170.894531 151.667969 168.394531 154.171875 165.320312 154.171875 C 162.246094 154.171875 159.746094 151.667969 159.746094 148.59375 Z M 159.746094 148.59375 " fill-opacity="1" fill-rule="nonzero"/></svg>