<svg xmlns="http://www.w3.org/2000/svg" xmlns:xlink="http://www.w3.org/1999/xlink" width="500" zoomAndPan="magnify" viewBox="0 0 375 374.999991" height="500" preserveAspectRatio="xMidYMid meet" version="1.0"><defs><clipPath id="id1"><path d="M 5 27.234375 L 370 27.234375 L 370 347.484375 L 5 347.484375 Z M 5 27.234375 " clip-rule="nonzero"/></clipPath></defs><g clip-path="url(#id1)"><path fill="#3b78ae" d="M 369.957031 187.359375 C 368.457031 188.78125 346.152344 210.769531 346.152344 233.878906 L 346.078125 233.878906 L 346.078125 299.992188 C 346.078125 325.125 326.542969 345.617188 301.84375 347.335938 C 301.320312 347.410156 300.796875 347.410156 300.273438 347.410156 C 299.675781 347.484375 299.152344 347.484375 298.550781 347.484375 L 76.335938 347.484375 C 75.738281 347.484375 75.214844 347.410156 74.613281 347.410156 C 74.089844 347.410156 73.566406 347.335938 73.042969 347.335938 C 48.34375 345.691406 28.808594 325.125 28.808594 299.992188 L 28.808594 233.878906 C 28.808594 210.769531 6.429688 188.78125 5.007812 187.359375 C 6.429688 185.9375 28.808594 163.949219 28.808594 140.839844 L 28.882812 140.839844 L 28.882812 74.726562 C 28.882812 49.597656 48.417969 29.105469 73.117188 27.386719 C 73.640625 27.308594 74.164062 27.308594 74.6875 27.308594 C 75.289062 27.234375 75.8125 27.234375 76.410156 27.234375 L 298.628906 27.234375 C 299.226562 27.234375 299.75 27.308594 300.347656 27.308594 C 300.871094 27.308594 301.398438 27.386719 301.921875 27.386719 C 326.621094 29.03125 346.152344 49.597656 346.152344 74.726562 L 346.152344 140.839844 C 346.152344 163.949219 368.457031 185.9375 369.957031 187.359375 " fill-opacity="1" fill-rule="nonzero"/></g><path fill="#ffffff" d="M 157.347656 142.152344 L 149.496094 150.003906 L 182.695312 183.195312 L 190.515625 175.375 Z M 157.347656 142.152344 " fill-opacity="1" fill-rule="nonzero"/><path fill="#ffffff" d="M 192.734375 118.203125 C 176.832031 103.867188 162.183594 105.660156 143.152344 123.917969 L 153.476562 134.273438 C 165.964844 116.324219 184.714844 117.292969 192.734375 118.203125 Z M 192.734375 118.203125 " fill-opacity="1" fill-rule="nonzero"/><path fill="#ffffff" d="M 154.472656 231.351562 L 219.105469 166.699219 L 211.171875 158.734375 L 146.535156 223.386719 Z M 154.472656 231.351562 " fill-opacity="1" fill-rule="nonzero"/><path fill="#ffffff" d="M 222.121094 165.675781 L 239.363281 182.941406 C 240.160156 183.738281 241.238281 184.136719 242.347656 184.105469 C 243.429688 184.050781 244.398438 183.59375 245.082031 182.769531 C 259.078125 166.273438 271.964844 136.179688 256.773438 120.988281 C 241.609375 105.800781 211.570312 118.714844 195.070312 132.710938 C 194.242188 133.390625 193.789062 134.359375 193.730469 135.441406 C 193.675781 136.550781 194.101562 137.660156 194.898438 138.425781 Z M 222.121094 165.675781 " fill-opacity="1" fill-rule="nonzero"/><path fill="#ffffff" d="M 142.097656 146.617188 L 131.570312 136.066406 C 103.324219 159.246094 102.753906 173.097656 115.128906 190.761719 C 113.449219 179.015625 116.550781 161.496094 142.097656 146.617188 Z M 142.097656 146.617188 " fill-opacity="1" fill-rule="nonzero"/><path fill="#ffffff" d="M 202.492188 187.351562 L 194.640625 195.199219 L 252.277344 252.882812 C 252.960938 253.566406 253.929688 253.964844 254.839844 253.9375 C 255.804688 253.9375 256.6875 253.566406 257.339844 252.882812 L 260.128906 250.125 C 261.523438 248.730469 261.523438 246.457031 260.128906 245.035156 Z M 202.492188 187.351562 " fill-opacity="1" fill-rule="nonzero"/><path fill="#ffffff" d="M 129.984375 130.488281 L 137.8125 122.628906 L 155.367188 140.113281 L 147.535156 147.972656 Z M 129.984375 130.488281 " fill-opacity="1" fill-rule="nonzero"/><path fill="#ffffff" d="M 140.902344 221.796875 C 140.277344 221.167969 139.480469 220.855469 138.628906 220.855469 C 138.117188 220.855469 137.601562 220.96875 137.121094 221.226562 L 108.785156 236.414062 C 107.875 236.898438 107.25 237.78125 107.105469 238.777344 C 106.964844 239.800781 107.304688 240.824219 108.015625 241.5625 L 136.351562 269.894531 C 137.0625 270.632812 138.085938 270.976562 139.109375 270.804688 C 140.105469 270.660156 140.988281 270.035156 141.472656 269.15625 L 156.636719 240.796875 C 157.316406 239.515625 157.089844 238.007812 156.066406 236.984375 Z M 137.148438 257.519531 L 120.390625 240.765625 L 137.519531 231.578125 L 146.308594 240.367188 Z M 137.148438 257.519531 " fill-opacity="1" fill-rule="nonzero"/><path fill="#ffffff" d="M 127.988281 128.441406 L 135.8125 120.59375 L 130.632812 115.386719 C 129.269531 114.019531 126.878906 114.019531 125.511719 115.386719 L 122.753906 118.144531 C 122.070312 118.828125 121.699219 119.738281 121.699219 120.707031 C 121.699219 121.644531 122.070312 122.554688 122.753906 123.238281 Z M 127.988281 128.441406 " fill-opacity="1" fill-rule="nonzero"/></svg>