<svg xmlns="http://www.w3.org/2000/svg" xmlns:xlink="http://www.w3.org/1999/xlink" width="2000" zoomAndPan="magnify" viewBox="0 0 1500 374.999991" height="500" preserveAspectRatio="xMidYMid meet" version="1.0"><defs><g/><linearGradient x1="1" gradientTransform="matrix(1499.999964, 0, 0, 1499.999964, 0.000018, -549.107167)" y1="0.5" x2="0" gradientUnits="userSpaceOnUse" y2="0.5" id="id1"><stop stop-opacity="1" stop-color="rgb(23.098755%, 47.099304%, 68.199158%)" offset="0"/><stop stop-opacity="1" stop-color="rgb(23.135376%, 47.242737%, 68.266296%)" offset="0.015625"/><stop stop-opacity="1" stop-color="rgb(23.208618%, 47.529602%, 68.4021%)" offset="0.03125"/><stop stop-opacity="1" stop-color="rgb(23.283386%, 47.817993%, 68.537903%)" offset="0.046875"/><stop stop-opacity="1" stop-color="rgb(23.356628%, 48.104858%, 68.673706%)" offset="0.0625"/><stop stop-opacity="1" stop-color="rgb(23.429871%, 48.39325%, 68.809509%)" offset="0.078125"/><stop stop-opacity="1" stop-color="rgb(23.503113%, 48.680115%, 68.946838%)" offset="0.09375"/><stop stop-opacity="1" stop-color="rgb(23.576355%, 48.96698%, 69.082642%)" offset="0.109375"/><stop stop-opacity="1" stop-color="rgb(23.649597%, 49.255371%, 69.218445%)" offset="0.125"/><stop stop-opacity="1" stop-color="rgb(23.722839%, 49.542236%, 69.354248%)" offset="0.140625"/><stop stop-opacity="1" stop-color="rgb(23.796082%, 49.830627%, 69.490051%)" offset="0.15625"/><stop stop-opacity="1" stop-color="rgb(23.87085%, 50.117493%, 69.625854%)" offset="0.171875"/><stop stop-opacity="1" stop-color="rgb(23.944092%, 50.405884%, 69.761658%)" offset="0.1875"/><stop stop-opacity="1" stop-color="rgb(24.017334%, 50.692749%, 69.897461%)" offset="0.203125"/><stop stop-opacity="1" stop-color="rgb(24.090576%, 50.979614%, 70.033264%)" offset="0.21875"/><stop stop-opacity="1" stop-color="rgb(24.163818%, 51.268005%, 70.169067%)" offset="0.234375"/><stop stop-opacity="1" stop-color="rgb(24.237061%, 51.554871%, 70.304871%)" offset="0.25"/><stop stop-opacity="1" stop-color="rgb(24.310303%, 51.843262%, 70.4422%)" offset="0.265625"/><stop stop-opacity="1" stop-color="rgb(24.383545%, 52.130127%, 70.578003%)" offset="0.28125"/><stop stop-opacity="1" stop-color="rgb(24.458313%, 52.416992%, 70.713806%)" offset="0.296875"/><stop stop-opacity="1" stop-color="rgb(24.531555%, 52.705383%, 70.849609%)" offset="0.3125"/><stop stop-opacity="1" stop-color="rgb(24.604797%, 52.992249%, 70.985413%)" offset="0.328125"/><stop stop-opacity="1" stop-color="rgb(24.67804%, 53.28064%, 71.121216%)" offset="0.34375"/><stop stop-opacity="1" stop-color="rgb(24.751282%, 53.567505%, 71.257019%)" offset="0.359375"/><stop stop-opacity="1" stop-color="rgb(24.824524%, 53.855896%, 71.392822%)" offset="0.375"/><stop stop-opacity="1" stop-color="rgb(24.897766%, 54.142761%, 71.528625%)" offset="0.390625"/><stop stop-opacity="1" stop-color="rgb(24.972534%, 54.429626%, 71.664429%)" offset="0.40625"/><stop stop-opacity="1" stop-color="rgb(25.045776%, 54.718018%, 71.800232%)" offset="0.421875"/><stop stop-opacity="1" stop-color="rgb(25.119019%, 55.004883%, 71.937561%)" offset="0.4375"/><stop stop-opacity="1" stop-color="rgb(25.192261%, 55.293274%, 72.073364%)" offset="0.453125"/><stop stop-opacity="1" stop-color="rgb(25.265503%, 55.580139%, 72.209167%)" offset="0.46875"/><stop stop-opacity="1" stop-color="rgb(25.338745%, 55.867004%, 72.344971%)" offset="0.484375"/><stop stop-opacity="1" stop-color="rgb(25.411987%, 56.155396%, 72.480774%)" offset="0.5"/><stop stop-opacity="1" stop-color="rgb(25.485229%, 56.442261%, 72.616577%)" offset="0.515625"/><stop stop-opacity="1" stop-color="rgb(25.559998%, 56.730652%, 72.75238%)" offset="0.53125"/><stop stop-opacity="1" stop-color="rgb(25.63324%, 57.017517%, 72.888184%)" offset="0.546875"/><stop stop-opacity="1" stop-color="rgb(25.706482%, 57.305908%, 73.023987%)" offset="0.5625"/><stop stop-opacity="1" stop-color="rgb(25.779724%, 57.592773%, 73.15979%)" offset="0.578125"/><stop stop-opacity="1" stop-color="rgb(25.852966%, 57.879639%, 73.295593%)" offset="0.59375"/><stop stop-opacity="1" stop-color="rgb(25.926208%, 58.16803%, 73.431396%)" offset="0.609375"/><stop stop-opacity="1" stop-color="rgb(25.999451%, 58.454895%, 73.568726%)" offset="0.625"/><stop stop-opacity="1" stop-color="rgb(26.072693%, 58.743286%, 73.704529%)" offset="0.640625"/><stop stop-opacity="1" stop-color="rgb(26.147461%, 59.030151%, 73.840332%)" offset="0.65625"/><stop stop-opacity="1" stop-color="rgb(26.220703%, 59.317017%, 73.976135%)" offset="0.671875"/><stop stop-opacity="1" stop-color="rgb(26.293945%, 59.605408%, 74.111938%)" offset="0.6875"/><stop stop-opacity="1" stop-color="rgb(26.367188%, 59.892273%, 74.247742%)" offset="0.703125"/><stop stop-opacity="1" stop-color="rgb(26.44043%, 60.180664%, 74.383545%)" offset="0.71875"/><stop stop-opacity="1" stop-color="rgb(26.513672%, 60.467529%, 74.519348%)" offset="0.734375"/><stop stop-opacity="1" stop-color="rgb(26.586914%, 60.75592%, 74.655151%)" offset="0.75"/><stop stop-opacity="1" stop-color="rgb(26.660156%, 61.042786%, 74.790955%)" offset="0.765625"/><stop stop-opacity="1" stop-color="rgb(26.734924%, 61.329651%, 74.926758%)" offset="0.78125"/><stop stop-opacity="1" stop-color="rgb(26.808167%, 61.618042%, 75.064087%)" offset="0.796875"/><stop stop-opacity="1" stop-color="rgb(26.881409%, 61.904907%, 75.19989%)" offset="0.8125"/><stop stop-opacity="1" stop-color="rgb(26.954651%, 62.193298%, 75.335693%)" offset="0.828125"/><stop stop-opacity="1" stop-color="rgb(27.027893%, 62.480164%, 75.471497%)" offset="0.84375"/><stop stop-opacity="1" stop-color="rgb(27.101135%, 62.767029%, 75.6073%)" offset="0.859375"/><stop stop-opacity="1" stop-color="rgb(27.174377%, 63.05542%, 75.743103%)" offset="0.875"/><stop stop-opacity="1" stop-color="rgb(27.24762%, 63.342285%, 75.878906%)" offset="0.890625"/><stop stop-opacity="1" stop-color="rgb(27.322388%, 63.630676%, 76.014709%)" offset="0.90625"/><stop stop-opacity="1" stop-color="rgb(27.39563%, 63.917542%, 76.150513%)" offset="0.921875"/><stop stop-opacity="1" stop-color="rgb(27.468872%, 64.205933%, 76.286316%)" offset="0.9375"/><stop stop-opacity="1" stop-color="rgb(27.542114%, 64.492798%, 76.422119%)" offset="0.953125"/><stop stop-opacity="1" stop-color="rgb(27.615356%, 64.779663%, 76.559448%)" offset="0.96875"/><stop stop-opacity="1" stop-color="rgb(27.688599%, 65.068054%, 76.695251%)" offset="0.984375"/><stop stop-opacity="1" stop-color="rgb(27.761841%, 65.354919%, 76.831055%)" offset="1"/></linearGradient><clipPath id="id2"><path d="M 160 112.5 L 264.886719 112.5 L 264.886719 262.5 L 160 262.5 Z M 160 112.5 " clip-rule="nonzero"/></clipPath><clipPath id="id3"><path d="M 126 112.5 L 233 112.5 L 233 262.5 L 126 262.5 Z M 126 112.5 " clip-rule="nonzero"/></clipPath><clipPath id="id4"><path d="M 93.136719 112.5 L 199 112.5 L 199 262.5 L 93.136719 262.5 Z M 93.136719 112.5 " clip-rule="nonzero"/></clipPath><clipPath id="id5"><path d="M 1222.097656 73.660156 L 1450.097656 73.660156 L 1450.097656 301.660156 L 1222.097656 301.660156 Z M 1222.097656 73.660156 " clip-rule="nonzero"/></clipPath></defs><rect x="-150" width="1800" fill="#ffffff" y="-37.499999" height="449.999989" fill-opacity="1"/><rect x="-150" width="1800" fill="#ffffff" y="-37.499999" height="449.999989" fill-opacity="1"/><rect x="-150" width="1800" fill="#ffffff" y="-37.499999" height="449.999989" fill-opacity="1"/><rect x="-150" fill="url(#id1)" width="1800" y="-37.499999" height="449.999989"/><g clip-path="url(#id2)"><path fill="#ffffff" d="M 264.765625 262.320312 L 264.886719 112.738281 L 160.875 187.382812 Z M 264.765625 262.320312 " fill-opacity="1" fill-rule="nonzero"/></g><g clip-path="url(#id3)"><path fill="#ffffff" d="M 229.800781 260.125 L 128.933594 187.382812 L 229.859375 114.992188 L 229.800781 260.125 M 229.800781 262.496094 C 230.15625 262.496094 230.511719 262.4375 230.867188 262.261719 C 231.640625 261.84375 232.175781 261.015625 232.175781 260.125 L 232.234375 114.992188 C 232.234375 114.101562 231.757812 113.273438 230.929688 112.859375 C 230.570312 112.679688 230.214844 112.621094 229.859375 112.621094 C 229.382812 112.621094 228.910156 112.800781 228.492188 113.09375 L 127.570312 185.484375 C 126.976562 185.957031 126.558594 186.671875 126.558594 187.382812 C 126.558594 188.152344 126.917969 188.863281 127.570312 189.277344 L 228.375 262.023438 C 228.789062 262.320312 229.265625 262.496094 229.800781 262.496094 Z M 229.800781 262.496094 " fill-opacity="1" fill-rule="nonzero"/></g><g clip-path="url(#id4)"><path fill="#ffffff" d="M 196.316406 260.007812 L 95.511719 187.261719 L 196.4375 114.875 L 196.316406 260.007812 M 196.316406 262.378906 C 196.671875 262.378906 197.027344 262.320312 197.386719 262.140625 C 198.15625 261.726562 198.691406 260.898438 198.691406 260.007812 L 198.808594 114.875 C 198.808594 113.984375 198.335938 113.15625 197.503906 112.738281 C 197.148438 112.5625 196.792969 112.503906 196.4375 112.503906 C 195.960938 112.503906 195.484375 112.679688 195.070312 112.976562 L 94.144531 185.367188 C 93.550781 185.839844 93.136719 186.550781 93.136719 187.261719 C 93.136719 188.035156 93.492188 188.746094 94.144531 189.160156 L 194.890625 261.90625 C 195.308594 262.199219 195.84375 262.378906 196.316406 262.378906 Z M 196.316406 262.378906 " fill-opacity="1" fill-rule="nonzero"/></g><path fill="#ffffff" d="M 1347.128906 132.503906 L 1354.484375 132.503906 L 1354.484375 139.859375 L 1347.128906 139.859375 Z M 1347.128906 132.503906 " fill-opacity="1" fill-rule="nonzero"/><path fill="#ffffff" d="M 1303 88.375 L 1325.066406 88.375 L 1325.066406 95.730469 L 1303 95.730469 Z M 1303 88.375 " fill-opacity="1" fill-rule="nonzero"/><path fill="#ffffff" d="M 1303 103.082031 L 1325.066406 103.082031 L 1325.066406 110.4375 L 1303 110.4375 Z M 1303 103.082031 " fill-opacity="1" fill-rule="nonzero"/><path fill="#ffffff" d="M 1303 117.792969 L 1325.066406 117.792969 L 1325.066406 125.148438 L 1303 125.148438 Z M 1303 117.792969 " fill-opacity="1" fill-rule="nonzero"/><path fill="#ffffff" d="M 1303 132.503906 L 1325.066406 132.503906 L 1325.066406 139.859375 L 1303 139.859375 Z M 1303 132.503906 " fill-opacity="1" fill-rule="nonzero"/><g clip-path="url(#id5)"><path fill="#ffffff" d="M 1439.066406 139.859375 C 1445.148438 139.859375 1450.097656 134.90625 1450.097656 128.824219 L 1450.097656 114.117188 C 1450.097656 108.035156 1445.148438 103.082031 1439.066406 103.082031 L 1398.613281 103.082031 L 1398.613281 88.375 C 1398.613281 84.316406 1395.316406 81.019531 1391.257812 81.019531 L 1383.90625 81.019531 C 1383.90625 76.964844 1380.605469 73.664062 1376.550781 73.664062 L 1344.976562 73.664062 C 1341.777344 73.664062 1338.714844 74.582031 1336.097656 76.300781 C 1333.484375 74.578125 1330.429688 73.660156 1327.242188 73.660156 L 1295.648438 73.664062 C 1291.589844 73.664062 1288.292969 76.964844 1288.292969 81.019531 L 1280.9375 81.019531 C 1276.878906 81.019531 1273.582031 84.316406 1273.582031 88.375 L 1273.582031 117.910156 C 1255.144531 132.867188 1242.789062 153.632812 1238.496094 176.835938 C 1229.300781 177.84375 1222.097656 185.5625 1222.097656 195.019531 C 1222.097656 204.484375 1229.316406 212.214844 1238.519531 213.207031 C 1239.714844 219.652344 1241.546875 225.953125 1243.988281 232.027344 C 1239.652344 235.394531 1236.808594 240.601562 1236.808594 246.503906 C 1236.808594 256.640625 1245.054688 264.890625 1255.195312 264.890625 C 1258.238281 264.890625 1261.066406 264.078125 1263.597656 262.761719 C 1269.035156 268.582031 1275.125 273.710938 1281.777344 278.066406 C 1281.285156 279.730469 1280.9375 281.453125 1280.9375 283.277344 C 1280.9375 293.414062 1289.183594 301.664062 1299.324219 301.664062 C 1306.261719 301.664062 1312.246094 297.753906 1315.375 292.0625 C 1318.578125 292.742188 1321.8125 293.261719 1325.066406 293.617188 L 1325.066406 294.304688 C 1325.066406 298.363281 1328.363281 301.660156 1332.421875 301.660156 L 1339.777344 301.660156 C 1343.832031 301.660156 1347.128906 298.363281 1347.128906 294.304688 L 1347.128906 293.617188 C 1350.386719 293.257812 1353.617188 292.742188 1356.820312 292.0625 C 1359.949219 297.75 1365.933594 301.664062 1372.871094 301.664062 C 1383.011719 301.664062 1391.257812 293.414062 1391.257812 283.277344 C 1391.257812 281.457031 1390.910156 279.730469 1390.417969 278.066406 C 1397.070312 273.710938 1403.160156 268.582031 1408.597656 262.761719 C 1411.128906 264.078125 1413.960938 264.890625 1417 264.890625 C 1427.140625 264.890625 1435.386719 256.640625 1435.386719 246.503906 C 1435.386719 240.601562 1432.542969 235.394531 1428.207031 232.027344 C 1430.648438 225.953125 1432.480469 219.652344 1433.675781 213.207031 C 1442.878906 212.214844 1450.097656 204.484375 1450.097656 195.019531 C 1450.097656 185.554688 1442.878906 177.828125 1433.675781 176.832031 C 1431.226562 163.640625 1426.101562 151.027344 1418.632812 139.859375 Z M 1383.90625 132.503906 L 1383.90625 125.148438 L 1420.679688 125.148438 L 1420.679688 132.503906 Z M 1361.839844 103.082031 L 1354.484375 103.082031 L 1354.484375 95.730469 L 1361.839844 95.730469 Z M 1355.542969 123 C 1354.910156 122.761719 1354.484375 122.148438 1354.484375 121.472656 C 1354.484375 120.792969 1354.910156 120.179688 1355.542969 119.945312 L 1361.839844 117.582031 L 1361.839844 125.363281 Z M 1369.195312 114.824219 L 1376.550781 112.066406 L 1376.550781 130.875 L 1369.195312 128.117188 Z M 1420.679688 117.792969 L 1383.90625 117.792969 L 1383.90625 110.4375 L 1420.679688 110.4375 Z M 1442.742188 114.117188 L 1442.742188 128.824219 C 1442.742188 130.855469 1441.097656 132.503906 1439.066406 132.503906 L 1428.035156 132.503906 L 1428.035156 110.4375 L 1439.066406 110.4375 C 1441.097656 110.4375 1442.742188 112.085938 1442.742188 114.117188 Z M 1391.257812 88.375 L 1391.257812 103.082031 L 1383.90625 103.082031 L 1383.90625 88.375 Z M 1376.550781 81.019531 L 1376.550781 104.210938 L 1369.195312 106.972656 L 1369.195312 88.375 L 1347.128906 88.375 L 1347.128906 110.4375 L 1359.949219 110.4375 L 1352.960938 113.0625 C 1349.472656 114.371094 1347.128906 117.75 1347.128906 121.472656 C 1347.128906 125.191406 1349.472656 128.570312 1352.960938 129.882812 L 1376.550781 138.730469 L 1376.550781 147.210938 L 1339.777344 147.214844 L 1339.777344 82.734375 C 1341.285156 81.632812 1343.078125 81.019531 1344.976562 81.019531 Z M 1295.648438 81.019531 L 1327.242188 81.015625 C 1329.128906 81.015625 1330.917969 81.632812 1332.421875 82.734375 L 1332.421875 147.214844 L 1295.648438 147.21875 Z M 1280.9375 88.375 L 1288.292969 88.375 L 1288.292969 147.210938 C 1288.292969 151.269531 1291.589844 154.566406 1295.648438 154.566406 L 1376.550781 154.566406 C 1380.605469 154.566406 1383.90625 151.269531 1383.90625 147.210938 L 1383.90625 139.859375 L 1391.257812 139.859375 L 1391.257812 161.921875 L 1349.285156 161.921875 L 1346.054688 165.15625 C 1343.429688 167.777344 1339.804688 169.277344 1336.097656 169.277344 C 1332.390625 169.277344 1328.765625 167.777344 1326.144531 165.15625 L 1322.910156 161.921875 L 1280.9375 161.921875 Z M 1383.90625 180.308594 C 1383.90625 206.667969 1362.457031 228.117188 1336.097656 228.117188 C 1309.738281 228.117188 1288.292969 206.667969 1288.292969 180.308594 C 1288.292969 176.566406 1288.742188 172.875 1289.589844 169.277344 L 1297.214844 169.277344 C 1296.203125 172.847656 1295.644531 176.53125 1295.644531 180.308594 C 1295.644531 202.613281 1313.789062 220.761719 1336.09375 220.761719 C 1358.398438 220.761719 1376.546875 202.613281 1376.546875 180.308594 C 1376.546875 176.53125 1375.992188 172.847656 1374.976562 169.277344 L 1382.597656 169.277344 C 1383.457031 172.875 1383.90625 176.566406 1383.90625 180.308594 Z M 1339.777344 242.824219 L 1332.421875 242.824219 L 1332.421875 235.285156 C 1333.640625 235.363281 1334.855469 235.472656 1336.097656 235.472656 C 1337.339844 235.472656 1338.554688 235.363281 1339.777344 235.285156 Z M 1367.273438 169.277344 C 1368.527344 172.808594 1369.195312 176.503906 1369.195312 180.308594 C 1369.195312 198.5625 1354.347656 213.40625 1336.097656 213.40625 C 1317.847656 213.40625 1303 198.5625 1303 180.308594 C 1303 176.503906 1303.671875 172.808594 1304.921875 169.277344 L 1319.867188 169.277344 L 1320.945312 170.355469 C 1324.933594 174.34375 1330.457031 176.632812 1336.097656 176.632812 C 1341.738281 176.632812 1347.261719 174.34375 1351.253906 170.355469 L 1352.332031 169.277344 Z M 1229.453125 195.019531 C 1229.453125 188.9375 1234.402344 183.988281 1240.484375 183.988281 C 1246.566406 183.988281 1251.515625 188.9375 1251.515625 195.019531 C 1251.515625 201.101562 1246.566406 206.050781 1240.484375 206.050781 C 1234.402344 206.050781 1229.453125 201.101562 1229.453125 195.019531 Z M 1244.164062 246.503906 C 1244.164062 240.421875 1249.113281 235.472656 1255.195312 235.472656 C 1261.277344 235.472656 1266.226562 240.421875 1266.226562 246.503906 C 1266.226562 252.585938 1261.277344 257.535156 1255.195312 257.535156 C 1249.113281 257.535156 1244.164062 252.585938 1244.164062 246.503906 Z M 1299.324219 294.308594 C 1293.242188 294.308594 1288.292969 289.359375 1288.292969 283.277344 C 1288.292969 277.195312 1293.242188 272.246094 1299.324219 272.246094 C 1305.40625 272.246094 1310.355469 277.195312 1310.355469 283.277344 C 1310.355469 289.359375 1305.40625 294.308594 1299.324219 294.308594 Z M 1317.539062 285.003906 C 1317.589844 284.425781 1317.710938 283.867188 1317.710938 283.277344 C 1317.710938 273.136719 1309.460938 264.890625 1299.324219 264.890625 C 1293.660156 264.890625 1288.648438 267.519531 1285.273438 271.5625 C 1279.464844 267.699219 1274.125 263.199219 1269.328125 258.121094 C 1271.945312 254.941406 1273.582031 250.929688 1273.582031 246.503906 C 1273.582031 236.363281 1265.332031 228.117188 1255.195312 228.117188 C 1253.601562 228.117188 1252.082031 228.382812 1250.605469 228.765625 C 1248.527344 223.503906 1246.941406 218.066406 1245.871094 212.507812 C 1253.371094 210.1875 1258.871094 203.269531 1258.871094 195.019531 C 1258.871094 186.785156 1253.394531 179.878906 1245.921875 177.542969 C 1249.617188 158.332031 1259.238281 140.953125 1273.582031 127.660156 L 1273.582031 161.921875 C 1273.582031 165.980469 1276.878906 169.277344 1280.9375 169.277344 L 1282.066406 169.277344 C 1281.332031 172.890625 1280.9375 176.585938 1280.9375 180.308594 C 1280.9375 206.949219 1299.914062 229.234375 1325.066406 234.359375 L 1325.066406 286.222656 C 1322.539062 285.917969 1320.03125 285.511719 1317.539062 285.003906 Z M 1332.421875 294.308594 L 1332.421875 250.179688 L 1339.777344 250.179688 L 1339.777344 294.308594 Z M 1372.871094 294.308594 C 1366.789062 294.308594 1361.839844 289.359375 1361.839844 283.277344 C 1361.839844 277.195312 1366.789062 272.246094 1372.871094 272.246094 C 1378.953125 272.246094 1383.90625 277.195312 1383.90625 283.277344 C 1383.90625 289.359375 1378.953125 294.308594 1372.871094 294.308594 Z M 1417 257.535156 C 1410.917969 257.535156 1405.96875 252.585938 1405.96875 246.503906 C 1405.96875 240.421875 1410.917969 235.472656 1417 235.472656 C 1423.082031 235.472656 1428.035156 240.421875 1428.035156 246.503906 C 1428.035156 252.585938 1423.082031 257.535156 1417 257.535156 Z M 1442.742188 195.019531 C 1442.742188 201.101562 1437.792969 206.050781 1431.710938 206.050781 C 1425.628906 206.050781 1420.679688 201.101562 1420.679688 195.019531 C 1420.679688 188.9375 1425.628906 183.988281 1431.710938 183.988281 C 1437.792969 183.988281 1442.742188 188.9375 1442.742188 195.019531 Z M 1426.328125 177.53125 C 1418.824219 179.851562 1413.324219 186.765625 1413.324219 195.019531 C 1413.324219 203.269531 1418.824219 210.1875 1426.328125 212.507812 C 1425.257812 218.066406 1423.671875 223.503906 1421.59375 228.765625 C 1420.121094 228.382812 1418.597656 228.117188 1417.003906 228.117188 C 1406.867188 228.117188 1398.617188 236.363281 1398.617188 246.503906 C 1398.617188 250.929688 1400.253906 254.941406 1402.871094 258.121094 C 1398.074219 263.199219 1392.734375 267.699219 1386.925781 271.5625 C 1383.550781 267.519531 1378.539062 264.890625 1372.875 264.890625 C 1362.738281 264.890625 1354.488281 273.136719 1354.488281 283.277344 C 1354.488281 283.871094 1354.609375 284.425781 1354.660156 285.003906 C 1352.167969 285.511719 1349.660156 285.921875 1347.132812 286.222656 L 1347.132812 234.359375 C 1372.285156 229.234375 1391.261719 206.953125 1391.261719 180.308594 C 1391.261719 176.585938 1390.871094 172.890625 1390.132812 169.277344 L 1391.257812 169.277344 C 1395.316406 169.277344 1398.613281 165.980469 1398.613281 161.921875 L 1398.613281 139.859375 L 1409.601562 139.859375 C 1417.96875 150.988281 1423.695312 163.910156 1426.328125 177.53125 Z M 1426.328125 177.53125 " fill-opacity="1" fill-rule="nonzero"/></g><g fill="#ffffff" fill-opacity="1"><g transform="translate(625.733185, 166.843865)"><g><path d="M 87.328125 -65.5625 L 80.03125 -58.28125 L 72.65625 -65.5625 L 79.84375 -72.75 Z M 98.796875 -49.203125 C 105.117188 -49.203125 110.320312 -47.203125 114.40625 -43.203125 C 118.5 -39.210938 120.546875 -34.125 120.546875 -27.9375 C 120.546875 -24.882812 120.296875 -22.109375 119.796875 -19.609375 C 119.304688 -17.117188 118.363281 -13.144531 116.96875 -7.6875 L 110.28125 0 L 59.171875 0 C 57.847656 6.78125 54.90625 12.050781 50.34375 15.8125 C 45.789062 19.570312 39.519531 21.453125 31.53125 21.453125 C 23.15625 21.453125 16.519531 19.273438 11.625 14.921875 C 6.738281 10.566406 4.296875 4.128906 4.296875 -4.390625 C 4.296875 -11.503906 5.757812 -19.519531 8.6875 -28.4375 L 15.5625 -26.546875 C 13.238281 -19.691406 12.078125 -13.039062 12.078125 -6.59375 C 12.140625 -0.332031 13.898438 4.40625 17.359375 7.625 C 20.816406 10.851562 25.707031 12.46875 32.03125 12.46875 C 38.6875 12.46875 43.625 10.585938 46.84375 6.828125 C 50.070312 3.078125 51.6875 -2.722656 51.6875 -10.578125 L 51.6875 -48.203125 L 60.078125 -49.59375 L 60.078125 -37.71875 C 70.328125 -42.113281 78.09375 -45.125 83.375 -46.75 C 88.664062 -48.382812 93.804688 -49.203125 98.796875 -49.203125 Z M 108.78125 -8.984375 C 110.976562 -16.503906 112.078125 -22.425781 112.078125 -26.75 C 112.003906 -30.738281 110.550781 -34.015625 107.71875 -36.578125 C 104.894531 -39.140625 101.320312 -40.421875 97 -40.421875 C 93.007812 -40.421875 89.148438 -39.90625 85.421875 -38.875 C 81.703125 -37.84375 75.015625 -35.597656 65.359375 -32.140625 C 64.628906 -31.867188 64.046875 -31.648438 63.609375 -31.484375 C 63.179688 -31.316406 62.632812 -31.113281 61.96875 -30.875 C 61.300781 -30.644531 60.671875 -30.429688 60.078125 -30.234375 L 60.078125 -8.984375 Z M 108.78125 -8.984375 "/></g></g></g><g fill="#ffffff" fill-opacity="1"><g transform="translate(750.666833, 166.843865)"><g><path d="M 34.625 -8.984375 C 35.289062 -8.984375 35.625 -8.679688 35.625 -8.078125 L 35.625 -1 C 35.625 -0.332031 35.289062 0 34.625 0 C 29.5 0 25.742188 -1.765625 23.359375 -5.296875 L 23.359375 -2.6875 C 23.359375 5.625 21.226562 11.722656 16.96875 15.609375 C 12.707031 19.503906 6.316406 21.453125 -2.203125 21.453125 L -3 14.171875 C 8.976562 14.171875 14.96875 8.445312 14.96875 -3 L 14.875 -48.203125 L 23.359375 -49.59375 L 23.359375 -18.46875 C 23.816406 -12.144531 27.570312 -8.984375 34.625 -8.984375 Z M 34.625 -8.984375 "/></g></g></g><g fill="#ffffff" fill-opacity="1"><g transform="translate(785.392811, 166.843865)"><g><path d="M 35.234375 -64.0625 L 27.9375 -56.78125 L 20.5625 -64.0625 L 27.75 -71.25 Z M 56.1875 -8.984375 C 56.851562 -8.984375 57.1875 -8.679688 57.1875 -8.078125 L 57.1875 -1 C 57.1875 -0.332031 56.851562 0 56.1875 0 C 46.34375 0 37.191406 -1.226562 28.734375 -3.6875 C 21.148438 -1.226562 11.570312 0 0 0 C -0.664062 -0.0625 -1 -0.394531 -1 -1 L -1 -8.078125 C -1 -8.679688 -0.664062 -8.984375 0 -8.984375 C 5.789062 -8.984375 10.976562 -9.179688 15.5625 -9.578125 C 9.445312 -14.171875 6.390625 -20.0625 6.390625 -27.25 C 6.390625 -33.300781 8.484375 -38.335938 12.671875 -42.359375 C 16.867188 -46.390625 22.09375 -48.40625 28.34375 -48.40625 C 34.726562 -48.40625 39.984375 -46.359375 44.109375 -42.265625 C 48.234375 -38.171875 50.296875 -33.164062 50.296875 -27.25 C 50.296875 -20.125 47.234375 -14.300781 41.109375 -9.78125 C 45.035156 -9.25 50.0625 -8.984375 56.1875 -8.984375 Z M 28.046875 -40.015625 C 24.117188 -40.015625 20.90625 -38.734375 18.40625 -36.171875 C 15.914062 -33.609375 14.671875 -30.332031 14.671875 -26.34375 C 14.671875 -22.820312 15.898438 -19.628906 18.359375 -16.765625 C 20.828125 -13.898438 24.125 -11.867188 28.25 -10.671875 C 32.5 -12.078125 35.867188 -14.175781 38.359375 -16.96875 C 40.859375 -19.757812 42.109375 -22.882812 42.109375 -26.34375 C 42.109375 -30.332031 40.757812 -33.609375 38.0625 -36.171875 C 35.375 -38.734375 32.035156 -40.015625 28.046875 -40.015625 Z M 28.046875 -40.015625 "/></g></g></g><g fill="#ffffff" fill-opacity="1"><g transform="translate(841.573035, 166.843865)"><g><path d="M 0 0 C -0.664062 0 -1 -0.332031 -1 -1 L -1 -8.078125 C -1 -8.679688 -0.632812 -8.984375 0.09375 -8.984375 C 8.414062 -8.984375 12.578125 -13.304688 12.578125 -21.953125 L 12.671875 -71.546875 L 21.0625 -72.859375 L 21.0625 -19.953125 C 21.0625 -6.648438 14.039062 0 0 0 Z M 0 0 "/></g></g></g><g fill="#ffffff" fill-opacity="1"><g transform="translate(871.209859, 166.843865)"><g><path d="M 8.6875 0 L 8.6875 -71.546875 L 17.171875 -72.859375 L 17.171875 0 Z M 8.6875 0 "/></g></g></g><g fill="#ffffff" fill-opacity="1"><g transform="translate(896.555828, 166.843865)"><g/></g></g><g fill="#ffffff" fill-opacity="1"><g transform="translate(920.504767, 166.843865)"><g><path d="M 25.84375 -64.671875 L 18.5625 -57.484375 L 11.28125 -64.671875 L 18.5625 -71.859375 Z M 41.71875 -64.671875 L 34.4375 -57.484375 L 27.046875 -64.671875 L 34.4375 -71.859375 Z M 58.1875 -8.984375 C 58.84375 -8.984375 59.171875 -8.679688 59.171875 -8.078125 L 59.171875 -1 C 59.171875 -0.332031 58.84375 0 58.1875 0 C 52.0625 0 47.535156 -1.429688 44.609375 -4.296875 C 37.890625 -0.835938 31.867188 0.890625 26.546875 0.890625 C 19.828125 0.890625 14.320312 -1.398438 10.03125 -5.984375 C 5.738281 -10.578125 3.59375 -16.265625 3.59375 -23.046875 C 3.59375 -29.972656 5.753906 -35.863281 10.078125 -40.71875 C 14.398438 -45.570312 19.890625 -48 26.546875 -48 C 30.609375 -48 35.066406 -47.066406 39.921875 -45.203125 L 39.921875 -51.390625 L 48.296875 -52.796875 L 48.40625 -20.15625 C 48.40625 -16.164062 49.164062 -13.304688 50.6875 -11.578125 C 52.21875 -9.847656 54.71875 -8.984375 58.1875 -8.984375 Z M 26.546875 -7.6875 C 31.003906 -7.613281 35.796875 -8.742188 40.921875 -11.078125 C 40.253906 -13.335938 39.921875 -16.097656 39.921875 -19.359375 L 39.921875 -36.71875 C 34.523438 -38.519531 30.164062 -39.421875 26.84375 -39.421875 C 22.382812 -39.421875 18.738281 -37.851562 15.90625 -34.71875 C 13.082031 -31.59375 11.671875 -27.738281 11.671875 -23.15625 C 11.671875 -18.757812 13.050781 -15.097656 15.8125 -12.171875 C 18.570312 -9.242188 22.148438 -7.75 26.546875 -7.6875 Z M 26.546875 -7.6875 "/></g></g></g><g fill="#ffffff" fill-opacity="1"><g transform="translate(978.680718, 166.843865)"><g><path d="M 73.953125 -48.296875 L 82.328125 -49.703125 L 82.328125 -19.265625 C 82.328125 -13.140625 80.664062 -8.410156 77.34375 -5.078125 C 74.019531 -1.753906 69.097656 -0.09375 62.578125 -0.09375 C 57.253906 -0.09375 51.695312 -1.859375 45.90625 -5.390625 C 42.382812 -1.859375 37.328125 -0.09375 30.734375 -0.09375 C 25.941406 -0.09375 20.988281 -1.828125 15.875 -5.296875 C 12.207031 -1.765625 6.914062 0 0 0 C -0.664062 0 -1 -0.332031 -1 -1 L -1 -8.078125 C -1 -8.679688 -0.664062 -8.984375 0 -8.984375 C 8.382812 -8.984375 12.578125 -13.140625 12.578125 -21.453125 L 12.46875 -37.625 L 20.953125 -38.921875 L 20.953125 -19.15625 C 20.953125 -16.363281 20.554688 -13.804688 19.765625 -11.484375 C 23.617188 -9.878906 27.078125 -9.078125 30.140625 -9.078125 C 38.523438 -9.078125 42.71875 -13.238281 42.71875 -21.5625 L 42.609375 -37.71875 L 51.09375 -39.015625 L 51.09375 -19.265625 C 51.09375 -16.335938 50.660156 -13.773438 49.796875 -11.578125 C 53.921875 -9.910156 57.78125 -9.078125 61.375 -9.078125 C 65.4375 -9.078125 68.546875 -10.125 70.703125 -12.21875 C 72.867188 -14.320312 73.953125 -17.4375 73.953125 -21.5625 Z M 73.953125 -48.296875 "/></g></g></g><g fill="#ffffff" fill-opacity="1"><g transform="translate(1066.892661, 166.843865)"><g><path d="M 8.6875 0 L 8.6875 -71.546875 L 17.171875 -72.859375 L 17.171875 0 Z M 8.6875 0 "/></g></g></g><g fill="#ffffff" fill-opacity="1"><g transform="translate(1092.23863, 166.843865)"><g><path d="M -2.203125 21.453125 L -3 14.171875 C 8.976562 14.171875 14.96875 8.445312 14.96875 -3 L 14.875 -48.203125 L 23.359375 -49.59375 L 23.359375 -2.6875 C 23.359375 5.625 21.226562 11.722656 16.96875 15.609375 C 12.707031 19.503906 6.316406 21.453125 -2.203125 21.453125 Z M -2.203125 21.453125 "/></g></g></g><g fill="#ffffff" fill-opacity="1"><g transform="translate(1122.07502, 166.843865)"><g><path d="M 2.6875 0 L 1 -8.984375 L 26.140625 -8.984375 C 30.203125 -8.984375 33.3125 -9.976562 35.46875 -11.96875 C 37.632812 -13.96875 38.71875 -16.796875 38.71875 -20.453125 L 38.625 -26.25 C 38.550781 -30.300781 37.097656 -33.59375 34.265625 -36.125 C 31.441406 -38.65625 27.835938 -39.921875 23.453125 -39.921875 L 17.5625 -39.921875 L 17.5625 -48.703125 L 25.25 -48.703125 C 31.632812 -48.703125 36.851562 -46.738281 40.90625 -42.8125 C 44.96875 -38.882812 47.035156 -33.726562 47.109375 -27.34375 L 47.203125 -19.15625 C 47.140625 -13.039062 45.328125 -8.316406 41.765625 -4.984375 C 38.203125 -1.660156 32.960938 0 26.046875 0 Z M 2.6875 0 "/></g></g></g><g fill="#ffffff" fill-opacity="1"><g transform="translate(372.972682, 260.714109)"><g><path d="M 2.546875 -7.421875 C 6.265625 -4.960938 10.457031 -3.734375 15.125 -3.734375 C 17.644531 -3.734375 19.769531 -4.203125 21.5 -5.140625 C 23.238281 -6.085938 24.109375 -7.625 24.109375 -9.75 C 24.109375 -10.976562 23.71875 -12.046875 22.9375 -12.953125 C 22.164062 -13.859375 21.164062 -14.582031 19.9375 -15.125 C 18.707031 -15.664062 17.34375 -16.171875 15.84375 -16.640625 C 14.34375 -17.109375 12.84375 -17.628906 11.34375 -18.203125 C 9.851562 -18.785156 8.492188 -19.445312 7.265625 -20.1875 C 6.035156 -20.925781 5.03125 -21.9375 4.25 -23.21875 C 3.476562 -24.5 3.09375 -26.007812 3.09375 -27.75 C 3.09375 -31 4.28125 -33.414062 6.65625 -35 C 9.039062 -36.59375 12.023438 -37.390625 15.609375 -37.390625 C 20.085938 -37.390625 24.347656 -36.285156 28.390625 -34.078125 L 27.640625 -29.59375 C 23.910156 -31.9375 20.078125 -33.109375 16.140625 -33.109375 C 10.867188 -33.109375 8.234375 -31.390625 8.234375 -27.953125 C 8.234375 -26.835938 8.617188 -25.863281 9.390625 -25.03125 C 10.171875 -24.195312 11.175781 -23.535156 12.40625 -23.046875 C 13.632812 -22.566406 15 -22.097656 16.5 -21.640625 C 18 -21.191406 19.5 -20.675781 21 -20.09375 C 22.5 -19.519531 23.863281 -18.84375 25.09375 -18.0625 C 26.320312 -17.289062 27.320312 -16.226562 28.09375 -14.875 C 28.875 -13.519531 29.265625 -11.941406 29.265625 -10.140625 C 29.265625 -6.523438 27.953125 -3.835938 25.328125 -2.078125 C 22.710938 -0.328125 19.488281 0.546875 15.65625 0.546875 C 10.675781 0.546875 6.304688 -0.554688 2.546875 -2.765625 Z M 2.546875 -7.421875 "/></g></g></g><g fill="#ffffff" fill-opacity="1"><g transform="translate(404.775893, 260.714109)"><g><path d="M 13.703125 0 L 13.703125 -32.5625 L 0.921875 -32.5625 L 0.921875 -36.84375 L 31.59375 -36.84375 L 30.890625 -32.5625 L 18.796875 -32.5625 L 18.796875 0 Z M 13.703125 0 "/></g></g></g><g fill="#ffffff" fill-opacity="1"><g transform="translate(437.283432, 260.714109)"><g><path d="M 4.328125 -36.515625 L 9.375 -37.234375 L 9.375 -14.3125 C 9.375 -11.050781 10.273438 -8.472656 12.078125 -6.578125 C 13.890625 -4.679688 16.582031 -3.734375 20.15625 -3.734375 C 23.726562 -3.734375 26.410156 -4.679688 28.203125 -6.578125 C 29.992188 -8.472656 30.890625 -11.050781 30.890625 -14.3125 L 30.890625 -36.515625 L 35.921875 -37.234375 L 35.921875 -13.5 C 35.921875 -9.488281 34.582031 -6.144531 31.90625 -3.46875 C 29.238281 -0.789062 25.320312 0.546875 20.15625 0.546875 C 14.914062 0.546875 10.96875 -0.816406 8.3125 -3.546875 C 5.65625 -6.273438 4.328125 -9.59375 4.328125 -13.5 Z M 4.328125 -36.515625 "/></g></g></g><g fill="#ffffff" fill-opacity="1"><g transform="translate(477.538601, 260.714109)"><g><path d="M 4.765625 0 L 4.765625 -36.84375 L 18.046875 -36.84375 C 24.003906 -36.84375 28.71875 -35.125 32.1875 -31.6875 C 35.65625 -28.257812 37.390625 -23.835938 37.390625 -18.421875 C 37.390625 -12.960938 35.65625 -8.523438 32.1875 -5.109375 C 28.71875 -1.703125 24.003906 0 18.046875 0 Z M 17.984375 -4.28125 C 22.390625 -4.28125 25.863281 -5.539062 28.40625 -8.0625 C 30.957031 -10.59375 32.234375 -14.046875 32.234375 -18.421875 C 32.234375 -22.753906 30.953125 -26.191406 28.390625 -28.734375 C 25.828125 -31.285156 22.359375 -32.5625 17.984375 -32.5625 L 9.8125 -32.5625 L 9.8125 -4.28125 Z M 17.984375 -4.28125 "/></g></g></g><g fill="#ffffff" fill-opacity="1"><g transform="translate(518.010485, 260.714109)"><g><path d="M 20.21875 -12.578125 L 20.21875 0 L 15.171875 0 L 15.171875 -12.6875 L 1.25 -36.515625 L 6.28125 -37.234375 L 17.828125 -17.453125 L 28.9375 -36.84375 L 34.296875 -36.84375 Z M 20.21875 -12.578125 "/></g></g></g><g fill="#ffffff" fill-opacity="1"><g transform="translate(553.606254, 260.714109)"><g><path d="M 9.8125 0 L 4.765625 0 L 4.765625 -36.515625 L 9.8125 -37.234375 Z M 9.8125 0 "/></g></g></g><g fill="#ffffff" fill-opacity="1"><g transform="translate(568.234637, 260.714109)"><g><path d="M 9.375 -29.265625 L 9.375 0 L 4.765625 0 L 4.765625 -36.84375 L 9.75 -36.84375 L 31.921875 -7.75 L 31.921875 -36.515625 L 36.578125 -37.234375 L 36.578125 0 L 31.59375 0 Z M 9.375 -29.265625 "/></g></g></g><g fill="#ffffff" fill-opacity="1"><g transform="translate(609.5734, 260.714109)"><g><path d="M 29.265625 -17.9375 L 34.140625 -18.640625 L 34.140625 -2.109375 C 30.597656 -0.335938 26.332031 0.546875 21.34375 0.546875 C 15.78125 0.546875 11.28125 -1.160156 7.84375 -4.578125 C 4.414062 -7.992188 2.703125 -12.609375 2.703125 -18.421875 C 2.703125 -24.234375 4.414062 -28.847656 7.84375 -32.265625 C 11.28125 -35.679688 15.78125 -37.390625 21.34375 -37.390625 C 26.007812 -37.390625 30.148438 -36.285156 33.765625 -34.078125 L 33.046875 -29.640625 C 29.648438 -31.953125 25.820312 -33.109375 21.5625 -33.109375 C 17.445312 -33.109375 14.132812 -31.789062 11.625 -29.15625 C 9.113281 -26.519531 7.859375 -22.941406 7.859375 -18.421875 C 7.859375 -13.910156 9.113281 -10.332031 11.625 -7.6875 C 14.132812 -5.050781 17.445312 -3.734375 21.5625 -3.734375 C 24.601562 -3.734375 27.171875 -4.1875 29.265625 -5.09375 Z M 29.265625 -17.9375 "/></g></g></g><g fill="#ffffff" fill-opacity="1"><g transform="translate(647.119598, 260.714109)"><g/></g></g><g fill="#ffffff" fill-opacity="1"><g transform="translate(660.12262, 260.714109)"><g><path d="M 13.703125 0 L 13.703125 -32.5625 L 0.921875 -32.5625 L 0.921875 -36.84375 L 31.59375 -36.84375 L 30.890625 -32.5625 L 18.796875 -32.5625 L 18.796875 0 Z M 13.703125 0 "/></g></g></g><g fill="#ffffff" fill-opacity="1"><g transform="translate(692.630141, 260.714109)"><g><path d="M 31.328125 -36.515625 L 36.359375 -37.234375 L 36.359375 0 L 31.328125 0 L 31.328125 -16.75 L 9.8125 -16.75 L 9.8125 0 L 4.765625 0 L 4.765625 -36.515625 L 9.8125 -37.234375 L 9.8125 -20.96875 L 31.328125 -20.96875 Z M 31.328125 -36.515625 "/></g></g></g><g fill="#ffffff" fill-opacity="1"><g transform="translate(733.806379, 260.714109)"><g><path d="M 4.765625 0 L 4.765625 -36.84375 L 30.34375 -36.84375 L 30.34375 -32.5625 L 9.8125 -32.5625 L 9.8125 -20.96875 L 28.5625 -20.96875 L 29.265625 -16.75 L 9.8125 -16.75 L 9.8125 -4.28125 L 30.890625 -4.28125 L 30.890625 0 Z M 4.765625 0 "/></g></g></g><g fill="#ffffff" fill-opacity="1"><g transform="translate(767.560046, 260.714109)"><g/></g></g><g fill="#ffffff" fill-opacity="1"><g transform="translate(780.563068, 260.714109)"><g><path d="M 36.4375 -4.8125 C 32.914062 -1.238281 28.175781 0.546875 22.21875 0.546875 C 16.257812 0.546875 11.515625 -1.238281 7.984375 -4.8125 C 4.460938 -8.394531 2.703125 -12.929688 2.703125 -18.421875 C 2.703125 -23.878906 4.460938 -28.40625 7.984375 -32 C 11.515625 -35.59375 16.257812 -37.390625 22.21875 -37.390625 C 28.175781 -37.390625 32.914062 -35.59375 36.4375 -32 C 39.957031 -28.40625 41.71875 -23.878906 41.71875 -18.421875 C 41.71875 -12.929688 39.957031 -8.394531 36.4375 -4.8125 Z M 22.21875 -33.109375 C 17.84375 -33.109375 14.351562 -31.753906 11.75 -29.046875 C 9.15625 -26.335938 7.859375 -22.796875 7.859375 -18.421875 C 7.859375 -14.015625 9.15625 -10.460938 11.75 -7.765625 C 14.351562 -5.078125 17.84375 -3.734375 22.21875 -3.734375 C 26.625 -3.734375 30.117188 -5.078125 32.703125 -7.765625 C 35.285156 -10.460938 36.578125 -14.015625 36.578125 -18.421875 C 36.578125 -22.796875 35.285156 -26.335938 32.703125 -29.046875 C 30.117188 -31.753906 26.625 -33.109375 22.21875 -33.109375 Z M 22.21875 -33.109375 "/></g></g></g><g fill="#ffffff" fill-opacity="1"><g transform="translate(824.990027, 260.714109)"><g><path d="M 20.15625 -36.84375 C 24.488281 -36.84375 27.875 -35.738281 30.3125 -33.53125 C 32.75 -31.332031 33.96875 -28.425781 33.96875 -24.8125 C 33.96875 -21.164062 32.75 -18.238281 30.3125 -16.03125 C 27.875 -13.832031 24.488281 -12.734375 20.15625 -12.734375 L 9.8125 -12.734375 L 9.8125 0 L 4.765625 0 L 4.765625 -36.84375 Z M 20 -17.015625 C 22.59375 -17.015625 24.703125 -17.679688 26.328125 -19.015625 C 27.960938 -20.359375 28.78125 -22.289062 28.78125 -24.8125 C 28.78125 -27.34375 27.960938 -29.265625 26.328125 -30.578125 C 24.703125 -31.898438 22.59375 -32.5625 20 -32.5625 L 9.8125 -32.5625 L 9.8125 -17.015625 Z M 20 -17.015625 "/></g></g></g><g fill="#ffffff" fill-opacity="1"><g transform="translate(860.369054, 260.714109)"><g><path d="M 20.15625 -36.84375 C 24.488281 -36.84375 27.875 -35.738281 30.3125 -33.53125 C 32.75 -31.332031 33.96875 -28.425781 33.96875 -24.8125 C 33.96875 -21.164062 32.75 -18.238281 30.3125 -16.03125 C 27.875 -13.832031 24.488281 -12.734375 20.15625 -12.734375 L 9.8125 -12.734375 L 9.8125 0 L 4.765625 0 L 4.765625 -36.84375 Z M 20 -17.015625 C 22.59375 -17.015625 24.703125 -17.679688 26.328125 -19.015625 C 27.960938 -20.359375 28.78125 -22.289062 28.78125 -24.8125 C 28.78125 -27.34375 27.960938 -29.265625 26.328125 -30.578125 C 24.703125 -31.898438 22.59375 -32.5625 20 -32.5625 L 9.8125 -32.5625 L 9.8125 -17.015625 Z M 20 -17.015625 "/></g></g></g><g fill="#ffffff" fill-opacity="1"><g transform="translate(895.748081, 260.714109)"><g><path d="M 36.4375 -4.8125 C 32.914062 -1.238281 28.175781 0.546875 22.21875 0.546875 C 16.257812 0.546875 11.515625 -1.238281 7.984375 -4.8125 C 4.460938 -8.394531 2.703125 -12.929688 2.703125 -18.421875 C 2.703125 -23.878906 4.460938 -28.40625 7.984375 -32 C 11.515625 -35.59375 16.257812 -37.390625 22.21875 -37.390625 C 28.175781 -37.390625 32.914062 -35.59375 36.4375 -32 C 39.957031 -28.40625 41.71875 -23.878906 41.71875 -18.421875 C 41.71875 -12.929688 39.957031 -8.394531 36.4375 -4.8125 Z M 22.21875 -33.109375 C 17.84375 -33.109375 14.351562 -31.753906 11.75 -29.046875 C 9.15625 -26.335938 7.859375 -22.796875 7.859375 -18.421875 C 7.859375 -14.015625 9.15625 -10.460938 11.75 -7.765625 C 14.351562 -5.078125 17.84375 -3.734375 22.21875 -3.734375 C 26.625 -3.734375 30.117188 -5.078125 32.703125 -7.765625 C 35.285156 -10.460938 36.578125 -14.015625 36.578125 -18.421875 C 36.578125 -22.796875 35.285156 -26.335938 32.703125 -29.046875 C 30.117188 -31.753906 26.625 -33.109375 22.21875 -33.109375 Z M 22.21875 -33.109375 "/></g></g></g><g fill="#ffffff" fill-opacity="1"><g transform="translate(940.175039, 260.714109)"><g><path d="M 30.1875 0.546875 L 18.859375 -14.203125 L 9.8125 -14.203125 L 9.8125 0 L 4.765625 0 L 4.765625 -36.84375 L 20.53125 -36.84375 C 24.757812 -36.84375 27.972656 -35.882812 30.171875 -33.96875 C 32.378906 -32.0625 33.484375 -29.265625 33.484375 -25.578125 C 33.484375 -22.617188 32.671875 -20.207031 31.046875 -18.34375 C 29.421875 -16.476562 27.128906 -15.3125 24.171875 -14.84375 L 35.5 -0.15625 Z M 9.8125 -18.484375 L 19.890625 -18.484375 C 25.523438 -18.484375 28.34375 -20.847656 28.34375 -25.578125 C 28.34375 -30.234375 25.523438 -32.5625 19.890625 -32.5625 L 9.8125 -32.5625 Z M 9.8125 -18.484375 "/></g></g></g><g fill="#ffffff" fill-opacity="1"><g transform="translate(976.746049, 260.714109)"><g><path d="M 13.703125 0 L 13.703125 -32.5625 L 0.921875 -32.5625 L 0.921875 -36.84375 L 31.59375 -36.84375 L 30.890625 -32.5625 L 18.796875 -32.5625 L 18.796875 0 Z M 13.703125 0 "/></g></g></g><g fill="#ffffff" fill-opacity="1"><g transform="translate(1009.253605, 260.714109)"><g><path d="M 4.328125 -36.515625 L 9.375 -37.234375 L 9.375 -14.3125 C 9.375 -11.050781 10.273438 -8.472656 12.078125 -6.578125 C 13.890625 -4.679688 16.582031 -3.734375 20.15625 -3.734375 C 23.726562 -3.734375 26.410156 -4.679688 28.203125 -6.578125 C 29.992188 -8.472656 30.890625 -11.050781 30.890625 -14.3125 L 30.890625 -36.515625 L 35.921875 -37.234375 L 35.921875 -13.5 C 35.921875 -9.488281 34.582031 -6.144531 31.90625 -3.46875 C 29.238281 -0.789062 25.320312 0.546875 20.15625 0.546875 C 14.914062 0.546875 10.96875 -0.816406 8.3125 -3.546875 C 5.65625 -6.273438 4.328125 -9.59375 4.328125 -13.5 Z M 4.328125 -36.515625 "/></g></g></g><g fill="#ffffff" fill-opacity="1"><g transform="translate(1049.508783, 260.714109)"><g><path d="M 9.375 -29.265625 L 9.375 0 L 4.765625 0 L 4.765625 -36.84375 L 9.75 -36.84375 L 31.921875 -7.75 L 31.921875 -36.515625 L 36.578125 -37.234375 L 36.578125 0 L 31.59375 0 Z M 9.375 -29.265625 "/></g></g></g><g fill="#ffffff" fill-opacity="1"><g transform="translate(1090.847512, 260.714109)"><g><path d="M 9.8125 0 L 4.765625 0 L 4.765625 -36.515625 L 9.8125 -37.234375 Z M 9.8125 0 "/></g></g></g><g fill="#ffffff" fill-opacity="1"><g transform="translate(1105.475929, 260.714109)"><g><path d="M 13.703125 0 L 13.703125 -32.5625 L 0.921875 -32.5625 L 0.921875 -36.84375 L 31.59375 -36.84375 L 30.890625 -32.5625 L 18.796875 -32.5625 L 18.796875 0 Z M 13.703125 0 "/></g></g></g><g fill="#ffffff" fill-opacity="1"><g transform="translate(1137.983485, 260.714109)"><g><path d="M 20.21875 -12.578125 L 20.21875 0 L 15.171875 0 L 15.171875 -12.6875 L 1.25 -36.515625 L 6.28125 -37.234375 L 17.828125 -17.453125 L 28.9375 -36.84375 L 34.296875 -36.84375 Z M 20.21875 -12.578125 "/></g></g></g></svg>