<?xml version="1.0" encoding="utf-8"?>
<svg viewBox="0 0 315.398 427.065" xmlns="http://www.w3.org/2000/svg">
  <defs>
    <clipPath id="clippath0" transform="">
      <path d="M 0 1000 L 1000 1000 L 1000 0 L 0 0 Z" style="fill: none; clip-rule: nonzero;"/>
    </clipPath>
    <clipPath id="clippath1" transform="">
      <path d="M 528.837 749.648 L 528.837 749.464 C 528.824 725.739 528.862 682.045 528.799 673.573 L 528.799 673.573 L 528.799 643.874 C 539.285 640.582 549.22 635.486 557.987 628.83 L 557.987 628.83 C 573.201 617.455 584.747 601.35 590.891 583.392 L 590.891 583.392 C 591.867 580.467 592.683 577.491 593.366 574.492 L 593.366 574.492 L 622.687 574.492 C 616.225 611.847 591.599 645.655 557.743 662.905 L 557.743 662.905 C 557.657 674.487 557.681 723.485 557.694 749.464 L 557.694 749.464 L 557.694 749.525 L 542.747 763.607 Z" style="fill: none; clip-rule: nonzero;"/>
    </clipPath>
    <linearGradient id="shading0" gradientUnits="userSpaceOnUse" x1="0" y1="0" x2="1" y2="0">
      <stop offset="0" style="stop-color: rgb(44, 128, 198);"/>
      <stop offset="0.1" style="stop-color: rgb(46, 135, 200);"/>
      <stop offset="0.2" style="stop-color: rgb(49, 142, 203);"/>
      <stop offset="0.3" style="stop-color: rgb(52, 148, 205);"/>
      <stop offset="0.4" style="stop-color: rgb(54, 155, 208);"/>
      <stop offset="0.5" style="stop-color: rgb(57, 162, 210);"/>
      <stop offset="0.6" style="stop-color: rgb(60, 168, 212);"/>
      <stop offset="0.7" style="stop-color: rgb(63, 175, 215);"/>
      <stop offset="0.8" style="stop-color: rgb(66, 182, 217);"/>
      <stop offset="0.9" style="stop-color: rgb(69, 188, 220);"/>
      <stop offset="1" style="stop-color: rgb(72, 195, 222);"/>
    </linearGradient>
    <clipPath id="clippath2" transform="">
      <path d="M 528.849 432.071 C 541.138 434.79 550.939 438.935 557.718 442.422 L 557.718 442.422 L 557.718 442.495 C 561.279 444.409 564.764 446.481 568.155 448.7 L 568.155 448.7 C 568.166 448.713 568.179 448.725 568.191 448.725 L 568.191 448.725 C 568.288 448.773 568.374 448.835 568.459 448.908 L 568.459 448.908 C 578.553 455.552 587.746 463.549 595.5 472.827 L 595.5 472.827 C 609.496 489.396 618.92 509.78 622.724 531.128 L 622.724 531.128 L 593.428 531.128 C 592.683 527.823 591.757 524.544 590.66 521.325 L 590.66 521.325 C 584.369 503.623 572.994 487.543 557.743 476.461 L 557.743 476.461 C 557.621 522.544 557.731 568.64 557.694 614.724 L 557.694 614.724 C 558.035 616.553 556.45 617.65 555.28 618.686 L 555.28 618.686 C 547.465 625.245 538.431 630.268 528.873 633.767 L 528.873 633.767 C 528.812 566.531 528.849 499.307 528.849 432.071" style="fill: none; clip-rule: nonzero;"/>
    </clipPath>
    <linearGradient id="shading1" gradientUnits="userSpaceOnUse" x1="0" y1="0" x2="1" y2="0">
      <stop offset="0" style="stop-color: rgb(44, 128, 198);"/>
      <stop offset="0.1" style="stop-color: rgb(46, 135, 200);"/>
      <stop offset="0.2" style="stop-color: rgb(49, 142, 203);"/>
      <stop offset="0.3" style="stop-color: rgb(52, 148, 205);"/>
      <stop offset="0.4" style="stop-color: rgb(54, 155, 208);"/>
      <stop offset="0.5" style="stop-color: rgb(57, 162, 210);"/>
      <stop offset="0.6" style="stop-color: rgb(60, 168, 212);"/>
      <stop offset="0.7" style="stop-color: rgb(63, 175, 215);"/>
      <stop offset="0.8" style="stop-color: rgb(66, 182, 217);"/>
      <stop offset="0.9" style="stop-color: rgb(69, 188, 220);"/>
      <stop offset="1" style="stop-color: rgb(72, 195, 222);"/>
    </linearGradient>
    <clipPath id="clippath3" transform="">
      <path d="M 594.5 568.689 C 596.231 558.193 596.243 547.427 594.549 536.93 L 594.549 536.93 L 623.614 536.93 C 624.796 546.123 624.942 555.449 623.955 564.691 L 623.955 564.691 C 623.845 566.032 623.698 567.36 623.54 568.689 L 623.54 568.689 Z" style="fill: none; clip-rule: nonzero;"/>
    </clipPath>
    <linearGradient id="shading2" gradientUnits="userSpaceOnUse" x1="0" y1="0" x2="1" y2="0">
      <stop offset="0" style="stop-color: rgb(44, 128, 198);"/>
      <stop offset="0.1" style="stop-color: rgb(46, 135, 200);"/>
      <stop offset="0.2" style="stop-color: rgb(49, 142, 203);"/>
      <stop offset="0.3" style="stop-color: rgb(52, 148, 205);"/>
      <stop offset="0.4" style="stop-color: rgb(54, 155, 208);"/>
      <stop offset="0.5" style="stop-color: rgb(57, 162, 210);"/>
      <stop offset="0.6" style="stop-color: rgb(60, 168, 212);"/>
      <stop offset="0.7" style="stop-color: rgb(63, 175, 215);"/>
      <stop offset="0.8" style="stop-color: rgb(66, 182, 217);"/>
      <stop offset="0.9" style="stop-color: rgb(69, 188, 220);"/>
      <stop offset="1" style="stop-color: rgb(72, 195, 222);"/>
    </linearGradient>
    <clipPath id="clippath4" transform="">
      <path d="M 0 1000 L 1000 1000 L 1000 0 L 0 0 Z" style="fill: none; clip-rule: nonzero;"/>
    </clipPath>
    <clipPath id="clippath5" transform="">
      <path d="M 443.143 616.626 C 443.143 614.395 443.13 612.164 443.13 609.933 L 443.13 609.933 C 443.106 598.119 443.094 586.306 443.094 574.492 L 443.094 574.492 L 471.61 574.492 C 471.61 594.23 471.597 613.956 471.549 633.694 L 471.549 633.694 C 461.186 629.695 451.384 624.124 443.143 616.626" style="fill: none; clip-rule: nonzero;"/>
    </clipPath>
    <linearGradient id="shading3" gradientUnits="userSpaceOnUse" x1="0" y1="0" x2="1" y2="0">
      <stop offset="0" style="stop-color: rgb(44, 128, 198);"/>
      <stop offset="0.1" style="stop-color: rgb(46, 135, 200);"/>
      <stop offset="0.2" style="stop-color: rgb(49, 142, 203);"/>
      <stop offset="0.3" style="stop-color: rgb(52, 148, 205);"/>
      <stop offset="0.4" style="stop-color: rgb(54, 155, 208);"/>
      <stop offset="0.5" style="stop-color: rgb(57, 162, 210);"/>
      <stop offset="0.6" style="stop-color: rgb(60, 168, 212);"/>
      <stop offset="0.7" style="stop-color: rgb(63, 175, 215);"/>
      <stop offset="0.8" style="stop-color: rgb(66, 182, 217);"/>
      <stop offset="0.9" style="stop-color: rgb(69, 188, 220);"/>
      <stop offset="1" style="stop-color: rgb(72, 195, 222);"/>
    </linearGradient>
    <clipPath id="clippath6" transform="">
      <path d="M 395.949 619.933 C 382.599 599.264 375.529 574.554 376.188 549.954 L 376.188 549.954 C 376.638 525.604 384.628 501.474 398.569 481.533 L 398.569 481.533 C 409.729 465.794 424.499 452.633 441.438 443.414 L 441.438 443.414 C 451.958 438.443 462.048 434.994 471.608 432.744 L 471.608 432.744 C 471.598 465.533 471.608 498.334 471.619 531.123 L 471.619 531.123 L 443.109 531.123 C 443.119 512.734 443.109 494.323 443.029 475.924 L 443.029 475.924 C 431.009 485.554 420.579 497.414 414.059 511.483 L 414.059 511.483 C 404.548 531.154 402.329 554.153 407.479 575.344 L 407.479 575.344 C 411.259 591.534 419.648 606.474 431.098 618.504 L 431.098 618.504 L 431.098 655.814 C 417.138 646.364 405.059 634.124 395.949 619.933" style="fill: none; clip-rule: nonzero;"/>
    </clipPath>
    <linearGradient id="shading4" gradientUnits="userSpaceOnUse" x1="0" y1="0" x2="1" y2="0">
      <stop offset="0" style="stop-color: rgb(44, 128, 198);"/>
      <stop offset="0.1" style="stop-color: rgb(46, 135, 200);"/>
      <stop offset="0.2" style="stop-color: rgb(49, 142, 203);"/>
      <stop offset="0.3" style="stop-color: rgb(52, 148, 205);"/>
      <stop offset="0.4" style="stop-color: rgb(54, 155, 208);"/>
      <stop offset="0.5" style="stop-color: rgb(57, 162, 210);"/>
      <stop offset="0.6" style="stop-color: rgb(60, 168, 212);"/>
      <stop offset="0.7" style="stop-color: rgb(63, 175, 215);"/>
      <stop offset="0.8" style="stop-color: rgb(66, 182, 217);"/>
      <stop offset="0.9" style="stop-color: rgb(69, 188, 220);"/>
      <stop offset="1" style="stop-color: rgb(72, 195, 222);"/>
    </linearGradient>
    <clipPath id="clippath7" transform="">
      <path d="M 443.099 568.694 C 443.099 558.103 443.109 547.514 443.109 536.934 L 443.109 536.934 L 471.619 536.934 L 471.619 568.694 Z" style="fill: none; clip-rule: nonzero;"/>
    </clipPath>
    <linearGradient id="shading5" gradientUnits="userSpaceOnUse" x1="0" y1="0" x2="1" y2="0">
      <stop offset="0" style="stop-color: rgb(44, 128, 198);"/>
      <stop offset="0.1" style="stop-color: rgb(46, 135, 200);"/>
      <stop offset="0.2" style="stop-color: rgb(49, 142, 203);"/>
      <stop offset="0.3" style="stop-color: rgb(52, 148, 205);"/>
      <stop offset="0.4" style="stop-color: rgb(54, 155, 208);"/>
      <stop offset="0.5" style="stop-color: rgb(57, 162, 210);"/>
      <stop offset="0.6" style="stop-color: rgb(60, 168, 212);"/>
      <stop offset="0.7" style="stop-color: rgb(63, 175, 215);"/>
      <stop offset="0.8" style="stop-color: rgb(66, 182, 217);"/>
      <stop offset="0.9" style="stop-color: rgb(69, 188, 220);"/>
      <stop offset="1" style="stop-color: rgb(72, 195, 222);"/>
    </linearGradient>
    <clipPath id="clippath8" transform="">
      <path d="M 443.106 749.33 L 443.106 749.099 C 443.094 736.431 443.094 718.449 443.094 701.991 L 443.094 701.991 C 443.094 684.594 443.106 668.903 443.13 663.002 L 443.13 663.002 L 443.13 629.22 C 445.166 630.768 447.276 632.219 449.434 633.585 L 449.434 633.585 C 456.358 637.9 463.831 641.375 471.622 643.849 L 471.622 643.849 L 471.622 673.475 C 471.597 681.912 471.61 725.313 471.61 749.099 L 471.61 749.099 L 471.61 749.196 L 456.846 763.119 Z" style="fill: none; clip-rule: nonzero;"/>
    </clipPath>
    <linearGradient id="shading6" gradientUnits="userSpaceOnUse" x1="0" y1="0" x2="1" y2="0">
      <stop offset="0" style="stop-color: rgb(44, 128, 198);"/>
      <stop offset="0.1" style="stop-color: rgb(46, 135, 200);"/>
      <stop offset="0.2" style="stop-color: rgb(49, 142, 203);"/>
      <stop offset="0.3" style="stop-color: rgb(52, 148, 205);"/>
      <stop offset="0.4" style="stop-color: rgb(54, 155, 208);"/>
      <stop offset="0.5" style="stop-color: rgb(57, 162, 210);"/>
      <stop offset="0.6" style="stop-color: rgb(60, 168, 212);"/>
      <stop offset="0.7" style="stop-color: rgb(63, 175, 215);"/>
      <stop offset="0.8" style="stop-color: rgb(66, 182, 217);"/>
      <stop offset="0.9" style="stop-color: rgb(69, 188, 220);"/>
      <stop offset="1" style="stop-color: rgb(72, 195, 222);"/>
    </linearGradient>
    <clipPath id="clippath9" transform="">
      <path d="M 0 1000 L 1000 1000 L 1000 0 L 0 0 Z" style="fill: none; clip-rule: nonzero;"/>
    </clipPath>
    <linearGradient id="shading7" gradientUnits="userSpaceOnUse" x1="564.012" y1="447.826" x2="569.1941599999999" y2="447.826">
      <stop offset="0" style="stop-color: rgb(44, 128, 198);"/>
      <stop offset="0.1" style="stop-color: rgb(46, 135, 200);"/>
      <stop offset="0.2" style="stop-color: rgb(49, 142, 203);"/>
      <stop offset="0.3" style="stop-color: rgb(52, 148, 205);"/>
      <stop offset="0.4" style="stop-color: rgb(54, 155, 208);"/>
      <stop offset="0.5" style="stop-color: rgb(57, 162, 210);"/>
      <stop offset="0.6" style="stop-color: rgb(60, 168, 212);"/>
      <stop offset="0.7" style="stop-color: rgb(63, 175, 215);"/>
      <stop offset="0.8" style="stop-color: rgb(66, 182, 217);"/>
      <stop offset="0.9" style="stop-color: rgb(69, 188, 220);"/>
      <stop offset="1" style="stop-color: rgb(72, 195, 222);"/>
    </linearGradient>
  </defs>
  <g transform="matrix(1, 0, 0, -1, -322.377617, 739.860117)">
    <g transform="">
      <path d="M 0 1000 L 1000 1000 L 1000 0 L 0 0 Z" style="fill: none;"/>
    </g>
    <g style="clip-path: url(#clippath0);" transform="matrix(1, 0, 0, 1, -22.875626, -54.92099)">
      <g transform="translate(514.8408 676.145)">
        <path d="M 0 0 L 0 -28.991 C -4.853 -28.235 -9.777 -27.857 -14.703 -27.882 C -14.813 -13.789 -14.8 14.471 -14.788 42.975 C -14.776 49.546 -14.776 56.117 -14.776 62.542 C -14.776 77.27 -14.776 91.168 -14.8 102.201 L -14.8 103.713 C -14.8 105.225 -14.8 106.675 -14.813 108.065 C -14.813 109.918 -14.825 111.649 -14.825 113.259 C -14.825 114.1 -14.825 114.893 -14.837 115.661 C -15.008 115.673 -15.178 115.673 -15.349 115.685 L -15.422 115.685 L -15.398 115.709 L -14.91 116.197 L -14.861 116.197 L -14.837 116.197 L -0.049 102.262 L -0.049 102.201 C 0.146 72.588 -0.146 16.349 0 0" style="fill: rgb(128, 141, 141); fill-opacity: 1;"/>
      </g>
    </g>
    <g transform="matrix(1, 0, 0, 1, -22.875626, -54.92099)">
      <path d="M 528.837 749.648 L 528.837 749.464 C 528.824 725.739 528.862 682.045 528.799 673.573 L 528.799 673.573 L 528.799 643.874 C 539.285 640.582 549.22 635.486 557.987 628.83 L 557.987 628.83 C 573.201 617.455 584.747 601.35 590.891 583.392 L 590.891 583.392 C 591.867 580.467 592.683 577.491 593.366 574.492 L 593.366 574.492 L 622.687 574.492 C 616.225 611.847 591.599 645.655 557.743 662.905 L 557.743 662.905 C 557.657 674.487 557.681 723.485 557.694 749.464 L 557.694 749.464 L 557.694 749.525 L 542.747 763.607 Z" style="fill: none;"/>
    </g>
    <g style="clip-path: url(#clippath1);" transform="matrix(1, 0, 0, 1, -22.875626, -54.92099)">
      <g transform="matrix(93.886673 0 0 -93.886673 528.8001709 669.0494995)">
        <rect x="-5.632324098863318" y="-3.524999767538892" width="10.651138953448697" height="10.651138953448697" style="fill: url(#shading0);"/>
      </g>
    </g>
    <g transform="matrix(1, 0, 0, 1, -22.875626, -54.92099)">
      <path d="M 528.849 432.071 C 541.138 434.79 550.939 438.935 557.718 442.422 L 557.718 442.422 L 557.718 442.495 C 561.279 444.409 564.764 446.481 568.155 448.7 L 568.155 448.7 C 568.166 448.713 568.179 448.725 568.191 448.725 L 568.191 448.725 C 568.288 448.773 568.374 448.835 568.459 448.908 L 568.459 448.908 C 578.553 455.552 587.746 463.549 595.5 472.827 L 595.5 472.827 C 609.496 489.396 618.92 509.78 622.724 531.128 L 622.724 531.128 L 593.428 531.128 C 592.683 527.823 591.757 524.544 590.66 521.325 L 590.66 521.325 C 584.369 503.623 572.994 487.543 557.743 476.461 L 557.743 476.461 C 557.621 522.544 557.731 568.64 557.694 614.724 L 557.694 614.724 C 558.035 616.553 556.45 617.65 555.28 618.686 L 555.28 618.686 C 547.465 625.245 538.431 630.268 528.873 633.767 L 528.873 633.767 C 528.812 566.531 528.849 499.307 528.849 432.071" style="fill: none;"/>
    </g>
    <g style="clip-path: url(#clippath2);" transform="matrix(1, 0, 0, 1, -22.875626, -54.92099)">
      <g transform="matrix(93.8853302 0 0 -93.8853302 528.8380737 532.9193726)">
        <rect x="-5.632808369246168" y="-4.975011819258639" width="10.651291291938174" height="10.651291291938174" style="fill: url(#shading1);"/>
      </g>
    </g>
    <g transform="matrix(1, 0, 0, 1, -22.875626, -54.92099)">
      <path d="M 594.5 568.689 C 596.231 558.193 596.243 547.427 594.549 536.93 L 594.549 536.93 L 623.614 536.93 C 624.796 546.123 624.942 555.449 623.955 564.691 L 623.955 564.691 C 623.845 566.032 623.698 567.36 623.54 568.689 L 623.54 568.689 Z" style="fill: none;"/>
    </g>
    <g style="clip-path: url(#clippath3);" transform="matrix(1, 0, 0, 1, -22.875626, -54.92099)">
      <g transform="matrix(30.1079655 0 0 -30.1079655 594.5001221 552.8097534)">
        <rect x="-19.745609250814375" y="-14.852888236503397" width="33.213801842572195" height="33.213801842572195" style="fill: url(#shading2);"/>
      </g>
    </g>
    <g transform="">
      <path d="M 0 1000 L 1000 1000 L 1000 0 L 0 0 Z" style="fill: none;"/>
    </g>
    <g style="clip-path: url(#clippath4);" transform="matrix(1, 0, 0, 1, -22.875626, -54.92099)">
      <g transform="translate(657.3594 456.5029)">
        <path d="M 0 0 C -12.947 -14.935 -28.504 -27.297 -44.499 -38.781 C -73.308 -58.787 -107.456 -71.161 -142.47 -73.661 C -142.53 -77.477 -142.543 -81.305 -142.53 -85.133 C -147.443 -85.219 -152.357 -85.23 -157.258 -85.157 C -157.27 -62.555 -157.282 -58.251 -157.294 -35.647 L -157.294 -27.357 C -157.331 42.438 -157.343 112.247 -157.233 182.043 C -152.284 181.8 -147.114 182.348 -142.421 180.422 C -142.628 111.381 -142.543 42.329 -142.53 -26.711 C -142.519 -29.418 -142.519 -32.137 -142.519 -34.843 L -142.519 -47.839 C -94.033 -45.657 -46.291 -30.003 -5.682 -3.462 C -3.84 -2.23 -1.938 -1.085 0 0" style="fill: rgb(128, 141, 141); fill-opacity: 1;"/>
      </g>
    </g>
    <g transform="matrix(1, 0, 0, 1, -22.875626, -54.92099)">
      <path d="M 443.143 616.626 C 443.143 614.395 443.13 612.164 443.13 609.933 L 443.13 609.933 C 443.106 598.119 443.094 586.306 443.094 574.492 L 443.094 574.492 L 471.61 574.492 C 471.61 594.23 471.597 613.956 471.549 633.694 L 471.549 633.694 C 461.186 629.695 451.384 624.124 443.143 616.626" style="fill: none;"/>
    </g>
    <g style="clip-path: url(#clippath5);" transform="matrix(1, 0, 0, 1, -22.875626, -54.92099)">
      <g transform="matrix(28.5158367 0 0 -28.5158367 443.0940247 604.0932617)">
        <rect x="-15.53852441229613" y="-13.88374966742603" width="35.06823280412459" height="35.06823280412459" style="fill: url(#shading3);"/>
      </g>
    </g>
    <g transform="matrix(1, 0, 0, 1, -22.875626, -54.92099)">
      <path d="M 395.949 619.933 C 382.599 599.264 375.529 574.554 376.188 549.954 L 376.188 549.954 C 376.638 525.604 384.628 501.474 398.569 481.533 L 398.569 481.533 C 409.729 465.794 424.499 452.633 441.438 443.414 L 441.438 443.414 C 451.958 438.443 462.048 434.994 471.608 432.744 L 471.608 432.744 C 471.598 465.533 471.608 498.334 471.619 531.123 L 471.619 531.123 L 443.109 531.123 C 443.119 512.734 443.109 494.323 443.029 475.924 L 443.029 475.924 C 431.009 485.554 420.579 497.414 414.059 511.483 L 414.059 511.483 C 404.548 531.154 402.329 554.153 407.479 575.344 L 407.479 575.344 C 411.259 591.534 419.648 606.474 431.098 618.504 L 431.098 618.504 L 431.098 655.814 C 417.138 646.364 405.059 634.124 395.949 619.933" style="fill: none;"/>
    </g>
    <g style="clip-path: url(#clippath6);" transform="matrix(1, 0, 0, 1, -22.875626, -54.92099)">
      <g transform="matrix(95.4723663 0 0 -95.4723663 376.1461792 544.2786865)">
        <rect x="-3.9398434728018255" y="-4.773332129089586" width="10.474234993377344" height="10.474234993377344" style="fill: url(#shading4);"/>
      </g>
    </g>
    <g transform="matrix(1, 0, 0, 1, -22.875626, -54.92099)">
      <path d="M 443.099 568.694 C 443.099 558.103 443.109 547.514 443.109 536.934 L 443.109 536.934 L 471.619 536.934 L 471.619 568.694 Z" style="fill: none;"/>
    </g>
    <g style="clip-path: url(#clippath7);" transform="matrix(1, 0, 0, 1, -22.875626, -54.92099)">
      <g transform="matrix(28.5199585 0 0 -28.5199585 443.0985718 552.8137207)">
        <rect x="-15.536438168379522" y="-15.679766129393208" width="35.06316462557265" height="35.06316462557265" style="fill: url(#shading5);"/>
      </g>
    </g>
    <g transform="matrix(1, 0, 0, 1, -22.875626, -54.92099)">
      <path d="M 443.106 749.33 L 443.106 749.099 C 443.094 736.431 443.094 718.449 443.094 701.991 L 443.094 701.991 C 443.094 684.594 443.106 668.903 443.13 663.002 L 443.13 663.002 L 443.13 629.22 C 445.166 630.768 447.276 632.219 449.434 633.585 L 449.434 633.585 C 456.358 637.9 463.831 641.375 471.622 643.849 L 471.622 643.849 L 471.622 673.475 C 471.597 681.912 471.61 725.313 471.61 749.099 L 471.61 749.099 L 471.61 749.196 L 456.846 763.119 Z" style="fill: none;"/>
    </g>
    <g style="clip-path: url(#clippath8);" transform="matrix(1, 0, 0, 1, -22.875626, -54.92099)">
      <g transform="matrix(28.5280399 0 0 -28.5280399 443.0940247 696.1694336)">
        <rect x="-15.531877628227798" y="-10.650243320782792" width="35.0532319607419" height="35.0532319607419" style="fill: url(#shading6);"/>
      </g>
    </g>
    <g transform="">
      <path d="M 0 1000 L 1000 1000 L 1000 0 L 0 0 Z" style="fill: none;"/>
    </g>
    <g style="clip-path: url(#clippath9);" transform="matrix(1, 0, 0, 1, -22.875626, -54.92099)">
      <g transform="translate(486.02 676.084)">
        <path d="M 0 0 C 0 16.361 0.012 72.637 -0.012 102.238 L -0.012 102.274 L 13.398 115.746 L 13.423 115.771 L 13.911 116.258 L 13.959 116.258 L 13.984 116.258 L 13.984 116.234 L 13.984 115.722 C 13.996 114.954 13.996 114.161 13.996 113.32 C 13.996 111.71 14.008 109.979 14.008 108.126 C 14.021 106.273 14.021 104.311 14.033 102.238 C 14.069 86.389 14.045 64.639 14.033 43.036 C 14.021 14.532 14.008 -13.728 14.118 -27.821 C 9.388 -27.784 4.657 -28.138 0 -28.857 Z" style="fill: rgb(104, 117, 118); fill-opacity: 1;"/>
      </g>
    </g>
    <g style="clip-path: url(#clippath9);" transform="matrix(1, 0, 0, 1, -22.875626, -54.92099)">
      <g transform="translate(485.9731 637.1631)">
        <path d="M 0 0 C 4.62 1.134 9.412 1.268 14.154 1.378 C 14.008 -93.777 14.081 -170.656 14.13 -265.823 C 9.424 -265.762 4.718 -265.774 0.024 -265.762 C 0.036 -261.958 0.048 -258.154 0.085 -254.351 C -25.005 -252.388 -49.742 -245.683 -72.308 -234.54 C -89.937 -226.249 -105.481 -214.338 -120.538 -202.135 C -128.169 -195.588 -135.558 -188.699 -142.056 -181.019 C -100.092 -209.193 -50.57 -226.506 0.061 -228.505 C 0 -146.236 0.122 -82.268 0 0" style="fill: rgb(104, 117, 118); fill-opacity: 1;"/>
      </g>
    </g>
    <g style="clip-path: url(#clippath9);" transform="matrix(1, 0, 0, 1, -22.875626, -54.92099)">
      <g transform="translate(443.1304 701.9907)">
        <path d="M 0 0 L 0 -38.988 C -0.024 -33.087 -0.036 -17.397 -0.036 0 Z" style="fill: rgb(230, 154, 80); fill-opacity: 1;"/>
      </g>
    </g>
    <g style="clip-path: url(#clippath9);" transform="matrix(1, 0, 0, 1, -22.875626, -54.92099)">
      <g transform="translate(568.459 448.9082)">
        <path d="M 0 0 C -0.085 -0.073 -0.171 -0.135 -0.269 -0.184 C -0.098 -0.049 -0.012 0.012 -0.012 0.012 L 0 0 Z" style="fill: none; stroke: url(#shading7); stroke-opacity: 1; stroke-miterlimit: 0; stroke-width: 1px; stroke-dashoffset: 0px;"/>
      </g>
    </g>
    <g transform="">
      <path d="M 609.14 326.331 C 609.14 322.39 613.344 318.184 617.286 318.184 L 617.286 318.184 C 621.359 318.184 625.565 322.39 625.565 326.331 L 625.565 326.331 C 625.565 330.536 621.359 334.609 617.286 334.609 L 617.286 334.609 C 613.344 334.609 609.14 330.536 609.14 326.331 M 506.507 328.827 L 506.507 265.359 L 529.109 265.359 L 553.421 265.359 L 575.104 265.359 L 635.683 265.359 L 635.814 300.444 C 635.814 302.81 636.077 302.94 636.997 302.94 L 636.997 302.94 L 641.596 302.94 L 641.596 310.957 L 617.681 310.957 C 599.676 310.957 586.669 302.021 586.669 288.355 L 586.669 288.355 C 586.669 283.492 588.508 278.894 591.53 275.214 L 591.53 275.214 L 580.36 275.214 L 556.048 275.214 L 534.365 275.214 L 522.802 275.214 L 522.802 318.315 C 522.802 321.338 522.933 321.074 528.584 320.681 L 528.584 320.681 L 528.584 328.827 Z M 602.832 288.355 C 602.832 293.479 605.196 297.028 608.744 298.867 L 608.744 298.867 C 612.16 300.577 615.709 300.97 619.52 300.313 L 619.52 300.313 L 619.52 275.214 L 614.263 275.214 C 607.561 276.003 602.832 280.47 602.832 288.355 M 358.404 328.827 L 358.404 265.359 L 381.007 265.359 L 405.319 265.359 L 427.001 265.359 L 479.828 265.359 L 480.353 264.833 L 480.221 264.833 C 482.061 262.862 483.901 260.889 484.952 258.525 L 484.952 258.525 C 486.135 255.898 486.66 253.4 485.741 249.853 L 485.741 249.853 C 485.347 248.538 485.477 245.254 488.632 244.99 L 488.632 244.99 C 490.734 244.859 492.443 246.699 492.968 247.75 L 492.968 247.75 L 492.968 247.618 C 493.362 248.276 493.888 249.196 495.07 250.772 L 495.07 250.772 C 496.384 252.611 497.305 254.846 498.092 257.081 L 498.092 257.081 C 499.275 261.679 499.144 268.118 493.099 274.294 L 493.099 274.294 L 452.889 315.162 L 437.383 299.525 L 442.902 294.005 L 446.845 297.816 C 447.107 297.816 447.502 297.422 448.683 296.24 L 448.683 296.24 L 470.103 275.214 L 432.257 275.214 L 407.945 275.214 L 386.262 275.214 L 374.698 275.214 L 374.698 318.315 C 374.698 321.338 374.83 321.074 380.48 320.681 L 380.48 320.681 L 380.48 328.827 Z M 449.473 249.459 C 449.473 245.254 453.677 241.178 457.619 241.178 L 457.619 241.178 C 461.693 241.178 465.898 245.254 465.898 249.459 L 465.898 249.459 C 465.898 253.4 461.693 257.605 457.619 257.605 L 457.619 257.605 C 453.677 257.605 449.473 253.4 449.473 249.459" style="fill: none;"/>
    </g>
  </g>
</svg>