<?xml version="1.0" encoding="utf-8"?>
<svg viewBox="11.615 153.248 486.639 195.375" xmlns="http://www.w3.org/2000/svg">
  <defs>
    <clipPath id="clippath0" transform="">
      <path d="M 0 420.945 L 595.276 420.945 L 595.276 0 L 0 0 Z" style="fill: none; clip-rule: nonzero;"/>
    </clipPath>
  </defs>
  <g transform="matrix(1.211533, 0, 0.009609, -1.211533, -114.620674, 504.994385)" style="">
    <g transform="translate(379.8031 188.5147)">
      <path d="M 0 0 L -3.678 0 L -3.678 10.795 L -3.783 10.795 L -6.535 0 L -9.181 0 L -11.985 10.901 L -12.117 10.901 L -12.117 0 L -15.267 0 L -15.267 20.109 L -10.662 20.109 L -7.699 7.303 L -7.593 7.303 L -4.471 20.109 L 0 20.109 Z" style="fill: rgb(0, 58, 112); fill-opacity: 1;"/>
    </g>
    <g transform="">
      <path d="M 385.971 188.515 L 382.293 188.515 L 382.293 208.624 L 385.971 208.624 Z" style="fill: rgb(0, 58, 112); fill-opacity: 1;"/>
      <path d="M 0 420.945 L 595.276 420.945 L 595.276 0 L 0 0 Z" style="fill: none;"/>
    </g>
    <g style="clip-path: url(#clippath0);">
      <g transform="translate(395.3646 204.231)">
        <path d="M 0 0 C 0 1.35 -0.768 1.879 -1.693 1.879 C -2.646 1.879 -3.387 1.297 -3.387 0 L -3.387 -11.192 C -3.387 -12.488 -2.831 -13.256 -1.667 -13.256 C -0.556 -13.256 0 -12.462 0 -11.192 Z M 5.054 -16.087 C 3.572 -16.087 2.593 -15.769 1.984 -14.896 C 1.217 -15.505 0.212 -16.034 -1.693 -16.034 C -4.736 -16.034 -7.064 -14.288 -7.064 -10.61 L -7.064 -0.635 C -7.064 3.149 -4.551 4.736 -1.693 4.736 C 1.164 4.736 3.704 3.36 3.704 -0.661 L 3.704 -10.795 C 3.704 -11.563 3.599 -12.145 3.439 -12.541 C 3.599 -12.753 4.101 -13.018 4.524 -13.018 C 4.71 -13.018 4.947 -13.018 5.054 -12.991 Z" style="fill: rgb(0, 58, 112); fill-opacity: 1;"/>
      </g>
    </g>
    <g style="clip-path: url(#clippath0);">
      <g transform="translate(412.4857 208.6236)">
        <path d="M 0 0 L -4.075 -12.33 L -4.075 -20.109 L -7.726 -20.109 L -7.726 -12.304 L -11.642 0 L -7.699 0 L -5.769 -7.912 L -5.662 -7.912 L -3.599 0 Z" style="fill: rgb(0, 58, 112); fill-opacity: 1;"/>
      </g>
    </g>
    <g style="clip-path: url(#clippath0);">
      <g transform="translate(418.1497 194.3092)">
        <path d="M 0 0 L -1.455 9.684 L -1.508 9.684 L -2.778 0 Z M 4.524 -5.794 L 0.847 -5.794 L 0.45 -3.043 L -3.201 -3.043 L -3.625 -5.794 L -6.853 -5.794 L -3.148 14.314 L 0.82 14.314 Z" style="fill: rgb(0, 58, 112); fill-opacity: 1;"/>
      </g>
    </g>
    <g style="clip-path: url(#clippath0);">
      <g transform="translate(433.7894 193.2511)">
        <path d="M 0 0 C 0 -2.937 -1.984 -5.054 -5.345 -5.054 C -8.573 -5.054 -10.425 -3.281 -10.425 -0.053 C -10.425 0.714 -10.293 1.799 -10.187 2.302 L -7.197 2.09 C -7.303 1.561 -7.408 0.635 -7.408 -0.027 C -7.408 -1.693 -6.562 -2.276 -5.451 -2.276 C -4.181 -2.276 -3.467 -1.508 -3.467 -0.318 L -3.467 0.026 C -3.467 1.19 -4.233 2.222 -6.562 4.366 C -8.6 6.218 -10.372 8.229 -10.372 10.61 L -10.372 10.821 C -10.372 13.309 -8.838 15.716 -5.266 15.716 C -1.826 15.716 -0.317 13.467 -0.317 10.715 C -0.317 9.896 -0.371 9.234 -0.503 8.387 L -3.439 8.546 C -3.334 9.049 -3.255 9.499 -3.255 10.424 C -3.255 12.382 -4.075 12.859 -5.001 12.859 C -5.953 12.859 -6.854 12.303 -6.854 11.033 L -6.854 10.848 C -6.854 9.604 -6.007 8.625 -4.524 7.329 C -2.355 5.424 0 3.281 0 0.37 Z" style="fill: rgb(0, 58, 112); fill-opacity: 1;"/>
      </g>
    </g>
    <g style="clip-path: url(#clippath0);">
      <g transform="translate(445.804 193.2511)">
        <path d="M 0 0 C 0 -2.937 -1.984 -5.054 -5.345 -5.054 C -8.573 -5.054 -10.425 -3.281 -10.425 -0.053 C -10.425 0.714 -10.293 1.799 -10.187 2.302 L -7.197 2.09 C -7.303 1.561 -7.409 0.635 -7.409 -0.027 C -7.409 -1.693 -6.562 -2.276 -5.451 -2.276 C -4.181 -2.276 -3.467 -1.508 -3.467 -0.318 L -3.467 0.026 C -3.467 1.19 -4.233 2.222 -6.562 4.366 C -8.6 6.218 -10.372 8.229 -10.372 10.61 L -10.372 10.821 C -10.372 13.309 -8.838 15.716 -5.266 15.716 C -1.826 15.716 -0.317 13.467 -0.317 10.715 C -0.317 9.896 -0.371 9.234 -0.503 8.387 L -3.439 8.546 C -3.334 9.049 -3.255 9.499 -3.255 10.424 C -3.255 12.382 -4.075 12.859 -5.001 12.859 C -5.953 12.859 -6.854 12.303 -6.854 11.033 L -6.854 10.848 C -6.854 9.604 -6.007 8.625 -4.524 7.329 C -2.355 5.424 0 3.281 0 0.37 Z" style="fill: rgb(0, 58, 112); fill-opacity: 1;"/>
      </g>
    </g>
    <g style="clip-path: url(#clippath0);">
      <g transform="translate(373.2679 178.6939)">
        <path d="M 0 0 L -5.054 0 L -5.054 -5.874 L -0.687 -5.874 L -0.687 -8.864 L -5.054 -8.864 L -5.054 -17.146 L -8.731 -17.146 L -8.731 2.963 L 0 2.963 Z" style="fill: rgb(0, 58, 112); fill-opacity: 1;"/>
      </g>
    </g>
    <g style="clip-path: url(#clippath0);">
      <g transform="translate(381.8167 177.2647)">
        <path d="M 0 0 C 0 1.217 -0.715 1.879 -1.667 1.879 C -2.699 1.879 -3.387 1.27 -3.387 0 L -3.387 -11.324 C -3.387 -12.568 -2.699 -13.256 -1.641 -13.256 C -0.635 -13.256 0 -12.568 0 -11.351 Z M 3.704 -10.716 C 3.704 -14.499 1.19 -16.034 -1.641 -16.034 C -4.524 -16.034 -7.064 -14.499 -7.064 -10.716 L -7.064 -0.688 C -7.064 3.254 -4.498 4.736 -1.641 4.736 C 1.217 4.736 3.704 3.308 3.704 -0.688 Z" style="fill: rgb(0, 58, 112); fill-opacity: 1;"/>
      </g>
    </g>
    <g style="clip-path: url(#clippath0);">
      <g transform="translate(392.8783 178.6939)">
        <path d="M 0 0 L -1.35 0 L -1.35 -6.245 L -0.053 -6.245 C 1.032 -6.245 1.932 -5.636 1.932 -2.884 C 1.932 -0.609 1.164 0 0 0 M 2.54 -7.515 L 2.54 -7.62 C 4.577 -8.07 5.054 -9.419 5.106 -12.065 C 5.106 -12.621 5.133 -13.415 5.133 -13.865 C 5.159 -15.928 5.266 -16.458 5.53 -17.146 L 1.826 -17.146 C 1.667 -16.934 1.588 -16.537 1.562 -15.849 C 1.509 -14.447 1.455 -13.494 1.429 -12.277 C 1.35 -9.79 1.006 -9.076 -0.265 -9.076 L -1.35 -9.076 L -1.35 -17.146 L -5.027 -17.146 L -5.027 2.963 L 0.582 2.963 C 3.466 2.963 5.609 1.296 5.609 -2.329 C 5.609 -5.16 4.71 -6.906 2.54 -7.515" style="fill: rgb(0, 58, 112); fill-opacity: 1;"/>
      </g>
    </g>
    <g style="clip-path: url(#clippath0);">
      <g transform="translate(414.5775 178.6939)">
        <path d="M 0 0 L -3.678 0 L -3.678 -17.146 L -7.329 -17.146 L -7.329 0 L -11.007 0 L -11.007 2.963 L 0 2.963 Z" style="fill: rgb(0, 58, 112); fill-opacity: 1;"/>
      </g>
    </g>
    <g style="clip-path: url(#clippath0);">
      <g transform="translate(424.9515 161.5484)">
        <path d="M 0 0 L -8.785 0 L -8.785 20.108 L -0.054 20.108 L -0.054 17.146 L -5.107 17.146 L -5.107 11.959 L -0.741 11.959 L -0.741 8.996 L -5.107 8.996 L -5.107 2.963 L 0 2.963 Z" style="fill: rgb(0, 58, 112); fill-opacity: 1;"/>
      </g>
    </g>
    <g style="clip-path: url(#clippath0);">
      <g transform="translate(432.0433 161.1515)">
        <path d="M 0 0 C -2.857 0 -5.212 1.482 -5.212 5.53 L -5.212 15.24 C -5.212 19.262 -2.805 20.85 0.026 20.85 C 2.805 20.85 4.869 19.553 4.869 16.008 C 4.869 14.976 4.815 14.208 4.71 13.494 L 1.746 13.679 C 1.853 14.261 1.905 14.791 1.905 15.531 C 1.905 17.383 1.244 17.913 0.212 17.913 C -1.005 17.913 -1.481 17.013 -1.481 16.113 L -1.481 4.789 C -1.481 3.651 -0.952 2.963 0.238 2.963 C 1.271 2.963 1.932 3.466 1.932 5.345 C 1.932 6.059 1.853 6.667 1.773 7.223 L 4.684 7.435 C 4.789 6.8 4.869 5.874 4.869 4.895 C 4.869 1.323 2.752 0 0 0" style="fill: rgb(0, 58, 112); fill-opacity: 1;"/>
      </g>
    </g>
    <g style="clip-path: url(#clippath0);">
      <g transform="translate(449.9574 161.5484)">
        <path d="M 0 0 L -3.678 0 L -3.678 8.573 L -7.62 8.573 L -7.62 0 L -11.298 0 L -11.298 20.108 L -7.62 20.108 L -7.62 11.695 L -3.678 11.695 L -3.678 20.108 L 0 20.108 Z" style="fill: rgb(0, 58, 112); fill-opacity: 1;"/>
      </g>
    </g>
    <g style="clip-path: url(#clippath0);">
      <g transform="translate(463.0833 161.5484)">
        <path d="M 0 0 L -3.122 0 L -7.382 11.906 L -7.515 11.906 L -7.515 0 L -10.637 0 L -10.637 20.108 L -7.144 20.108 L -3.254 9.446 L -3.122 9.446 L -3.122 20.108 L 0 20.108 Z" style="fill: rgb(0, 58, 112); fill-opacity: 1;"/>
      </g>
    </g>
    <g style="clip-path: url(#clippath0);">
      <g transform="">
        <path d="M 469.25 161.548 L 465.572 161.548 L 465.572 181.656 L 469.25 181.656 Z" style="fill: rgb(0, 58, 112); fill-opacity: 1;"/>
      </g>
      <g transform="translate(476.7923 161.1515)">
        <path d="M 0 0 C -2.857 0 -5.212 1.482 -5.212 5.53 L -5.212 15.24 C -5.212 19.262 -2.805 20.85 0.026 20.85 C 2.805 20.85 4.869 19.553 4.869 16.008 C 4.869 14.976 4.815 14.208 4.71 13.494 L 1.747 13.679 C 1.853 14.261 1.905 14.791 1.905 15.531 C 1.905 17.383 1.244 17.913 0.212 17.913 C -1.005 17.913 -1.481 17.013 -1.481 16.113 L -1.481 4.789 C -1.481 3.651 -0.952 2.963 0.238 2.963 C 1.271 2.963 1.932 3.466 1.932 5.345 C 1.932 6.059 1.853 6.667 1.773 7.223 L 4.684 7.435 C 4.789 6.8 4.869 5.874 4.869 4.895 C 4.869 1.323 2.752 0 0 0" style="fill: rgb(0, 58, 112); fill-opacity: 1;"/>
      </g>
      <g transform="translate(489.098 167.3429)">
        <path d="M 0 0 L -1.455 9.684 L -1.508 9.684 L -2.778 0 Z M 4.524 -5.794 L 0.847 -5.794 L 0.45 -3.042 L -3.201 -3.042 L -3.625 -5.794 L -6.853 -5.794 L -3.148 14.314 L 0.82 14.314 Z" style="fill: rgb(0, 58, 112); fill-opacity: 1;"/>
      </g>
      <g transform="translate(503.8646 161.5484)">
        <path d="M 0 0 L -8.785 0 L -8.785 20.108 L -5.107 20.108 L -5.107 2.963 L 0 2.963 Z" style="fill: rgb(0, 58, 112); fill-opacity: 1;"/>
      </g>
      <g transform="translate(369.5902 134.1852)">
        <path d="M 0 0 C -2.857 0 -5.212 1.482 -5.212 5.53 L -5.212 15.24 C -5.212 19.262 -2.805 20.85 0.026 20.85 C 2.805 20.85 4.869 19.553 4.869 16.008 C 4.869 14.976 4.815 14.208 4.71 13.494 L 1.746 13.679 C 1.853 14.261 1.905 14.791 1.905 15.531 C 1.905 17.383 1.244 17.913 0.212 17.913 C -1.005 17.913 -1.481 17.013 -1.481 16.113 L -1.481 4.789 C -1.481 3.651 -0.952 2.963 0.238 2.963 C 1.271 2.963 1.932 3.466 1.932 5.345 C 1.932 6.059 1.853 6.667 1.773 7.223 L 4.684 7.435 C 4.789 6.8 4.869 5.874 4.869 4.895 C 4.869 1.323 2.752 0 0 0" style="fill: rgb(0, 58, 112); fill-opacity: 1;"/>
      </g>
      <g transform="translate(383.1126 150.2984)">
        <path d="M 0 0 C 0 1.217 -0.715 1.879 -1.667 1.879 C -2.699 1.879 -3.387 1.27 -3.387 0 L -3.387 -11.324 C -3.387 -12.568 -2.699 -13.256 -1.641 -13.256 C -0.635 -13.256 0 -12.568 0 -11.351 Z M 3.704 -10.716 C 3.704 -14.499 1.19 -16.034 -1.641 -16.034 C -4.524 -16.034 -7.064 -14.499 -7.064 -10.716 L -7.064 -0.687 C -7.064 3.254 -4.498 4.736 -1.641 4.736 C 1.217 4.736 3.704 3.308 3.704 -0.687 Z" style="fill: rgb(0, 58, 112); fill-opacity: 1;"/>
      </g>
      <g transform="translate(399.7835 134.5821)">
        <path d="M 0 0 L -3.122 0 L -7.382 11.906 L -7.515 11.906 L -7.515 0 L -10.637 0 L -10.637 20.109 L -7.144 20.109 L -3.254 9.446 L -3.122 9.446 L -3.122 20.109 L 0 20.109 Z" style="fill: rgb(0, 58, 112); fill-opacity: 1;"/>
      </g>
      <g transform="translate(412.2484 139.3185)">
        <path d="M 0 0 C 0 -2.937 -1.984 -5.054 -5.345 -5.054 C -8.573 -5.054 -10.425 -3.281 -10.425 -0.053 C -10.425 0.714 -10.293 1.799 -10.187 2.302 L -7.197 2.09 C -7.303 1.561 -7.408 0.635 -7.408 -0.027 C -7.408 -1.693 -6.562 -2.276 -5.451 -2.276 C -4.181 -2.276 -3.467 -1.508 -3.467 -0.318 L -3.467 0.026 C -3.467 1.19 -4.233 2.222 -6.562 4.366 C -8.6 6.218 -10.372 8.229 -10.372 10.61 L -10.372 10.821 C -10.372 13.309 -8.838 15.716 -5.266 15.716 C -1.826 15.716 -0.317 13.467 -0.317 10.715 C -0.317 9.896 -0.371 9.234 -0.503 8.387 L -3.439 8.546 C -3.334 9.049 -3.255 9.499 -3.255 10.424 C -3.255 12.382 -4.075 12.859 -5.001 12.859 C -5.953 12.859 -6.854 12.303 -6.854 11.033 L -6.854 10.848 C -6.854 9.604 -6.007 8.625 -4.524 7.329 C -2.355 5.424 0 3.281 0 0.37 Z" style="fill: rgb(0, 58, 112); fill-opacity: 1;"/>
      </g>
      <g transform="translate(425.1888 139.4239)">
        <path d="M 0 0 C 0 -3.201 -2.328 -5.159 -5.397 -5.159 C -8.572 -5.159 -11.007 -3.228 -11.007 -0.026 L -11.007 15.267 L -7.329 15.267 L -7.329 -0.397 C -7.329 -1.508 -6.747 -2.222 -5.266 -2.222 C -4.021 -2.222 -3.36 -1.375 -3.36 -0.37 L -3.36 15.267 L 0 15.267 Z" style="fill: rgb(0, 58, 112); fill-opacity: 1;"/>
      </g>
      <g transform="translate(435.8011 134.5821)">
        <path d="M 0 0 L -8.785 0 L -8.785 20.109 L -5.107 20.109 L -5.107 2.963 L 0 2.963 Z" style="fill: rgb(0, 58, 112); fill-opacity: 1;"/>
      </g>
      <g transform="translate(445.5648 151.7271)">
        <path d="M 0 0 L -3.678 0 L -3.678 -17.145 L -7.329 -17.145 L -7.329 0 L -11.007 0 L -11.007 2.964 L 0 2.964 Z" style="fill: rgb(0, 58, 112); fill-opacity: 1;"/>
      </g>
      <g transform="">
        <path d="M 450.831 134.582 L 447.153 134.582 L 447.153 154.691 L 450.831 154.691 Z" style="fill: rgb(0, 58, 112); fill-opacity: 1;"/>
      </g>
      <g transform="translate(463.9564 134.5821)">
        <path d="M 0 0 L -3.122 0 L -7.382 11.906 L -7.515 11.906 L -7.515 0 L -10.637 0 L -10.637 20.109 L -7.144 20.109 L -3.254 9.446 L -3.122 9.446 L -3.122 20.109 L 0 20.109 Z" style="fill: rgb(0, 58, 112); fill-opacity: 1;"/>
      </g>
      <g transform="translate(476.9496 134.5821)">
        <path d="M 0 0 L -1.376 0 L -2.303 1.932 L -2.355 1.932 C -2.831 1.111 -3.784 -0.317 -5.927 -0.317 C -8.891 -0.317 -10.663 1.27 -10.663 5.08 L -10.663 15.002 C -10.663 18.944 -8.309 20.453 -5.318 20.453 C -2.382 20.453 -0.556 18.68 -0.556 15.479 C -0.556 14.685 -0.636 13.785 -0.768 13.097 L -3.678 13.282 C -3.599 13.732 -3.52 14.261 -3.52 15.055 C -3.52 16.96 -4.128 17.516 -5.318 17.516 C -6.271 17.516 -6.933 16.828 -6.933 15.479 L -6.933 4.445 C -6.933 3.307 -6.456 2.46 -5.239 2.46 C -4.102 2.46 -3.493 3.413 -3.493 4.815 L -3.493 9.525 L 0 9.525 Z" style="fill: rgb(0, 58, 112); fill-opacity: 1;"/>
      </g>
      <g transform="translate(148.8919 211.8512)">
        <path d="M 0 0 L 0.099 58.267 L -0.397 58.267 L -15.188 0 L -21.143 0 L -35.338 57.77 L -35.834 57.77 L -35.734 0 L -43.576 0 L -43.576 75.439 L -31.466 75.439 L -17.967 21.043 L -17.47 21.043 L -4.368 75.439 L 7.842 75.439 L 7.842 0 Z" style="fill: rgb(0, 58, 112); fill-opacity: 1;"/>
      </g>
      <g transform="">
        <path d="M 166.761 287.29 L 175.793 287.29 L 175.793 211.851 L 166.761 211.851 Z" style="fill: rgb(0, 58, 112); fill-opacity: 1;"/>
      </g>
      <g transform="translate(212.1234 272.1031)">
        <path d="M 0 0 C 0 6.551 -3.971 9.628 -8.734 9.628 C -13.698 9.628 -17.47 6.353 -17.47 0 L -17.47 -44.172 C -17.47 -50.028 -14.79 -54.495 -8.636 -54.495 C -2.58 -54.495 0 -49.83 0 -44.172 Z M 13.202 -61.146 C 9.728 -61.046 7.346 -60.153 5.658 -55.885 C 1.092 -59.657 -2.184 -61.443 -8.734 -61.443 C -18.959 -61.443 -26.503 -55.587 -26.503 -42.782 L -26.503 -1.886 C -26.503 11.216 -18.363 16.477 -8.734 16.477 C 0.992 16.477 9.132 11.912 9.132 -1.985 L 9.132 -43.477 C 9.132 -46.256 8.835 -47.844 8.04 -49.83 C 8.835 -51.517 9.927 -52.113 10.919 -52.311 C 11.614 -52.51 12.507 -52.51 13.202 -52.51 Z" style="fill: rgb(0, 58, 112); fill-opacity: 1;"/>
      </g>
      <g transform="translate(249.0365 241.1334)">
        <path d="M 0 0 L -8.667 -0.755 L -23.327 46.157 L -13.202 46.157 L -4.276 13.495 L 3.951 46.157 L 12.703 46.157 Z" style="fill: rgb(0, 58, 112); fill-opacity: 1;"/>
      </g>
      <g transform="translate(255.181 198.4552)">
        <path d="M 0 0 L -0.397 0 L -7.246 -44.072 L 7.047 -44.072 Z M 10.532 -64.742 L 8.14 -51.318 L -8.338 -51.318 L -11.161 -64.742 L -19.103 -64.742 L -4.963 11.713 L 5.956 11.713 L 19.663 -64.742 Z" style="fill: rgb(0, 58, 112); fill-opacity: 1;"/>
      </g>
      <g transform="translate(277.5169 150.5118)">
        <path d="M 0 0 C 0 3.077 0.297 5.757 0.794 8.338 L 7.742 7.742 C 7.345 5.559 7.048 2.978 7.048 0.496 C 7.048 -6.849 11.117 -9.827 16.478 -9.827 C 22.234 -9.827 25.808 -4.864 25.808 0.496 L 25.808 1.588 C 25.808 7.444 21.143 12.408 13.697 19.951 C 6.452 27.396 -0.299 36.429 -0.299 44.271 L -0.299 45.064 C -0.299 53.105 5.757 60.947 17.47 60.947 C 28.389 60.947 33.352 53.899 33.352 43.973 C 33.352 40.697 33.054 37.72 32.656 35.238 L 25.708 35.734 C 26.105 37.72 26.304 39.308 26.304 42.881 C 26.304 49.631 23.524 53.899 17.668 53.899 C 12.805 53.899 8.536 50.822 8.536 45.263 L 8.536 44.568 C 8.536 39.407 13.301 33.749 18.959 27.992 C 27.991 18.76 34.543 11.316 34.543 1.985 L 34.543 1.092 C 34.543 -9.132 26.602 -16.974 16.676 -16.974 C 6.551 -16.974 0 -11.416 0 0" style="fill: rgb(0, 58, 112); fill-opacity: 1;"/>
      </g>
      <g transform="translate(318.4134 150.5118)">
        <path d="M 0 0 C 0 3.077 0.298 5.757 0.794 8.338 L 7.742 7.742 C 7.345 5.559 7.048 2.978 7.048 0.496 C 7.048 -6.849 11.117 -9.827 16.478 -9.827 C 22.234 -9.827 25.808 -4.864 25.808 0.496 L 25.808 1.588 C 25.808 7.444 21.144 12.408 13.698 19.951 C 6.452 27.396 -0.298 36.429 -0.298 44.271 L -0.298 45.064 C -0.298 53.105 5.757 60.947 17.47 60.947 C 28.389 60.947 33.352 53.899 33.352 43.973 C 33.352 40.697 33.055 37.72 32.657 35.238 L 25.709 35.734 C 26.106 37.72 26.304 39.308 26.304 42.881 C 26.304 49.631 23.525 53.899 17.669 53.899 C 12.805 53.899 8.536 50.822 8.536 45.263 L 8.536 44.568 C 8.536 39.407 13.301 33.749 18.959 27.992 C 27.992 18.76 34.543 11.316 34.543 1.985 L 34.543 1.092 C 34.543 -9.132 26.603 -16.974 16.676 -16.974 C 6.552 -16.974 0 -11.416 0 0" style="fill: rgb(0, 58, 112); fill-opacity: 1;"/>
      </g>
      <g transform="translate(218.9466 133.5382)">
        <path d="M 0 0 L -8.989 0 L 34.549 153.752 L 43.253 153.752 Z" style="fill: rgb(0, 58, 112); fill-opacity: 1;"/>
      </g>
    </g>
  </g>
</svg>