<svg xmlns="http://www.w3.org/2000/svg" xmlns:xlink="http://www.w3.org/1999/xlink" width="900" zoomAndPan="magnify" viewBox="0 0 675 299.999988" height="400" preserveAspectRatio="xMidYMid meet" version="1.0"><defs><clipPath id="id1"><path d="M 57.464844 48 L 365.714844 48 L 365.714844 192 L 57.464844 192 Z M 57.464844 48 " clip-rule="nonzero"/></clipPath><clipPath id="id2"><path d="M 57.464844 209 L 357 209 L 357 233 L 57.464844 233 Z M 57.464844 209 " clip-rule="nonzero"/></clipPath><clipPath id="id3"><path d="M 59 240 L 72 240 L 72 254.980469 L 59 254.980469 Z M 59 240 " clip-rule="nonzero"/></clipPath><clipPath id="id4"><path d="M 74 240 L 77 240 L 77 254.980469 L 74 254.980469 Z M 74 240 " clip-rule="nonzero"/></clipPath><clipPath id="id5"><path d="M 80 240 L 93 240 L 93 254.980469 L 80 254.980469 Z M 80 240 " clip-rule="nonzero"/></clipPath><clipPath id="id6"><path d="M 95 240 L 110 240 L 110 254.980469 L 95 254.980469 Z M 95 240 " clip-rule="nonzero"/></clipPath><clipPath id="id7"><path d="M 112 240 L 126 240 L 126 254.980469 L 112 254.980469 Z M 112 240 " clip-rule="nonzero"/></clipPath><clipPath id="id8"><path d="M 127 240 L 143 240 L 143 254.980469 L 127 254.980469 Z M 127 240 " clip-rule="nonzero"/></clipPath><clipPath id="id9"><path d="M 145 240 L 160 240 L 160 254.980469 L 145 254.980469 Z M 145 240 " clip-rule="nonzero"/></clipPath><clipPath id="id10"><path d="M 168 240 L 184 240 L 184 254.980469 L 168 254.980469 Z M 168 240 " clip-rule="nonzero"/></clipPath><clipPath id="id11"><path d="M 186 240 L 198 240 L 198 254.980469 L 186 254.980469 Z M 186 240 " clip-rule="nonzero"/></clipPath><clipPath id="id12"><path d="M 205 240 L 217 240 L 217 254.980469 L 205 254.980469 Z M 205 240 " clip-rule="nonzero"/></clipPath><clipPath id="id13"><path d="M 217 240 L 233 240 L 233 254.980469 L 217 254.980469 Z M 217 240 " clip-rule="nonzero"/></clipPath><clipPath id="id14"><path d="M 233 240 L 246 240 L 246 254.980469 L 233 254.980469 Z M 233 240 " clip-rule="nonzero"/></clipPath><clipPath id="id15"><path d="M 249 240 L 263 240 L 263 254.980469 L 249 254.980469 Z M 249 240 " clip-rule="nonzero"/></clipPath><clipPath id="id16"><path d="M 265 240 L 268 240 L 268 254.980469 L 265 254.980469 Z M 265 240 " clip-rule="nonzero"/></clipPath><clipPath id="id17"><path d="M 276 240 L 292 240 L 292 254.980469 L 276 254.980469 Z M 276 240 " clip-rule="nonzero"/></clipPath><clipPath id="id18"><path d="M 293 240 L 306 240 L 306 254.980469 L 293 254.980469 Z M 293 240 " clip-rule="nonzero"/></clipPath><clipPath id="id19"><path d="M 307 240 L 323 240 L 323 254.980469 L 307 254.980469 Z M 307 240 " clip-rule="nonzero"/></clipPath><clipPath id="id20"><path d="M 324 240 L 337 240 L 337 254.980469 L 324 254.980469 Z M 324 240 " clip-rule="nonzero"/></clipPath><clipPath id="id21"><path d="M 339 240 L 343 240 L 343 254.980469 L 339 254.980469 Z M 339 240 " clip-rule="nonzero"/></clipPath><clipPath id="id22"><path d="M 344 240 L 360 240 L 360 254.980469 L 344 254.980469 Z M 344 240 " clip-rule="nonzero"/></clipPath><clipPath id="id23"><path d="M 518.394531 59 L 564.308594 59 L 564.308594 150.691406 L 518.394531 150.691406 Z M 518.394531 59 " clip-rule="nonzero"/></clipPath><clipPath id="id24"><path d="M 518.800781 65.804688 L 518.800781 65.890625 C 518.792969 77.359375 518.8125 98.476562 518.78125 102.570312 L 518.78125 116.921875 C 523.851562 118.515625 528.652344 120.976562 532.890625 124.195312 C 540.242188 129.691406 545.820312 137.476562 548.792969 146.152344 C 549.261719 147.566406 549.65625 149.007812 549.988281 150.457031 L 564.15625 150.457031 C 561.035156 132.402344 549.132812 116.0625 532.769531 107.726562 C 532.730469 102.128906 532.742188 78.449219 532.746094 65.890625 L 532.746094 65.863281 L 525.523438 59.058594 Z M 518.800781 65.804688 " clip-rule="nonzero"/></clipPath><clipPath id="id25"><path d="M 518.394531 121.695312 L 564.308594 121.695312 L 564.308594 219.320312 L 518.394531 219.320312 Z M 518.394531 121.695312 " clip-rule="nonzero"/></clipPath><clipPath id="id26"><path d="M 518.804688 219.285156 C 524.746094 217.972656 529.484375 215.96875 532.757812 214.285156 L 532.757812 214.25 C 534.480469 213.324219 536.164062 212.324219 537.804688 211.25 C 537.808594 211.242188 537.816406 211.238281 537.820312 211.238281 C 537.867188 211.214844 537.910156 211.183594 537.949219 211.148438 C 542.828125 207.9375 547.269531 204.074219 551.019531 199.589844 C 557.78125 191.582031 562.335938 181.730469 564.175781 171.414062 L 550.015625 171.414062 C 549.65625 173.011719 549.210938 174.59375 548.679688 176.152344 C 545.640625 184.707031 540.140625 192.476562 532.769531 197.832031 C 532.710938 175.5625 532.765625 153.285156 532.746094 131.011719 C 532.914062 130.128906 532.144531 129.597656 531.582031 129.097656 C 527.804688 125.925781 523.4375 123.5 518.816406 121.808594 C 518.789062 154.304688 518.804688 186.792969 518.804688 219.285156 " clip-rule="nonzero"/></clipPath><clipPath id="id27"><path d="M 550.292969 153.109375 L 565.277344 153.109375 L 565.277344 169 L 550.292969 169 Z M 550.292969 153.109375 " clip-rule="nonzero"/></clipPath><clipPath id="id28"><path d="M 550.535156 153.261719 C 551.371094 158.332031 551.378906 163.535156 550.558594 168.609375 L 564.605469 168.609375 C 565.175781 164.164062 565.246094 159.660156 564.769531 155.191406 C 564.71875 154.542969 564.648438 153.902344 564.570312 153.261719 Z M 550.535156 153.261719 " clip-rule="nonzero"/></clipPath><clipPath id="id29"><path d="M 477.316406 121.695312 L 491.332031 121.695312 L 491.332031 150.691406 L 477.316406 150.691406 Z M 477.316406 121.695312 " clip-rule="nonzero"/></clipPath><clipPath id="id30"><path d="M 477.386719 130.09375 C 477.386719 131.171875 477.378906 132.25 477.378906 133.328125 C 477.367188 139.035156 477.363281 144.746094 477.363281 150.457031 L 491.144531 150.457031 C 491.144531 140.917969 491.136719 131.382812 491.113281 121.84375 C 486.105469 123.777344 481.367188 126.46875 477.386719 130.09375 " clip-rule="nonzero"/></clipPath><clipPath id="id31"><path d="M 445 111.0625 L 491.332031 111.0625 L 491.332031 219 L 445 219 Z M 445 111.0625 " clip-rule="nonzero"/></clipPath><clipPath id="id32"><path d="M 454.578125 128.492188 C 448.125 138.484375 444.707031 150.425781 445.027344 162.316406 C 445.242188 174.082031 449.105469 185.746094 455.84375 195.382812 C 461.234375 202.988281 468.375 209.347656 476.5625 213.804688 C 481.644531 216.207031 486.523438 217.875 491.140625 218.960938 C 491.136719 203.113281 491.140625 187.261719 491.148438 171.414062 L 477.367188 171.414062 C 477.375 180.304688 477.367188 189.199219 477.332031 198.09375 C 471.519531 193.4375 466.480469 187.707031 463.328125 180.90625 C 458.730469 171.402344 457.660156 160.285156 460.148438 150.042969 C 461.976562 142.21875 466.03125 135 471.5625 129.183594 L 471.5625 111.152344 C 464.816406 115.71875 458.980469 121.636719 454.578125 128.492188 " clip-rule="nonzero"/></clipPath><clipPath id="id33"><path d="M 477.316406 153.109375 L 491.332031 153.109375 L 491.332031 169 L 477.316406 169 Z M 477.316406 153.109375 " clip-rule="nonzero"/></clipPath><clipPath id="id34"><path d="M 477.363281 153.257812 C 477.363281 158.375 477.367188 163.492188 477.367188 168.605469 L 491.148438 168.605469 L 491.148438 153.257812 Z M 477.363281 153.257812 " clip-rule="nonzero"/></clipPath><clipPath id="id35"><path d="M 477.316406 59 L 491.332031 59 L 491.332031 124.113281 L 477.316406 124.113281 Z M 477.316406 59 " clip-rule="nonzero"/></clipPath><clipPath id="id36"><path d="M 477.367188 65.957031 L 477.367188 66.066406 C 477.363281 72.191406 477.363281 80.882812 477.363281 88.835938 C 477.363281 97.242188 477.367188 104.828125 477.378906 107.679688 L 477.378906 124.003906 C 478.363281 123.257812 479.382812 122.554688 480.425781 121.894531 C 483.773438 119.808594 487.382812 118.132812 491.148438 116.933594 L 491.148438 102.617188 C 491.136719 98.539062 491.144531 77.5625 491.144531 66.066406 L 491.144531 66.019531 L 484.007812 59.292969 Z M 477.367188 65.957031 " clip-rule="nonzero"/></clipPath></defs><path stroke-linecap="butt" transform="matrix(0.000000000000000092, 1.498756, -1.5, 0.000000000000000092, 388.701779, 29.797036)" fill="none" stroke-linejoin="miter" d="M -0.000107454 -0.000897629 L 160.137931 -0.000897629 " stroke="#686d6a" stroke-width="1" stroke-opacity="1" stroke-miterlimit="4"/><g clip-path="url(#id1)"><path fill="#686d6a" d="M 277.230469 165.476562 L 277.230469 165.703125 C 277.230469 180.589844 266.394531 191.53125 248.78125 191.53125 C 234.554688 191.53125 224.730469 185.890625 217.957031 177.882812 L 229.925781 166.492188 C 235.34375 172.582031 240.992188 175.964844 249.007812 175.964844 C 255.554688 175.964844 260.183594 172.242188 260.183594 166.378906 C 260.097656 166.222656 261.460938 156.117188 244.714844 156.117188 L 237.492188 156.117188 L 234.78125 145.058594 L 260.132812 119.582031 L 249.972656 126.113281 L 222.589844 126.113281 L 222.589844 111.226562 L 275.988281 111.226562 L 275.988281 124.308594 L 256.007812 143.371094 C 266.730469 145.175781 277.230469 150.8125 277.230469 165.476562 M 227.667969 75.125 C 227.667969 67.976562 232.796875 62.222656 239.996094 62.222656 L 248.109375 62.222656 L 245.984375 63.28125 C 246.082031 82.875 245.597656 85.34375 246.847656 88.207031 L 240.085938 88.203125 C 232.886719 88.203125 227.667969 82.359375 227.667969 75.214844 Z M 239.996094 91.488281 L 247.199219 91.488281 L 247.199219 88.894531 C 247.726562 89.804688 248.433594 90.515625 249.472656 91.007812 C 251.765625 92.097656 250.101562 91.414062 315.8125 91.613281 L 315.8125 58.941406 L 312.347656 58.941406 L 312.347656 88.152344 C 312.347656 88.152344 252.261719 88.382812 251.121094 87.871094 C 250.128906 87.425781 249.769531 86.402344 249.601562 85.316406 C 249.339844 83.550781 249.5 83.519531 249.453125 58.941406 L 240.085938 58.941406 C 230.503906 58.941406 223.980469 66.539062 223.980469 75.214844 L 223.980469 75.304688 C 223.980469 83.980469 230.414062 91.488281 239.996094 91.488281 M 341.355469 55.476562 L 333.761719 55.476562 C 333.929688 52.964844 332.765625 48.277344 337.882812 48.277344 L 340.328125 48.277344 L 340.328125 50.691406 C 337.960938 50.867188 336.597656 50.117188 336.597656 52.007812 L 336.597656 52.808594 L 341.355469 52.808594 Z M 350.132812 91.96875 C 349.210938 91.96875 348.269531 91.839844 347.316406 91.578125 L 348.226562 88.246094 C 349.796875 88.691406 351.800781 88.71875 352.625 87.316406 C 353.589844 85.65625 353.246094 85.070312 353.296875 58.941406 L 356.761719 58.941406 C 356.664062 83.332031 357 84.011719 356.4375 86.839844 C 355.773438 90.148438 353.769531 91.96875 350.132812 91.96875 M 249.453125 55.476562 L 245.984375 55.476562 L 245.984375 52.015625 L 249.453125 52.015625 Z M 325.738281 67.425781 C 327.363281 64.253906 330.777344 62.492188 334.269531 62.453125 L 334.269531 62.449219 L 339.871094 62.449219 L 337.890625 63.433594 L 337.890625 78.984375 C 335.164062 78.902344 333.246094 79.242188 330.71875 78.441406 C 327.269531 77.355469 324.933594 74.699219 324.933594 70.84375 C 324.933594 69.605469 325.203125 68.464844 325.738281 67.425781 M 325.738281 79.699219 C 330.25 82.917969 336.402344 82.382812 336.726562 82.445312 L 337.890625 80.003906 C 337.703125 82.371094 338.542969 85.679688 336.332031 87.335938 C 334.460938 88.734375 331.128906 88.691406 329.074219 88.203125 C 328.222656 88 327.246094 87.652344 326.148438 87.164062 L 325.066406 90.496094 C 327.261719 91.308594 329.363281 91.96875 331.695312 91.96875 C 335.074219 91.96875 337.527344 91.167969 339.0625 89.566406 C 340.589844 87.964844 341.355469 85.808594 341.355469 83.09375 L 341.355469 58.941406 C 337.089844 59.078125 333.855469 58.511719 329.960938 59.851562 C 319.53125 63.441406 319.320312 75.125 325.738281 79.699219 M 242.519531 55.476562 L 239.050781 55.476562 L 239.050781 52.015625 L 242.519531 52.015625 Z M 206.640625 58.90625 L 210.222656 58.90625 L 210.222656 91.421875 L 207.292969 91.421875 L 184.238281 62.171875 L 186.277344 66.914062 L 186.277344 91.421875 L 182.695312 91.421875 L 182.695312 58.90625 L 186.136719 58.90625 L 208.148438 86.878906 L 206.640625 82.886719 Z M 71.460938 91.652344 L 57.464844 58.90625 L 61.554688 58.90625 C 61.765625 59.410156 72.917969 86.394531 74.050781 89.132812 L 73.695312 85.558594 L 84.757812 58.90625 L 88.707031 58.90625 L 74.714844 91.652344 Z M 133.480469 58.90625 L 137.152344 58.90625 L 137.152344 91.417969 L 133.480469 91.417969 Z M 172.871094 75.253906 C 172.871094 82.640625 167.574219 88.585938 160.132812 88.585938 C 152.695312 88.585938 147.300781 82.546875 147.300781 75.164062 L 147.300781 75.070312 C 147.300781 67.683594 152.601562 61.738281 160.039062 61.738281 C 167.480469 61.738281 172.871094 67.777344 172.871094 75.164062 Z M 160.132812 58.347656 C 150.230469 58.347656 143.488281 66.199219 143.488281 75.164062 L 143.488281 75.253906 C 143.488281 84.21875 150.136719 91.976562 160.039062 91.976562 C 169.945312 91.976562 176.6875 84.128906 176.6875 75.164062 L 176.6875 75.070312 C 176.6875 66.105469 170.035156 58.347656 160.132812 58.347656 M 127.417969 82.59375 L 127.417969 82.6875 C 127.417969 88.257812 122.769531 91.882812 116.308594 91.882812 C 111.144531 91.882812 106.914062 90.164062 103.011719 86.679688 L 105.289062 83.988281 C 108.683594 87.050781 111.9375 88.585938 116.449219 88.585938 C 120.816406 88.585938 123.699219 86.265625 123.699219 83.058594 L 123.699219 82.964844 C 123.699219 73.890625 104.3125 79.878906 104.3125 67.40625 L 104.3125 67.3125 C 104.3125 62.203125 108.820312 58.441406 115.007812 58.441406 C 119.746094 58.441406 123.140625 59.789062 126.441406 62.4375 L 124.304688 65.269531 C 116.925781 59.261719 107.984375 61.5625 107.984375 66.988281 L 107.984375 67.082031 C 107.984375 70.144531 109.65625 71.863281 116.820312 73.398438 C 124.074219 74.976562 127.417969 77.625 127.417969 82.59375 M 97.371094 91.421875 L 93.699219 91.421875 L 93.699219 58.90625 L 97.371094 58.90625 Z M 311.136719 95.074219 L 314.605469 95.074219 L 314.605469 98.539062 L 311.136719 98.539062 Z M 304.203125 95.074219 L 307.671875 95.074219 L 307.671875 98.539062 L 304.203125 98.539062 Z M 86.53125 175.175781 L 116.664062 175.175781 L 116.664062 190.179688 L 58.179688 190.179688 L 58.179688 176.417969 C 87.402344 151.59375 98.148438 146.742188 98.148438 135.925781 C 98.148438 129.273438 93.742188 125.664062 87.535156 125.664062 C 81.4375 125.664062 77.261719 129.042969 71.390625 136.261719 L 59.195312 126.453125 C 66.988281 115.851562 74.550781 110.097656 88.664062 110.097656 C 105.035156 110.097656 115.875 119.683594 115.875 134.460938 L 115.875 134.683594 C 115.875 153.210938 101.859375 159.183594 77.828125 178.570312 L 74.472656 181.15625 Z M 347.539062 150.925781 C 347.539062 164.460938 337.828125 175.515625 323.828125 175.515625 C 309.828125 175.515625 299.894531 164.234375 299.894531 150.699219 L 299.894531 150.476562 C 299.894531 136.941406 309.605469 125.886719 323.601562 125.886719 C 337.601562 125.886719 347.539062 137.167969 347.539062 150.699219 Z M 323.828125 109.871094 C 299.441406 109.871094 281.714844 128.257812 281.714844 150.699219 L 281.714844 150.925781 C 281.714844 173.371094 299.214844 191.53125 323.601562 191.53125 C 347.988281 191.53125 365.714844 173.144531 365.714844 150.699219 L 365.714844 150.476562 C 365.714844 128.03125 348.214844 109.871094 323.828125 109.871094 " fill-opacity="1" fill-rule="nonzero"/></g><path fill="#686d6a" d="M 163.90625 104.679688 L 167.910156 108.515625 L 164.066406 112.515625 L 160.066406 108.675781 " fill-opacity="1" fill-rule="nonzero"/><path fill="#686d6a" d="M 173.066406 108.675781 L 177.066406 112.515625 L 180.910156 108.515625 L 176.90625 104.679688 " fill-opacity="1" fill-rule="nonzero"/><path fill="#686d6a" d="M 167.429688 113.714844 L 170.546875 116.703125 L 173.535156 113.589844 L 170.421875 110.601562 " fill-opacity="1" fill-rule="nonzero"/><path fill="#686d6a" d="M 178.855469 115.425781 L 181.972656 118.414062 L 184.960938 115.300781 L 181.84375 112.3125 " fill-opacity="1" fill-rule="nonzero"/><path fill="#686d6a" d="M 162.335938 118.476562 L 165.449219 121.464844 L 168.441406 118.351562 L 165.328125 115.363281 " fill-opacity="1" fill-rule="nonzero"/><path fill="#686d6a" d="M 172.792969 118.839844 L 175.90625 121.828125 L 178.898438 118.714844 L 175.78125 115.726562 " fill-opacity="1" fill-rule="nonzero"/><path fill="#686d6a" d="M 168.699219 122.417969 L 170.894531 124.519531 L 172.996094 122.332031 L 170.804688 120.226562 " fill-opacity="1" fill-rule="nonzero"/><path fill="#686d6a" d="M 176.96875 124.070312 L 179.164062 126.171875 L 181.265625 123.980469 L 179.074219 121.878906 " fill-opacity="1" fill-rule="nonzero"/><path fill="#686d6a" d="M 195.03125 107.410156 L 201.828125 106.164062 L 203.074219 112.957031 L 196.273438 114.207031 Z M 195.03125 107.410156 " fill-opacity="1" fill-rule="nonzero"/><path fill="#686d6a" d="M 186.15625 110.257812 L 191.609375 109.257812 L 192.609375 114.710938 L 187.152344 115.710938 Z M 186.15625 110.257812 " fill-opacity="1" fill-rule="nonzero"/><path fill="#686d6a" d="M 196.699219 117.855469 L 202.15625 116.851562 L 203.15625 122.304688 L 197.699219 123.304688 Z M 196.699219 117.855469 " fill-opacity="1" fill-rule="nonzero"/><path fill="#686d6a" d="M 189.179688 118.652344 L 193.425781 117.875 L 194.203125 122.117188 L 189.953125 122.894531 Z M 189.179688 118.652344 " fill-opacity="1" fill-rule="nonzero"/><path fill="#686d6a" d="M 197.441406 126.714844 L 201.691406 125.9375 L 202.46875 130.179688 L 198.21875 130.960938 Z M 197.441406 126.714844 " fill-opacity="1" fill-rule="nonzero"/><path fill="#686d6a" d="M 182.8125 120.378906 L 187.0625 119.597656 L 187.839844 123.84375 L 183.589844 124.621094 Z M 182.8125 120.378906 " fill-opacity="1" fill-rule="nonzero"/><path fill="#686d6a" d="M 190.523438 125.9375 L 194.769531 125.160156 L 195.546875 129.402344 L 191.300781 130.183594 Z M 190.523438 125.9375 " fill-opacity="1" fill-rule="nonzero"/><path fill="#686d6a" d="M 185.109375 126.449219 L 188.097656 125.902344 L 188.644531 128.886719 L 185.65625 129.4375 Z M 185.109375 126.449219 " fill-opacity="1" fill-rule="nonzero"/><path fill="#686d6a" d="M 190.851562 132.625 L 193.839844 132.078125 L 194.382812 135.0625 L 191.394531 135.605469 Z M 190.851562 132.625 " fill-opacity="1" fill-rule="nonzero"/><path fill="#686d6a" d="M 215.253906 129.667969 L 212.28125 135.90625 L 218.527344 138.871094 L 221.496094 132.636719 " fill-opacity="1" fill-rule="nonzero"/><path fill="#686d6a" d="M 206.390625 126.785156 L 204.007812 131.789062 L 209.015625 134.167969 L 211.398438 129.164062 " fill-opacity="1" fill-rule="nonzero"/><path fill="#686d6a" d="M 210.488281 139.109375 L 208.105469 144.117188 L 213.117188 146.496094 L 215.5 141.492188 " fill-opacity="1" fill-rule="nonzero"/><path fill="#686d6a" d="M 203.925781 135.359375 L 202.070312 139.253906 L 205.972656 141.109375 L 207.828125 137.210938 " fill-opacity="1" fill-rule="nonzero"/><path fill="#686d6a" d="M 205.90625 146.730469 L 204.050781 150.625 L 207.949219 152.480469 L 209.808594 148.582031 " fill-opacity="1" fill-rule="nonzero"/><path fill="#686d6a" d="M 197.753906 133.039062 L 195.894531 136.933594 L 199.796875 138.789062 L 201.652344 134.890625 " fill-opacity="1" fill-rule="nonzero"/><path fill="#686d6a" d="M 200.753906 142.054688 L 198.894531 145.949219 L 202.796875 147.804688 L 204.652344 143.90625 " fill-opacity="1" fill-rule="nonzero"/><path fill="#686d6a" d="M 196.0625 139.304688 L 194.753906 142.046875 L 197.496094 143.351562 L 198.804688 140.609375 " fill-opacity="1" fill-rule="nonzero"/><path fill="#686d6a" d="M 195.792969 150.394531 L 197.09375 147.65625 L 199.835938 148.960938 L 198.535156 151.703125 Z M 195.792969 150.394531 " fill-opacity="1" fill-rule="nonzero"/><path fill="#686d6a" d="M 218.617188 159.535156 L 212.554688 162.855469 L 215.882812 168.914062 L 221.945312 165.589844 " fill-opacity="1" fill-rule="nonzero"/><path fill="#686d6a" d="M 213.121094 152.019531 L 208.257812 154.683594 L 210.925781 159.542969 L 215.789062 156.875 " fill-opacity="1" fill-rule="nonzero"/><path fill="#686d6a" d="M 209.226562 164.410156 L 204.359375 167.074219 L 207.03125 171.933594 L 211.890625 169.269531 " fill-opacity="1" fill-rule="nonzero"/><path fill="#686d6a" d="M 206.101562 157.53125 L 202.3125 159.605469 L 204.390625 163.386719 L 208.179688 161.3125 " fill-opacity="1" fill-rule="nonzero"/><path fill="#686d6a" d="M 201.046875 167.910156 L 197.257812 169.984375 L 199.335938 173.765625 L 203.125 171.691406 " fill-opacity="1" fill-rule="nonzero"/><path fill="#686d6a" d="M 202.453125 152.039062 L 198.664062 154.113281 L 200.742188 157.898438 L 204.53125 155.824219 " fill-opacity="1" fill-rule="nonzero"/><path fill="#686d6a" d="M 199.605469 161.105469 L 195.816406 163.179688 L 197.894531 166.960938 L 201.679688 164.886719 " fill-opacity="1" fill-rule="nonzero"/><path fill="#686d6a" d="M 197.40625 156.132812 L 194.742188 157.59375 L 196.207031 160.253906 L 198.867188 158.796875 " fill-opacity="1" fill-rule="nonzero"/><path fill="#686d6a" d="M 193.355469 163.519531 L 190.691406 164.980469 L 192.152344 167.640625 L 194.816406 166.183594 " fill-opacity="1" fill-rule="nonzero"/><path fill="#686d6a" d="M 196.136719 191.707031 L 196.984375 184.851562 L 203.84375 185.699219 L 203 192.558594 Z M 196.136719 191.707031 " fill-opacity="1" fill-rule="nonzero"/><path fill="#686d6a" d="M 197.617188 181.238281 L 198.296875 175.738281 L 203.800781 176.421875 L 203.121094 181.917969 Z M 197.617188 181.238281 " fill-opacity="1" fill-rule="nonzero"/><path fill="#686d6a" d="M 187.199219 189.011719 L 187.878906 183.511719 L 193.382812 184.191406 L 192.703125 189.691406 Z M 187.199219 189.011719 " fill-opacity="1" fill-rule="nonzero"/><path fill="#686d6a" d="M 190.066406 180.550781 L 190.59375 176.269531 L 194.882812 176.800781 L 194.351562 181.082031 Z M 190.066406 180.550781 " fill-opacity="1" fill-rule="nonzero"/><path fill="#686d6a" d="M 179.886719 186.007812 L 180.414062 181.726562 L 184.699219 182.257812 L 184.171875 186.539062 Z M 179.886719 186.007812 " fill-opacity="1" fill-rule="nonzero"/><path fill="#686d6a" d="M 190.320312 173.953125 L 190.847656 169.671875 L 195.136719 170.203125 L 194.605469 174.488281 Z M 190.320312 173.953125 " fill-opacity="1" fill-rule="nonzero"/><path fill="#686d6a" d="M 182.703125 179.636719 L 183.230469 175.355469 L 187.519531 175.886719 L 186.988281 180.167969 Z M 182.703125 179.636719 " fill-opacity="1" fill-rule="nonzero"/><path fill="#686d6a" d="M 185.265625 173.222656 L 185.636719 170.210938 L 188.648438 170.582031 L 188.277344 173.59375 Z M 185.265625 173.222656 " fill-opacity="1" fill-rule="nonzero"/><path fill="#686d6a" d="M 177.644531 176.835938 L 178.015625 173.824219 L 181.03125 174.199219 L 180.660156 177.210938 Z M 177.644531 176.835938 " fill-opacity="1" fill-rule="nonzero"/><path fill="#686d6a" d="M 176.542969 198.332031 L 171.472656 193.632812 L 166.769531 198.695312 L 171.835938 203.394531 " fill-opacity="1" fill-rule="nonzero"/><path fill="#686d6a" d="M 175.609375 101.582031 L 170.539062 96.878906 L 165.835938 101.941406 L 170.902344 106.640625 " fill-opacity="1" fill-rule="nonzero"/><path fill="#686d6a" d="M 181.949219 190.75 L 177.882812 186.976562 L 174.109375 191.039062 L 178.175781 194.808594 " fill-opacity="1" fill-rule="nonzero"/><path fill="#686d6a" d="M 168.949219 190.964844 L 164.882812 187.195312 L 161.109375 191.253906 L 165.175781 195.023438 " fill-opacity="1" fill-rule="nonzero"/><path fill="#686d6a" d="M 174.5 185.832031 L 171.332031 182.894531 L 168.394531 186.058594 L 171.558594 188.992188 " fill-opacity="1" fill-rule="nonzero"/><path fill="#686d6a" d="M 163.046875 184.3125 L 159.882812 181.378906 L 156.945312 184.539062 L 160.109375 187.476562 " fill-opacity="1" fill-rule="nonzero"/><path fill="#686d6a" d="M 178.5625 180.644531 L 175.398438 177.707031 L 172.460938 180.867188 L 175.625 183.804688 " fill-opacity="1" fill-rule="nonzero"/><path fill="#686d6a" d="M 169.054688 180.800781 L 165.890625 177.863281 L 162.953125 181.027344 L 166.117188 183.960938 " fill-opacity="1" fill-rule="nonzero"/><path fill="#686d6a" d="M 173.082031 177.152344 L 170.855469 175.085938 L 168.792969 177.3125 L 171.015625 179.375 " fill-opacity="1" fill-rule="nonzero"/><path fill="#686d6a" d="M 164.789062 175.636719 L 162.5625 173.574219 L 160.496094 175.796875 L 162.722656 177.863281 " fill-opacity="1" fill-rule="nonzero"/><path fill="#686d6a" d="M 138.871094 187.179688 L 145.652344 185.816406 L 147.007812 192.589844 L 140.226562 193.949219 Z M 138.871094 187.179688 " fill-opacity="1" fill-rule="nonzero"/><path fill="#686d6a" d="M 149.308594 185.253906 L 154.746094 184.164062 L 155.832031 189.597656 L 150.394531 190.6875 Z M 149.308594 185.253906 " fill-opacity="1" fill-rule="nonzero"/><path fill="#686d6a" d="M 138.644531 177.828125 L 144.082031 176.738281 L 145.171875 182.171875 L 139.734375 183.261719 Z M 138.644531 177.828125 " fill-opacity="1" fill-rule="nonzero"/><path fill="#686d6a" d="M 147.589844 177.875 L 151.824219 177.027344 L 152.671875 181.257812 L 148.4375 182.105469 Z M 147.589844 177.875 " fill-opacity="1" fill-rule="nonzero"/><path fill="#686d6a" d="M 153.925781 176.042969 L 158.160156 175.191406 L 159.007812 179.425781 L 154.773438 180.273438 Z M 153.925781 176.042969 " fill-opacity="1" fill-rule="nonzero"/><path fill="#686d6a" d="M 146.121094 170.613281 L 150.355469 169.761719 L 151.203125 173.992188 L 146.96875 174.84375 Z M 146.121094 170.613281 " fill-opacity="1" fill-rule="nonzero"/><path fill="#686d6a" d="M 153.03125 171.019531 L 156.011719 170.421875 L 156.605469 173.398438 L 153.628906 173.996094 Z M 153.03125 171.019531 " fill-opacity="1" fill-rule="nonzero"/><path fill="#686d6a" d="M 147.195312 164.941406 L 150.171875 164.34375 L 150.769531 167.320312 L 147.789062 167.917969 Z M 147.195312 164.941406 " fill-opacity="1" fill-rule="nonzero"/><path fill="#686d6a" d="M 126.417969 170.675781 L 129.285156 164.390625 L 122.992188 161.527344 L 120.125 167.808594 " fill-opacity="1" fill-rule="nonzero"/><path fill="#686d6a" d="M 135.328125 173.410156 L 137.625 168.367188 L 132.578125 166.070312 L 130.277344 171.113281 " fill-opacity="1" fill-rule="nonzero"/><path fill="#686d6a" d="M 131.023438 161.152344 L 133.324219 156.109375 L 128.273438 153.8125 L 125.976562 158.855469 " fill-opacity="1" fill-rule="nonzero"/><path fill="#686d6a" d="M 133.714844 163.015625 L 135.503906 159.085938 L 139.433594 160.878906 L 137.644531 164.808594 Z M 133.714844 163.015625 " fill-opacity="1" fill-rule="nonzero"/><path fill="#686d6a" d="M 142.910156 174.613281 L 144.699219 170.6875 L 140.769531 168.902344 L 138.976562 172.828125 " fill-opacity="1" fill-rule="nonzero"/><path fill="#686d6a" d="M 131.558594 151.671875 L 133.347656 147.746094 L 137.273438 149.539062 L 135.484375 153.464844 Z M 131.558594 151.671875 " fill-opacity="1" fill-rule="nonzero"/><path fill="#686d6a" d="M 139.9375 165.226562 L 141.726562 161.296875 L 145.652344 163.09375 L 143.863281 167.019531 Z M 139.9375 165.226562 " fill-opacity="1" fill-rule="nonzero"/><path fill="#686d6a" d="M 136.785156 156.269531 L 138.574219 152.34375 L 142.503906 154.136719 L 140.710938 158.0625 Z M 136.785156 156.269531 " fill-opacity="1" fill-rule="nonzero"/><path fill="#686d6a" d="M 145.449219 160.71875 L 146.707031 157.957031 L 143.941406 156.699219 L 142.683594 159.460938 " fill-opacity="1" fill-rule="nonzero"/><path fill="#686d6a" d="M 144.269531 152.378906 L 145.53125 149.613281 L 142.765625 148.355469 L 141.503906 151.121094 " fill-opacity="1" fill-rule="nonzero"/><path fill="#686d6a" d="M 122.558594 140.863281 L 128.566406 137.445312 L 125.136719 131.445312 L 119.132812 134.863281 " fill-opacity="1" fill-rule="nonzero"/><path fill="#686d6a" d="M 128.179688 148.292969 L 133 145.546875 L 130.25 140.734375 L 125.433594 143.480469 " fill-opacity="1" fill-rule="nonzero"/><path fill="#686d6a" d="M 131.871094 135.835938 L 136.691406 133.09375 L 133.941406 128.277344 L 129.121094 131.023438 " fill-opacity="1" fill-rule="nonzero"/><path fill="#686d6a" d="M 135.109375 142.664062 L 138.859375 140.527344 L 136.722656 136.777344 L 132.96875 138.914062 " fill-opacity="1" fill-rule="nonzero"/><path fill="#686d6a" d="M 139.992188 132.203125 L 143.742188 130.066406 L 141.601562 126.320312 L 137.851562 128.457031 " fill-opacity="1" fill-rule="nonzero"/><path fill="#686d6a" d="M 138.847656 148.09375 L 142.597656 145.957031 L 140.460938 142.207031 L 136.707031 144.34375 " fill-opacity="1" fill-rule="nonzero"/><path fill="#686d6a" d="M 141.542969 138.984375 L 145.296875 136.847656 L 143.15625 133.097656 L 139.40625 135.238281 " fill-opacity="1" fill-rule="nonzero"/><path fill="#686d6a" d="M 143.824219 143.914062 L 146.464844 142.414062 L 144.957031 139.777344 L 142.316406 141.277344 " fill-opacity="1" fill-rule="nonzero"/><path fill="#686d6a" d="M 147.753906 136.464844 L 150.394531 134.960938 L 148.886719 132.324219 L 146.246094 133.828125 " fill-opacity="1" fill-rule="nonzero"/><path fill="#686d6a" d="M 136.890625 114.441406 L 137.625 107.574219 L 144.496094 108.308594 L 143.765625 115.175781 Z M 136.890625 114.441406 " fill-opacity="1" fill-rule="nonzero"/><path fill="#686d6a" d="M 137.097656 123.746094 L 137.683594 118.238281 L 143.203125 118.828125 L 142.613281 124.335938 Z M 137.097656 123.746094 " fill-opacity="1" fill-rule="nonzero"/><path fill="#686d6a" d="M 147.382812 115.800781 L 147.972656 110.292969 L 153.488281 110.882812 L 152.898438 116.394531 Z M 147.382812 115.800781 " fill-opacity="1" fill-rule="nonzero"/><path fill="#686d6a" d="M 146.015625 123.238281 L 146.472656 118.945312 L 150.769531 119.40625 L 150.308594 123.699219 Z M 146.015625 123.238281 " fill-opacity="1" fill-rule="nonzero"/><path fill="#686d6a" d="M 156.089844 117.59375 L 156.550781 113.300781 L 160.84375 113.761719 L 160.386719 118.050781 Z M 156.089844 117.59375 " fill-opacity="1" fill-rule="nonzero"/><path fill="#686d6a" d="M 145.863281 129.820312 L 146.320312 125.53125 L 150.613281 125.992188 L 150.15625 130.28125 Z M 145.863281 129.820312 " fill-opacity="1" fill-rule="nonzero"/><path fill="#686d6a" d="M 153.386719 124.007812 L 153.847656 119.71875 L 158.140625 120.179688 L 157.683594 124.46875 Z M 153.386719 124.007812 " fill-opacity="1" fill-rule="nonzero"/><path fill="#686d6a" d="M 152.34375 129.34375 L 152.667969 126.324219 L 155.6875 126.648438 L 155.363281 129.664062 Z M 152.34375 129.34375 " fill-opacity="1" fill-rule="nonzero"/><path fill="#686d6a" d="M 159.902344 125.59375 L 160.222656 122.574219 L 163.246094 122.898438 L 162.925781 125.914062 Z M 159.902344 125.59375 " fill-opacity="1" fill-rule="nonzero"/><path fill="#686d6a" d="M 192.523438 154.378906 C 188.90625 152.292969 183.871094 151.6875 178.652344 153.597656 C 176.371094 154.460938 174.085938 155.96875 172.160156 157.445312 C 170.949219 150.082031 171.539062 143.246094 171.820312 139.890625 C 171.824219 139.871094 171.84375 139.863281 171.863281 139.875 C 174.46875 141.511719 173.738281 146.097656 173.191406 147.410156 C 173.179688 147.433594 173.21875 147.453125 173.238281 147.429688 C 176.484375 143.59375 174.898438 139.355469 174.230469 138.28125 C 174.109375 138.089844 174.84375 138.675781 175.449219 139.449219 C 177.71875 142.34375 176.667969 145.589844 176.921875 145.515625 C 176.929688 145.511719 176.9375 145.515625 176.9375 145.507812 C 178.449219 142.542969 177.964844 138.789062 174.859375 136.074219 C 174.71875 135.953125 175.273438 136.136719 175.449219 136.199219 C 178.09375 137.117188 179.472656 139.84375 179.453125 142.277344 C 179.453125 142.808594 181.242188 137.707031 176.921875 135.113281 C 176.113281 134.628906 175.285156 134.363281 174.742188 134.296875 C 174.320312 134.253906 177.054688 133.839844 178.976562 135.144531 C 180.132812 135.921875 180.433594 136.867188 180.40625 136.601562 C 180.070312 133.183594 176.046875 131.835938 173.605469 132.859375 C 173.347656 132.988281 174.566406 131.183594 176.921875 131.324219 C 177.375 131.347656 177.796875 131.445312 178.128906 131.605469 C 178.152344 131.617188 178.175781 131.585938 178.160156 131.566406 C 176.378906 129.53125 173.453125 129.488281 171.898438 131.84375 C 171.890625 131.859375 171.867188 131.859375 171.855469 131.84375 C 171.265625 130.789062 170.773438 129.4375 170.5625 128.160156 C 170.511719 127.835938 170.402344 129.738281 169.222656 131.84375 C 169.210938 131.859375 169.191406 131.859375 169.179688 131.84375 C 167.621094 129.484375 164.699219 129.53125 162.921875 131.566406 C 162.902344 131.585938 162.921875 131.617188 162.949219 131.605469 C 164.136719 131.042969 166.378906 131.210938 167.5 132.820312 C 167.515625 132.84375 167.492188 132.871094 167.46875 132.859375 C 164.957031 131.804688 161.007812 133.238281 160.671875 136.601562 C 160.671875 136.628906 160.707031 136.644531 160.722656 136.621094 C 160.835938 136.410156 161.109375 135.960938 161.628906 135.507812 C 163.636719 133.734375 166.800781 134.25 166.335938 134.296875 C 165.101562 134.449219 162.566406 135.550781 161.628906 138.066406 C 160.863281 140.125 161.601562 142.832031 161.628906 142.160156 C 161.652344 139.875 162.960938 136.808594 166.195312 136.03125 C 166.21875 136.023438 166.238281 136.058594 166.21875 136.074219 C 161.195312 140.496094 164.234375 145.921875 164.1875 145.496094 C 164.03125 143.742188 163.902344 140.613281 166.804688 138.25 C 166.828125 138.234375 166.863281 138.257812 166.847656 138.28125 C 166.179688 139.355469 164.59375 143.59375 167.839844 147.429688 C 167.859375 147.453125 167.898438 147.433594 167.886719 147.410156 C 167.339844 146.097656 166.613281 141.511719 169.214844 139.875 C 169.230469 139.863281 169.253906 139.871094 169.253906 139.890625 C 169.539062 143.246094 170.132812 150.082031 168.917969 157.445312 C 164.789062 154.289062 160.730469 152.21875 155.496094 152.449219 C 152.863281 152.5625 150.367188 153.328125 148.550781 154.378906 C 148.488281 154.417969 148.535156 154.511719 148.605469 154.488281 C 156.214844 152.054688 162.800781 155.007812 168.925781 160.109375 C 165.832031 162.808594 163.027344 165.628906 161.394531 166.484375 C 161.015625 165.960938 160.355469 165.660156 159.632812 165.820312 C 158.269531 166.117188 157.945312 167.824219 158.683594 168.558594 C 161.359375 171.226562 165.539062 165.929688 170.539062 161.503906 C 175.351562 165.757812 179.722656 171.226562 182.394531 168.558594 C 182.605469 168.34375 182.851562 167.640625 182.726562 167.085938 C 182.40625 165.691406 180.554688 165.289062 179.683594 166.484375 C 178.113281 165.691406 175.359375 162.90625 172.152344 160.109375 C 178.320312 154.964844 184.832031 152.089844 192.472656 154.488281 C 192.542969 154.511719 192.589844 154.417969 192.523438 154.378906 " fill-opacity="1" fill-rule="nonzero"/><g clip-path="url(#id2)"><path fill="#686d6a" d="M 168.171875 227.261719 L 170.15625 227.261719 L 170.15625 209.480469 L 168.171875 209.480469 Z M 116.191406 225.28125 L 113.09375 217.675781 C 116.300781 214.957031 120.277344 215.457031 122.835938 217.675781 L 119.738281 225.28125 Z M 105.253906 225.28125 C 103.695312 225.234375 102.597656 225.429688 101.152344 224.972656 C 95.789062 223.277344 97.246094 215.816406 103.246094 215.816406 L 105.253906 215.816406 Z M 160.410156 225.28125 C 157.214844 225.183594 154.335938 225.84375 152.871094 223.300781 C 153.160156 222.027344 153 220.886719 153.046875 215.050781 L 151.0625 215.050781 L 151.0625 221.761719 C 151.0625 226.691406 145.121094 226.371094 143.71875 223.410156 C 143.15625 222.222656 143.5 221.722656 143.398438 215.050781 L 141.414062 215.050781 L 141.414062 221.914062 C 141.414062 224.152344 140.011719 225.28125 138.066406 225.28125 L 134.222656 225.28125 L 134.222656 215.050781 L 132.238281 215.050781 L 132.238281 225.28125 L 121.820312 225.28125 L 125.292969 216.980469 C 123.324219 215.257812 120.582031 213.636719 117.953125 213.636719 C 115.28125 213.636719 112.59375 215.1875 110.613281 216.980469 L 114.109375 225.28125 L 107.238281 225.28125 L 107.238281 213.8125 L 104.066406 213.8125 C 99.578125 213.8125 95.855469 216.390625 95.855469 220.625 C 95.855469 228.152344 105.085938 227.226562 105.253906 227.261719 C 105.222656 227.507812 105.503906 229.207031 104.363281 230.0625 C 103.296875 230.863281 101.394531 230.839844 100.207031 230.558594 C 99.71875 230.441406 99.164062 230.246094 98.535156 229.964844 L 97.914062 231.871094 C 99.171875 232.335938 100.375 232.714844 101.707031 232.714844 C 105.488281 232.714844 107.238281 230.828125 107.238281 227.632812 L 107.238281 227.261719 C 139.617188 227.058594 138.660156 227.730469 140.632812 226.644531 C 141.382812 226.230469 141.992188 225.679688 142.453125 224.984375 C 142.933594 225.777344 143.585938 226.398438 144.414062 226.84375 C 146.148438 227.773438 148.796875 227.6875 150.402344 226.890625 C 151.238281 226.480469 151.878906 225.84375 152.324219 224.984375 C 153.089844 226.292969 154.28125 227.132812 156.667969 227.238281 L 156.667969 227.261719 L 162.394531 227.261719 L 162.394531 209.480469 L 160.410156 209.480469 Z M 338.421875 224.402344 C 336.667969 228.507812 330.625 228.625 328.875 224.339844 C 328.363281 223.082031 328.363281 221.589844 328.875 220.3125 C 330.992188 215.0625 338.832031 216.570312 338.832031 222.332031 C 338.832031 223.074219 338.695312 223.765625 338.421875 224.402344 M 319.179688 224.402344 C 317.660156 227.929688 313.089844 228.453125 310.695312 225.988281 C 308.734375 223.957031 308.792969 220.648438 310.6875 218.65625 C 312.230469 217.015625 314.605469 216.75 316.425781 217.5 C 319.292969 218.699219 320.25 221.914062 319.179688 224.402344 M 270.929688 225.28125 C 269.414062 225.234375 268.3125 225.433594 266.875 224.960938 C 261.652344 223.242188 262.898438 215.792969 268.96875 215.792969 L 270.929688 215.792969 Z M 347.015625 225.28125 L 340.199219 225.28125 C 342.324219 220.605469 339.019531 215.125 333.574219 215.125 C 328.5625 215.125 325.054688 220.265625 327.101562 225.28125 L 320.953125 225.28125 C 323.027344 220.742188 319.882812 215.125 314.332031 215.125 C 309.3125 215.125 305.808594 220.269531 307.859375 225.28125 L 301.558594 225.28125 L 301.558594 209.480469 L 299.574219 209.480469 L 299.574219 225.28125 L 293.25 225.28125 C 293.144531 223.246094 293.714844 220.234375 292.011719 218.332031 C 290.855469 217.027344 289.570312 216.621094 287.820312 216.621094 L 279.039062 216.621094 L 282.773438 209.480469 L 280.617188 209.480469 L 276.808594 216.597656 C 276.929688 217.386719 277.171875 218.003906 277.703125 218.605469 C 287.625 218.6875 288.269531 218.394531 289.445312 218.890625 C 290.363281 219.269531 290.925781 219.964844 291.117188 220.808594 C 291.355469 221.828125 291.234375 222.59375 291.269531 225.28125 L 272.914062 225.28125 L 272.914062 213.8125 L 269.789062 213.8125 C 264.53125 213.8125 261.605469 216.941406 261.605469 220.546875 C 261.605469 225.070312 265.238281 227.261719 269.789062 227.261719 L 309.148438 227.261719 C 312.066406 230.410156 316.980469 230.144531 319.664062 227.261719 L 328.390625 227.261719 C 331.300781 230.402344 336.210938 230.152344 338.910156 227.261719 L 349 227.261719 L 349 209.480469 L 347.015625 209.480469 Z M 354.777344 227.261719 L 356.761719 227.261719 L 356.761719 209.480469 L 354.777344 209.480469 Z M 208.597656 231.625 L 210.636719 231.625 L 210.636719 229.589844 L 208.597656 229.589844 Z M 227.996094 225.28125 L 224.894531 217.675781 C 228.078125 214.980469 232.050781 215.433594 234.640625 217.675781 L 231.542969 225.28125 Z M 242.054688 225.28125 L 233.625 225.28125 L 237.097656 216.980469 C 235.121094 215.25 232.371094 213.636719 229.757812 213.636719 C 227.078125 213.636719 224.394531 215.195312 222.414062 216.980469 L 225.910156 225.28125 L 218.523438 225.28125 L 218.523438 213.8125 L 216.539062 213.8125 L 216.539062 227.683594 C 216.539062 229.4375 216.410156 230.730469 214.652344 230.730469 C 214.246094 230.730469 214.027344 230.695312 213.636719 230.582031 L 213.117188 232.492188 C 214.773438 232.945312 216.730469 232.792969 217.703125 231.363281 C 218.582031 230.066406 218.480469 228.28125 218.523438 227.261719 L 244.042969 227.261719 L 244.042969 209.480469 L 242.054688 209.480469 Z M 91.441406 215.546875 C 89.234375 213.136719 86.683594 214.007812 85.8125 213.8125 L 85.8125 215.792969 C 87.257812 215.847656 87.929688 215.632812 88.910156 216.101562 C 89.738281 216.5 90.320312 217.140625 90.5625 218.046875 C 90.828125 219.085938 90.679688 219.898438 90.722656 225.28125 L 81.421875 225.28125 L 81.421875 227.261719 L 92.707031 227.261719 C 92.625 219.753906 92.910156 218.957031 92.394531 217.277344 C 92.1875 216.601562 91.871094 216.023438 91.441406 215.546875 M 201.347656 231.648438 L 203.382812 231.648438 L 203.382812 229.613281 L 201.347656 229.613281 Z M 189.28125 225.28125 C 187.769531 225.234375 186.667969 225.433594 185.226562 224.960938 C 179.996094 223.242188 181.257812 215.792969 187.324219 215.792969 L 189.28125 215.792969 Z M 210.609375 213.8125 L 208.628906 213.8125 L 208.628906 225.28125 L 201.136719 225.28125 L 201.136719 213.8125 L 199.152344 213.8125 L 199.152344 225.28125 L 191.265625 225.28125 L 191.265625 213.8125 C 188.773438 213.890625 185.050781 213.304688 182.191406 215.730469 C 178.136719 219.167969 179.179688 227.261719 188.144531 227.261719 L 210.609375 227.261719 Z M 197.871094 231.648438 L 199.910156 231.648438 L 199.910156 229.613281 L 197.871094 229.613281 Z M 65.289062 209.480469 L 63.25 209.480469 L 63.25 211.515625 L 65.289062 211.515625 Z M 269.429688 209.480469 L 267.390625 209.480469 L 267.390625 211.515625 L 269.429688 211.515625 Z M 191.257812 209.480469 L 189.21875 209.480469 L 189.21875 211.515625 L 191.257812 211.515625 Z M 76.992188 231.648438 L 79.03125 231.648438 L 79.03125 229.613281 L 76.992188 229.613281 Z M 187.78125 209.480469 L 185.746094 209.480469 L 185.746094 211.515625 L 187.78125 211.515625 Z M 68.765625 209.480469 L 66.726562 209.480469 L 66.726562 211.515625 L 68.765625 211.515625 Z M 73.515625 231.648438 L 75.554688 231.648438 L 75.554688 229.613281 L 73.515625 229.613281 Z M 66.789062 225.28125 C 65.277344 225.234375 64.171875 225.433594 62.734375 224.960938 C 57.511719 223.246094 58.746094 215.792969 64.832031 215.792969 L 66.789062 215.792969 Z M 78.644531 213.8125 L 76.660156 213.8125 L 76.660156 225.28125 L 68.773438 225.28125 L 68.773438 213.8125 C 66.394531 213.882812 64.503906 213.574219 62.273438 214.316406 C 60.40625 214.945312 58.878906 216.101562 58.046875 217.875 C 57.179688 219.71875 57.335938 222.066406 58.136719 223.570312 C 59.570312 226.285156 62.578125 227.261719 65.648438 227.261719 L 78.644531 227.261719 Z M 249.820312 227.261719 L 251.804688 227.261719 L 251.804688 209.480469 L 249.820312 209.480469 Z M 272.902344 209.480469 L 270.867188 209.480469 L 270.867188 211.515625 L 272.902344 211.515625 Z M 272.902344 209.480469 " fill-opacity="1" fill-rule="nonzero"/></g><g clip-path="url(#id3)"><path fill="#686d6a" d="M 59.40625 240.285156 L 61.898438 240.285156 L 61.898438 247.40625 L 68.636719 240.285156 L 71.695312 240.285156 L 65.804688 246.375 L 71.957031 254.441406 L 68.941406 254.441406 L 64.105469 248.074219 L 61.898438 250.339844 L 61.898438 254.441406 L 59.40625 254.441406 " fill-opacity="1" fill-rule="nonzero"/></g><g clip-path="url(#id4)"><path fill="#686d6a" d="M 74.230469 240.285156 L 76.71875 240.285156 L 76.71875 254.441406 L 74.230469 254.441406 Z M 74.230469 240.285156 " fill-opacity="1" fill-rule="nonzero"/></g><g clip-path="url(#id5)"><path fill="#686d6a" d="M 80.554688 240.285156 L 82.863281 240.285156 L 90.453125 250.074219 L 90.453125 240.285156 L 92.902344 240.285156 L 92.902344 254.441406 L 90.816406 254.441406 L 83.003906 244.371094 L 83.003906 254.441406 L 80.554688 254.441406 " fill-opacity="1" fill-rule="nonzero"/></g><g clip-path="url(#id6)"><path fill="#686d6a" d="M 95.984375 247.40625 L 95.984375 247.363281 C 95.984375 243.402344 99.023438 240.042969 103.292969 240.042969 C 105.761719 240.042969 107.28125 240.730469 108.738281 241.964844 L 107.160156 243.847656 C 103.324219 240.582031 98.597656 242.933594 98.597656 247.324219 L 98.597656 247.363281 C 98.597656 250.277344 100.519531 252.421875 103.414062 252.421875 C 104.75 252.421875 105.964844 251.996094 106.835938 251.347656 L 106.835938 248.699219 L 103.210938 248.699219 L 103.210938 246.535156 L 109.246094 246.535156 L 109.246094 252.480469 C 104.179688 256.8125 95.984375 254.585938 95.984375 247.40625 " fill-opacity="1" fill-rule="nonzero"/></g><g clip-path="url(#id7)"><path fill="#686d6a" d="M 117.96875 252.175781 C 124.578125 252.175781 124.5 242.550781 117.96875 242.550781 L 115.175781 242.550781 L 115.175781 252.175781 Z M 112.683594 240.285156 L 117.96875 240.285156 C 128.078125 240.285156 127.941406 254.441406 117.96875 254.441406 L 112.683594 254.441406 Z M 112.683594 240.285156 " fill-opacity="1" fill-rule="nonzero"/></g><g clip-path="url(#id8)"><path fill="#686d6a" d="M 140.039062 247.40625 L 140.039062 247.363281 C 140.039062 244.613281 138.035156 242.332031 135.21875 242.332031 C 132.40625 242.332031 130.445312 244.574219 130.445312 247.324219 L 130.445312 247.363281 C 130.445312 250.117188 132.449219 252.402344 135.261719 252.402344 C 138.074219 252.402344 140.039062 250.15625 140.039062 247.40625 M 127.832031 247.40625 L 127.832031 247.363281 C 127.832031 243.382812 130.910156 240.042969 135.261719 240.042969 C 139.613281 240.042969 142.652344 243.339844 142.652344 247.324219 L 142.652344 247.363281 C 142.652344 251.347656 139.574219 254.683594 135.21875 254.683594 C 130.867188 254.683594 127.832031 251.390625 127.832031 247.40625 " fill-opacity="1" fill-rule="nonzero"/></g><g clip-path="url(#id9)"><path fill="#686d6a" d="M 145.742188 240.285156 L 148.394531 240.285156 L 152.707031 246.980469 L 157.019531 240.285156 L 159.671875 240.285156 L 159.671875 254.441406 L 157.179688 254.441406 L 157.179688 244.289062 L 152.707031 250.964844 L 152.628906 250.964844 L 148.195312 244.332031 L 148.195312 254.441406 L 145.742188 254.441406 " fill-opacity="1" fill-rule="nonzero"/></g><g clip-path="url(#id10)"><path fill="#686d6a" d="M 180.976562 247.40625 L 180.976562 247.363281 C 180.976562 244.613281 178.972656 242.332031 176.15625 242.332031 C 173.34375 242.332031 171.378906 244.574219 171.378906 247.324219 L 171.378906 247.363281 C 171.378906 250.117188 173.382812 252.402344 176.195312 252.402344 C 179.011719 252.402344 180.976562 250.15625 180.976562 247.40625 M 168.769531 247.40625 L 168.769531 247.363281 C 168.769531 243.382812 171.84375 240.042969 176.195312 240.042969 C 180.550781 240.042969 183.585938 243.339844 183.585938 247.324219 L 183.585938 247.363281 C 183.585938 251.347656 180.507812 254.683594 176.15625 254.683594 C 171.804688 254.683594 168.769531 251.390625 168.769531 247.40625 " fill-opacity="1" fill-rule="nonzero"/></g><g clip-path="url(#id11)"><path fill="#686d6a" d="M 186.679688 240.285156 L 197.226562 240.285156 L 197.226562 242.550781 L 189.171875 242.550781 L 189.171875 246.414062 L 196.316406 246.414062 L 196.316406 248.679688 L 189.171875 248.679688 L 189.171875 254.441406 L 186.679688 254.441406 " fill-opacity="1" fill-rule="nonzero"/></g><g clip-path="url(#id12)"><path fill="#686d6a" d="M 205.085938 252.382812 L 206.585938 250.601562 C 207.941406 251.773438 209.296875 252.441406 211.058594 252.441406 C 212.597656 252.441406 213.570312 251.734375 213.570312 250.660156 L 213.570312 250.621094 C 213.570312 247.460938 205.652344 249.617188 205.652344 244.230469 L 205.652344 244.191406 C 205.652344 239.84375 211.726562 238.738281 215.632812 241.863281 L 214.296875 243.746094 C 211.039062 241.316406 208.144531 242.273438 208.144531 243.96875 L 208.144531 244.007812 C 208.144531 247.128906 216.058594 245.15625 216.058594 250.378906 L 216.058594 250.417969 C 216.058594 255.382812 209.027344 255.894531 205.085938 252.382812 " fill-opacity="1" fill-rule="nonzero"/></g><g clip-path="url(#id13)"><path fill="#686d6a" d="M 227.253906 248.820312 L 224.804688 243.160156 L 222.375 248.820312 Z M 223.691406 240.1875 L 225.996094 240.1875 L 232.230469 254.441406 L 229.601562 254.441406 L 228.164062 251.023438 L 221.460938 251.023438 L 220.007812 254.441406 L 217.453125 254.441406 Z M 223.691406 240.1875 " fill-opacity="1" fill-rule="nonzero"/></g><g clip-path="url(#id14)"><path fill="#686d6a" d="M 233.695312 248.4375 L 233.695312 240.285156 L 236.1875 240.285156 L 236.1875 248.335938 C 236.1875 250.964844 237.542969 252.382812 239.769531 252.382812 C 241.976562 252.382812 243.332031 251.046875 243.332031 248.4375 L 243.332031 240.285156 L 245.824219 240.285156 L 245.824219 248.316406 C 245.824219 252.542969 243.433594 254.667969 239.730469 254.667969 C 236.042969 254.667969 233.695312 252.542969 233.695312 248.4375 " fill-opacity="1" fill-rule="nonzero"/></g><g clip-path="url(#id15)"><path fill="#686d6a" d="M 254.75 252.175781 C 261.359375 252.175781 261.28125 242.550781 254.75 242.550781 L 251.957031 242.550781 L 251.957031 252.175781 Z M 249.46875 240.285156 L 254.75 240.285156 C 264.863281 240.285156 264.726562 254.441406 254.75 254.441406 L 249.46875 254.441406 Z M 249.46875 240.285156 " fill-opacity="1" fill-rule="nonzero"/></g><g clip-path="url(#id16)"><path fill="#686d6a" d="M 265.4375 240.285156 L 267.925781 240.285156 L 267.925781 254.441406 L 265.4375 254.441406 Z M 265.4375 240.285156 " fill-opacity="1" fill-rule="nonzero"/></g><g clip-path="url(#id17)"><path fill="#686d6a" d="M 286.371094 248.820312 L 283.921875 243.160156 L 281.492188 248.820312 Z M 282.808594 240.1875 L 285.117188 240.1875 L 291.351562 254.441406 L 288.71875 254.441406 L 287.28125 251.023438 L 280.582031 251.023438 L 279.125 254.441406 L 276.574219 254.441406 Z M 282.808594 240.1875 " fill-opacity="1" fill-rule="nonzero"/></g><g clip-path="url(#id18)"><path fill="#686d6a" d="M 299.839844 247.304688 C 301.621094 247.304688 302.753906 246.375 302.753906 244.9375 L 302.753906 244.898438 C 302.753906 243.382812 301.660156 242.550781 299.816406 242.550781 L 296.195312 242.550781 L 296.195312 247.304688 Z M 293.707031 240.285156 L 300.019531 240.285156 C 303.015625 240.285156 305.285156 241.792969 305.285156 244.753906 C 305.226562 244.910156 305.578125 248.035156 301.902344 249.085938 L 305.730469 254.441406 L 302.792969 254.441406 L 299.3125 249.507812 C 299.039062 249.507812 296.035156 249.507812 296.195312 249.507812 L 296.195312 254.441406 L 293.707031 254.441406 Z M 293.707031 240.285156 " fill-opacity="1" fill-rule="nonzero"/></g><g clip-path="url(#id19)"><path fill="#686d6a" d="M 317.359375 248.820312 L 314.910156 243.160156 L 312.480469 248.820312 Z M 313.796875 240.1875 L 316.105469 240.1875 L 322.339844 254.441406 L 319.707031 254.441406 L 318.269531 251.023438 L 311.570312 251.023438 L 310.113281 254.441406 L 307.5625 254.441406 Z M 313.796875 240.1875 " fill-opacity="1" fill-rule="nonzero"/></g><g clip-path="url(#id20)"><path fill="#686d6a" d="M 331.269531 252.238281 C 332.972656 252.238281 334.003906 251.570312 334.003906 250.296875 L 334.003906 250.257812 C 334.003906 249.066406 333.050781 248.355469 331.089844 248.355469 L 327.140625 248.355469 L 327.140625 252.238281 Z M 330.542969 246.253906 C 332.140625 246.253906 333.214844 245.625 333.214844 244.332031 L 333.214844 244.289062 C 333.214844 243.179688 332.324219 242.492188 330.722656 242.492188 L 327.140625 242.492188 L 327.140625 246.253906 Z M 324.691406 240.285156 L 331.046875 240.285156 C 333.539062 240.285156 335.703125 241.453125 335.703125 243.886719 C 335.644531 244.042969 335.957031 245.898438 333.679688 247.082031 C 335.339844 247.648438 336.492188 248.597656 336.492188 250.519531 L 336.492188 250.558594 C 336.492188 253.089844 334.40625 254.441406 331.25 254.441406 L 324.691406 254.441406 Z M 324.691406 240.285156 " fill-opacity="1" fill-rule="nonzero"/></g><g clip-path="url(#id21)"><path fill="#686d6a" d="M 339.578125 240.285156 L 342.066406 240.285156 L 342.066406 254.441406 L 339.578125 254.441406 Z M 339.578125 240.285156 " fill-opacity="1" fill-rule="nonzero"/></g><g clip-path="url(#id22)"><path fill="#686d6a" d="M 354.242188 248.820312 L 351.792969 243.160156 L 349.363281 248.820312 Z M 350.679688 240.1875 L 352.984375 240.1875 L 359.222656 254.441406 L 356.589844 254.441406 L 355.152344 251.023438 L 348.453125 251.023438 L 346.996094 254.441406 L 344.445312 254.441406 Z M 350.679688 240.1875 " fill-opacity="1" fill-rule="nonzero"/></g><path fill="#686d6a" d="M 512.035156 101.328125 L 512.035156 115.339844 C 509.691406 114.972656 507.3125 114.789062 504.929688 114.800781 C 504.878906 107.992188 504.882812 94.332031 504.890625 80.558594 C 504.894531 77.382812 504.894531 74.207031 504.894531 71.101562 C 504.894531 63.980469 504.894531 57.265625 504.882812 51.933594 L 504.882812 51.203125 C 504.882812 50.472656 504.882812 49.769531 504.878906 49.097656 C 504.878906 48.203125 504.871094 47.367188 504.871094 46.589844 C 504.871094 46.183594 504.871094 45.800781 504.867188 45.429688 C 504.78125 45.421875 504.699219 45.421875 504.617188 45.417969 L 504.582031 45.417969 L 504.832031 45.167969 L 504.867188 45.167969 L 512.011719 51.902344 L 512.011719 51.933594 C 512.105469 66.246094 511.964844 93.425781 512.035156 101.328125 " fill-opacity="1" fill-rule="nonzero"/><path fill="#686d6a" d="M 518.800781 65.804688 L 518.800781 65.890625 C 518.792969 77.359375 518.8125 98.476562 518.78125 102.570312 L 518.78125 116.921875 C 523.851562 118.515625 528.652344 120.976562 532.890625 124.195312 C 540.242188 129.691406 545.820312 137.476562 548.792969 146.152344 C 549.261719 147.566406 549.65625 149.007812 549.988281 150.457031 L 564.15625 150.457031 C 561.035156 132.402344 549.132812 116.0625 532.769531 107.726562 C 532.730469 102.128906 532.742188 78.449219 532.746094 65.890625 L 532.746094 65.863281 L 525.523438 59.058594 Z M 518.800781 65.804688 " fill-opacity="1" fill-rule="nonzero"/><g clip-path="url(#id23)"><g clip-path="url(#id24)"><path fill="#686d6a" d="M 263.230469 -55.191406 L 746.519531 -55.191406 L 746.519531 428.097656 L 263.230469 428.097656 Z M 263.230469 -55.191406 " fill-opacity="1" fill-rule="nonzero"/></g></g><path fill="#686d6a" d="M 518.804688 219.285156 C 524.746094 217.972656 529.484375 215.96875 532.757812 214.285156 L 532.757812 214.25 C 534.480469 213.324219 536.164062 212.324219 537.804688 211.25 C 537.808594 211.242188 537.816406 211.238281 537.820312 211.238281 C 537.867188 211.214844 537.910156 211.183594 537.949219 211.148438 C 542.828125 207.9375 547.269531 204.074219 551.019531 199.589844 C 557.78125 191.582031 562.335938 181.730469 564.175781 171.414062 L 550.015625 171.414062 C 549.65625 173.011719 549.210938 174.59375 548.679688 176.152344 C 545.640625 184.707031 540.140625 192.476562 532.769531 197.832031 C 532.710938 175.5625 532.765625 153.285156 532.746094 131.011719 C 532.910156 130.128906 532.144531 129.597656 531.582031 129.097656 C 527.804688 125.925781 523.4375 123.5 518.816406 121.808594 C 518.789062 154.304688 518.804688 186.792969 518.804688 219.285156 " fill-opacity="1" fill-rule="nonzero"/><g clip-path="url(#id25)"><g clip-path="url(#id26)"><path fill="#686d6a" d="M 263.207031 -55.191406 L 746.492188 -55.191406 L 746.492188 428.09375 L 263.207031 428.09375 Z M 263.207031 -55.191406 " fill-opacity="1" fill-rule="nonzero"/></g></g><path fill="#686d6a" d="M 550.535156 153.261719 C 551.371094 158.332031 551.378906 163.535156 550.558594 168.609375 L 564.605469 168.609375 C 565.175781 164.164062 565.246094 159.660156 564.769531 155.191406 C 564.71875 154.542969 564.648438 153.902344 564.570312 153.261719 Z M 550.535156 153.261719 " fill-opacity="1" fill-rule="nonzero"/><g clip-path="url(#id27)"><g clip-path="url(#id28)"><path fill="#686d6a" d="M 263.210938 -55.191406 L 746.507812 -55.191406 L 746.507812 428.105469 L 263.210938 428.105469 Z M 263.210938 -55.191406 " fill-opacity="1" fill-rule="nonzero"/></g></g><path fill="#686d6a" d="M 580.914062 207.480469 C 574.660156 214.695312 567.140625 220.671875 559.410156 226.222656 C 545.484375 235.890625 528.980469 241.871094 512.058594 243.078125 C 512.03125 244.921875 512.023438 246.773438 512.03125 248.625 C 509.65625 248.664062 507.28125 248.671875 504.914062 248.636719 C 504.90625 237.710938 504.902344 235.632812 504.894531 224.707031 L 504.894531 220.699219 C 504.878906 186.96875 504.871094 153.230469 504.925781 119.5 C 507.316406 119.617188 509.816406 119.351562 512.082031 120.28125 C 511.984375 153.648438 512.023438 187.023438 512.03125 220.386719 C 512.035156 221.695312 512.035156 223.011719 512.035156 224.320312 L 512.035156 230.597656 C 535.46875 229.542969 558.542969 221.980469 578.167969 209.152344 C 579.058594 208.558594 579.980469 208.003906 580.914062 207.480469 " fill-opacity="1" fill-rule="nonzero"/><path fill="#686d6a" d="M 477.386719 130.09375 C 477.386719 131.171875 477.378906 132.25 477.378906 133.328125 C 477.367188 139.035156 477.363281 144.746094 477.363281 150.457031 L 491.144531 150.457031 C 491.144531 140.917969 491.136719 131.382812 491.113281 121.84375 C 486.105469 123.777344 481.367188 126.46875 477.386719 130.09375 " fill-opacity="1" fill-rule="nonzero"/><g clip-path="url(#id29)"><g clip-path="url(#id30)"><path fill="#686d6a" d="M 263.210938 -55.195312 L 746.503906 -55.195312 L 746.503906 428.097656 L 263.210938 428.097656 Z M 263.210938 -55.195312 " fill-opacity="1" fill-rule="nonzero"/></g></g><path fill="#686d6a" d="M 454.578125 128.492188 C 448.125 138.484375 444.707031 150.425781 445.027344 162.316406 C 445.242188 174.082031 449.105469 185.746094 455.84375 195.382812 C 461.234375 202.988281 468.375 209.347656 476.5625 213.804688 C 481.644531 216.207031 486.523438 217.875 491.140625 218.960938 C 491.136719 203.113281 491.140625 187.261719 491.148438 171.414062 L 477.367188 171.414062 C 477.375 180.304688 477.367188 189.199219 477.332031 198.09375 C 471.519531 193.4375 466.480469 187.707031 463.328125 180.90625 C 458.730469 171.402344 457.660156 160.285156 460.148438 150.042969 C 461.976562 142.21875 466.03125 135 471.5625 129.183594 L 471.5625 111.152344 C 464.816406 115.71875 458.980469 121.636719 454.578125 128.492188 " fill-opacity="1" fill-rule="nonzero"/><g clip-path="url(#id31)"><g clip-path="url(#id32)"><path fill="#686d6a" d="M 504.851562 -55.175781 C 508.804688 -55.175781 512.757812 -55.078125 516.707031 -54.886719 C 520.65625 -54.691406 524.601562 -54.398438 528.535156 -54.011719 C 532.472656 -53.625 536.394531 -53.140625 540.308594 -52.5625 C 544.21875 -51.980469 548.113281 -51.304688 551.992188 -50.53125 C 555.871094 -49.761719 559.730469 -48.894531 563.566406 -47.933594 C 567.402344 -46.972656 571.210938 -45.917969 574.996094 -44.769531 C 578.78125 -43.621094 582.535156 -42.382812 586.257812 -41.050781 C 589.980469 -39.71875 593.671875 -38.296875 597.324219 -36.78125 C 600.976562 -35.269531 604.59375 -33.667969 608.167969 -31.976562 C 611.742188 -30.285156 615.273438 -28.507812 618.761719 -26.644531 C 622.25 -24.777344 625.6875 -22.832031 629.082031 -20.796875 C 632.472656 -18.765625 635.8125 -16.648438 639.101562 -14.453125 C 642.390625 -12.253906 645.621094 -9.976562 648.796875 -7.621094 C 651.972656 -5.265625 655.089844 -2.835938 658.148438 -0.324219 C 661.203125 2.183594 664.199219 4.765625 667.128906 7.421875 C 670.058594 10.078125 672.921875 12.804688 675.71875 15.597656 C 678.515625 18.394531 681.242188 21.257812 683.898438 24.1875 C 686.550781 27.121094 689.136719 30.113281 691.644531 33.171875 C 694.152344 36.226562 696.585938 39.34375 698.941406 42.519531 C 701.296875 45.695312 703.574219 48.929688 705.769531 52.21875 C 707.96875 55.503906 710.082031 58.84375 712.117188 62.238281 C 714.148438 65.628906 716.097656 69.070312 717.960938 72.558594 C 719.824219 76.042969 721.601562 79.578125 723.292969 83.152344 C 724.984375 86.726562 726.585938 90.339844 728.101562 93.992188 C 729.613281 97.648438 731.035156 101.335938 732.367188 105.058594 C 733.699219 108.785156 734.941406 112.539062 736.089844 116.320312 C 737.238281 120.105469 738.292969 123.917969 739.253906 127.753906 C 740.214844 131.589844 741.078125 135.445312 741.851562 139.324219 C 742.621094 143.203125 743.296875 147.097656 743.878906 151.011719 C 744.457031 154.921875 744.941406 158.847656 745.332031 162.78125 C 745.71875 166.71875 746.007812 170.660156 746.203125 174.609375 C 746.398438 178.558594 746.492188 182.511719 746.492188 186.46875 C 746.492188 190.421875 746.398438 194.375 746.203125 198.324219 C 746.007812 202.273438 745.71875 206.214844 745.332031 210.152344 C 744.941406 214.085938 744.457031 218.011719 743.878906 221.921875 C 743.296875 225.835938 742.621094 229.730469 741.851562 233.609375 C 741.078125 237.488281 740.214844 241.34375 739.253906 245.179688 C 738.292969 249.015625 737.238281 252.828125 736.089844 256.613281 C 734.941406 260.394531 733.699219 264.148438 732.367188 267.875 C 731.035156 271.597656 729.613281 275.285156 728.101562 278.941406 C 726.585938 282.59375 724.984375 286.207031 723.292969 289.78125 C 721.601562 293.359375 719.824219 296.890625 717.960938 300.375 C 716.097656 303.863281 714.148438 307.304688 712.113281 310.695312 C 710.082031 314.089844 707.96875 317.429688 705.769531 320.714844 C 703.574219 324.003906 701.296875 327.238281 698.941406 330.414062 C 696.585938 333.589844 694.152344 336.707031 691.644531 339.761719 C 689.136719 342.820312 686.550781 345.8125 683.898438 348.746094 C 681.242188 351.675781 678.515625 354.539062 675.71875 357.335938 C 672.921875 360.128906 670.058594 362.855469 667.128906 365.511719 C 664.199219 368.167969 661.203125 370.75 658.148438 373.257812 C 655.089844 375.769531 651.972656 378.199219 648.796875 380.554688 C 645.621094 382.910156 642.390625 385.1875 639.101562 387.386719 C 635.8125 389.582031 632.472656 391.699219 629.082031 393.730469 C 625.6875 395.765625 622.25 397.710938 618.761719 399.578125 C 615.273438 401.441406 611.742188 403.21875 608.167969 404.910156 C 604.59375 406.601562 600.976562 408.203125 597.324219 409.714844 C 593.671875 411.230469 589.980469 412.652344 586.257812 413.984375 C 582.535156 415.316406 578.78125 416.554688 574.996094 417.703125 C 571.210938 418.851562 567.402344 419.90625 563.566406 420.867188 C 559.730469 421.828125 555.871094 422.695312 551.992188 423.464844 C 548.113281 424.238281 544.21875 424.914062 540.308594 425.496094 C 536.394531 426.074219 532.472656 426.558594 528.535156 426.945312 C 524.601562 427.332031 520.65625 427.625 516.707031 427.820312 C 512.757812 428.011719 508.804688 428.109375 504.851562 428.109375 C 500.898438 428.109375 496.945312 428.011719 492.996094 427.820312 C 489.042969 427.625 485.101562 427.332031 481.167969 426.945312 C 477.230469 426.558594 473.308594 426.074219 469.394531 425.496094 C 465.484375 424.914062 461.585938 424.238281 457.710938 423.464844 C 453.832031 422.695312 449.972656 421.828125 446.136719 420.867188 C 442.300781 419.90625 438.492188 418.851562 434.707031 417.703125 C 430.921875 416.554688 427.167969 415.316406 423.445312 413.984375 C 419.722656 412.652344 416.03125 411.230469 412.378906 409.714844 C 408.726562 408.203125 405.109375 406.601562 401.535156 404.910156 C 397.960938 403.21875 394.429688 401.441406 390.941406 399.578125 C 387.453125 397.710938 384.015625 395.765625 380.621094 393.730469 C 377.230469 391.699219 373.890625 389.582031 370.601562 387.386719 C 367.3125 385.1875 364.082031 382.910156 360.90625 380.554688 C 357.726562 378.199219 354.613281 375.769531 351.554688 373.257812 C 348.496094 370.75 345.503906 368.167969 342.574219 365.511719 C 339.644531 362.855469 336.78125 360.128906 333.984375 357.335938 C 331.1875 354.539062 328.460938 351.675781 325.804688 348.746094 C 323.148438 345.8125 320.566406 342.820312 318.058594 339.761719 C 315.550781 336.707031 313.117188 333.589844 310.761719 330.414062 C 308.40625 327.238281 306.128906 324.003906 303.933594 320.714844 C 301.734375 317.429688 299.621094 314.089844 297.585938 310.695312 C 295.554688 307.304688 293.605469 303.863281 291.742188 300.375 C 289.878906 296.890625 288.097656 293.359375 286.410156 289.78125 C 284.71875 286.207031 283.117188 282.59375 281.601562 278.941406 C 280.089844 275.285156 278.667969 271.597656 277.332031 267.875 C 276 264.148438 274.761719 260.394531 273.613281 256.613281 C 272.464844 252.828125 271.410156 249.015625 270.449219 245.179688 C 269.488281 241.34375 268.621094 237.488281 267.851562 233.609375 C 267.078125 229.730469 266.402344 225.835938 265.824219 221.921875 C 265.242188 218.011719 264.757812 214.085938 264.371094 210.152344 C 263.984375 206.214844 263.695312 202.273438 263.5 198.324219 C 263.304688 194.375 263.207031 190.421875 263.207031 186.46875 C 263.207031 182.511719 263.304688 178.558594 263.5 174.609375 C 263.695312 170.660156 263.984375 166.71875 264.371094 162.78125 C 264.757812 158.847656 265.242188 154.921875 265.824219 151.011719 C 266.402344 147.097656 267.078125 143.203125 267.851562 139.324219 C 268.621094 135.445312 269.488281 131.589844 270.449219 127.753906 C 271.410156 123.917969 272.464844 120.105469 273.613281 116.320312 C 274.761719 112.539062 276 108.785156 277.332031 105.058594 C 278.667969 101.335938 280.089844 97.648438 281.601562 93.992188 C 283.117188 90.339844 284.71875 86.726562 286.410156 83.152344 C 288.097656 79.578125 289.878906 76.042969 291.742188 72.558594 C 293.605469 69.070312 295.554688 65.628906 297.585938 62.238281 C 299.621094 58.84375 301.734375 55.503906 303.933594 52.21875 C 306.128906 48.929688 308.40625 45.695312 310.761719 42.519531 C 313.117188 39.34375 315.550781 36.226562 318.058594 33.171875 C 320.566406 30.113281 323.148438 27.121094 325.804688 24.1875 C 328.460938 21.257812 331.1875 18.394531 333.984375 15.597656 C 336.78125 12.804688 339.644531 10.078125 342.574219 7.421875 C 345.503906 4.765625 348.496094 2.183594 351.554688 -0.324219 C 354.613281 -2.835938 357.726562 -5.265625 360.90625 -7.621094 C 364.082031 -9.976562 367.3125 -12.253906 370.601562 -14.453125 C 373.890625 -16.648438 377.230469 -18.765625 380.621094 -20.796875 C 384.015625 -22.832031 387.453125 -24.777344 390.941406 -26.644531 C 394.429688 -28.507812 397.960938 -30.285156 401.535156 -31.976562 C 405.109375 -33.667969 408.726562 -35.269531 412.378906 -36.78125 C 416.03125 -38.296875 419.722656 -39.71875 423.445312 -41.050781 C 427.167969 -42.382812 430.921875 -43.621094 434.707031 -44.769531 C 438.492188 -45.917969 442.300781 -46.972656 446.136719 -47.933594 C 449.972656 -48.894531 453.832031 -49.761719 457.710938 -50.53125 C 461.585938 -51.304688 465.484375 -51.980469 469.394531 -52.5625 C 473.308594 -53.140625 477.230469 -53.625 481.167969 -54.011719 C 485.101562 -54.398438 489.042969 -54.691406 492.996094 -54.886719 C 496.945312 -55.078125 500.898438 -55.175781 504.851562 -55.175781 Z M 504.851562 -55.175781 " fill-opacity="1" fill-rule="nonzero"/></g></g><path fill="#686d6a" d="M 477.363281 153.257812 C 477.363281 158.375 477.367188 163.492188 477.367188 168.605469 L 491.148438 168.605469 L 491.148438 153.257812 Z M 477.363281 153.257812 " fill-opacity="1" fill-rule="nonzero"/><g clip-path="url(#id33)"><g clip-path="url(#id34)"><path fill="#686d6a" d="M 263.222656 -55.195312 L 746.515625 -55.195312 L 746.515625 428.101562 L 263.222656 428.101562 Z M 263.222656 -55.195312 " fill-opacity="1" fill-rule="nonzero"/></g></g><path fill="#686d6a" d="M 477.367188 65.957031 L 477.367188 66.066406 C 477.363281 72.191406 477.363281 80.882812 477.363281 88.835938 C 477.363281 97.242188 477.367188 104.828125 477.378906 107.679688 L 477.378906 124.003906 C 478.363281 123.257812 479.382812 122.554688 480.425781 121.894531 C 483.773438 119.808594 487.382812 118.132812 491.148438 116.933594 L 491.148438 102.617188 C 491.136719 98.539062 491.144531 77.5625 491.144531 66.066406 L 491.144531 66.019531 L 484.007812 59.292969 Z M 477.367188 65.957031 " fill-opacity="1" fill-rule="nonzero"/><g clip-path="url(#id35)"><g clip-path="url(#id36)"><path fill="#686d6a" d="M 263.214844 -55.1875 L 746.507812 -55.1875 L 746.507812 428.105469 L 263.214844 428.105469 Z M 263.214844 -55.1875 " fill-opacity="1" fill-rule="nonzero"/></g></g><path fill="#686d6a" d="M 498.109375 101.355469 C 498.109375 93.449219 498.113281 66.25 498.101562 51.945312 L 498.101562 51.925781 L 504.582031 45.417969 L 504.832031 45.167969 L 504.867188 45.167969 L 504.867188 45.429688 C 504.871094 45.800781 504.871094 46.183594 504.871094 46.589844 C 504.871094 47.367188 504.878906 48.203125 504.878906 49.097656 C 504.882812 49.996094 504.882812 50.941406 504.890625 51.945312 C 504.90625 59.605469 504.894531 70.117188 504.890625 80.558594 C 504.882812 94.332031 504.878906 107.992188 504.929688 114.800781 C 502.644531 114.785156 500.359375 114.957031 498.109375 115.304688 Z M 498.109375 101.355469 " fill-opacity="1" fill-rule="nonzero"/><path fill="#686d6a" d="M 498.085938 120.167969 C 500.316406 119.617188 502.632812 119.554688 504.925781 119.5 C 504.855469 165.488281 504.890625 202.644531 504.914062 248.636719 C 502.640625 248.609375 500.363281 248.613281 498.097656 248.609375 C 498.101562 246.769531 498.109375 244.929688 498.125 243.09375 C 486 242.144531 474.042969 238.90625 463.136719 233.519531 C 454.617188 229.511719 447.105469 223.753906 439.828125 217.859375 C 436.140625 214.695312 432.570312 211.363281 429.429688 207.652344 C 449.710938 221.269531 473.644531 229.636719 498.113281 230.601562 C 498.085938 190.84375 498.144531 159.925781 498.085938 120.167969 " fill-opacity="1" fill-rule="nonzero"/><path fill="#686d6a" d="M 477.378906 88.835938 L 477.378906 107.679688 C 477.367188 104.828125 477.363281 97.242188 477.363281 88.835938 Z M 477.378906 88.835938 " fill-opacity="1" fill-rule="nonzero"/><path stroke-linecap="butt" transform="matrix(0.483297, 0, 0, -0.483297, 537.95001, 211.14965)" fill-opacity="1" fill="#686d6a" fill-rule="nonzero" stroke-linejoin="miter" d="M -0.0016363 0.00250872 C -0.0824614 -0.0702339 -0.171369 -0.134894 -0.268359 -0.183389 C -0.0986264 -0.0459863 -0.00971881 0.0105912 -0.00971881 0.0105912 Z M -0.0016363 0.00250872 " stroke="#2c80c6" stroke-width="1" stroke-opacity="1" stroke-miterlimit="0"/></svg>