<svg xmlns="http://www.w3.org/2000/svg" xmlns:xlink="http://www.w3.org/1999/xlink" width="500" zoomAndPan="magnify" viewBox="0 0 375 374.999991" height="500" preserveAspectRatio="xMidYMid meet" version="1.0"><defs><clipPath id="id1"><path d="M 5 27.234375 L 370 27.234375 L 370 347.484375 L 5 347.484375 Z M 5 27.234375 " clip-rule="nonzero"/></clipPath><clipPath id="id2"><path d="M 133 94.398438 L 240 94.398438 L 240 178 L 133 178 Z M 133 94.398438 " clip-rule="nonzero"/></clipPath><clipPath id="id3"><path d="M 206.570312 195.023438 L 295.875 195.023438 L 295.875 280.351562 L 206.570312 280.351562 Z M 206.570312 195.023438 " clip-rule="nonzero"/></clipPath><clipPath id="id4"><path d="M 79.144531 194 L 186 194 L 186 265 L 79.144531 265 Z M 79.144531 194 " clip-rule="nonzero"/></clipPath></defs><g clip-path="url(#id1)"><path fill="#3b78ae" d="M 369.957031 187.359375 C 368.457031 188.78125 346.152344 210.769531 346.152344 233.878906 L 346.078125 233.878906 L 346.078125 299.992188 C 346.078125 325.125 326.542969 345.617188 301.84375 347.335938 C 301.320312 347.410156 300.796875 347.410156 300.273438 347.410156 C 299.675781 347.484375 299.152344 347.484375 298.550781 347.484375 L 76.335938 347.484375 C 75.738281 347.484375 75.214844 347.410156 74.613281 347.410156 C 74.089844 347.410156 73.566406 347.335938 73.042969 347.335938 C 48.34375 345.691406 28.808594 325.125 28.808594 299.992188 L 28.808594 233.878906 C 28.808594 210.769531 6.429688 188.78125 5.007812 187.359375 C 6.429688 185.9375 28.808594 163.949219 28.808594 140.839844 L 28.882812 140.839844 L 28.882812 74.726562 C 28.882812 49.597656 48.417969 29.105469 73.117188 27.386719 C 73.640625 27.308594 74.164062 27.308594 74.6875 27.308594 C 75.289062 27.234375 75.8125 27.234375 76.410156 27.234375 L 298.628906 27.234375 C 299.226562 27.234375 299.75 27.308594 300.347656 27.308594 C 300.871094 27.308594 301.398438 27.386719 301.921875 27.386719 C 326.621094 29.03125 346.152344 49.597656 346.152344 74.726562 L 346.152344 140.839844 C 346.152344 163.949219 368.457031 185.9375 369.957031 187.359375 " fill-opacity="1" fill-rule="nonzero"/></g><g clip-path="url(#id2)"><path fill="#ffffff" d="M 199.734375 173.613281 L 188.078125 139.605469 L 186.117188 133.875 L 225.054688 124.628906 L 236.0625 152.222656 Z M 170.65625 162.894531 L 136.5625 109.0625 L 140.070312 98.824219 L 182.601562 133.671875 L 192.507812 162.570312 L 196.144531 173.183594 Z M 221.300781 122.175781 L 184.402344 130.9375 L 144.066406 97.890625 L 174.957031 99.082031 Z M 239.605469 152.316406 L 227.558594 122.121094 C 227.550781 122.097656 227.539062 122.082031 227.53125 122.0625 C 227.503906 122.007812 227.476562 121.949219 227.445312 121.898438 C 227.425781 121.867188 227.40625 121.835938 227.386719 121.808594 C 227.355469 121.761719 227.324219 121.71875 227.285156 121.675781 C 227.261719 121.648438 227.238281 121.621094 227.214844 121.59375 C 227.175781 121.554688 227.132812 121.519531 227.089844 121.480469 C 227.066406 121.460938 227.039062 121.4375 227.011719 121.417969 C 226.964844 121.382812 226.910156 121.351562 226.859375 121.320312 C 226.832031 121.304688 226.808594 121.285156 226.785156 121.273438 C 226.78125 121.269531 226.777344 121.269531 226.773438 121.265625 L 176.097656 96.015625 C 175.890625 95.910156 175.664062 95.855469 175.433594 95.84375 L 139.351562 94.453125 C 139.335938 94.453125 139.320312 94.453125 139.308594 94.453125 C 139.25 94.453125 139.195312 94.457031 139.136719 94.460938 C 139.113281 94.464844 139.089844 94.464844 139.066406 94.46875 C 138.992188 94.476562 138.921875 94.492188 138.847656 94.511719 C 138.84375 94.511719 138.84375 94.511719 138.84375 94.511719 C 138.839844 94.511719 138.839844 94.515625 138.839844 94.515625 C 138.726562 94.546875 138.621094 94.59375 138.519531 94.648438 C 138.496094 94.660156 138.472656 94.675781 138.449219 94.6875 C 138.351562 94.746094 138.257812 94.8125 138.175781 94.890625 C 138.164062 94.902344 138.15625 94.914062 138.144531 94.925781 C 138.070312 94.996094 138.007812 95.078125 137.949219 95.164062 C 137.933594 95.183594 137.917969 95.203125 137.90625 95.222656 C 137.851562 95.3125 137.800781 95.402344 137.765625 95.5 C 137.761719 95.511719 137.757812 95.523438 137.753906 95.535156 C 137.753906 95.539062 137.746094 95.546875 137.746094 95.550781 L 133.230469 108.746094 C 133.070312 109.214844 133.128906 109.726562 133.394531 110.144531 L 168.183594 165.078125 C 168.367188 165.367188 168.632812 165.589844 168.949219 165.71875 L 198.230469 177.535156 C 198.238281 177.539062 198.25 177.539062 198.257812 177.542969 C 198.265625 177.546875 198.269531 177.550781 198.277344 177.554688 C 198.332031 177.574219 198.390625 177.585938 198.449219 177.601562 C 198.480469 177.609375 198.511719 177.621094 198.546875 177.625 C 198.640625 177.644531 198.738281 177.65625 198.835938 177.65625 C 198.839844 177.65625 198.839844 177.65625 198.839844 177.65625 C 198.839844 177.65625 198.839844 177.65625 198.84375 177.65625 C 198.933594 177.65625 199.023438 177.644531 199.113281 177.628906 C 199.136719 177.625 199.160156 177.621094 199.183594 177.617188 C 199.257812 177.597656 199.332031 177.578125 199.402344 177.554688 C 199.417969 177.546875 199.4375 177.542969 199.453125 177.535156 C 199.527344 177.507812 199.601562 177.472656 199.667969 177.429688 L 238.917969 154.320312 C 239.609375 153.910156 239.902344 153.0625 239.605469 152.316406 " fill-opacity="1" fill-rule="nonzero"/></g><g clip-path="url(#id3)"><path fill="#ffffff" d="M 228.292969 275.957031 L 231.484375 255.636719 L 234.894531 233.929688 L 292.476562 227.519531 L 291.011719 246.691406 Z M 288.671875 224.667969 L 238.527344 230.253906 L 234.207031 230.734375 L 226.085938 220.25 L 211.359375 201.242188 L 237.210938 198.449219 Z M 225.917969 270.09375 L 211.507812 206.753906 L 218.675781 216.003906 L 231.761719 232.894531 L 228.847656 251.445312 Z M 295.863281 225.449219 C 295.863281 225.445312 295.863281 225.445312 295.859375 225.445312 C 295.84375 225.339844 295.816406 225.238281 295.78125 225.140625 C 295.773438 225.113281 295.761719 225.085938 295.75 225.058594 C 295.71875 224.980469 295.679688 224.90625 295.636719 224.835938 C 295.621094 224.816406 295.609375 224.792969 295.597656 224.769531 C 295.539062 224.683594 295.46875 224.601562 295.394531 224.527344 C 295.390625 224.523438 295.386719 224.515625 295.382812 224.511719 C 295.367188 224.5 295.355469 224.492188 295.339844 224.480469 C 295.277344 224.425781 295.210938 224.371094 295.136719 224.324219 C 295.109375 224.308594 295.082031 224.289062 295.054688 224.273438 C 295.03125 224.261719 295.011719 224.246094 294.992188 224.234375 L 238.257812 195.328125 C 237.976562 195.183594 237.660156 195.128906 237.34375 195.160156 L 208.128906 198.320312 L 208.113281 198.320312 C 208.03125 198.328125 207.953125 198.34375 207.875 198.363281 C 207.851562 198.371094 207.832031 198.378906 207.808594 198.386719 C 207.746094 198.40625 207.6875 198.425781 207.628906 198.453125 C 207.617188 198.457031 207.605469 198.460938 207.59375 198.464844 C 207.578125 198.472656 207.570312 198.480469 207.558594 198.488281 C 207.5 198.515625 207.441406 198.546875 207.390625 198.585938 C 207.371094 198.59375 207.351562 198.605469 207.335938 198.621094 C 207.269531 198.667969 207.203125 198.71875 207.144531 198.777344 C 207.132812 198.792969 207.121094 198.808594 207.105469 198.820312 C 207.0625 198.867188 207.023438 198.914062 206.984375 198.964844 C 206.964844 198.988281 206.949219 199.011719 206.933594 199.039062 C 206.90625 199.082031 206.875 199.132812 206.847656 199.179688 C 206.835938 199.207031 206.820312 199.230469 206.808594 199.257812 C 206.804688 199.273438 206.792969 199.285156 206.789062 199.300781 C 206.769531 199.34375 206.757812 199.386719 206.746094 199.425781 C 206.738281 199.449219 206.726562 199.46875 206.722656 199.492188 C 206.699219 199.570312 206.683594 199.652344 206.671875 199.730469 C 206.667969 199.75 206.667969 199.769531 206.667969 199.792969 C 206.664062 199.855469 206.660156 199.917969 206.660156 199.984375 C 206.664062 200.011719 206.664062 200.039062 206.667969 200.066406 C 206.671875 200.128906 206.679688 200.1875 206.691406 200.25 C 206.695312 200.265625 206.695312 200.28125 206.699219 200.296875 L 224.621094 279.085938 C 224.621094 279.089844 224.625 279.097656 224.625 279.101562 C 224.644531 279.183594 224.671875 279.265625 224.703125 279.34375 C 224.710938 279.359375 224.71875 279.375 224.726562 279.390625 C 224.753906 279.453125 224.785156 279.511719 224.816406 279.566406 C 224.832031 279.59375 224.851562 279.617188 224.867188 279.640625 C 224.898438 279.6875 224.929688 279.730469 224.964844 279.769531 C 224.984375 279.792969 225.003906 279.816406 225.027344 279.839844 C 225.066406 279.878906 225.105469 279.917969 225.152344 279.957031 C 225.171875 279.972656 225.191406 279.992188 225.210938 280.007812 C 225.21875 280.015625 225.222656 280.019531 225.230469 280.023438 C 225.261719 280.046875 225.296875 280.066406 225.328125 280.085938 C 225.363281 280.109375 225.398438 280.132812 225.4375 280.15625 C 225.480469 280.179688 225.523438 280.195312 225.566406 280.214844 C 225.605469 280.230469 225.640625 280.25 225.683594 280.261719 C 225.730469 280.277344 225.78125 280.289062 225.832031 280.300781 C 225.867188 280.3125 225.902344 280.324219 225.941406 280.328125 C 226.027344 280.34375 226.113281 280.351562 226.199219 280.351562 C 226.203125 280.351562 226.203125 280.351562 226.207031 280.351562 C 226.207031 280.351562 226.207031 280.351562 226.210938 280.351562 C 226.226562 280.351562 226.246094 280.351562 226.265625 280.351562 C 226.363281 280.347656 226.460938 280.332031 226.554688 280.3125 C 226.566406 280.3125 226.574219 280.308594 226.582031 280.304688 C 226.679688 280.28125 226.773438 280.25 226.863281 280.210938 C 226.875 280.207031 226.886719 280.203125 226.898438 280.199219 L 293.253906 249.234375 C 293.785156 248.988281 294.140625 248.472656 294.1875 247.886719 L 295.875 225.808594 C 295.875 225.792969 295.871094 225.78125 295.871094 225.769531 C 295.878906 225.660156 295.878906 225.554688 295.863281 225.449219 " fill-opacity="1" fill-rule="nonzero"/></g><path fill="#ffffff" d="M 148.289062 105.558594 L 147.65625 105.039062 L 139.300781 113.386719 L 139.746094 114.089844 L 148.289062 105.558594 " fill-opacity="1" fill-rule="nonzero"/><path fill="#ffffff" d="M 144.871094 102.757812 L 144.238281 102.238281 L 136.890625 109.578125 L 137.335938 110.28125 L 144.871094 102.757812 " fill-opacity="1" fill-rule="nonzero"/><path fill="#ffffff" d="M 161.964844 116.761719 L 161.332031 116.246094 L 148.949219 128.617188 L 149.394531 129.320312 L 161.964844 116.761719 " fill-opacity="1" fill-rule="nonzero"/><path fill="#ffffff" d="M 165.386719 119.566406 L 164.753906 119.046875 L 151.359375 132.421875 L 151.804688 133.128906 L 165.386719 119.566406 " fill-opacity="1" fill-rule="nonzero"/><path fill="#ffffff" d="M 151.710938 108.359375 L 151.078125 107.839844 L 141.710938 117.191406 L 142.160156 117.898438 L 151.710938 108.359375 " fill-opacity="1" fill-rule="nonzero"/><path fill="#ffffff" d="M 158.546875 113.960938 L 157.914062 113.445312 L 146.535156 124.808594 L 146.980469 125.511719 L 158.546875 113.960938 " fill-opacity="1" fill-rule="nonzero"/><path fill="#ffffff" d="M 155.128906 111.160156 L 154.496094 110.640625 L 144.125 121 L 144.570312 121.703125 L 155.128906 111.160156 " fill-opacity="1" fill-rule="nonzero"/><path fill="#ffffff" d="M 187.015625 146.539062 L 170.648438 162.882812 L 170.65625 162.894531 L 171.464844 163.222656 L 187.308594 147.398438 L 187.015625 146.539062 " fill-opacity="1" fill-rule="nonzero"/><path fill="#ffffff" d="M 141.453125 99.957031 L 140.820312 99.4375 L 139.359375 100.894531 L 138.761719 102.644531 L 141.453125 99.957031 " fill-opacity="1" fill-rule="nonzero"/><path fill="#ffffff" d="M 168.804688 122.367188 L 168.171875 121.847656 L 153.769531 136.230469 L 154.214844 136.9375 L 168.804688 122.367188 " fill-opacity="1" fill-rule="nonzero"/><path fill="#ffffff" d="M 185.71875 142.765625 L 185.425781 141.910156 L 168.238281 159.078125 L 168.683594 159.78125 L 185.71875 142.765625 " fill-opacity="1" fill-rule="nonzero"/><path fill="#ffffff" d="M 184.132812 138.136719 L 183.839844 137.28125 L 165.828125 155.269531 L 166.273438 155.972656 L 184.132812 138.136719 " fill-opacity="1" fill-rule="nonzero"/><path fill="#ffffff" d="M 182.480469 133.570312 L 181.847656 133.050781 L 163.414062 151.460938 L 163.859375 152.164062 L 182.480469 133.570312 " fill-opacity="1" fill-rule="nonzero"/><path fill="#ffffff" d="M 179.0625 130.769531 L 178.429688 130.25 L 161.003906 147.652344 L 161.449219 148.359375 L 179.0625 130.769531 " fill-opacity="1" fill-rule="nonzero"/><path fill="#ffffff" d="M 172.222656 125.167969 L 171.589844 124.648438 L 156.179688 140.039062 L 156.628906 140.742188 L 172.222656 125.167969 " fill-opacity="1" fill-rule="nonzero"/><path fill="#ffffff" d="M 175.640625 127.96875 L 175.011719 127.449219 L 158.59375 143.847656 L 159.039062 144.550781 L 175.640625 127.96875 " fill-opacity="1" fill-rule="nonzero"/><path fill="#ffffff" d="M 192.070312 161.289062 L 191.773438 160.433594 L 183.941406 168.257812 L 184.761719 168.589844 L 192.070312 161.289062 " fill-opacity="1" fill-rule="nonzero"/><path fill="#ffffff" d="M 193.65625 165.921875 L 193.363281 165.0625 L 188.371094 170.046875 L 189.191406 170.378906 L 193.65625 165.921875 " fill-opacity="1" fill-rule="nonzero"/><path fill="#ffffff" d="M 195.242188 170.550781 L 194.949219 169.695312 L 192.804688 171.835938 L 193.625 172.167969 L 195.242188 170.550781 " fill-opacity="1" fill-rule="nonzero"/><path fill="#ffffff" d="M 188.894531 152.027344 L 188.601562 151.171875 L 175.074219 164.679688 L 175.894531 165.011719 L 188.894531 152.027344 " fill-opacity="1" fill-rule="nonzero"/><path fill="#ffffff" d="M 190.480469 156.660156 L 190.1875 155.800781 L 179.507812 166.46875 L 180.328125 166.800781 L 190.480469 156.660156 " fill-opacity="1" fill-rule="nonzero"/><g clip-path="url(#id4)"><path fill="#ffffff" d="M 174.429688 231.117188 L 140.34375 259.8125 L 139.894531 233.367188 L 180.863281 200.652344 Z M 82.699219 240.050781 L 87.839844 216.8125 L 123.113281 229.0625 L 136.640625 233.757812 L 137.09375 260.355469 L 137.113281 261.410156 L 108.835938 257.78125 Z M 116.351562 204.761719 L 178.085938 198.703125 L 142.046875 227.480469 L 137.9375 230.765625 L 108.25 220.457031 L 91.335938 214.582031 Z M 185.015625 196.667969 C 185.019531 196.621094 185.019531 196.578125 185.019531 196.53125 C 185.019531 196.492188 185.019531 196.453125 185.015625 196.414062 C 185.011719 196.367188 185.003906 196.320312 184.996094 196.273438 C 184.988281 196.238281 184.984375 196.199219 184.976562 196.160156 C 184.964844 196.113281 184.945312 196.0625 184.929688 196.015625 C 184.917969 195.988281 184.914062 195.957031 184.902344 195.933594 C 184.902344 195.929688 184.898438 195.925781 184.898438 195.917969 C 184.871094 195.859375 184.84375 195.804688 184.8125 195.75 C 184.800781 195.730469 184.792969 195.710938 184.78125 195.691406 C 184.691406 195.546875 184.578125 195.414062 184.445312 195.304688 C 184.4375 195.296875 184.429688 195.292969 184.425781 195.289062 C 184.367188 195.242188 184.3125 195.199219 184.25 195.160156 C 184.246094 195.15625 184.242188 195.15625 184.238281 195.15625 C 184.230469 195.148438 184.21875 195.148438 184.214844 195.140625 C 184.144531 195.101562 184.078125 195.070312 184.007812 195.039062 C 184 195.035156 183.988281 195.035156 183.980469 195.03125 C 183.910156 195.003906 183.839844 194.980469 183.765625 194.960938 C 183.746094 194.957031 183.726562 194.957031 183.707031 194.953125 C 183.644531 194.941406 183.582031 194.929688 183.515625 194.925781 C 183.488281 194.921875 183.457031 194.925781 183.429688 194.925781 C 183.375 194.921875 183.316406 194.921875 183.261719 194.925781 C 183.253906 194.925781 183.242188 194.925781 183.234375 194.925781 L 115.804688 201.546875 C 115.65625 201.5625 115.507812 201.597656 115.371094 201.652344 L 86.050781 213.164062 C 85.992188 213.183594 85.941406 213.210938 85.890625 213.238281 C 85.878906 213.246094 85.863281 213.25 85.851562 213.257812 C 85.847656 213.257812 85.84375 213.261719 85.839844 213.261719 C 85.75 213.316406 85.667969 213.375 85.589844 213.441406 C 85.570312 213.457031 85.554688 213.476562 85.535156 213.492188 C 85.476562 213.546875 85.421875 213.605469 85.371094 213.667969 C 85.355469 213.691406 85.335938 213.710938 85.324219 213.734375 C 85.261719 213.816406 85.210938 213.902344 85.167969 213.992188 C 85.164062 214.003906 85.160156 214.011719 85.15625 214.023438 C 85.121094 214.105469 85.089844 214.195312 85.066406 214.285156 C 85.0625 214.300781 85.058594 214.3125 85.054688 214.324219 L 79.277344 240.425781 C 79.132812 241.078125 79.402344 241.75 79.953125 242.125 L 107.328125 260.6875 C 107.539062 260.832031 107.78125 260.925781 108.035156 260.957031 L 138.566406 264.875 C 138.632812 264.886719 138.703125 264.890625 138.773438 264.890625 C 138.773438 264.890625 138.773438 264.890625 138.777344 264.890625 C 138.871094 264.890625 138.96875 264.878906 139.0625 264.863281 C 139.09375 264.859375 139.125 264.847656 139.160156 264.835938 C 139.21875 264.824219 139.28125 264.808594 139.339844 264.789062 C 139.378906 264.773438 139.410156 264.753906 139.449219 264.738281 C 139.5 264.714844 139.550781 264.691406 139.601562 264.660156 C 139.640625 264.640625 139.671875 264.613281 139.707031 264.585938 C 139.746094 264.558594 139.785156 264.539062 139.824219 264.507812 L 176.957031 233.246094 C 177.234375 233.011719 177.425781 232.691406 177.503906 232.335938 L 184.988281 196.882812 C 184.996094 196.851562 184.996094 196.820312 185 196.789062 C 185.007812 196.75 185.011719 196.707031 185.015625 196.667969 " fill-opacity="1" fill-rule="nonzero"/></g><path fill="#ffffff" d="M 104.78125 222.695312 L 103.925781 222.398438 L 84.8125 241.488281 L 85.5 241.953125 L 104.78125 222.695312 " fill-opacity="1" fill-rule="nonzero"/><path fill="#ffffff" d="M 95.542969 219.488281 L 94.691406 219.191406 L 85.222656 228.648438 L 84.894531 230.125 L 95.542969 219.488281 " fill-opacity="1" fill-rule="nonzero"/><path fill="#ffffff" d="M 90.925781 217.886719 L 90.070312 217.589844 L 86.988281 220.667969 L 86.660156 222.144531 L 90.925781 217.886719 " fill-opacity="1" fill-rule="nonzero"/><path fill="#ffffff" d="M 100.164062 221.09375 L 99.308594 220.796875 L 83.453125 236.628906 L 83.128906 238.105469 L 100.164062 221.09375 " fill-opacity="1" fill-rule="nonzero"/><path fill="#ffffff" d="M 123.253906 229.109375 L 123.113281 229.0625 L 122.398438 228.8125 L 99.640625 251.542969 L 100.328125 252.007812 L 123.253906 229.109375 " fill-opacity="1" fill-rule="nonzero"/><path fill="#ffffff" d="M 132.492188 232.316406 L 131.636719 232.019531 L 107.054688 256.570312 L 107.738281 257.035156 L 132.492188 232.316406 " fill-opacity="1" fill-rule="nonzero"/><path fill="#ffffff" d="M 109.398438 224.300781 L 108.542969 224.003906 L 88.519531 244 L 89.207031 244.464844 L 109.398438 224.300781 " fill-opacity="1" fill-rule="nonzero"/><path fill="#ffffff" d="M 127.871094 230.714844 L 127.015625 230.417969 L 103.347656 254.058594 L 104.03125 254.523438 L 127.871094 230.714844 " fill-opacity="1" fill-rule="nonzero"/><path fill="#ffffff" d="M 114.015625 225.902344 L 113.164062 225.605469 L 92.226562 246.515625 L 92.914062 246.980469 L 114.015625 225.902344 " fill-opacity="1" fill-rule="nonzero"/><path fill="#ffffff" d="M 118.636719 227.507812 L 117.78125 227.210938 L 95.933594 249.027344 L 96.621094 249.496094 L 118.636719 227.507812 " fill-opacity="1" fill-rule="nonzero"/><path fill="#ffffff" d="M 137.066406 258.824219 L 137.050781 257.695312 L 133.757812 260.980469 L 134.78125 261.109375 L 137.066406 258.824219 " fill-opacity="1" fill-rule="nonzero"/><path fill="#ffffff" d="M 136.964844 252.710938 L 136.945312 251.582031 L 128.246094 260.273438 L 129.265625 260.402344 L 136.964844 252.710938 " fill-opacity="1" fill-rule="nonzero"/><path fill="#ffffff" d="M 136.652344 234.375 L 136.640625 233.757812 L 136.253906 233.625 L 111.699219 258.148438 L 112.71875 258.277344 L 136.652344 234.375 " fill-opacity="1" fill-rule="nonzero"/><path fill="#ffffff" d="M 136.859375 246.601562 L 136.839844 245.46875 L 122.730469 259.5625 L 123.75 259.695312 L 136.859375 246.601562 " fill-opacity="1" fill-rule="nonzero"/><path fill="#ffffff" d="M 136.757812 240.488281 L 136.738281 239.359375 L 117.214844 258.855469 L 118.234375 258.988281 L 136.757812 240.488281 " fill-opacity="1" fill-rule="nonzero"/><path fill="#ffffff" d="M 227.335938 227.183594 L 226.835938 226.535156 L 218.011719 235.347656 L 218.226562 236.285156 L 227.335938 227.183594 " fill-opacity="1" fill-rule="nonzero"/><path fill="#ffffff" d="M 221.90625 220.175781 L 221.40625 219.527344 L 215.707031 225.214844 L 215.921875 226.15625 L 221.90625 220.175781 " fill-opacity="1" fill-rule="nonzero"/><path fill="#ffffff" d="M 219.191406 216.671875 L 218.691406 216.023438 L 214.554688 220.152344 L 214.769531 221.089844 L 219.191406 216.671875 " fill-opacity="1" fill-rule="nonzero"/><path fill="#ffffff" d="M 224.621094 223.679688 L 224.121094 223.03125 L 216.859375 230.28125 L 217.074219 231.21875 L 224.621094 223.679688 " fill-opacity="1" fill-rule="nonzero"/><path fill="#ffffff" d="M 216.476562 213.167969 L 215.976562 212.519531 L 213.402344 215.085938 L 213.617188 216.023438 L 216.476562 213.167969 " fill-opacity="1" fill-rule="nonzero"/><path fill="#ffffff" d="M 213.761719 209.664062 L 213.257812 209.015625 L 212.25 210.023438 L 212.464844 210.957031 L 213.761719 209.664062 " fill-opacity="1" fill-rule="nonzero"/><path fill="#ffffff" d="M 226.699219 265.117188 L 226.910156 263.753906 L 224.925781 265.738281 L 225.140625 266.675781 L 226.699219 265.117188 " fill-opacity="1" fill-rule="nonzero"/><path fill="#ffffff" d="M 227.855469 257.746094 L 228.070312 256.378906 L 223.773438 260.671875 L 223.988281 261.609375 L 227.855469 257.746094 " fill-opacity="1" fill-rule="nonzero"/><path fill="#ffffff" d="M 229.015625 250.371094 L 229.230469 249.007812 L 222.621094 255.605469 L 222.835938 256.546875 L 229.015625 250.371094 " fill-opacity="1" fill-rule="nonzero"/><path fill="#ffffff" d="M 231.332031 235.628906 L 231.546875 234.261719 L 220.316406 245.476562 L 220.53125 246.414062 L 231.332031 235.628906 " fill-opacity="1" fill-rule="nonzero"/><path fill="#ffffff" d="M 230.171875 243 L 230.386719 241.636719 L 221.46875 250.542969 L 221.683594 251.480469 L 230.171875 243 " fill-opacity="1" fill-rule="nonzero"/><path fill="#ffffff" d="M 230.054688 230.6875 L 229.550781 230.039062 L 219.164062 240.414062 L 219.378906 241.347656 L 230.054688 230.6875 " fill-opacity="1" fill-rule="nonzero"/></svg>