<svg xmlns="http://www.w3.org/2000/svg" xmlns:xlink="http://www.w3.org/1999/xlink" width="500" zoomAndPan="magnify" viewBox="0 0 375 374.999991" height="500" preserveAspectRatio="xMidYMid meet" version="1.0"><defs><clipPath id="0c8d099c46"><path d="M 5 27.234375 L 370 27.234375 L 370 347.484375 L 5 347.484375 Z M 5 27.234375 " clip-rule="nonzero"/></clipPath><clipPath id="4e3c05ca30"><path d="M 144 112.5 L 231 112.5 L 231 160 L 144 160 Z M 144 112.5 " clip-rule="nonzero"/></clipPath><clipPath id="44559e5f85"><path d="M 112.5 157 L 262.5 157 L 262.5 262.5 L 112.5 262.5 Z M 112.5 157 " clip-rule="nonzero"/></clipPath></defs><rect x="-37.5" width="450" fill="#ffffff" y="-37.499999" height="449.999989" fill-opacity="1"/><rect x="-37.5" width="450" fill="#ffffff" y="-37.499999" height="449.999989" fill-opacity="1"/><rect x="-37.5" width="450" fill="#ffffff" y="-37.499999" height="449.999989" fill-opacity="1"/><g clip-path="url(#0c8d099c46)"><path fill="#3b78ae" d="M 369.957031 187.359375 C 368.457031 188.78125 346.152344 210.769531 346.152344 233.878906 L 346.078125 233.878906 L 346.078125 299.992188 C 346.078125 325.125 326.542969 345.617188 301.84375 347.335938 C 301.320312 347.410156 300.796875 347.410156 300.273438 347.410156 C 299.675781 347.484375 299.152344 347.484375 298.550781 347.484375 L 76.335938 347.484375 C 75.738281 347.484375 75.214844 347.410156 74.613281 347.410156 C 74.089844 347.410156 73.566406 347.335938 73.042969 347.335938 C 48.34375 345.691406 28.808594 325.125 28.808594 299.992188 L 28.808594 233.878906 C 28.808594 210.769531 6.429688 188.78125 5.007812 187.359375 C 6.429688 185.9375 28.808594 163.949219 28.808594 140.839844 L 28.882812 140.839844 L 28.882812 74.726562 C 28.882812 49.597656 48.417969 29.105469 73.117188 27.386719 C 73.640625 27.308594 74.164062 27.308594 74.6875 27.308594 C 75.289062 27.234375 75.8125 27.234375 76.410156 27.234375 L 298.628906 27.234375 C 299.226562 27.234375 299.75 27.308594 300.347656 27.308594 C 300.871094 27.308594 301.398438 27.386719 301.921875 27.386719 C 326.621094 29.03125 346.152344 49.597656 346.152344 74.726562 L 346.152344 140.839844 C 346.152344 163.949219 368.457031 185.9375 369.957031 187.359375 " fill-opacity="1" fill-rule="nonzero"/></g><path fill="#ffffff" d="M 187.5 145.136719 C 185.414062 145.136719 183.71875 146.835938 183.71875 148.921875 C 183.71875 151.007812 185.414062 152.703125 187.5 152.703125 C 189.585938 152.703125 191.28125 151.007812 191.28125 148.921875 C 191.28125 146.835938 189.585938 145.136719 187.5 145.136719 Z M 187.5 150.320312 C 186.726562 150.320312 186.097656 149.691406 186.097656 148.921875 C 186.097656 148.148438 186.726562 147.519531 187.5 147.519531 C 188.273438 147.519531 188.902344 148.148438 188.902344 148.921875 C 188.902344 149.691406 188.273438 150.320312 187.5 150.320312 Z M 187.5 150.320312 " fill-opacity="1" fill-rule="nonzero"/><g clip-path="url(#4e3c05ca30)"><path fill="#ffffff" d="M 145.40625 122.351562 L 151.527344 122.351562 L 151.527344 124.644531 L 150.15625 124.644531 C 149.496094 124.644531 148.964844 125.179688 148.964844 125.835938 L 148.964844 136.800781 C 148.964844 137.460938 149.496094 137.992188 150.15625 137.992188 L 155.28125 137.992188 C 155.9375 137.992188 156.472656 137.460938 156.472656 136.800781 L 156.472656 135.214844 L 161.695312 135.214844 L 161.695312 155.347656 C 161.695312 156.003906 162.226562 156.535156 162.882812 156.535156 L 163.671875 156.535156 L 163.671875 158.578125 C 163.671875 159.238281 164.207031 159.769531 164.863281 159.769531 C 165.519531 159.769531 166.054688 159.238281 166.054688 158.578125 L 166.054688 156.535156 L 166.84375 156.535156 C 167.5 156.535156 168.035156 156.003906 168.035156 155.347656 L 168.035156 149.742188 L 179.214844 153.886719 L 179.480469 155.535156 C 179.574219 156.113281 180.070312 156.535156 180.65625 156.535156 L 187.503906 156.535156 L 194.453125 156.507812 C 195.039062 156.507812 195.539062 156.074219 195.625 155.488281 L 195.859375 153.859375 L 206.964844 149.742188 L 206.964844 155.347656 C 206.964844 156.007812 207.496094 156.539062 208.15625 156.539062 L 208.945312 156.539062 L 208.945312 158.578125 C 208.945312 159.238281 209.476562 159.769531 210.132812 159.769531 C 210.792969 159.769531 211.324219 159.238281 211.324219 158.578125 L 211.324219 156.539062 L 212.113281 156.539062 C 212.769531 156.539062 213.304688 156.007812 213.304688 155.347656 L 213.304688 135.214844 L 218.527344 135.214844 L 218.527344 136.800781 C 218.527344 137.460938 219.058594 137.992188 219.714844 137.992188 L 224.84375 137.992188 C 225.5 137.992188 226.035156 137.460938 226.035156 136.800781 L 226.035156 125.835938 C 226.035156 125.179688 225.5 124.644531 224.84375 124.644531 L 223.46875 124.644531 L 223.46875 122.351562 L 229.59375 122.351562 C 230.25 122.351562 230.785156 121.816406 230.785156 121.160156 L 230.785156 117 C 230.785156 116.34375 230.25 115.8125 229.59375 115.8125 L 223.46875 115.8125 L 223.46875 113.691406 C 223.46875 113.03125 222.9375 112.5 222.28125 112.5 C 221.621094 112.5 221.089844 113.03125 221.089844 113.691406 L 221.089844 115.8125 L 214.96875 115.8125 C 214.3125 115.8125 213.777344 116.34375 213.777344 117 L 213.777344 121.160156 C 213.777344 121.816406 214.3125 122.351562 214.96875 122.351562 L 221.089844 122.351562 L 221.089844 124.644531 L 219.714844 124.644531 C 219.058594 124.644531 218.527344 125.179688 218.527344 125.835938 L 218.527344 127.390625 L 207.328125 127.390625 C 204.625 127.390625 202.761719 124.507812 201.894531 122.789062 C 200.558594 120.160156 197.867188 118.523438 194.875 118.523438 L 180.125 118.523438 C 177.128906 118.523438 174.441406 120.160156 173.105469 122.789062 C 172.238281 124.507812 170.371094 127.390625 167.671875 127.390625 L 156.472656 127.390625 L 156.472656 125.835938 C 156.472656 125.179688 155.941406 124.644531 155.285156 124.644531 L 153.910156 124.644531 L 153.910156 122.351562 L 160.03125 122.351562 C 160.6875 122.351562 161.222656 121.816406 161.222656 121.160156 L 161.222656 117 C 161.222656 116.34375 160.6875 115.8125 160.03125 115.8125 L 153.910156 115.8125 L 153.910156 113.691406 C 153.910156 113.03125 153.378906 112.5 152.71875 112.5 C 152.0625 112.5 151.53125 113.03125 151.53125 113.691406 L 151.53125 115.8125 L 145.40625 115.8125 C 144.75 115.8125 144.214844 116.34375 144.214844 117 L 144.214844 121.160156 C 144.214844 121.816406 144.75 122.351562 145.40625 122.351562 Z M 216.160156 118.191406 L 228.402344 118.191406 L 228.402344 119.96875 L 216.160156 119.96875 Z M 178.589844 141.300781 C 176.816406 141.300781 175.125 140.457031 174.058594 139.039062 L 171.347656 135.4375 C 175.171875 136.046875 178.175781 138.058594 180.042969 141.300781 Z M 168.203125 135.214844 L 172.15625 140.472656 C 173.460938 142.207031 175.433594 143.332031 177.5625 143.609375 L 177.980469 146.210938 L 168.035156 142.523438 L 168.035156 135.214844 Z M 165.652344 154.15625 L 164.074219 154.15625 L 164.074219 135.214844 L 165.652344 135.214844 Z M 168.035156 147.203125 L 168.035156 145.0625 L 178.414062 148.910156 L 178.78125 151.1875 Z M 181.671875 154.15625 L 180.679688 148.007812 C 180.679688 147.976562 180.671875 147.949219 180.667969 147.917969 L 179.984375 143.683594 L 194.933594 143.683594 L 193.414062 154.132812 Z M 206.964844 142.523438 L 196.972656 146.226562 L 197.351562 143.625 C 199.515625 143.367188 201.523438 142.230469 202.84375 140.472656 L 206.800781 135.214844 L 206.96875 135.214844 L 206.96875 142.523438 Z M 200.941406 139.042969 C 199.875 140.457031 198.183594 141.300781 196.410156 141.300781 L 194.957031 141.300781 C 196.824219 138.058594 199.828125 136.046875 203.652344 135.433594 Z M 196.253906 151.171875 L 196.582031 148.910156 L 206.964844 145.0625 L 206.964844 147.203125 Z M 210.925781 154.15625 L 209.347656 154.15625 L 209.347656 135.214844 L 210.925781 135.214844 Z M 194.875 120.902344 C 195.292969 120.902344 195.699219 120.960938 196.097656 121.046875 L 191.03125 127.390625 L 183.964844 127.390625 L 178.902344 121.046875 C 179.300781 120.960938 179.707031 120.902344 180.125 120.902344 Z M 154.089844 128.582031 C 154.089844 129.238281 154.625 129.769531 155.28125 129.769531 L 167.671875 129.769531 C 170.617188 129.769531 173.300781 127.671875 175.230469 123.867188 C 175.589844 123.160156 176.089844 122.5625 176.6875 122.089844 L 182.464844 129.324219 C 182.691406 129.605469 183.035156 129.769531 183.394531 129.769531 L 191.605469 129.769531 C 191.964844 129.769531 192.308594 129.605469 192.535156 129.324219 L 198.3125 122.089844 C 198.910156 122.5625 199.410156 123.160156 199.769531 123.867188 C 201.699219 127.671875 204.382812 129.769531 207.328125 129.769531 L 219.71875 129.769531 C 220.375 129.769531 220.910156 129.238281 220.910156 128.582031 L 220.910156 127.027344 L 223.65625 127.027344 L 223.65625 135.609375 L 220.910156 135.609375 L 220.910156 134.023438 C 220.910156 133.367188 220.375 132.832031 219.71875 132.832031 L 206.203125 132.832031 C 199.742188 132.832031 194.828125 135.835938 192.277344 141.300781 L 182.726562 141.300781 C 180.171875 135.835938 175.257812 132.832031 168.796875 132.832031 L 155.285156 132.832031 C 154.628906 132.832031 154.09375 133.367188 154.09375 134.023438 L 154.09375 135.609375 L 151.34375 135.609375 L 151.34375 127.027344 L 154.089844 127.027344 Z M 146.597656 118.191406 L 158.839844 118.191406 L 158.839844 119.96875 L 146.597656 119.96875 Z M 146.597656 118.191406 " fill-opacity="1" fill-rule="nonzero"/></g><path fill="#ffffff" d="M 185.214844 125.675781 L 189.8125 125.675781 C 190.46875 125.675781 191 125.144531 191 124.484375 C 191 123.828125 190.46875 123.292969 189.8125 123.292969 L 185.214844 123.292969 C 184.558594 123.292969 184.023438 123.828125 184.023438 124.484375 C 184.023438 125.144531 184.558594 125.675781 185.214844 125.675781 Z M 185.214844 125.675781 " fill-opacity="1" fill-rule="nonzero"/><g clip-path="url(#44559e5f85)"><path fill="#ffffff" d="M 261.308594 184.15625 L 232.605469 184.15625 L 203.78125 158.046875 C 203.292969 157.605469 202.539062 157.640625 202.097656 158.128906 C 201.65625 158.617188 201.695312 159.367188 202.183594 159.8125 L 229.058594 184.15625 L 212.425781 184.15625 C 205.414062 175.921875 197.859375 169.640625 187.5 169.640625 C 177.140625 169.640625 169.585938 175.921875 162.574219 184.15625 L 145.941406 184.15625 L 172.816406 159.8125 C 173.304688 159.367188 173.339844 158.617188 172.902344 158.128906 C 172.460938 157.640625 171.707031 157.605469 171.21875 158.046875 L 142.394531 184.15625 L 113.691406 184.15625 C 113.035156 184.15625 112.5 184.6875 112.5 185.34375 L 112.5 261.308594 C 112.5 261.96875 113.035156 262.5 113.691406 262.5 L 261.308594 262.5 C 261.964844 262.5 262.5 261.96875 262.5 261.308594 L 262.5 185.34375 C 262.5 184.6875 261.964844 184.15625 261.308594 184.15625 Z M 220.011719 260.117188 C 218.003906 256.96875 216.105469 253.792969 214.324219 250.589844 L 244.691406 250.589844 C 244.089844 253.949219 244.3125 257.140625 245.351562 260.117188 Z M 129.648438 260.117188 C 130.683594 257.144531 130.90625 253.957031 130.308594 250.589844 L 160.675781 250.589844 C 158.894531 253.792969 156.996094 256.96875 154.988281 260.117188 Z M 132.480469 216.902344 C 127.421875 219.957031 121.675781 221.90625 114.882812 222.109375 L 114.882812 212.292969 L 133.414062 195.503906 C 134.164062 202.011719 133.859375 209.09375 132.480469 216.902344 Z M 165.679688 184.226562 C 169.355469 185.699219 172.066406 188.152344 173.9375 191.695312 C 172.566406 197.234375 170.539062 202.453125 167.875 207.363281 C 164.4375 202.480469 160.457031 198.945312 155.785156 196.636719 C 156.160156 196.144531 156.535156 195.65625 156.90625 195.167969 C 159.828125 191.332031 162.699219 187.570312 165.679688 184.226562 Z M 218.09375 195.164062 C 218.464844 195.652344 218.839844 196.144531 219.214844 196.636719 C 214.542969 198.945312 210.5625 202.480469 207.125 207.363281 C 204.460938 202.453125 202.429688 197.234375 201.0625 191.695312 C 202.929688 188.152344 205.644531 185.699219 209.320312 184.226562 C 212.300781 187.570312 215.171875 191.332031 218.09375 195.164062 Z M 241.585938 195.503906 L 260.117188 212.292969 L 260.117188 222.109375 C 253.324219 221.902344 247.578125 219.957031 242.523438 216.902344 C 241.144531 209.082031 240.835938 202.003906 241.585938 195.503906 Z M 260.117188 224.492188 L 260.117188 247.703125 C 255.921875 246.183594 251.9375 244.554688 248.171875 242.816406 C 248.175781 236.964844 246.5 231.265625 244.851562 225.703125 C 244.296875 223.820312 243.730469 221.898438 243.234375 219.992188 C 248.152344 222.628906 253.703125 224.304688 260.117188 224.492188 Z M 240.371094 218.3125 C 240.992188 221.027344 241.789062 223.746094 242.570312 226.378906 C 244.113281 231.597656 245.59375 236.621094 245.78125 241.6875 C 237.515625 237.671875 230.332031 233.101562 224.242188 227.988281 C 226.046875 222.226562 229.433594 217.441406 234.324219 213.738281 C 236.230469 215.40625 238.242188 216.945312 240.371094 218.3125 Z M 222.296875 226.296875 C 216.660156 221.253906 212.035156 215.707031 208.433594 209.664062 C 211.886719 204.46875 215.914062 200.828125 220.699219 198.570312 C 224.316406 203.257812 228.167969 207.992188 232.535156 212.113281 C 227.707031 215.867188 224.269531 220.628906 222.296875 226.296875 Z M 178.070312 215.007812 C 181.394531 214.878906 184.101562 215.792969 186.308594 217.796875 L 186.308594 239.484375 C 181.867188 236.191406 176.769531 234.605469 171.132812 234.703125 C 173.890625 228.222656 176.183594 221.652344 178.070312 215.007812 Z M 188.691406 217.796875 C 190.898438 215.792969 193.605469 214.882812 196.929688 215.007812 C 198.816406 221.652344 201.113281 228.222656 203.867188 234.703125 C 198.230469 234.609375 193.132812 236.191406 188.691406 239.484375 Z M 195.023438 195.144531 C 196.046875 193.792969 197.289062 193.027344 198.867188 192.789062 C 200.273438 198.339844 202.324219 203.578125 204.996094 208.511719 C 202.421875 208.824219 200.21875 209.816406 198.402344 211.449219 C 196.980469 206.0625 195.863281 200.628906 195.023438 195.144531 Z M 196.253906 212.617188 C 193.386719 212.636719 190.855469 213.355469 188.691406 214.785156 L 188.691406 197.625 C 189.839844 196.679688 191.183594 196.171875 192.765625 196.078125 C 193.636719 201.640625 194.792969 207.15625 196.253906 212.617188 Z M 186.308594 214.785156 C 184.144531 213.355469 181.609375 212.632812 178.746094 212.617188 C 180.207031 207.15625 181.363281 201.640625 182.234375 196.078125 C 183.816406 196.171875 185.160156 196.679688 186.308594 197.625 Z M 176.597656 211.449219 C 174.78125 209.816406 172.578125 208.824219 170.003906 208.511719 C 172.675781 203.578125 174.726562 198.339844 176.136719 192.789062 C 177.710938 193.027344 178.953125 193.792969 179.976562 195.144531 C 179.136719 200.628906 178.019531 206.0625 176.597656 211.449219 Z M 168.703125 210.808594 C 171.6875 210.929688 174.039062 212.007812 175.855469 214.085938 C 173.964844 220.785156 171.652344 227.40625 168.867188 233.9375 C 164.902344 230.464844 160.257812 228.292969 155 227.476562 C 160.546875 222.414062 165.117188 216.855469 168.703125 210.808594 Z M 170.054688 237.117188 C 176.296875 236.746094 181.632812 238.519531 186.308594 242.554688 L 186.308594 248.210938 L 164.664062 248.210938 C 166.605469 244.542969 168.402344 240.84375 170.054688 237.117188 Z M 188.691406 242.554688 C 193.367188 238.523438 198.699219 236.746094 204.945312 237.117188 C 206.597656 240.84375 208.394531 244.542969 210.335938 248.210938 L 188.691406 248.210938 Z M 199.144531 214.085938 C 200.957031 212.003906 203.292969 210.910156 206.296875 210.804688 C 209.882812 216.851562 214.453125 222.414062 220 227.480469 C 214.742188 228.292969 210.097656 230.464844 206.132812 233.9375 C 203.347656 227.40625 201.03125 220.785156 199.144531 214.085938 Z M 194.609375 192.15625 C 193.757812 185.769531 193.296875 179.324219 193.234375 172.824219 C 194.363281 173.136719 195.464844 173.511719 196.53125 173.992188 C 196.582031 179.746094 197.183594 185.238281 198.328125 190.464844 C 196.925781 190.707031 195.683594 191.277344 194.609375 192.15625 Z M 192.410156 193.714844 C 191.058594 193.820312 189.8125 194.171875 188.691406 194.773438 L 188.691406 172.085938 C 189.421875 172.125 190.140625 172.199219 190.84375 172.308594 C 190.886719 179.511719 191.414062 186.648438 192.410156 193.714844 Z M 186.308594 194.773438 C 185.1875 194.171875 183.941406 193.820312 182.589844 193.714844 C 183.589844 186.648438 184.113281 179.511719 184.160156 172.308594 C 184.863281 172.199219 185.578125 172.125 186.3125 172.085938 L 186.3125 194.773438 Z M 180.390625 192.15625 C 179.316406 191.277344 178.074219 190.707031 176.671875 190.464844 C 177.816406 185.238281 178.417969 179.746094 178.46875 173.992188 C 179.535156 173.511719 180.636719 173.136719 181.765625 172.824219 C 181.703125 179.324219 181.242188 185.769531 180.390625 192.15625 Z M 154.300781 198.566406 C 159.085938 200.828125 163.113281 204.464844 166.566406 209.660156 C 162.964844 215.707031 158.339844 221.253906 152.703125 226.296875 C 150.730469 220.628906 147.292969 215.867188 142.464844 212.109375 C 146.832031 207.992188 150.683594 203.257812 154.300781 198.566406 Z M 140.679688 213.738281 C 145.566406 217.445312 148.957031 222.230469 150.757812 227.984375 C 144.667969 233.101562 137.484375 237.671875 129.214844 241.6875 C 129.402344 236.625 130.886719 231.597656 132.429688 226.378906 C 133.207031 223.757812 134 221.050781 134.625 218.3125 C 136.757812 216.945312 138.769531 215.40625 140.679688 213.738281 Z M 114.882812 247.703125 L 114.882812 224.492188 C 121.292969 224.304688 126.847656 222.628906 131.765625 219.992188 C 131.265625 221.910156 130.703125 223.828125 130.148438 225.703125 C 128.5 231.269531 126.824219 236.972656 126.828125 242.816406 C 123.058594 244.554688 119.078125 246.183594 114.882812 247.703125 Z M 126.941406 245.382812 C 127.027344 246.324219 127.15625 247.265625 127.347656 248.210938 L 120.261719 248.210938 C 122.554688 247.304688 124.78125 246.363281 126.941406 245.382812 Z M 129.246094 244.328125 C 138.261719 240.050781 146.039062 235.132812 152.589844 229.59375 C 158.496094 230.078125 163.617188 232.308594 167.847656 236.222656 C 166.058594 240.253906 164.097656 244.25 161.964844 248.210938 L 129.792969 248.210938 C 129.5 246.910156 129.324219 245.617188 129.246094 244.328125 Z M 163.398438 250.589844 L 186.308594 250.589844 L 186.308594 260.117188 L 157.785156 260.117188 C 159.761719 256.964844 161.644531 253.792969 163.398438 250.589844 Z M 188.691406 250.589844 L 211.601562 250.589844 C 213.359375 253.792969 215.238281 256.964844 217.214844 260.117188 L 188.691406 260.117188 Z M 213.035156 248.210938 C 210.902344 244.25 208.941406 240.253906 207.152344 236.222656 C 211.382812 232.308594 216.507812 230.078125 222.410156 229.59375 C 228.960938 235.132812 236.738281 240.050781 245.75 244.328125 C 245.675781 245.617188 245.5 246.910156 245.207031 248.210938 Z M 248.054688 245.382812 C 250.214844 246.363281 252.445312 247.304688 254.738281 248.210938 L 247.648438 248.210938 C 247.839844 247.265625 247.972656 246.324219 248.054688 245.382812 Z M 260.117188 209.078125 L 241.96875 192.640625 C 242.324219 190.542969 242.808594 188.515625 243.394531 186.535156 L 260.117188 186.535156 Z M 240.925781 186.535156 C 240.535156 187.921875 240.199219 189.339844 239.914062 190.777344 L 235.230469 186.535156 Z M 231.6875 186.535156 L 239.4375 193.558594 C 238.488281 200.132812 238.625 207.273438 239.835938 215.136719 C 232.109375 209.632812 225.992188 201.601562 219.988281 193.722656 C 218.117188 191.269531 216.269531 188.847656 214.398438 186.535156 Z M 207.59375 182.359375 C 204.621094 183.714844 202.195312 185.730469 200.328125 188.359375 C 199.507812 184.160156 199.042969 179.789062 198.9375 175.253906 C 202.019531 177.054688 204.867188 179.503906 207.59375 182.359375 Z M 176.0625 175.253906 C 175.957031 179.789062 175.492188 184.160156 174.671875 188.359375 C 172.804688 185.730469 170.382812 183.714844 167.40625 182.359375 C 170.132812 179.503906 172.980469 177.054688 176.0625 175.253906 Z M 160.601562 186.535156 C 158.730469 188.847656 156.882812 191.269531 155.011719 193.722656 C 149.007812 201.601562 142.890625 209.632812 135.164062 215.136719 C 136.375 207.28125 136.511719 200.136719 135.5625 193.558594 L 143.3125 186.535156 Z M 135.085938 190.777344 C 134.800781 189.339844 134.464844 187.925781 134.074219 186.535156 L 139.769531 186.535156 Z M 131.605469 186.535156 C 132.191406 188.515625 132.675781 190.542969 133.03125 192.636719 L 114.882812 209.078125 L 114.882812 186.535156 Z M 114.882812 250.589844 L 127.882812 250.589844 C 128.574219 254.03125 128.316406 257.164062 127.101562 260.117188 L 114.882812 260.117188 Z M 247.902344 260.117188 C 246.683594 257.160156 246.425781 254.019531 247.117188 250.589844 L 260.117188 250.589844 L 260.117188 260.117188 Z M 247.902344 260.117188 " fill-opacity="1" fill-rule="nonzero"/></g></svg>